<svg xmlns="http://www.w3.org/2000/svg" xmlns:xlink="http://www.w3.org/1999/xlink" width="212" height="214" viewBox="0 0 212 214">
  <defs>
    <filter id="Rectangle_34047" x="0" y="0" width="212" height="214" filterUnits="userSpaceOnUse">
      <feOffset dy="3" input="SourceAlpha"/>
      <feGaussianBlur stdDeviation="3" result="blur"/>
      <feFlood flood-opacity="0.161"/>
      <feComposite operator="in" in2="blur"/>
      <feComposite in="SourceGraphic"/>
    </filter>
  </defs>
  <g id="Group_141811" data-name="Group 141811" transform="translate(-991 -2724)">
    <g transform="matrix(1, 0, 0, 1, 991, 2724)" filter="url(#Rectangle_34047)">
      <rect id="Rectangle_34047-2" data-name="Rectangle 34047" width="194" height="196" rx="39" transform="translate(9 6)" fill="#1a3d3c"/>
    </g>
    <g id="Group_140936" data-name="Group 140936" transform="translate(-5.613 -372.832)">
      <path id="custom" d="M54.528,103.269a14.352,14.352,0,0,1-7.773,12.764v5.83a19,19,0,0,1-3.046.824,19.649,19.649,0,0,1-7.089,0,19.215,19.215,0,0,1-3.044-.821v-5.832A14.365,14.365,0,0,1,34.5,90.069a1.52,1.52,0,0,1,2.122,1.4V102.3h7.089V91.467a1.521,1.521,0,0,1,2.124-1.4,14.351,14.351,0,0,1,8.695,13.2Zm8.625,32.624L62.8,141.7l12.411-8.194L63.7,126.858Zm42.656-55.86a3.993,3.993,0,0,0-1.869-2.444l-6.176-3.571a4.03,4.03,0,0,0-5.5,1.475l-2.15,3.725,13.147,7.59,2.15-3.723A3.989,3.989,0,0,0,105.809,80.032Zm-41.4,43.719,13.147,7.592,24.188-41.9-13.147-7.59ZM76.372,96.935,61.007,123.547a1.514,1.514,0,0,0-.2.669l-.536,8.91-5-3.159a1.528,1.528,0,0,0-1.514-.063,29.563,29.563,0,0,1-4.514,1.878,1.528,1.528,0,0,0-1.019,1.113l-2.311,10.233H34.418l-2.311-10.233a1.524,1.524,0,0,0-1.02-1.113,29.674,29.674,0,0,1-4.523-1.88,1.53,1.53,0,0,0-1.512.065l-8.871,5.6-8.126-8.124,5.6-8.869a1.524,1.524,0,0,0,.068-1.512,29.556,29.556,0,0,1-1.88-4.523,1.524,1.524,0,0,0-1.113-1.02L.5,109.209V97.715L10.733,95.4a1.521,1.521,0,0,0,1.113-1.017,30.229,30.229,0,0,1,1.876-4.527,1.526,1.526,0,0,0-.067-1.507l-5.6-8.869,8.128-8.124,8.871,5.6a1.519,1.519,0,0,0,1.512.065,29.3,29.3,0,0,1,4.518-1.871,1.525,1.525,0,0,0,1.024-1.115L34.418,63.8H45.912l2.311,10.23a1.525,1.525,0,0,0,1.024,1.115,28.793,28.793,0,0,1,4.51,1.871,1.523,1.523,0,0,0,1.514-.065l8.875-5.6,8.124,8.124-5.6,8.875a1.528,1.528,0,0,0-.063,1.514,28.594,28.594,0,0,1,1.871,4.51A1.518,1.518,0,0,0,69.592,95.4Zm-13.625,6.529a22.586,22.586,0,1,0-28.1,21.9c.05.015.1.026.148.037a22.616,22.616,0,0,0,10.734,0c.052-.011.107-.024.159-.039a22.623,22.623,0,0,0,17.062-21.9Z" transform="translate(1049.114 3097.028)" fill="#fff"/>
      <path id="custom-2" data-name="custom" d="M56.764,105.579a14.352,14.352,0,0,1-7.773,12.764v5.83a19,19,0,0,1-3.046.824,19.649,19.649,0,0,1-7.089,0,19.215,19.215,0,0,1-3.044-.821v-5.832a14.365,14.365,0,0,1,.922-25.964,1.52,1.52,0,0,1,2.122,1.4v10.834h7.089V93.778a1.521,1.521,0,0,1,2.124-1.4,14.351,14.351,0,0,1,8.695,13.2Z" transform="translate(1046.878 3094.718)" fill="#8bff9d"/>
    </g>
  </g>
</svg>
