<svg xmlns="http://www.w3.org/2000/svg" xmlns:xlink="http://www.w3.org/1999/xlink" width="212" height="214" viewBox="0 0 212 214">
  <defs>
    <filter id="Rectangle_34045" x="0" y="0" width="212" height="214" filterUnits="userSpaceOnUse">
      <feOffset dy="3" input="SourceAlpha"/>
      <feGaussianBlur stdDeviation="3" result="blur"/>
      <feFlood flood-opacity="0.161"/>
      <feComposite operator="in" in2="blur"/>
      <feComposite in="SourceGraphic"/>
    </filter>
  </defs>
  <g id="Group_141807" data-name="Group 141807" transform="translate(-283 -2468)">
    <g transform="matrix(1, 0, 0, 1, 283, 2468)" filter="url(#Rectangle_34045)">
      <rect id="Rectangle_34045-2" data-name="Rectangle 34045" width="194" height="196" rx="39" transform="translate(9 6)" fill="#1a3d3c"/>
    </g>
    <g id="app-development" transform="translate(345.963 2526.5)">
      <path id="Path_270524" data-name="Path 270524" d="M54.864,70.763v2.163H14.727V15.266H54.864v16.5a3.93,3.93,0,0,1,1.68-.363h3.01V7.848A5.418,5.418,0,0,0,54.192,2.5H15.385a5.362,5.362,0,0,0-5.348,5.348v75.3A5.353,5.353,0,0,0,15.385,88.5H54.192a5.374,5.374,0,0,0,5.362-5.348V71.3H56.88a3.93,3.93,0,0,1-2.016-.538ZM31.376,7.539H38.2a1.344,1.344,0,1,1,0,2.688H31.376a1.344,1.344,0,1,1,0-2.688Zm7.861,75.022h-8.9a1.344,1.344,0,1,1,0-2.687h8.9a1.344,1.344,0,1,1,0,2.688Z" transform="translate(0 0)" fill="#fff"/>
      <path id="Path_270525" data-name="Path 270525" d="M34.353,30.949a1.343,1.343,0,0,0,1.9-.009l5.616-5.668a1.343,1.343,0,0,0,0-1.891l-5.616-5.668A1.344,1.344,0,0,0,34.343,19.6l4.679,4.723-4.679,4.723a1.343,1.343,0,0,0,.009,1.9Z" transform="translate(8.732 5.408)" fill="#fff"/>
      <path id="Path_270526" data-name="Path 270526" d="M24.21,17.7a1.341,1.341,0,0,0-1.9.009l-5.615,5.668a1.343,1.343,0,0,0,0,1.891L22.31,30.94a1.344,1.344,0,1,0,1.909-1.891l-4.678-4.723L24.219,19.6a1.343,1.343,0,0,0-.009-1.9Z" transform="translate(2.289 5.408)" fill="#fff"/>
      <path id="Path_270527" data-name="Path 270527" d="M31.893,15.045,24.006,34.893a1.344,1.344,0,1,0,2.5.992L34.39,16.037a1.344,1.344,0,1,0-2.5-.992Z" transform="translate(5.065 4.27)" fill="#fff"/>
      <path id="Path_270528" data-name="Path 270528" d="M65.942,39.84l-2.951-.334a12.967,12.967,0,0,0-1.508-3.585v-.012l1.745-2.46a1.409,1.409,0,0,0-.153-1.812l-2.114-2.114a1.409,1.409,0,0,0-1.876-.1L56.77,31.267a13.013,13.013,0,0,0-3.609-1.46l-.5-2.991a1.409,1.409,0,0,0-1.39-1.176h-3a1.409,1.409,0,0,0-1.4,1.252l-.334,2.963a13.342,13.342,0,0,0-3.585,1.508l-2.47-1.755a1.409,1.409,0,0,0-1.814.154l-2.106,2.112a1.409,1.409,0,0,0-.1,1.873l1.853,2.329a12.688,12.688,0,0,0-1.472,3.609l-2.98.5a1.409,1.409,0,0,0-1.175,1.39v2.987a1.409,1.409,0,0,0,1.251,1.4l2.94.333a13.225,13.225,0,0,0,1.52,3.6v.012L36.65,52.354a1.409,1.409,0,0,0,.152,1.814l2.114,2.114a1.409,1.409,0,0,0,1.874.106l2.328-1.852a13.089,13.089,0,0,0,3.6,1.46l.5,2.991a1.409,1.409,0,0,0,1.39,1.176h3A1.41,1.41,0,0,0,53,58.911l.334-2.963a12.623,12.623,0,0,0,3.585-1.508l2.47,1.755a1.409,1.409,0,0,0,1.814-.154l2.106-2.113a1.409,1.409,0,0,0,.105-1.872l-1.842-2.317a13.239,13.239,0,0,0,1.46-3.621l2.98-.5a1.409,1.409,0,0,0,1.175-1.39V41.24a1.409,1.409,0,0,0-1.251-1.4Zm-16,8.855A5.793,5.793,0,1,1,55.725,42.9,5.794,5.794,0,0,1,49.944,48.695Z" transform="translate(8.267 8.448)" fill="#8bff9d"/>
    </g>
  </g>
</svg>
