<svg xmlns="http://www.w3.org/2000/svg" xmlns:xlink="http://www.w3.org/1999/xlink" width="212" height="214" viewBox="0 0 212 214">
  <defs>
    <filter id="Rectangle_34044" x="0" y="0" width="212" height="214" filterUnits="userSpaceOnUse">
      <feOffset dy="3" input="SourceAlpha"/>
      <feGaussianBlur stdDeviation="3" result="blur"/>
      <feFlood flood-opacity="0.161"/>
      <feComposite operator="in" in2="blur"/>
      <feComposite in="SourceGraphic"/>
    </filter>
  </defs>
  <g id="Group_141813" data-name="Group 141813" transform="translate(-991 -2212)">
    <g id="Group_119985" data-name="Group 119985" transform="translate(4753 8715)" style="mix-blend-mode: normal;isolation: isolate">
      <g transform="matrix(1, 0, 0, 1, -3762, -6503)" filter="url(#Rectangle_34044)">
        <rect id="Rectangle_34044-2" data-name="Rectangle 34044" width="194" height="196" rx="39" transform="translate(9 6)" fill="#1a3d3c"/>
      </g>
    </g>
    <g id="Group_140937" data-name="Group 140937" transform="translate(-12.99 -372.362)">
      <path id="software" d="M78.37,114.09a6.455,6.455,0,1,1-4.564-1.892A6.44,6.44,0,0,1,78.37,114.09ZM95.723,117.3v2.719a1.819,1.819,0,0,1-1.277,1.754l-1.93.624a1.784,1.784,0,0,0-1.2,1.251,18.2,18.2,0,0,1-1.6,3.859,1.8,1.8,0,0,0-.032,1.733l.922,1.812a1.822,1.822,0,0,1-.338,2.141l-1.924,1.924a1.825,1.825,0,0,1-2.141.338l-1.812-.922a1.772,1.772,0,0,0-1.733.032,17.852,17.852,0,0,1-3.859,1.595,1.787,1.787,0,0,0-1.245,1.208l-.63,1.93a1.81,1.81,0,0,1-1.754,1.271H72.449a1.816,1.816,0,0,1-1.754-1.271l-.624-1.93a1.8,1.8,0,0,0-1.251-1.208,17.892,17.892,0,0,1-3.859-1.595,1.786,1.786,0,0,0-1.733-.032l-1.812.922a1.827,1.827,0,0,1-2.141-.338l-1.924-1.924a1.828,1.828,0,0,1-.338-2.141l.922-1.812A1.772,1.772,0,0,0,57.9,127.5a17.851,17.851,0,0,1-1.595-3.859,1.805,1.805,0,0,0-1.208-1.251l-1.93-.624a1.815,1.815,0,0,1-1.271-1.754V117.3a1.809,1.809,0,0,1,1.271-1.754l1.935-.63a1.8,1.8,0,0,0,1.2-1.245,18.177,18.177,0,0,1,1.595-3.859,1.772,1.772,0,0,0,.032-1.733l-.922-1.812a1.825,1.825,0,0,1,.338-2.141l1.924-1.924a1.819,1.819,0,0,1,2.141-.338l1.812.922a1.8,1.8,0,0,0,1.733-.032,18.154,18.154,0,0,1,3.859-1.6,1.787,1.787,0,0,0,1.251-1.2l.624-1.93a1.82,1.82,0,0,1,1.754-1.277h2.719a1.814,1.814,0,0,1,1.754,1.277l.63,1.93a1.766,1.766,0,0,0,1.245,1.2,18.194,18.194,0,0,1,3.859,1.6,1.8,1.8,0,0,0,1.733.032l1.812-.922a1.819,1.819,0,0,1,2.141.338l1.924,1.924a1.816,1.816,0,0,1,.338,2.141l-.922,1.812a1.8,1.8,0,0,0,.032,1.733,18.154,18.154,0,0,1,1.6,3.859,1.769,1.769,0,0,0,1.2,1.245l1.93.63a1.814,1.814,0,0,1,1.277,1.754Zm-12.376,1.357a9.537,9.537,0,1,0-2.793,6.752,9.507,9.507,0,0,0,2.793-6.752ZM53.058,139.069H46.31l-2.057-5.734H29.535l-2.051,5.734H20.736a1.545,1.545,0,1,0,0,3.091h32.32a1.545,1.545,0,1,0,0-3.091Zm-4.186-22.622H-.01V78.993A4.849,4.849,0,0,1,4.829,74.16H68.97a4.849,4.849,0,0,1,4.839,4.833V93.648H72.447a4.908,4.908,0,0,0-4.691,3.414l-.43,1.309a21.117,21.117,0,0,0-3.281,1.363l-1.23-.626a4.909,4.909,0,0,0-5.729.907l-1.924,1.924a4.91,4.91,0,0,0-.907,5.729l.624,1.23a21.652,21.652,0,0,0-1.357,3.281l-1.314.424a4.907,4.907,0,0,0-3.336,3.844ZM19.429,96.075l10.229-5.714a1.54,1.54,0,1,0-1.5-2.692L15.539,94.718a1.591,1.591,0,0,0-.615.61,1.541,1.541,0,0,0,.6,2.094l12.641,7.06a1.54,1.54,0,0,0,1.5-2.692ZM39.882,83.064a1.543,1.543,0,0,0-1.849,1.161l-5.273,23.018a1.541,1.541,0,1,0,3,.682l5.273-23.013a1.543,1.543,0,0,0-1.155-1.849Zm5.751,21.418,12.641-7.06a1.541,1.541,0,0,0,.6-2.094,1.579,1.579,0,0,0-.615-.61L45.634,87.669a1.54,1.54,0,0,0-1.5,2.692l10.229,5.714-10.229,5.714a1.54,1.54,0,0,0,1.5,2.692Zm6.578,20.225a4.9,4.9,0,0,1-3.409-4.691v-.477H-.01v5.873a4.853,4.853,0,0,0,4.839,4.833H54a5.41,5.41,0,0,1,.26-.6l.624-1.23a22.27,22.27,0,0,1-1.363-3.281Z" transform="translate(1062 2580.202)" fill="#fff"/>
      <path id="software-2" data-name="software" d="M81.065,115.262A6.455,6.455,0,1,1,76.5,113.37,6.44,6.44,0,0,1,81.065,115.262Zm17.353,3.207v2.719a1.819,1.819,0,0,1-1.277,1.754l-1.93.624a1.784,1.784,0,0,0-1.2,1.251,18.2,18.2,0,0,1-1.6,3.859,1.8,1.8,0,0,0-.032,1.733l.922,1.812a1.822,1.822,0,0,1-.338,2.141l-1.924,1.924a1.825,1.825,0,0,1-2.141.338l-1.812-.922a1.772,1.772,0,0,0-1.733.032,17.852,17.852,0,0,1-3.859,1.595,1.787,1.787,0,0,0-1.245,1.208l-.63,1.93a1.81,1.81,0,0,1-1.754,1.271H75.143a1.816,1.816,0,0,1-1.754-1.271l-.624-1.93a1.8,1.8,0,0,0-1.251-1.208,17.892,17.892,0,0,1-3.859-1.595,1.786,1.786,0,0,0-1.733-.032l-1.812.922a1.827,1.827,0,0,1-2.141-.338l-1.924-1.924a1.828,1.828,0,0,1-.338-2.141l.922-1.812a1.772,1.772,0,0,0-.032-1.733A17.852,17.852,0,0,1,59,124.816a1.805,1.805,0,0,0-1.208-1.251l-1.93-.624a1.815,1.815,0,0,1-1.271-1.754v-2.719a1.809,1.809,0,0,1,1.271-1.754l1.935-.63a1.8,1.8,0,0,0,1.2-1.245A18.177,18.177,0,0,1,60.6,110.98a1.772,1.772,0,0,0,.032-1.733l-.922-1.812a1.825,1.825,0,0,1,.338-2.141l1.924-1.924a1.819,1.819,0,0,1,2.141-.338l1.812.922a1.8,1.8,0,0,0,1.733-.032,18.154,18.154,0,0,1,3.859-1.6,1.787,1.787,0,0,0,1.251-1.2l.624-1.93a1.82,1.82,0,0,1,1.754-1.277h2.719a1.814,1.814,0,0,1,1.754,1.277l.63,1.93a1.766,1.766,0,0,0,1.245,1.2,18.194,18.194,0,0,1,3.859,1.6,1.8,1.8,0,0,0,1.733.032l1.812-.922a1.819,1.819,0,0,1,2.141.338l1.924,1.924a1.816,1.816,0,0,1,.338,2.141l-.922,1.812a1.8,1.8,0,0,0,.032,1.733,18.154,18.154,0,0,1,1.6,3.859,1.769,1.769,0,0,0,1.2,1.245l1.93.63a1.814,1.814,0,0,1,1.277,1.754Zm-12.376,1.357a9.537,9.537,0,1,0-2.793,6.752,9.507,9.507,0,0,0,2.793-6.752Z" transform="translate(1059.306 2578.909)" fill="#8bff9d"/>
    </g>
  </g>
</svg>
