<svg xmlns="http://www.w3.org/2000/svg" xmlns:xlink="http://www.w3.org/1999/xlink" width="212" height="214" viewBox="0 0 212 214">
  <defs>
    <filter id="Rectangle_34043" x="0" y="0" width="212" height="214" filterUnits="userSpaceOnUse">
      <feOffset dy="3" input="SourceAlpha"/>
      <feGaussianBlur stdDeviation="3" result="blur"/>
      <feFlood flood-opacity="0.161"/>
      <feComposite operator="in" in2="blur"/>
      <feComposite in="SourceGraphic"/>
    </filter>
  </defs>
  <g id="Group_141809" data-name="Group 141809" transform="translate(-283 -2980)">
    <g transform="matrix(1, 0, 0, 1, 283, 2980)" filter="url(#Rectangle_34043)">
      <rect id="Rectangle_34043-2" data-name="Rectangle 34043" width="194" height="196" rx="39" transform="translate(9 6)" fill="#1a3d3c"/>
    </g>
    <g id="agile" transform="translate(342 3027.524)">
      <g id="_27.Agile" transform="translate(0 11.476)">
        <path id="Path_272812" data-name="Path 272812" d="M350.745,376.5l-8.959-6.618a47.561,47.561,0,0,1-21.206,17.753h19.735a2.372,2.372,0,0,0,1.436-.483l9.017-6.827a2.387,2.387,0,0,0-.022-3.825Z" transform="translate(-257.176 -299)" fill="#fff"/>
        <path id="Path_272813" data-name="Path 272813" d="M51.454,373.471l-9.335-6.9a2.374,2.374,0,0,0-1.418-.467H12.455A2.389,2.389,0,0,0,10.07,368.5v13.724a2.389,2.389,0,0,0,2.385,2.387H41.023a2.406,2.406,0,0,0,1.44-.483l9.015-6.827a2.389,2.389,0,0,0-.024-3.825Z" transform="translate(-8.078 -295.967)" fill="#fff"/>
        <path id="Path_272814" data-name="Path 272814" d="M201.342,13.917l-.352-.051-8.263,6.246a3.19,3.19,0,0,0,0,5.089l8.048,6.092c.36.083.716.174,1.062.269A27.837,27.837,0,0,1,190.058,85.88L194.279,89a4.759,4.759,0,0,1,.046,7.626l-7.975,6.038a45.005,45.005,0,1,0,14.992-88.746Z" transform="translate(-149.494 -13.393)" fill="#8bff9d"/>
        <path id="Path_272815" data-name="Path 272815" d="M44.963,11.476A45.012,45.012,0,0,0,6.175,79.242h22.8a27.832,27.832,0,0,1,15.989-50.6q.742,0,1.479.04L41.8,25.178a5.564,5.564,0,0,1,0-8.874l6.248-4.729c-1.026-.063-2.057-.1-3.085-.1Z" transform="translate(0 -11.476)" fill="#fff"/>
      </g>
    </g>
  </g>
</svg>
