<svg xmlns="http://www.w3.org/2000/svg" width="40" height="40.001" viewBox="0 0 40 40.001">
  <g id="connection_1_" data-name="connection (1)" transform="translate(-0.006)">
    <g id="Group_138468" data-name="Group 138468" transform="translate(0.006 0)">
      <g id="Group_138467" data-name="Group 138467" transform="translate(38.44 28.362)">
        <g id="Group_138466" data-name="Group 138466">
          <g id="Group_138465" data-name="Group 138465">
            <path id="Path_188301" data-name="Path 188301" d="M492.809,364.583a.781.781,0,1,1,.766-.629A.787.787,0,0,1,492.809,364.583Z" transform="translate(-492.03 -363.023)" fill="#a8ffc3"/>
          </g>
        </g>
      </g>
      <path id="Path_188302" data-name="Path 188302" d="M38.911,31.934a.781.781,0,0,0-1,.471,9.088,9.088,0,0,1-2,3.226A4.551,4.551,0,0,0,32.79,32.7a4.956,4.956,0,1,0-6.915,0,4.551,4.551,0,0,0-3.122,2.934,9.114,9.114,0,1,1,15.028-9.727.781.781,0,0,0,1.448-.587,10.705,10.705,0,0,0-6.248-6.028V14.205a4.611,4.611,0,1,0-5.326-5.326H21.2A10.675,10.675,0,1,0,4.17,19.135l0,0a10.641,10.641,0,0,0,2.858,1.575V25.8a4.611,4.611,0,1,0,5.326,5.326h6.45a10.6,10.6,0,0,0,4.015,6.664l0,0a10.676,10.676,0,0,0,13.014,0l0,0a10.67,10.67,0,0,0,3.539-4.853.781.781,0,0,0-.471-1ZM32.2,6.612A3.049,3.049,0,1,1,29.152,9.66,3.052,3.052,0,0,1,32.2,6.612ZM1.569,10.675A9.112,9.112,0,1,1,17.26,16.982a4.551,4.551,0,0,0-3.122-2.934,4.956,4.956,0,1,0-6.915,0A4.551,4.551,0,0,0,4.1,16.982a9.043,9.043,0,0,1-2.532-6.306Zm9.112,3.218A3.394,3.394,0,1,1,14.074,10.5,3.4,3.4,0,0,1,10.681,13.893ZM8.4,15.456h4.566a2.973,2.973,0,0,1,2.955,2.677,9.117,9.117,0,0,1-10.476,0A2.973,2.973,0,0,1,8.4,15.456ZM7.813,33.389a3.049,3.049,0,1,1,3.049-3.049A3.052,3.052,0,0,1,7.813,33.389Zm4.545-3.83A4.623,4.623,0,0,0,8.594,25.8V21.148a10.79,10.79,0,0,0,2.087.2,10.575,10.575,0,0,0,6.506-2.211l0,0a10.608,10.608,0,0,0,4.164-8.46q0-.117,0-.234h6.3a4.623,4.623,0,0,0,3.764,3.764v4.649A10.685,10.685,0,0,0,18.659,29.326q0,.117,0,.233Zm16.976-3.8a3.394,3.394,0,1,1-3.393,3.394A3.4,3.4,0,0,1,29.333,25.757Zm0,12.681a9.02,9.02,0,0,1-5.238-1.655,2.973,2.973,0,0,1,2.955-2.677h4.566a2.973,2.973,0,0,1,2.955,2.677A9.02,9.02,0,0,1,29.333,38.438Z" transform="translate(-0.006 0)" fill="#a8ffc3"/>
    </g>
  </g>
</svg>
