<svg xmlns="http://www.w3.org/2000/svg" width="40.8" height="40.921" viewBox="0 0 40.8 40.921">
  <g id="increase_4_" data-name="increase (4)" transform="translate(-53.695 -16.778)">
    <path id="Path_188319" data-name="Path 188319" d="M216.462,259.195a1.82,1.82,0,0,1-1.818-1.818h-3.636a5.463,5.463,0,0,0,3.636,5.142v4.07h3.636v-4.07a5.454,5.454,0,0,0-1.818-10.6,1.818,1.818,0,1,1,1.818-1.818h3.636a5.463,5.463,0,0,0-3.636-5.142v-3.949h-3.636v3.949a5.454,5.454,0,0,0,1.818,10.6,1.818,1.818,0,1,1,0,3.636Z" transform="translate(-142.367 -216.562)" fill="#a8ffc3" stroke="#003734" stroke-width="0.8"/>
    <path id="Path_188320" data-name="Path 188320" d="M111.007,221.134a20.061,20.061,0,1,0-20-20.121A20.112,20.112,0,0,0,111.007,221.134Zm0-36.485a16.424,16.424,0,1,1-16.364,16.364A16.382,16.382,0,0,1,111.007,184.649Z" transform="translate(-36.912 -163.835)" fill="#a8ffc3" stroke="#003734" stroke-width="0.8"/>
  </g>
</svg>
