<svg xmlns="http://www.w3.org/2000/svg" width="40" height="40" viewBox="0 0 40 40">
  <g id="_x39_5_x2C__prototype_x2C__art_x2C__design_x2C__seo_x2C__interface" transform="translate(-10 -10)">
    <g id="XMLID_15_" transform="translate(10 10)">
      <g id="XMLID_16_" transform="translate(0 0)">
        <g id="XMLID_37_" transform="translate(0 12.245)">
          <path id="XMLID_38_" d="M23.314,187.755H13.829A3.839,3.839,0,0,1,10,183.927v-20.1A3.834,3.834,0,0,1,13.829,160h9.478a3.834,3.834,0,0,1,3.829,3.829v20.09A3.829,3.829,0,0,1,23.314,187.755Zm-9.486-26.122a2.2,2.2,0,0,0-2.2,2.2v20.09a2.2,2.2,0,0,0,2.2,2.2h9.478a2.2,2.2,0,0,0,2.2-2.2v-20.09a2.2,2.2,0,0,0-2.2-2.2Z" transform="translate(-10 -160)" fill="#a8ffc3"/>
        </g>
        <g id="XMLID_35_" transform="translate(0 17.143)">
          <path id="XMLID_36_" d="M26.327,221.633H10.816a.816.816,0,0,1,0-1.633h15.51a.816.816,0,0,1,0,1.633Z" transform="translate(-10 -220)" fill="#a8ffc3"/>
        </g>
        <g id="XMLID_33_" transform="translate(0 33.469)">
          <path id="XMLID_34_" d="M26.327,421.633H10.816a.816.816,0,0,1,0-1.633h15.51a.816.816,0,0,1,0,1.633Z" transform="translate(-10 -420)" fill="#a8ffc3"/>
        </g>
        <g id="XMLID_29_" transform="translate(22.857)">
          <path id="XMLID_30_" d="M303.314,37.755h-9.486A3.834,3.834,0,0,1,290,33.927v-20.1A3.834,3.834,0,0,1,293.829,10h9.478a3.834,3.834,0,0,1,3.829,3.829v20.09A3.829,3.829,0,0,1,303.314,37.755Zm-9.486-26.122a2.2,2.2,0,0,0-2.2,2.2v20.09a2.2,2.2,0,0,0,2.2,2.2h9.478a2.2,2.2,0,0,0,2.2-2.2V13.829a2.2,2.2,0,0,0-2.2-2.2Z" transform="translate(-290 -10)" fill="#a8ffc3"/>
        </g>
        <g id="XMLID_27_" transform="translate(22.857 4.898)">
          <path id="XMLID_28_" d="M306.327,71.633h-15.51a.816.816,0,1,1,0-1.633h15.51a.816.816,0,0,1,0,1.633Z" transform="translate(-290 -70)" fill="#a8ffc3"/>
        </g>
        <g id="XMLID_25_" transform="translate(22.857 21.224)">
          <path id="XMLID_26_" d="M306.327,271.633h-15.51a.816.816,0,1,1,0-1.633h15.51a.816.816,0,0,1,0,1.633Z" transform="translate(-290 -270)" fill="#a8ffc3"/>
        </g>
        <g id="XMLID_23_" transform="translate(9.796 13.886)">
          <path id="XMLID_24_" d="M137.086,193.969h-6.269a.816.816,0,1,1,0-1.633h6.269a1.9,1.9,0,0,0,1.894-1.894v-6.816a3.533,3.533,0,0,1,3.527-3.527h10.351a.816.816,0,0,1,0,1.633H142.506a1.9,1.9,0,0,0-1.894,1.894v6.816A3.533,3.533,0,0,1,137.086,193.969Z" transform="translate(-130 -180.1)" fill="#a8ffc3"/>
        </g>
        <g id="XMLID_21_" transform="translate(30.202 12.259)">
          <path id="XMLID_22_" d="M380.214,164.822a.813.813,0,0,1,0-1.151l1.053-1.053-1.053-1.053a.814.814,0,0,1,1.151-1.151L383,162.046a.813.813,0,0,1,0,1.151l-1.633,1.633A.821.821,0,0,1,380.214,164.822Z" transform="translate(-379.975 -160.175)" fill="#a8ffc3"/>
        </g>
        <g id="XMLID_17_" transform="translate(4.898 23.673)">
          <path id="XMLID_18_" d="M73.265,306.531a3.265,3.265,0,1,1,3.265-3.265A3.264,3.264,0,0,1,73.265,306.531Zm0-4.9a1.633,1.633,0,1,0,1.633,1.633A1.637,1.637,0,0,0,73.265,301.633Z" transform="translate(-70 -300)" fill="#a8ffc3"/>
        </g>
      </g>
    </g>
  </g>
</svg>
