<svg xmlns="http://www.w3.org/2000/svg" width="43.228" height="38" viewBox="0 0 43.228 38">
  <g id="Reducing_human_error" transform="translate(-22.66 -27.66)">
    <g id="Group_138473" data-name="Group 138473" transform="translate(22.66 27.66)">
      <g id="Group_138469" data-name="Group 138469">
        <path id="Path_188321" data-name="Path 188321" d="M41.955,46.879a9.609,9.609,0,1,1,9.613-9.609,9.622,9.622,0,0,1-9.613,9.609Zm0-17.127a7.518,7.518,0,1,0,7.522,7.518A7.528,7.528,0,0,0,41.955,29.751Z" transform="translate(-27.28 -27.66)" fill="#a8ffc3"/>
        <path id="Path_188322" data-name="Path 188322" d="M68.922,90.868h-.637a1.046,1.046,0,1,1,0-2.091h.637a1.046,1.046,0,1,1,0,2.091Z" transform="translate(-43.931 -56.823)" fill="#a8ffc3"/>
        <path id="Path_188323" data-name="Path 188323" d="M43.658,75.559H23.884a1.225,1.225,0,0,1-1.224-1.224v-4.1a14.678,14.678,0,0,1,8.82-13.457,1.043,1.043,0,0,1,1.081.151,7.522,7.522,0,0,0,9.544,0,1.041,1.041,0,0,1,1.081-.15,14.682,14.682,0,0,1,7.495,7.347,1.046,1.046,0,0,1-1.9.871A12.587,12.587,0,0,0,42.9,58.958a9.615,9.615,0,0,1-11.136,0,12.587,12.587,0,0,0-7.013,11.284v3.23H43.658a1.045,1.045,0,1,1,0,2.091Z" transform="translate(-22.66 -41.514)" fill="#a8ffc3"/>
      </g>
      <g id="Group_138471" data-name="Group 138471" transform="translate(21.676 16.695)">
        <path id="Path_188324" data-name="Path 188324" d="M74.895,80.9a1.041,1.041,0,0,1-.735-.3l-9.73-9.607a1.045,1.045,0,0,1,0-1.488l9.73-9.607a1.045,1.045,0,0,1,1.47,0L85.36,69.5a1.045,1.045,0,0,1,0,1.488l-9.73,9.607A1.045,1.045,0,0,1,74.895,80.9ZM66.653,70.244,74.9,78.381l8.242-8.137-8.243-8.138Z" transform="translate(-64.119 -59.59)" fill="#a8ffc3"/>
        <g id="Group_138470" data-name="Group 138470" transform="translate(9.678 5.491)">
          <path id="Path_188325" data-name="Path 188325" d="M83.4,77.04l.015.112h1.067l.015-.112c.087-.649.161-1.306.217-1.953S84.8,73.7,84.8,72.9v-2.81H83.1V72.9c0,.8.029,1.535.087,2.184S83.316,76.389,83.4,77.04Z" transform="translate(-82.854 -70.093)" fill="#a8ffc3"/>
          <path id="Path_188326" data-name="Path 188326" d="M84.533,86.018a1.15,1.15,0,0,0-1.61,0,1.121,1.121,0,0,0,0,1.512,1.151,1.151,0,0,0,1.61,0,1.12,1.12,0,0,0,0-1.512Z" transform="translate(-82.629 -77.535)" fill="#a8ffc3"/>
        </g>
      </g>
    </g>
  </g>
</svg>
