<svg xmlns="http://www.w3.org/2000/svg" width="40.353" height="40.322" viewBox="0 0 40.353 40.322">
  <g id="integration_4_" data-name="integration (4)" transform="translate(0.201 -0.318)">
    <path id="Path_188309" data-name="Path 188309" d="M126.884,111.156a2.453,2.453,0,0,0,.384-3.012l-1.607-2.678a2.612,2.612,0,0,0-2.838-1.165l-1.47.355a1.02,1.02,0,0,1-1.222-.659l-.414-1.4a2.574,2.574,0,0,0-2.468-1.807h-3.217a2.573,2.573,0,0,0-2.47,1.809l-.413,1.4a1.022,1.022,0,0,1-1.223.66l-1.47-.355a2.609,2.609,0,0,0-2.838,1.165l-1.606,2.676a2.453,2.453,0,0,0,.383,3.014l1.055,1.045a.9.9,0,0,1,0,1.285l-1.056,1.047a2.452,2.452,0,0,0-.383,3.012l1.607,2.677a2.61,2.61,0,0,0,2.838,1.165l1.469-.355a1.023,1.023,0,0,1,1.224.659l.414,1.4a2.573,2.573,0,0,0,2.469,1.808h3.217a2.575,2.575,0,0,0,2.469-1.808l.414-1.4a1.021,1.021,0,0,1,1.222-.66l1.47.356a2.612,2.612,0,0,0,2.838-1.165l1.607-2.677a2.454,2.454,0,0,0-.384-3.013l-1.055-1.047a.9.9,0,0,1,0-1.284Zm-2.155-.064a2.48,2.48,0,0,0,0,3.5l1.054,1.046a.884.884,0,0,1,.145,1.1l-1.607,2.678a1.037,1.037,0,0,1-1.131.45l-1.471-.356a2.569,2.569,0,0,0-3.087,1.736l-.414,1.4a1,1,0,0,1-.971.69h-3.217a1,1,0,0,1-.971-.688l-.413-1.4a2.553,2.553,0,0,0-2.463-1.81,2.671,2.671,0,0,0-.625.075l-1.471.356a1.035,1.035,0,0,1-1.13-.45l-1.608-2.679a.883.883,0,0,1,.145-1.1l1.055-1.047a2.481,2.481,0,0,0,0-3.5l-1.055-1.045a.883.883,0,0,1-.144-1.1l1.608-2.679a1.035,1.035,0,0,1,1.13-.449l1.47.355a2.57,2.57,0,0,0,3.089-1.736l.413-1.4a1,1,0,0,1,.971-.689h3.217a1,1,0,0,1,.97.689l.414,1.4a2.568,2.568,0,0,0,3.088,1.735l1.471-.355a1.037,1.037,0,0,1,1.131.45l1.608,2.679a.884.884,0,0,1-.145,1.1Z" transform="translate(-95.561 -92.435)" fill="#a8ffc3" stroke="#a8ffc3" stroke-width="0.3"/>
    <path id="Path_188311" data-name="Path 188311" d="M223.444,230.588l-2.238,2.238-.843-.843a.781.781,0,0,0-1.1,1.1l1.4,1.4a.781.781,0,0,0,1.1,0l2.791-2.791a.781.781,0,0,0-1.1-1.1Z" transform="translate(-201.918 -211.884)" fill="#a8ffc3" stroke="#a8ffc3" stroke-width="0.3"/>
    <path id="Path_188312" data-name="Path 188312" d="M24.513,18.707a.8.8,0,0,0,.11.008.782.782,0,0,0,.773-.672A16.848,16.848,0,0,1,38.2,4.027l-.584.82a.781.781,0,0,0,1.272.907l1.712-2.4a.789.789,0,0,0-.2-1.1L38.028.652a.781.781,0,1,0-.873,1.3l.792.533a18.411,18.411,0,0,0-14.1,15.343.781.781,0,0,0,.665.883Z" transform="translate(-21.978)" fill="#a8ffc3" stroke="#a8ffc3" stroke-width="0.3"/>
    <path id="Path_188313" data-name="Path 188313" d="M280.39,277.7a.781.781,0,0,0-1.547-.218,16.84,16.84,0,0,1-13.791,14.214l.635-.954a.781.781,0,1,0-1.3-.866l-1.635,2.456a.781.781,0,0,0,.22,1.085l2.427,1.6a.781.781,0,0,0,.86-1.3l-.768-.506a18.406,18.406,0,0,0,14.9-15.507Z" transform="translate(-242.104 -254.701)" fill="#a8ffc3" stroke="#a8ffc3" stroke-width="0.3"/>
    <path id="Path_188314" data-name="Path 188314" d="M.337,264.982a.789.789,0,0,0,1.087-.2l.563-.814a18.405,18.405,0,0,0,15.507,14.9.8.8,0,0,0,.11.008.781.781,0,0,0,.108-1.555A16.84,16.84,0,0,1,3.5,263.543l.983.654a.781.781,0,0,0,.866-1.3l-2.456-1.635a.781.781,0,0,0-1.076.206L.139,263.895a.781.781,0,0,0,.2,1.087Z" transform="translate(0 -240.252)" fill="#a8ffc3" stroke="#a8ffc3" stroke-width="0.3"/>
    <path id="Path_188315" data-name="Path 188315" d="M296.577,35.083a.781.781,0,0,0-1.084.212l-.551.818a18.412,18.412,0,0,0-15.356-14.156.781.781,0,0,0-.218,1.547,16.848,16.848,0,0,1,14.028,12.857l-.889-.614a.781.781,0,1,0-.887,1.286l2.481,1.712a.789.789,0,0,0,1.092-.207l1.6-2.372A.781.781,0,0,0,296.577,35.083Z" transform="translate(-256.922 -19.756)" fill="#a8ffc3" stroke="#a8ffc3" stroke-width="0.3"/>
  </g>
</svg>
