<svg xmlns="http://www.w3.org/2000/svg" width="40.5" height="40.5" viewBox="0 0 40.5 40.5">
  <g id="user-engagement" transform="translate(-0.75 -0.75)">
    <path id="Path_188303" data-name="Path 188303" d="M13.725,5.655A4.655,4.655,0,1,0,9.07,10.309,4.66,4.66,0,0,0,13.725,5.655Zm-6.643,0A1.988,1.988,0,1,1,9.07,7.643,1.991,1.991,0,0,1,7.082,5.655Z" transform="translate(1.138)" fill="#a8ffc3" stroke="#013633" stroke-width="0.5"/>
    <path id="Path_188304" data-name="Path 188304" d="M1,17.878a1.333,1.333,0,0,0,1.333,1.333h15.75a1.333,1.333,0,0,0,1.333-1.333A9.13,9.13,0,0,0,10.3,8.759h-.18A9.13,9.13,0,0,0,1,17.878Zm9.118-6.452h.18a6.464,6.464,0,0,1,6.314,5.119H3.8a6.464,6.464,0,0,1,6.314-5.119Z" transform="translate(0 2.586)" fill="#a8ffc3" stroke="#013633" stroke-width="0.5"/>
    <path id="Path_188305" data-name="Path 188305" d="M25.257,15.4a4.655,4.655,0,1,0,4.655,4.655A4.66,4.66,0,0,0,25.257,15.4Zm0,6.643a1.988,1.988,0,1,1,1.988-1.988,1.99,1.99,0,0,1-1.988,1.988Z" transform="translate(6.534 4.801)" fill="#a8ffc3" stroke="#013633" stroke-width="0.5"/>
    <path id="Path_188306" data-name="Path 188306" d="M26.486,23.161h-.18a9.13,9.13,0,0,0-9.118,9.119,1.333,1.333,0,0,0,1.333,1.333h15.75A1.333,1.333,0,0,0,35.6,32.28,9.13,9.13,0,0,0,26.486,23.161Zm-6.493,7.786a6.464,6.464,0,0,1,6.314-5.119h.18A6.464,6.464,0,0,1,32.8,30.946Z" transform="translate(5.396 7.387)" fill="#a8ffc3" stroke="#013633" stroke-width="0.5"/>
    <path id="Path_188307" data-name="Path 188307" d="M24.333,3.491h-8a1.333,1.333,0,1,0,0,2.667h8a4,4,0,0,1,4,4v5.583a1.333,1.333,0,1,0,2.667,0V10.158A6.675,6.675,0,0,0,24.333,3.491Z" transform="translate(4.667 0.83)" fill="#a8ffc3" stroke="#013633" stroke-width="0.5"/>
    <path id="Path_188308" data-name="Path 188308" d="M11.667,29.238a4,4,0,0,1-4-4V19.655a1.333,1.333,0,0,0-2.667,0v5.583A6.675,6.675,0,0,0,11.667,31.9h6.107a1.333,1.333,0,1,0,0-2.667Z" transform="translate(1.333 5.774)" fill="#a8ffc3" stroke="#013633" stroke-width="0.5"/>
  </g>
</svg>
