<svg xmlns="http://www.w3.org/2000/svg" width="42" height="28" viewBox="0 0 42 28">
  <g id="united-states-of-america" transform="translate(0 -85.331)">
    <rect id="Rectangle_34286" data-name="Rectangle 34286" width="42" height="28" transform="translate(0 85.331)" fill="#f0f0f0"/>
    <g id="Group_128334" data-name="Group 128334" transform="translate(0 88.831)">
      <rect id="Rectangle_34287" data-name="Rectangle 34287" width="42" height="3.5" transform="translate(0 0)" fill="#d80027"/>
      <rect id="Rectangle_34288" data-name="Rectangle 34288" width="42" height="3.5" transform="translate(0 7)" fill="#d80027"/>
      <rect id="Rectangle_34289" data-name="Rectangle 34289" width="42" height="3.5" transform="translate(0 14)" fill="#d80027"/>
      <rect id="Rectangle_34290" data-name="Rectangle 34290" width="42" height="3.5" transform="translate(0 21)" fill="#d80027"/>
    </g>
    <rect id="Rectangle_34291" data-name="Rectangle 34291" width="21" height="15.077" transform="translate(0 85.331)" fill="#2e52b2"/>
    <g id="Group_128335" data-name="Group 128335" transform="translate(2.133 87.752)">
      <path id="Path_181242" data-name="Path 181242" d="M83.8,160.624l-.338,1.04H82.363l.885.643-.338,1.04.885-.643.885.643-.338-1.04.885-.643H84.133Z" transform="translate(-77.74 -156.869)" fill="#f0f0f0"/>
      <path id="Path_181243" data-name="Path 181243" d="M84.133,207.437,83.8,206.4l-.338,1.04H82.363l.885.643-.338,1.04.885-.643.885.643-.338-1.04.885-.643Z" transform="translate(-77.74 -198.887)" fill="#f0f0f0"/>
      <path id="Path_181244" data-name="Path 181244" d="M27.771,207.437l-.338-1.04-.338,1.04H26l.885.643-.338,1.04.885-.643.885.643-.338-1.04.885-.643Z" transform="translate(-26.001 -198.887)" fill="#f0f0f0"/>
      <path id="Path_181245" data-name="Path 181245" d="M27.433,160.624l-.338,1.04H26l.885.643-.338,1.04.885-.643.885.643-.338-1.04.885-.643H27.771Z" transform="translate(-26.001 -156.869)" fill="#f0f0f0"/>
      <path id="Path_181246" data-name="Path 181246" d="M83.8,114.85l-.338,1.041H82.363l.885.643-.338,1.04.885-.643.885.643-.338-1.04.885-.643H84.133Z" transform="translate(-77.74 -114.85)" fill="#f0f0f0"/>
      <path id="Path_181247" data-name="Path 181247" d="M27.433,114.85l-.338,1.041H26l.885.643-.338,1.04.885-.643.885.643-.338-1.04.885-.643H27.771Z" transform="translate(-26.001 -114.85)" fill="#f0f0f0"/>
      <path id="Path_181248" data-name="Path 181248" d="M140.157,160.624l-.338,1.04h-1.094l.885.643-.338,1.04.885-.643.885.643-.338-1.04.885-.643h-1.094Z" transform="translate(-129.478 -156.869)" fill="#f0f0f0"/>
      <path id="Path_181249" data-name="Path 181249" d="M140.495,207.437l-.338-1.04-.338,1.04h-1.094l.885.643-.338,1.04.885-.643.885.643-.338-1.04.885-.643Z" transform="translate(-129.478 -198.887)" fill="#f0f0f0"/>
      <path id="Path_181250" data-name="Path 181250" d="M196.858,207.437l-.338-1.04-.338,1.04h-1.094l.885.643-.338,1.04.885-.643.885.643-.338-1.04.885-.643Z" transform="translate(-181.218 -198.887)" fill="#f0f0f0"/>
      <path id="Path_181251" data-name="Path 181251" d="M196.52,160.624l-.338,1.04h-1.094l.885.643-.338,1.04.885-.643.885.643-.338-1.04.885-.643h-1.094Z" transform="translate(-181.218 -156.869)" fill="#f0f0f0"/>
      <path id="Path_181252" data-name="Path 181252" d="M140.157,114.85l-.338,1.041h-1.094l.885.643-.338,1.04.885-.643.885.643-.338-1.04.885-.643h-1.094Z" transform="translate(-129.478 -114.85)" fill="#f0f0f0"/>
      <path id="Path_181253" data-name="Path 181253" d="M196.52,114.85l-.338,1.041h-1.094l.885.643-.338,1.04.885-.643.885.643-.338-1.04.885-.643h-1.094Z" transform="translate(-181.218 -114.85)" fill="#f0f0f0"/>
    </g>
  </g>
</svg>
