<?xml version="1.0" encoding="UTF-8"?>
<svg version="1.1" xmlns="http://www.w3.org/2000/svg" width="3840" height="1113">
<path d="M0 0 C1267.2 0 2534.4 0 3840 0 C3840 367.29 3840 734.58 3840 1113 C2572.8 1113 1305.6 1113 0 1113 C0 745.71 0 378.42 0 0 Z " fill="#02403D" transform="translate(0,0)"/>
<path d="M0 0 C94.71 0 189.42 0 287 0 C283.88888889 31.11111111 283.88888889 31.11111111 280 35 C279.9175 36.175625 279.835 37.35125 279.75 38.5625 C279.27942239 42.84323825 277.65671026 45.31769252 275.25 48.8046875 C273.81311396 51.32821861 273.25551377 53.60806944 272.625 56.4375 C271.36549291 61.62581045 269.20948445 64.77365501 265.76953125 68.79296875 C263.44273541 71.69504303 261.8565031 74.81586451 260.23828125 78.15234375 C258.75683044 80.3628366 257.36102713 80.87270631 255 82 C254.5978125 83.299375 254.5978125 83.299375 254.1875 84.625 C252.78838443 88.60143373 250.82745222 90.72016104 248 93.77734375 C245.13164213 96.96503053 242.57857587 100.38267048 239.9921875 103.80078125 C237.85630719 106.15862559 235.74131065 107.42329845 233 109 C232.29875 109.886875 231.5975 110.77375 230.875 111.6875 C229.946875 112.8321875 229.946875 112.8321875 229 114 C228.01 114 227.02 114 226 114 C226 114.66 226 115.32 226 116 C225.34 116 224.68 116 224 116 C223.67 116.99 223.34 117.98 223 119 C220.63671875 120.82421875 220.63671875 120.82421875 217.6875 122.6875 C216.72199219 123.31011719 215.75648438 123.93273437 214.76171875 124.57421875 C212 126 212 126 208 126 C208 126.66 208 127.32 208 128 C206.68 128 205.36 128 204 128 C204 128.66 204 129.32 204 130 C201.09399739 131.25664978 199.20395416 132 196 132 C196 132.66 196 133.32 196 134 C193.64716828 134.7543902 191.29282335 135.50345636 188.9375 136.25 C188.30005859 136.45496094 187.66261719 136.65992188 187.00585938 136.87109375 C179.71965461 139.17200052 172.41258296 141.02331121 165 143 C205.59 143.33 246.18 143.66 288 144 C287.67 231.12 287.34 318.24 287 408 C192.62 408 98.24 408 1 408 C0.938125 364.996875 0.87625 321.99375 0.8125 277.6875 C0.78518799 264.08877686 0.75787598 250.49005371 0.72973633 236.47924805 C0.71618652 219.92541504 0.71618652 219.92541504 0.71366882 212.18586731 C0.71086396 206.75845937 0.69982898 201.33114065 0.68327332 195.90376282 C0.66221962 188.9916393 0.65651159 182.07964517 0.66078317 175.16749156 C0.65988928 172.62396933 0.65389326 170.08044287 0.64235461 167.53694665 C0.62754248 164.1142443 0.6309893 160.6920456 0.63923645 157.26933289 C0.63049846 156.26282086 0.62176046 155.25630884 0.61275768 154.21929646 C0.6187303 153.30387011 0.62470291 152.38844376 0.63085651 151.44527721 C0.62971735 150.65356033 0.62857819 149.86184344 0.62740451 149.04613513 C1.09711196 146.46670262 1.94372723 145.58081977 4 144 C6.30569744 143.61523914 6.30569744 143.61523914 9.06828308 143.60127258 C10.11576218 143.58873444 11.16324127 143.57619629 12.24246216 143.5632782 C13.96552078 143.56543083 13.96552078 143.56543083 15.72338867 143.56762695 C17.53820992 143.55233948 17.53820992 143.55233948 19.38969421 143.53674316 C22.70772143 143.51170408 26.02530575 143.49988318 29.34338927 143.49388909 C32.81080801 143.48451623 36.27809817 143.4583138 39.74543762 143.43388367 C46.3114326 143.39018485 52.87740268 143.36165876 59.44349891 143.33856028 C66.91871166 143.31152666 74.39379529 143.26761409 81.86891592 143.22227156 C97.24587761 143.1293769 112.62286361 143.05771835 128 143 C127.17580566 142.86722656 126.35161133 142.73445312 125.50244141 142.59765625 C124.42140137 142.42105469 123.34036133 142.24445313 122.2265625 142.0625 C121.15486816 141.88847656 120.08317383 141.71445312 118.97900391 141.53515625 C115.56819285 140.922429 112.32117509 139.98405188 109 139 C107.33526726 138.67735636 105.66839858 138.36561746 104 138.0625 C99.68679339 137.22726483 95.98836394 135.88130375 92 134 C90.80375 133.525625 89.6075 133.05125 88.375 132.5625 C85 131 85 131 82.4375 128.9375 C80.10552631 126.85665348 80.10552631 126.85665348 77.1875 126.0625 C68.17986331 123.05995444 59.32819206 115.96956287 53 109 C53 108.34 53 107.68 53 107 C52.01 106.67 51.02 106.34 50 106 C48.75307423 104.55619121 47.51117626 103.10678034 46.32421875 101.61328125 C44.8627684 99.77911879 44.8627684 99.77911879 42.4375 97.4375 C40.0735162 95.0735162 37.97041954 92.70020456 36 90 C36 89.34 36 88.68 36 88 C35.360625 87.731875 34.72125 87.46375 34.0625 87.1875 C32 86 32 86 31 83 C30.34 83 29.68 83 29 83 C28.60167969 82.18015625 28.20335938 81.3603125 27.79296875 80.515625 C27.26316406 79.43796875 26.73335937 78.3603125 26.1875 77.25 C25.66542969 76.18265625 25.14335937 75.1153125 24.60546875 74.015625 C23.13994732 71.04388904 23.13994732 71.04388904 21.30078125 68.859375 C20 67 20 67 20 63 C18.515 62.505 18.515 62.505 17 62 C15.62095675 59.63170731 14.44652187 57.35611675 13.3125 54.875 C12.99216797 54.22273437 12.67183594 53.57046875 12.34179688 52.8984375 C10.26961626 48.44479559 9.65587916 44.99949151 10 40 C9.34 40 8.68 40 8 40 C7.80664062 39.20335937 7.61328125 38.40671875 7.4140625 37.5859375 C7.15367187 36.52632812 6.89328125 35.46671875 6.625 34.375 C6.36976563 33.33085938 6.11453125 32.28671875 5.8515625 31.2109375 C5.04957743 28.02944144 5.04957743 28.02944144 4 25.1015625 C2.8220116 21.44795787 2.06906993 17.7678082 1.375 14 C1.2409375 13.31421875 1.106875 12.6284375 0.96875 11.921875 C0.1960588 7.79034248 0 4.26715164 0 0 Z " fill="#055855" transform="translate(0,498)"/>
<path d="M0 0 C-1.37618087 3.26930279 -2.75491655 4.79110339 -5.6875 6.75 C-10.18471657 9.99349612 -13.50953807 13.71924481 -17 18 C-17.76957031 18.92941406 -18.53914063 19.85882813 -19.33203125 20.81640625 C-22.63342716 24.82181551 -25.91636748 28.82343443 -29 33 C-29.66 32.67 -30.32 32.34 -31 32 C-28.87212892 27.29628498 -26.4877518 23.7560404 -23 20 C-22.34 20 -21.68 20 -21 20 C-20.94585937 19.45472656 -20.89171875 18.90945312 -20.8359375 18.34765625 C-19.62272571 14.94045866 -17.18993082 12.87418428 -14.625 10.4375 C-14.13 9.95603516 -13.635 9.47457031 -13.125 8.97851562 C-11.75510043 7.6470758 -10.37780448 6.32325797 -9 5 C-8.43152344 4.41734375 -7.86304687 3.8346875 -7.27734375 3.234375 C-5.13601284 1.16507663 -2.98679873 0 0 0 Z " fill="#094C48" transform="translate(56,32)"/>
<path d="M0 0 C0.66 0.33 1.32 0.66 2 1 C1.49339844 2.16015625 1.49339844 2.16015625 0.9765625 3.34375 C-1.53430818 9.20728616 -3.58357975 14.78954198 -5 21 C-5.63028587 22.68076231 -6.28050817 24.35544725 -7 26 C-7.66 26 -8.32 26 -9 26 C-7.96882792 18.10339274 -6.19228402 11.28282978 -3 4 C-2.67 3.01 -2.34 2.02 -2 1 C-1.34 0.67 -0.68 0.34 0 0 Z " fill="#074E48" transform="translate(14,85)"/>
<path d="M0 0 C3.70831663 -0.02918874 7.41660342 -0.04686218 11.125 -0.0625 C12.17171875 -0.07087891 13.2184375 -0.07925781 14.296875 -0.08789062 C19.3090905 -0.10375207 24.07665912 -0.08177213 29 1 C29 1.66 29 2.32 29 3 C19.43 3 9.86 3 0 3 C0 2.01 0 1.02 0 0 Z " fill="#04534B" transform="translate(134,0)"/>
<path d="M0 0 C2.46920246 3.70380369 2.11771324 5.26082442 1.75 9.625 C1.61851562 11.37683594 1.61851562 11.37683594 1.484375 13.1640625 C1.32453125 14.09992188 1.1646875 15.03578125 1 16 C0.34 16.33 -0.32 16.66 -1 17 C-1.18451025 5.47835991 -1.18451025 5.47835991 0 0 Z " fill="#08514B" transform="translate(2,124)"/>
<path d="M0 0 C0.66 0 1.32 0 2 0 C1.39301257 4.12751449 -0.03810791 7.3321148 -2 11 C-2.66 11 -3.32 11 -4 11 C-4.33 11.66 -4.66 12.32 -5 13 C-4.39254603 8.14036821 -2.27241033 4.2594482 0 0 Z " fill="#074C48" transform="translate(81,108)"/>
<path d="M0 0 C-0.1875 1.8125 -0.1875 1.8125 -1 4 C-5.17857143 7 -5.17857143 7 -8 7 C-6.47663111 3.31852519 -4.31953005 0 0 0 Z " fill="#074E48" transform="translate(64,25)"/>
<path d="M0 0 C0.66 0 1.32 0 2 0 C2 0.99 2 1.98 2 3 C1.01 3 0.02 3 -1 3 C-1.2475 3.61875 -1.495 4.2375 -1.75 4.875 C-3.20628639 7.35068687 -4.37812506 7.95125002 -7 9 C-5.12050295 5.42895561 -3.82946843 3.45255699 0 2 C0 1.34 0 0.68 0 0 Z " fill="#094D4D" transform="translate(182,813)"/>
<path d="M0 0 C-0.33 0.99 -0.66 1.98 -1 3 C-4.5625 4.1875 -4.5625 4.1875 -8 5 C-8 4.01 -8 3.02 -8 2 C-4.91190305 0.23537317 -3.76687864 0 0 0 Z " fill="#074D48" transform="translate(86,13)"/>
</svg>
