<?xml version="1.0" encoding="UTF-8"?>
<svg version="1.1" xmlns="http://www.w3.org/2000/svg" width="908" height="1153">
<path d="M0 0 C1.42640562 -0.0041797 2.85280698 -0.01011 4.27919897 -0.01761746 C8.18858442 -0.03314304 12.09757285 -0.02390109 16.00695157 -0.01050565 C20.26396836 -0.00033751 24.52092539 -0.01340694 28.77793366 -0.02347898 C36.23555502 -0.03791556 43.69306053 -0.03749378 51.15068722 -0.02729034 C62.24048494 -0.01215867 73.33018495 -0.01989628 84.41998202 -0.03212357 C104.22674479 -0.05318894 124.03345597 -0.05135996 143.84022365 -0.03980792 C161.17401922 -0.02974779 178.50779586 -0.02711791 195.84159374 -0.0318985 C197.56592855 -0.03235681 197.56592855 -0.03235681 199.32509841 -0.03282438 C203.99147229 -0.03406972 208.65784616 -0.03534332 213.32422001 -0.03666343 C257.10423204 -0.04890118 300.88421118 -0.03780296 344.66421813 -0.01627585 C383.56263949 0.0027055 422.46100846 0.00100933 461.35942936 -0.01811981 C505.0575893 -0.03953747 548.7557202 -0.04803204 592.45388466 -0.03567076 C597.11209237 -0.03438788 601.77030008 -0.03313652 606.4285078 -0.0318985 C607.57548527 -0.03158219 608.72246274 -0.03126588 609.90419711 -0.03093999 C627.22667403 -0.02638961 644.54912995 -0.03171213 661.87160397 -0.04181671 C681.56831962 -0.05324892 701.26497559 -0.05040477 720.9616838 -0.02869374 C731.98597989 -0.01694295 743.01014672 -0.01618997 754.03443947 -0.03127843 C761.39786236 -0.04024516 768.76118159 -0.03467082 776.12458912 -0.01725936 C780.32027023 -0.00774227 784.51569449 -0.00449455 788.71136754 -0.01888329 C792.53244863 -0.03185371 796.35304627 -0.02624536 800.17409248 -0.00616065 C802.18708454 -0.00026643 804.20010533 -0.01386105 806.21305367 -0.02837777 C819.63847279 0.082246 830.42046142 3.8992159 840.38945866 12.94086456 C841.15258366 13.78648956 841.91570866 14.63211456 842.70195866 15.50336456 C843.18277897 15.99191925 843.66359928 16.48047394 844.15898991 16.98383331 C855.62074851 29.20003679 855.99911508 44.48963368 855.95643425 60.25662708 C855.95882519 62.08488348 855.96209108 63.9131389 855.96615085 65.74139234 C855.97477986 70.77575839 855.97094064 75.81004998 855.96509513 80.84441719 C855.96092943 86.31755772 855.96832416 91.79068456 855.97424763 97.26382178 C855.98301965 106.85977223 855.98431819 116.45570135 855.98074436 126.05165482 C855.97544395 140.32116351 855.981526 154.5906515 855.98982729 168.86015795 C856.00488359 195.08465692 856.0069156 221.3091476 856.00450692 247.53365002 C856.00416847 251.24943398 856.00384637 254.96521794 856.00354123 258.6810019 C856.00348019 259.4190468 856.00341914 260.15709171 856.00335625 260.91750161 C856.00208439 277.27322491 856.00468568 293.62894691 856.0080673 309.98466983 C856.00883804 313.71920148 856.00958277 317.45373313 856.01033231 321.18826478 C856.010634 322.68708267 856.01093589 324.18590056 856.01123795 325.68471845 C856.01138763 326.42765537 856.01153731 327.17059229 856.01169153 327.93604245 C856.01199506 329.43879571 856.01229974 330.94154898 856.01260557 332.44430224 C856.02127911 375.08637706 856.02592214 417.72845072 856.02165794 460.37052631 C856.02157989 461.16017991 856.02150183 461.9498335 856.02142141 462.76341599 C856.02054861 471.56892329 856.01961934 480.37443059 856.01867077 489.17993788 C856.01858527 489.97494782 856.01849976 490.76995777 856.01841166 491.58905893 C856.01770085 498.19498886 856.01770085 498.19498886 856.01736943 501.23431253 C856.01183347 552.08743142 856.0193761 602.94053216 856.0381403 653.79364777 C856.04286249 666.60722252 856.047543 679.42079728 856.05197716 692.23437214 C856.05225048 693.02334967 856.0525238 693.8123272 856.05280541 694.62521314 C856.0611763 718.94080927 856.06585633 743.2564039 856.06668472 767.57200146 C856.06671109 768.3353721 856.06673746 769.09874275 856.06676462 769.88524584 C856.0673054 786.64275694 856.06693296 803.40026792 856.06572491 820.15777898 C856.06529928 826.15383975 856.06493416 832.14990051 856.06459547 838.14596128 C856.06451016 839.63763156 856.06442123 841.12930184 856.06432865 842.62097211 C856.06287979 866.39096686 856.07000668 890.16094927 856.08133261 913.93094105 C856.09298055 938.53606929 856.09354863 963.1411755 856.08148918 987.74630383 C856.07484739 1001.93438814 856.07652201 1016.12241446 856.0900777 1030.31049416 C856.09829968 1039.78287188 856.09565402 1049.25520599 856.08410243 1058.72758014 C856.07782366 1064.12780084 856.0763027 1069.52790808 856.08796576 1074.92812238 C856.09848133 1079.84214801 856.09515787 1084.75596373 856.08086124 1089.66997803 C856.07813575 1091.43533541 856.08041823 1093.20070957 856.08836838 1094.96605114 C856.15550216 1110.96703026 853.68950798 1123.32150698 844.51445866 1136.69086456 C835.32269112 1145.8826321 824.11229027 1152.62271447 810.88942569 1152.63216573 C809.6920853 1152.63543792 808.49474491 1152.63871012 807.26112148 1152.64208147 C805.28178345 1152.63985603 805.28178345 1152.63985603 803.2624588 1152.63758564 C801.84391437 1152.63953833 800.42537048 1152.64192709 799.00682744 1152.64471361 C795.08675547 1152.65112708 791.16670395 1152.65127416 787.24662773 1152.6504362 C782.99008888 1152.65060544 778.73355741 1152.65650858 774.47702223 1152.66167706 C766.02477485 1152.67101443 757.57253271 1152.67492702 749.12028082 1152.67719603 C739.000198 1152.68015514 728.88012214 1152.68885081 718.76004297 1152.69761031 C694.29728983 1152.71846739 669.83453547 1152.72892637 645.37177551 1152.73773992 C633.80279987 1152.7419445 622.23382475 1152.74716673 610.66484955 1152.75242445 C571.07541094 1152.77031545 531.48597219 1152.78531232 491.89653015 1152.79274464 C489.41049249 1152.7932194 486.92445483 1152.79369528 484.43841717 1152.7941723 C483.20554672 1152.79440867 481.97267628 1152.79464505 480.70244612 1152.79488859 C474.45594574 1152.79608981 468.20944536 1152.79730525 461.96294498 1152.79853058 C460.7233006 1152.79877073 459.48365622 1152.79901088 458.20644685 1152.79925831 C418.00504886 1152.80715301 377.80368036 1152.83058798 337.60229525 1152.86308652 C295.1150746 1152.89737032 252.62787121 1152.91709442 210.1406365 1152.92038888 C205.47812497 1152.92080643 200.81561344 1152.92128599 196.15310192 1152.92181206 C195.00503153 1152.92193525 193.85696113 1152.92205844 192.67410072 1152.92218537 C174.18395622 1152.92451917 155.69384591 1152.94018917 137.2037136 1152.9606539 C118.62423984 1152.98089155 100.04480725 1152.98639896 81.46532451 1152.97688327 C70.42307176 1152.97166033 59.38095585 1152.97758322 48.33872274 1152.99941794 C40.96437249 1153.01289966 33.59011669 1153.01187231 26.21576555 1152.99901598 C22.01288797 1152.99210187 17.8102725 1152.99150931 13.60741805 1153.00857607 C9.78090791 1153.02398804 5.95487036 1153.02085061 2.12837414 1153.00316579 C0.11001751 1152.9985497 -1.90835526 1153.01349382 -3.92665508 1153.02932557 C-17.24940044 1152.92793646 -29.21195521 1148.42076941 -39.04804134 1139.25336456 C-42.8793927 1135.14254993 -45.85693415 1130.55573655 -48.29804134 1125.50336456 C-48.62790664 1124.82242141 -48.95777193 1124.14147825 -49.29763314 1123.43990046 C-53.07838378 1114.55142624 -52.85559154 1105.83829477 -52.80140591 1096.37627411 C-52.80558247 1094.53173736 -52.81151045 1092.68720389 -52.81902337 1090.84267771 C-52.83459344 1085.77237004 -52.8252832 1080.70236722 -52.81191156 1075.63206454 C-52.80176528 1070.11657411 -52.81480421 1064.60113044 -52.82488489 1059.08564663 C-52.8393373 1049.41846995 -52.83888992 1039.75138262 -52.82869625 1030.08420181 C-52.81428659 1016.38160403 -52.82014598 1002.679074 -52.83181242 988.97647699 C-52.85296078 964.11955427 -52.85440854 939.26266664 -52.84322262 914.40573883 C-52.84289144 913.66944697 -52.84256025 912.93315511 -52.84221904 912.17455137 C-52.84188732 911.43708001 -52.8415556 910.69960866 -52.84121383 909.93978968 C-52.83112156 887.47325531 -52.82851532 865.00673544 -52.83330441 842.54019928 C-52.83361432 841.03579865 -52.83392295 839.53139801 -52.83423029 838.02699738 C-52.83547215 831.98145018 -52.83674682 825.93590298 -52.83806934 819.89035579 C-52.84173739 802.99050009 -52.84401978 786.09064433 -52.84521389 769.19078827 C-52.84529576 768.0364147 -52.84529576 768.0364147 -52.84537929 766.85872046 C-52.84701643 742.33611691 -52.84250872 717.81351841 -52.83381557 693.29091644 C-52.83353458 692.49553622 -52.83325358 691.700156 -52.83296407 690.88067335 C-52.82838427 677.96417545 -52.82350642 665.04767766 -52.81860338 652.13117988 C-52.799178 600.90268838 -52.80007961 549.6742387 -52.81952572 498.44574738 C-52.82441047 485.53576919 -52.82925467 472.62579099 -52.83381557 459.71581268 C-52.83409737 458.92090066 -52.83437916 458.12598863 -52.83466949 457.30698836 C-52.84329408 432.80997186 -52.84695136 408.31295883 -52.84521389 383.81594086 C-52.84515955 383.04692345 -52.84510522 382.27790604 -52.84504923 381.48558507 C-52.84379932 364.6045117 -52.84126478 347.7234387 -52.83757188 330.8423657 C-52.83625531 324.80221992 -52.83500299 318.76207413 -52.83376903 312.72192834 C-52.83345948 311.2192944 -52.83314456 309.71666046 -52.83282425 308.21402653 C-52.82804963 285.75340414 -52.83211614 263.2927981 -52.84221904 240.83217775 C-52.84255022 240.09588589 -52.8428814 239.35959403 -52.84322262 238.6009903 C-52.84355335 237.86605642 -52.84388408 237.13112254 -52.84422483 236.37391794 C-52.85525648 211.58877565 -52.85120181 186.80367546 -52.83009964 162.01853919 C-52.8182343 147.72579863 -52.81761321 133.43315396 -52.83268434 119.14041565 C-52.84163657 109.59961724 -52.83610301 100.05889896 -52.81866526 90.51811244 C-52.80912808 85.07800832 -52.80594232 79.63810265 -52.82028919 74.1980046 C-52.83320826 69.24895034 -52.82772438 64.30027062 -52.80756655 59.35124366 C-52.80353809 57.57211284 -52.806202 55.79295101 -52.81639031 54.0138448 C-52.866827 44.53370819 -52.52017009 36.21913347 -48.29804134 27.50336456 C-47.81722103 26.50820831 -47.33640072 25.51305206 -46.84101009 24.48773956 C-36.23549814 7.00545473 -20.08942891 -0.14461766 0 0 Z " fill="#F7EFE2" transform="translate(52.298041343688965,-0.5033645629882813)"/>
<path d="M0 0 C33.99 0 67.98 0 103 0 C103.33 33.66 103.66 67.32 104 102 C137.66 102 171.32 102 206 102 C206 85.17 206 68.34 206 51 C201.97554687 51.04640625 197.95109375 51.0928125 193.8046875 51.140625 C190.55596912 51.16642529 187.30728046 51.18808918 184.05851746 51.20700073 C180.65093762 51.22795221 177.24376857 51.25585236 173.83642578 51.30175781 C169.90907266 51.35079564 165.9822931 51.37308784 162.0546875 51.390625 C160.26005569 51.42159271 160.26005569 51.42159271 158.4291687 51.45318604 C149.74966003 51.45544634 142.13721513 50.11090494 134 47 C133.34 46.34 132.68 45.68 132 45 C130.824375 44.505 129.64875 44.01 128.4375 43.5 C125 42 125 42 124 40 C122.87271484 39.36771484 122.87271484 39.36771484 121.72265625 38.72265625 C114.25081982 33.99513851 109.47396465 25.04248072 106.65625 16.86328125 C106.15451119 15.01049482 106.15451119 15.01049482 105 14 C104.76472227 11.65012738 104.58613583 9.29443961 104.4375 6.9375 C104.35371094 5.64714844 104.26992188 4.35679687 104.18359375 3.02734375 C104.12300781 2.02832031 104.06242188 1.02929688 104 0 C111.85918214 -0.0933431 119.71823049 -0.16408687 127.57783031 -0.20724869 C131.22876478 -0.22798121 134.87931556 -0.25602991 138.5300293 -0.30175781 C142.06382745 -0.3457361 145.59726038 -0.36924437 149.13131142 -0.37950897 C151.11241851 -0.39032181 153.09338195 -0.42146133 155.07426453 -0.45318604 C163.31418077 -0.45519318 174.24906502 -0.30339076 180.72331238 5.56097412 C181.35527275 6.27329193 181.35527275 6.27329193 182 7 C184.09989652 8.17574711 184.09989652 8.17574711 186 9 C186 9.66 186 10.32 186 11 C186.86818359 11.12568359 186.86818359 11.12568359 187.75390625 11.25390625 C193.89259689 13.29301914 198.07254512 20.69901271 200.875 26.1875 C202.57385635 29.76935446 203.72876622 33.18629865 205 37 C205.33 24.79 205.66 12.58 206 0 C221.49091347 -0.16043524 221.49091347 -0.16043524 228.1640625 -0.1953125 C232.69322782 -0.21909759 237.22206552 -0.2470382 241.75097656 -0.30175781 C245.40796209 -0.34565913 249.06459565 -0.36922881 252.72182465 -0.37950897 C254.10750611 -0.38682192 255.49317132 -0.40109905 256.87870026 -0.42292023 C268.89052901 -0.60433767 278.81791063 1.52048858 289 8 C289 8.66 289 9.32 289 10 C289.99 10.103125 290.98 10.20625 292 10.3125 C298.0460734 12.06267914 300.97108306 17.87560593 304 23 C308.14553767 31.34225481 310.12740341 38.61115154 310.12025452 47.94760132 C310.12153615 48.95984502 310.12153615 48.95984502 310.12284368 49.99253809 C310.124483 52.24033286 310.11900261 54.48805202 310.11352539 56.73583984 C310.11324316 58.35246784 310.11340196 59.96909596 310.1139679 61.58572388 C310.11425446 65.96540546 310.10838041 70.34505958 310.10139394 74.72473478 C310.09513704 79.30514607 310.09455475 83.885558 310.09336853 88.4659729 C310.09026211 97.13560794 310.082058 105.80523035 310.07201904 114.47485983 C310.06083652 124.3466353 310.05534206 134.21841138 310.05032361 144.0901916 C310.03987482 164.39346811 310.0222887 184.69673326 310 205 C283.00120252 205.18685497 256.0025019 205.32794249 229.00318813 205.41449738 C216.46699348 205.45575404 203.93120051 205.51200456 191.39526367 205.60351562 C180.46933112 205.68323583 169.54368945 205.73486172 158.61747414 205.75270796 C152.8315706 205.76314065 147.04649924 205.78766969 141.26086235 205.84584045 C135.81468306 205.9001544 130.36967842 205.91689002 124.92325401 205.90486145 C122.92494573 205.90706181 120.92659806 205.92296921 118.92852402 205.9536438 C103.78274017 206.17475161 103.78274017 206.17475161 99.31129646 203.22825623 C97.55470324 201.22924238 96.29898201 199.30949474 95 197 C94.175 196.34 93.35 195.68 92.5 195 C89.48443222 192.58754578 87.18724755 189.8057385 84.6875 186.875 C82.971342 184.86602082 82.971342 184.86602082 80.5 183 C78.2374434 181.18995472 76.60938283 179.45055399 74.75 177.25 C71.3989817 173.299793 67.68801472 169.98728446 63.72265625 166.6640625 C62.86994141 165.84035156 62.86994141 165.84035156 62 165 C62 164.34 62 163.68 62 163 C61.443125 162.7525 60.88625 162.505 60.3125 162.25 C55.38758479 159.58788367 51.99410604 155.95643948 48.4609375 151.71484375 C47.24883037 150.29207629 45.9466412 148.9466412 44.625 147.625 C42.3608328 145.3608328 40.28254174 143.04267 38.1875 140.625 C34.99004244 136.99480383 31.63214428 133.81046339 27.9453125 130.6875 C24.79800714 127.9573074 21.90858403 124.98004801 19 122 C16.61369847 119.55688177 14.33964645 117.25920387 11.625 115.1875 C8.57665779 112.64721483 6.11737212 109.82085859 3.55078125 106.8046875 C1.97318991 104.92288746 1.97318991 104.92288746 0 103 C-0.24609566 101.14531517 -0.24609566 101.14531517 -0.24050903 98.84921265 C-0.24326403 97.98161505 -0.24601902 97.11401745 -0.2488575 96.22012901 C-0.24166128 95.2623839 -0.23446507 94.30463879 -0.22705078 93.31787109 C-0.22729185 92.2966749 -0.22753292 91.27547871 -0.2277813 90.22333717 C-0.22628448 86.90661635 -0.21103481 83.59011829 -0.1953125 80.2734375 C-0.19237321 78.23022571 -0.19033207 76.18701242 -0.18920898 74.14379883 C-0.17870844 66.5541763 -0.1507862 58.96458598 -0.125 51.375 C-0.08375 34.42125 -0.0425 17.4675 0 0 Z " fill="#B4C0B4" transform="translate(598,1)"/>
<path d="M0 0 C2.97 0 5.94 0 9 0 C9 10.89 9 21.78 9 33 C10.65 33.33 12.3 33.66 14 34 C20.27128474 37.58525962 24.69613204 42.08839612 27 49 C27.08669529 50.51907624 27.117694 52.04169001 27.11352539 53.56323242 C27.11344986 54.48396042 27.11337433 55.40468842 27.11329651 56.35331726 C27.10813522 57.34402725 27.10297394 58.33473724 27.09765625 59.35546875 C27.0962413 60.37224197 27.09482635 61.3890152 27.09336853 62.43659973 C27.08776707 65.68692964 27.07521432 68.93719088 27.0625 72.1875 C27.05748519 74.38997296 27.05292225 76.59244701 27.04882812 78.79492188 C27.03864769 84.19666238 27.01907246 89.59825425 27 95 C12.15 95 -2.7 95 -18 95 C-18.061875 87.74 -18.12375 80.48 -18.1875 73 C-18.21481201 70.72351563 -18.24212402 68.44703125 -18.27026367 66.1015625 C-18.27903411 64.27604705 -18.28667673 62.45052568 -18.29296875 60.625 C-18.30831665 59.69429687 -18.32366455 58.76359375 -18.33947754 57.8046875 C-18.34217838 51.00577198 -17.40361922 45.49285426 -13.45703125 39.7578125 C-12.91433594 39.21898437 -12.37164062 38.68015625 -11.8125 38.125 C-11.28269531 37.57070313 -10.75289063 37.01640625 -10.20703125 36.4453125 C-8 35 -8 35 0 33 C0 22.11 0 11.22 0 0 Z " fill="#B6C1B2" transform="translate(440,1)"/>
<path d="M0 0 C0.33 0 0.66 0 1 0 C1 54.12 1 108.24 1 164 C-66.65 164 -134.3 164 -204 164 C-203.505 163.01 -203.505 163.01 -203 162 C-170.33 162.33 -137.66 162.66 -104 163 C-103.67 141.88 -103.34 120.76 -103 99 C-102.67 99 -102.34 99 -102 99 C-101.67 120.12 -101.34 141.24 -101 163 C-90.44 162.67 -79.88 162.34 -69 162 C-46.23 162 -23.46 162 0 162 C0 108.54 0 55.08 0 0 Z " fill="#C2C8BC" transform="translate(907,42)"/>
<path d="M0 0 C1.98 0 3.96 0 6 0 C6 2.64 6 5.28 6 8 C4.02 8 2.04 8 0 8 C-1.125 2.25 -1.125 2.25 0 0 Z " fill="#D4CBC1" transform="translate(855,272)"/>
<path d="M0 0 C1.65 0.33 3.3 0.66 5 1 C5.625 2.8125 5.625 2.8125 6 5 C5.01 6.485 5.01 6.485 4 8 C2.35 7.67 0.7 7.34 -1 7 C-1.625 5.1875 -1.625 5.1875 -2 3 C-1.34 2.01 -0.68 1.02 0 0 Z " fill="#C6C2B7" transform="translate(856,297)"/>
<path d="M0 0 C0.598125 0.20625 1.19625 0.4125 1.8125 0.625 C2.4375 3 2.4375 3 2.8125 5.625 C2.1525 6.285 1.4925 6.945 0.8125 7.625 C-1.8125 7.25 -1.8125 7.25 -4.1875 6.625 C-4.5175 4.975 -4.8475 3.325 -5.1875 1.625 C-2.1875 -0.375 -2.1875 -0.375 0 0 Z " fill="#C7C1B8" transform="translate(884.1875,272.375)"/>
<path d="M0 0 C2.625 0.375 2.625 0.375 5 1 C5.625 2.8125 5.625 2.8125 6 5 C5.01 6.485 5.01 6.485 4 8 C1.375 8.1875 1.375 8.1875 -1 8 C-1.625 5.125 -1.625 5.125 -2 2 C-1.34 1.34 -0.68 0.68 0 0 Z " fill="#C9C0B6" transform="translate(856,247)"/>
<path d="M0 0 C0.04254356 1.99954746 0.04080783 4.00041636 0 6 C-1 7 -1 7 -4.0625 7.0625 C-5.031875 7.041875 -6.00125 7.02125 -7 7 C-7 4.69 -7 2.38 -7 0 C-3.86650268 -1.04449911 -3.01031744 -0.93423645 0 0 Z " fill="#C6C0B2" transform="translate(836,248)"/>
<path d="M0 0 C0.79953138 3.28696233 1.09658936 4.71023192 0 8 C-2.97 7.505 -2.97 7.505 -6 7 C-6.6875 5.1875 -6.6875 5.1875 -7 3 C-4.8243318 -0.20624788 -4.07796486 0 0 0 Z " fill="#D4D3C3" transform="translate(352,67)"/>
<path d="M0 0 C2.97 0.495 2.97 0.495 6 1 C6 2.98 6 4.96 6 7 C4.02 7.33 2.04 7.66 0 8 C-1.125 2.25 -1.125 2.25 0 0 Z " fill="#C6BDB0" transform="translate(830,272)"/>
<path d="M0 0 C2.625 0.9375 2.625 0.9375 5 2 C5 3.65 5 5.3 5 7 C2.6875 7.6875 2.6875 7.6875 0 8 C-1.875 6.8125 -1.875 6.8125 -3 5 C-2.8125 2.875 -2.8125 2.875 -2 1 C-1.34 0.67 -0.68 0.34 0 0 Z " fill="#C4BFB1" transform="translate(882,297)"/>
<path d="M0 0 C2.625 0.9375 2.625 0.9375 5 2 C4.67 3.65 4.34 5.3 4 7 C2.1875 7.6875 2.1875 7.6875 0 8 C-1.8125 6.8125 -1.8125 6.8125 -3 5 C-2.8125 2.875 -2.8125 2.875 -2 1 C-1.34 0.67 -0.68 0.34 0 0 Z " fill="#C4BFB1" transform="translate(882,247)"/>
<path d="M0 0 C0 0.66 0 1.32 0 2 C0.66 2 1.32 2 2 2 C2 3.98 2 5.96 2 8 C-0.31 7.67 -2.62 7.34 -5 7 C-5.1875 4.625 -5.1875 4.625 -5 2 C-2 0 -2 0 0 0 Z " fill="#D1D1C1" transform="translate(326,117)"/>
<path d="M0 0 C2.625 0.375 2.625 0.375 5 1 C5 2.65 5 4.3 5 6 C4.34 6 3.68 6 3 6 C3 6.66 3 7.32 3 8 C1.68 7.67 0.36 7.34 -1 7 C-1.625 4.625 -1.625 4.625 -2 2 C-1.34 1.34 -0.68 0.68 0 0 Z " fill="#CDD0BF" transform="translate(323,92)"/>
<path d="M0 0 C2.31 0 4.62 0 7 0 C7 1.65 7 3.3 7 5 C6.34 5 5.68 5 5 5 C5 5.66 5 6.32 5 7 C3.35 6.67 1.7 6.34 0 6 C0 4.02 0 2.04 0 0 Z " fill="#CFD1C0" transform="translate(321,68)"/>
<path d="M0 0 C1.67542976 0.28604898 3.34385343 0.61781233 5 1 C5 2.98 5 4.96 5 7 C3.1875 7.6875 3.1875 7.6875 1 8 C-0.8125 6.8125 -0.8125 6.8125 -2 5 C-1.74853421 2.86254078 -1.54074221 1.54074221 0 0 Z " fill="#C2BCAE" transform="translate(831,297)"/>
<path d="M0 0 C1.98 0 3.96 0 6 0 C6.04254356 1.99954746 6.04080783 4.00041636 6 6 C5 7 5 7 2.4375 7.0625 C1.2309375 7.0315625 1.2309375 7.0315625 0 7 C-1.125 2.25 -1.125 2.25 0 0 Z " fill="#D4CDBF" transform="translate(372,68)"/>
<path d="M0 0 C1.67542976 0.28604898 3.34385343 0.61781233 5 1 C4.67 2.98 4.34 4.96 4 7 C2.68 7 1.36 7 0 7 C0 6.34 0 5.68 0 5 C-0.66 5 -1.32 5 -2 5 C-1.125 1.125 -1.125 1.125 0 0 Z " fill="#D0D0C0" transform="translate(348,93)"/>
<path d="M0 0 C2.97 0 5.94 0 9 0 C9 0.33 9 0.66 9 1 C7.35 1 5.7 1 4 1 C4.33 2.98 4.66 4.96 5 7 C3.02 5.35 1.04 3.7 -1 2 C-0.67 1.34 -0.34 0.68 0 0 Z " fill="#C3C9BB" transform="translate(600,103)"/>
<path d="M0 0 C2.475 0.495 2.475 0.495 5 1 C4.67 2.65 4.34 4.3 4 6 C2.68 6 1.36 6 0 6 C0 4.02 0 2.04 0 0 Z " fill="#C1B7AF" transform="translate(856,273)"/>
<path d="M0 0 C3.73884332 2.65654657 5.64978174 4.58110387 7 9 C5.68 9 4.36 9 3 9 C2 6 1 3 0 0 Z " fill="#D5D6D1" transform="translate(894,15)"/>
</svg>
