<svg xmlns="http://www.w3.org/2000/svg" width="34" height="28.271" viewBox="0 0 34 28.271">
  <g id="_x30_1_Flag" transform="translate(-11.153 -52.404)">
    <g id="Group_128333" data-name="Group 128333" transform="translate(11.153 52.404)">
      <path id="Path_181234" data-name="Path 181234" d="M49.289,59.508v6.9H15.956v-6.9a2.3,2.3,0,0,1,2.3-2.3H46.987A2.3,2.3,0,0,1,49.289,59.508Z" transform="translate(-15.623 -56.873)" fill="#fd8d06"/>
      <path id="Path_181235" data-name="Path 181235" d="M21.589,57.195a2.3,2.3,0,0,0-2.3,2.3v6.9h-3.33V59.5a2.3,2.3,0,0,1,2.3-2.3Z" transform="translate(-15.623 -56.862)" fill="#d54e21"/>
      <path id="Path_181236" data-name="Path 181236" d="M15.956,189.736H49.289v9.2H15.956Z" transform="translate(-15.623 -180.201)" fill="#fff"/>
      <path id="Path_181237" data-name="Path 181237" d="M15.956,189.748h3.33v9.2h-3.33Z" transform="translate(-15.623 -180.212)" fill="#bae3f5"/>
      <path id="Path_181238" data-name="Path 181238" d="M49.288,322.265v6.9a2.3,2.3,0,0,1-2.3,2.3H18.257a2.3,2.3,0,0,1-2.3-2.3v-6.9Z" transform="translate(-15.622 -303.528)" fill="#6db02f"/>
      <path id="Path_181239" data-name="Path 181239" d="M49.289,328.05v1.1a2.3,2.3,0,0,1-2.3,2.3H18.259a2.3,2.3,0,0,1-2.3-2.3v-6.9h3.257v1.557A4.389,4.389,0,0,0,23.6,328.2h24.56A4.222,4.222,0,0,0,49.289,328.05Z" transform="translate(-15.622 -303.517)" fill="#8acc34"/>
      <circle id="Ellipse_8801" data-name="Ellipse 8801" cx="3.331" cy="3.331" r="3.331" transform="matrix(0.16, -0.987, 0.987, 0.16, 13.175, 16.889)" fill="#61caf7"/>
      <path id="Path_181240" data-name="Path 181240" d="M42.518,52.4H13.788a2.638,2.638,0,0,0-2.635,2.635v23a2.638,2.638,0,0,0,2.635,2.635h28.73a2.638,2.638,0,0,0,2.635-2.635v-23A2.638,2.638,0,0,0,42.518,52.4Zm1.968,18.4H11.82V62.272H44.486v8.535Zm0,7.233a1.971,1.971,0,0,1-1.968,1.969H13.788a1.971,1.971,0,0,1-1.969-1.969V71.474H44.486v6.566Zm0-16.435H11.82V55.039a1.971,1.971,0,0,1,1.969-1.969h28.73a1.971,1.971,0,0,1,1.968,1.969Z" transform="translate(-11.153 -52.404)"/>
      <path id="Path_181241" data-name="Path 181241" d="M204.3,209.473l0,0,0,0a3.658,3.658,0,0,0,5.174,0l0,0,0,0a3.658,3.658,0,0,0,0-5.175l0,0,0,0a3.658,3.658,0,0,0-5.172,0l0,0,0,0A3.658,3.658,0,0,0,204.3,209.473Zm.253-4.455,1.535,1.535h-2.173A2.981,2.981,0,0,1,204.551,205.018Zm5.318,1.535H207.7l1.535-1.536A2.982,2.982,0,0,1,209.869,206.553Zm-.638,2.2L207.7,207.22h2.174A2.982,2.982,0,0,1,209.231,208.755Zm-2.674,1.109a2.982,2.982,0,0,1-1.535-.638l1.535-1.535Zm.667-2.173,1.536,1.536a2.981,2.981,0,0,1-1.536.638Zm0-1.609v-2.173a2.982,2.982,0,0,1,1.536.638Zm-.667,0-1.535-1.535a2.982,2.982,0,0,1,1.535-.638Zm-.471,1.138-1.535,1.535a2.982,2.982,0,0,1-.638-1.535Z" transform="translate(-189.891 -192.751)"/>
    </g>
  </g>
</svg>
