<?xml version="1.0" encoding="UTF-8"?>
<svg version="1.1" xmlns="http://www.w3.org/2000/svg" width="468" height="144">
<path d="M0 0 C7.9361421 -0.02255473 15.87225946 -0.04091723 23.80842495 -0.05181217 C27.49314498 -0.05704008 31.17784203 -0.06413605 34.86254883 -0.07543945 C38.41570831 -0.08627162 41.96884563 -0.09227753 45.52202034 -0.09487724 C46.88045666 -0.0967309 48.23889171 -0.10035038 49.59731865 -0.10573006 C51.49382223 -0.11294475 53.39034793 -0.11340809 55.28686523 -0.11352539 C56.36830307 -0.115746 57.44974091 -0.11796661 58.56394958 -0.12025452 C61 0 61 0 62 1 C62.0983721 2.33043625 62.13078592 3.66593344 62.1328125 5 C62.13474609 6.2065625 62.13474609 6.2065625 62.13671875 7.4375 C62.13285156 8.283125 62.12898438 9.12875 62.125 10 C62.13080078 11.2684375 62.13080078 11.2684375 62.13671875 12.5625 C62.13542969 13.366875 62.13414062 14.17125 62.1328125 15 C62.13168457 15.7425 62.13055664 16.485 62.12939453 17.25 C62 19 62 19 61 20 C59.09756238 20.09391296 57.19161541 20.11743658 55.28686523 20.11352539 C54.0656749 20.11344986 52.84448456 20.11337433 51.58628845 20.11329651 C50.24372314 20.10818911 48.90115825 20.10297311 47.55859375 20.09765625 C46.19238842 20.09579199 44.82618243 20.09436813 43.4599762 20.09336853 C39.85798305 20.08954394 36.25603 20.07971417 32.65405273 20.06866455 C28.98096255 20.05844916 25.30786591 20.05387064 21.63476562 20.04882812 C14.42315666 20.03809184 7.21158905 20.02049553 0 20 C0 13.4 0 6.8 0 0 Z " fill="#616161" transform="translate(270,1)"/>
<path d="M0 0 C0.58910156 0.20496094 1.17820312 0.40992188 1.78515625 0.62109375 C2.11515625 2.93109375 2.44515625 5.24109375 2.78515625 7.62109375 C3.77515625 6.96109375 4.76515625 6.30109375 5.78515625 5.62109375 C7.46170354 5.9005183 9.13123779 6.22937622 10.78515625 6.62109375 C11.11515625 6.29109375 11.44515625 5.96109375 11.78515625 5.62109375 C13.55679937 5.65330544 15.32784428 5.72186124 17.09765625 5.80859375 C21.54172235 5.94485793 21.54172235 5.94485793 25.28515625 3.74609375 C25.78015625 3.04484375 26.27515625 2.34359375 26.78515625 1.62109375 C30.48298378 -0.8441246 33.49468973 -0.84015316 37.78515625 -0.37890625 C39.13313055 0.25763717 40.47112349 0.91714763 41.78515625 1.62109375 C43.85877613 1.3735293 43.85877613 1.3735293 45.78515625 0.62109375 C46.77515625 0.29109375 47.76515625 -0.03890625 48.78515625 -0.37890625 C49.28015625 1.10609375 49.28015625 1.10609375 49.78515625 2.62109375 C51.10515625 1.96109375 52.42515625 1.30109375 53.78515625 0.62109375 C51.00753502 4.22171386 48.04524268 7.45156528 44.78515625 10.62109375 C47.26015625 11.11609375 47.26015625 11.11609375 49.78515625 11.62109375 C47.27860603 19.49882301 47.27860603 19.49882301 45.78515625 21.62109375 C42.19653912 22.81729946 38.54115782 22.95496056 34.78515625 22.62109375 C34.12515625 21.63109375 33.46515625 20.64109375 32.78515625 19.62109375 C32.35203125 20.11609375 31.91890625 20.61109375 31.47265625 21.12109375 C29.78515625 22.62109375 29.78515625 22.62109375 26.78515625 22.62109375 C26.29015625 21.13609375 26.29015625 21.13609375 25.78515625 19.62109375 C24.91890625 20.39453125 24.91890625 20.39453125 24.03515625 21.18359375 C21.78515625 22.62109375 21.78515625 22.62109375 19.59765625 22.37109375 C17.78515625 21.62109375 17.78515625 21.62109375 16.78515625 20.62109375 C16.74422688 18.28811942 16.74273902 15.9540415 16.78515625 13.62109375 C16.02203125 14.30171875 15.25890625 14.98234375 14.47265625 15.68359375 C13.58578125 16.32296875 12.69890625 16.96234375 11.78515625 17.62109375 C10.79515625 17.29109375 9.80515625 16.96109375 8.78515625 16.62109375 C8.78515625 17.28109375 8.78515625 17.94109375 8.78515625 18.62109375 C9.38328125 18.72421875 9.98140625 18.82734375 10.59765625 18.93359375 C13.08499589 19.71532906 14.03211653 20.74750115 15.78515625 22.62109375 C14.30608733 22.64798591 12.82688142 22.66743996 11.34765625 22.68359375 C10.11208984 22.70099609 10.11208984 22.70099609 8.8515625 22.71875 C6.78515625 22.62109375 6.78515625 22.62109375 5.78515625 21.62109375 C0.62540833 21.43681704 -4.15097177 21.80459229 -9.234375 22.6953125 C-11.21484375 22.62109375 -11.21484375 22.62109375 -12.9453125 21.33984375 C-15.12043245 18.39506597 -14.68077894 16.17384959 -14.21484375 12.62109375 C-11.97505631 7.37501384 -6.54928414 -1.12042427 0 0 Z M34.78515625 2.62109375 C33.4323751 4.60799106 32.0994732 6.60854593 30.78515625 8.62109375 C29.79515625 8.95109375 28.80515625 9.28109375 27.78515625 9.62109375 C27.45515625 8.30109375 27.12515625 6.98109375 26.78515625 5.62109375 C25.13515625 7.60109375 23.48515625 9.58109375 21.78515625 11.62109375 C22.11515625 12.28109375 22.44515625 12.94109375 22.78515625 13.62109375 C24.43515625 12.63109375 26.08515625 11.64109375 27.78515625 10.62109375 C27.78515625 12.27109375 27.78515625 13.92109375 27.78515625 15.62109375 C28.52765625 14.94046875 29.27015625 14.25984375 30.03515625 13.55859375 C32.78515625 11.62109375 32.78515625 11.62109375 35.09765625 11.87109375 C35.65453125 12.11859375 36.21140625 12.36609375 36.78515625 12.62109375 C39.69687414 8.95129171 39.69687414 8.95129171 40.78515625 4.62109375 C37.97005632 2.34374365 37.97005632 2.34374365 34.78515625 2.62109375 Z M-2.21484375 2.62109375 C-6.34856278 6.29551066 -9.56922205 10.24610858 -11.21484375 15.62109375 C-10.88577594 17.81184243 -10.88577594 17.81184243 -10.21484375 19.62109375 C-5.58835059 20.6700434 -2.39587252 20.4491573 2.16015625 19.18359375 C3.21976562 18.89613281 4.279375 18.60867187 5.37109375 18.3125 C6.56605469 17.97025391 6.56605469 17.97025391 7.78515625 17.62109375 C7.45515625 16.96109375 7.12515625 16.30109375 6.78515625 15.62109375 C6.02203125 15.84796875 5.25890625 16.07484375 4.47265625 16.30859375 C3.58578125 16.41171875 2.69890625 16.51484375 1.78515625 16.62109375 C-0.02734375 15.18359375 -0.02734375 15.18359375 -1.21484375 13.62109375 C-3.68984375 15.10609375 -3.68984375 15.10609375 -6.21484375 16.62109375 C-5.75268864 11.65292632 -4.30621095 9.43377996 -1.21484375 5.62109375 C-1.54484375 4.63109375 -1.87484375 3.64109375 -2.21484375 2.62109375 Z M27.78515625 3.62109375 C28.78515625 5.62109375 28.78515625 5.62109375 28.78515625 5.62109375 Z M30.78515625 3.62109375 C30.12515625 5.27109375 29.46515625 6.92109375 28.78515625 8.62109375 C30.10515625 7.30109375 31.42515625 5.98109375 32.78515625 4.62109375 C32.12515625 4.29109375 31.46515625 3.96109375 30.78515625 3.62109375 Z M-0.21484375 6.62109375 C0.78515625 9.62109375 0.78515625 9.62109375 0.78515625 9.62109375 Z M42.78515625 6.62109375 C43.11515625 7.28109375 43.44515625 7.94109375 43.78515625 8.62109375 C44.11515625 7.96109375 44.44515625 7.30109375 44.78515625 6.62109375 C44.12515625 6.62109375 43.46515625 6.62109375 42.78515625 6.62109375 Z M16.78515625 7.62109375 C16.45515625 8.61109375 16.12515625 9.60109375 15.78515625 10.62109375 C16.77515625 10.95109375 17.76515625 11.28109375 18.78515625 11.62109375 C19.11515625 10.63109375 19.44515625 9.64109375 19.78515625 8.62109375 C18.79515625 8.29109375 17.80515625 7.96109375 16.78515625 7.62109375 Z M5.78515625 8.62109375 C4.79515625 10.60109375 3.80515625 12.58109375 2.78515625 14.62109375 C4.77007267 14.35433171 4.77007267 14.35433171 6.78515625 13.62109375 C7.11515625 12.63109375 7.44515625 11.64109375 7.78515625 10.62109375 C7.12515625 9.96109375 6.46515625 9.30109375 5.78515625 8.62109375 Z M-3.21484375 10.62109375 C-2.88484375 11.61109375 -2.55484375 12.60109375 -2.21484375 13.62109375 C-1.55484375 12.63109375 -0.89484375 11.64109375 -0.21484375 10.62109375 C-1.20484375 10.62109375 -2.19484375 10.62109375 -3.21484375 10.62109375 Z M10.78515625 10.62109375 C11.78515625 12.62109375 11.78515625 12.62109375 11.78515625 12.62109375 Z M25.78515625 12.62109375 C25.45515625 13.94109375 25.12515625 15.26109375 24.78515625 16.62109375 C23.13515625 16.95109375 21.48515625 17.28109375 19.78515625 17.62109375 C20.11515625 18.28109375 20.44515625 18.94109375 20.78515625 19.62109375 C22.72590486 19.34491842 22.72590486 19.34491842 24.78515625 18.62109375 C25.44515625 17.63109375 26.10515625 16.64109375 26.78515625 15.62109375 C26.45515625 14.63109375 26.12515625 13.64109375 25.78515625 12.62109375 Z M32.78515625 12.62109375 C33.78515625 14.62109375 33.78515625 14.62109375 33.78515625 14.62109375 Z M20.78515625 13.62109375 C21.78515625 16.62109375 21.78515625 16.62109375 21.78515625 16.62109375 Z M39.78515625 13.62109375 C38.30015625 15.60109375 38.30015625 15.60109375 36.78515625 17.62109375 C37.11515625 18.28109375 37.44515625 18.94109375 37.78515625 19.62109375 C38.77515625 18.30109375 39.76515625 16.98109375 40.78515625 15.62109375 C40.45515625 14.96109375 40.12515625 14.30109375 39.78515625 13.62109375 Z M30.78515625 15.62109375 C30.45515625 16.94109375 30.12515625 18.26109375 29.78515625 19.62109375 C30.44515625 19.29109375 31.10515625 18.96109375 31.78515625 18.62109375 C31.45515625 17.63109375 31.12515625 16.64109375 30.78515625 15.62109375 Z M42.78515625 15.62109375 C42.78515625 18.62109375 42.78515625 18.62109375 42.78515625 18.62109375 Z " fill="#C62932" transform="translate(281.21484375,52.37890625)"/>
<path d="M0 0 C20.13 0 40.26 0 61 0 C61 0.33 61 0.66 61 1 C54.4 1.66 47.8 2.32 41 3 C40.67 5.64 40.34 8.28 40 11 C38.02 11 36.04 11 34 11 C33.67 11.99 33.34 12.98 33 14 C26.84765625 14.09765625 26.84765625 14.09765625 25 14 C24 13 24 13 23.875 10 C24 7 24 7 25 6 C29.93239162 5.75338042 33.49862174 5.74931087 38 8 C37.34 6.35 36.68 4.7 36 3 C33.89646505 2.9189794 31.79204048 2.86080093 29.6875 2.8125 C28.51574219 2.77769531 27.34398437 2.74289062 26.13671875 2.70703125 C23.05929016 2.74423564 23.05929016 2.74423564 21.10546875 4.26171875 C19.78525141 6.33767888 19.59717628 7.5515127 19.625 10 C19.61726563 10.680625 19.60953125 11.36125 19.6015625 12.0625 C19.89529261 14.05314484 19.89529261 14.05314484 21.07421875 15.73828125 C24.05130234 17.68878429 26.68335047 17.28394448 30.1875 17.1875 C31.45980469 17.16042969 32.73210937 17.13335938 34.04296875 17.10546875 C35.01878906 17.07066406 35.99460937 17.03585938 37 17 C37.495 17.99 37.495 17.99 38 19 C25.46 19 12.92 19 0 19 C0 12.73 0 6.46 0 0 Z " fill="#4F4B46" transform="translate(270,1)"/>
<path d="M0 0 C1.65 0 3.3 0 5 0 C5 0.99 5 1.98 5 3 C6.65 3 8.3 3 10 3 C9.67 4.65 9.34 6.3 9 8 C7.68 8 6.36 8 5 8 C5.78130071 10.49552484 5.78130071 10.49552484 7 13 C7.99 13.33 8.98 13.66 10 14 C9.938125 13.0925 9.87625 12.185 9.8125 11.25 C10 8 10 8 11.0625 5.6875 C13.89214735 3.22296844 16.31502937 3.19394582 20 3 C22.4375 3.4375 22.4375 3.4375 24 4 C24.1953125 6.05078125 24.390625 8.1015625 24.5859375 10.15234375 C24.72257812 10.76207031 24.85921875 11.37179688 25 12 C25.66 12.33 26.32 12.66 27 13 C27.33 9.7 27.66 6.4 28 3 C29.65 3 31.3 3 33 3 C33.495 4.485 33.495 4.485 34 6 C34.515625 5.484375 35.03125 4.96875 35.5625 4.4375 C38 3 38 3 41.625 3.125 C45 4 45 4 47 7 C47.125 9.6875 47.125 9.6875 47 12 C45.02 12.33 43.04 12.66 41 13 C43.475 13.495 43.475 13.495 46 14 C45.67 14.99 45.34 15.98 45 17 C41.8125 17.75 41.8125 17.75 38 18 C35.0625 16.0625 35.0625 16.0625 33 14 C32.2265625 15.0209375 32.2265625 15.0209375 31.4375 16.0625 C29 18 29 18 25.375 17.875 C22 17 22 17 20 15 C19.875 11.375 19.875 11.375 20 8 C18.35 8 16.7 8 15 8 C15 11.3 15 14.6 15 18 C5.98196393 18.6012024 5.98196393 18.6012024 1.9375 16.125 C-0.69519834 11.87871236 -1.11753312 7.9531815 -1 3 C-0.67 2.01 -0.34 1.02 0 0 Z M39 7 C38.67 7.66 38.34 8.32 38 9 C39.32 9 40.64 9 42 9 C42 8.34 42 7.68 42 7 C41.01 7 40.02 7 39 7 Z " fill="#CD201D" transform="translate(377,55)"/>
<path d="M0 0 C0.66 0.33 1.32 0.66 2 1 C1.87890625 2.859375 1.87890625 2.859375 1 5 C-1.72265625 6.265625 -1.72265625 6.265625 -5.0625 7.25 C-6.16722656 7.58515625 -7.27195312 7.9203125 -8.41015625 8.265625 C-9.26480469 8.50796875 -10.11945312 8.7503125 -11 9 C-10.2575 9.70125 -9.515 10.4025 -8.75 11.125 C-3.86103857 16.23618695 -1.61797915 20.07464935 -0.8828125 27.046875 C-1 29 -1 29 -3 31 C-6.37685353 30.91113543 -7.71861473 30.26530611 -10.1875 27.9375 C-13.2411367 22.98850259 -14.36355864 17.81693831 -14 12 C-17.21003997 13.6508777 -19.34466809 15.27859342 -21.5 18.125 C-24 21 -24 21 -26.6875 22 C-27.450625 22 -28.21375 22 -29 22 C-29.66 21.34 -30.32 20.68 -31 20 C-30.78971768 17.26632979 -30.47371032 15.56112115 -28.6875 13.4453125 C-24.28524583 9.67486332 -18.66983147 8.57476264 -13 9 C-12.896875 8.236875 -12.79375 7.47375 -12.6875 6.6875 C-11.94405866 3.78132022 -11.34113037 2.80086951 -9 1 C-5.77390955 -0.07536348 -3.37822416 -0.14375422 0 0 Z " fill="#0B8CCB" transform="translate(37,48)"/>
<path d="M0 0 C1.875 1 1.875 1 3 3 C2.90338935 8.89324947 1.8068724 12.34715596 -2 17 C-5.28764308 19.896257 -7.55869045 21.81600304 -11.9375 22.375 C-15 22 -15 22 -17.0625 20.0625 C-18.45211631 15.52308671 -16.93224174 12.21149833 -15 8 C-14.34 7.01 -13.68 6.02 -13 5 C-12.34 5 -11.68 5 -11 5 C-11 4.34 -11 3.68 -11 3 C-4.35863874 -0.70680628 -4.35863874 -0.70680628 0 0 Z " fill="#A32D2B" transform="translate(376,0)"/>
<path d="M0 0 C8.57142857 0.71428571 8.57142857 0.71428571 12 4 C11.4770408 9.08129018 9.71382567 12.9521811 7.1875 17.3125 C6.84396484 17.94478516 6.50042969 18.57707031 6.14648438 19.22851562 C3.54762817 23.77773295 3.54762817 23.77773295 0.73828125 24.91796875 C0.16464844 24.94503906 -0.40898437 24.97210938 -1 25 C-8.54716981 13.90566038 -8.54716981 13.90566038 -11 9 C-10.67 8.01 -10.34 7.02 -10 6 C-4.555 7.485 -4.555 7.485 1 9 C0.34 7.68 -0.32 6.36 -1 5 C-0.625 2.25 -0.625 2.25 0 0 Z " fill="#0181C6" transform="translate(166,51)"/>
<path d="M0 0 C4.69150013 0.52050667 7.79242928 1.75975756 11.75 4.3125 C13.16539062 5.20388672 13.16539062 5.20388672 14.609375 6.11328125 C16.97902654 7.98344741 17.94302568 9.21622462 19 12 C14.52934037 16.01213044 9.69777579 19.91907319 4 22 C1.22265625 21.6328125 1.22265625 21.6328125 -1 21 C-2.8558792 14.04045299 -2.80324191 6.65769953 0 0 Z " fill="#BC1521" transform="translate(433,115)"/>
<path d="M0 0 C2.64 0 5.28 0 8 0 C8 0.33 8 0.66 8 1 C5.69 1 3.38 1 1 1 C1 3.31 1 5.62 1 8 C2.65 8 4.3 8 6 8 C6 8.66 6 9.32 6 10 C4.68 10 3.36 10 2 10 C2.33 11.98 2.66 13.96 3 16 C4.79158489 16.02696365 6.58328473 16.04637917 8.375 16.0625 C9.87160156 16.07990234 9.87160156 16.07990234 11.3984375 16.09765625 C13.98432453 16.18006602 13.98432453 16.18006602 16 15 C16.47001033 11.72444392 16.47001033 11.72444392 16.625 7.9375 C16.69976562 6.64714844 16.77453125 5.35679687 16.8515625 4.02734375 C16.90054687 3.02832031 16.94953125 2.02929688 17 1 C16.34 0.67 15.68 0.34 15 0 C28.2 0 41.4 0 55 0 C55 0.33 55 0.66 55 1 C50.38 1.33 45.76 1.66 41 2 C40.67 4.64 40.34 7.28 40 10 C38.02 10 36.04 10 34 10 C33.67 10.99 33.34 11.98 33 13 C26.84765625 13.09765625 26.84765625 13.09765625 25 13 C24 12 24 12 23.875 9 C24 6 24 6 25 5 C29.93239162 4.75338042 33.49862174 4.74931087 38 7 C37.34 5.35 36.68 3.7 36 2 C33.89646505 1.9189794 31.79204048 1.86080093 29.6875 1.8125 C28.51574219 1.77769531 27.34398437 1.74289063 26.13671875 1.70703125 C23.05929016 1.74423564 23.05929016 1.74423564 21.10546875 3.26171875 C19.78525141 5.33767888 19.59717628 6.5515127 19.625 9 C19.61726563 9.680625 19.60953125 10.36125 19.6015625 11.0625 C19.89529261 13.05314484 19.89529261 13.05314484 21.07421875 14.73828125 C24.05130234 16.68878429 26.68335047 16.28394448 30.1875 16.1875 C31.45980469 16.16042969 32.73210937 16.13335938 34.04296875 16.10546875 C35.01878906 16.07066406 35.99460937 16.03585938 37 16 C37.495 16.99 37.495 16.99 38 18 C25.46 18 12.92 18 0 18 C0 12.06 0 6.12 0 0 Z " fill="#030202" transform="translate(270,2)"/>
<path d="M0 0 C2.125 1.875 2.125 1.875 3 4 C3 6.5 3 6.5 2 9 C-3.48987943 14.34150431 -8.58609394 14.28563245 -15.9453125 14.22265625 C-20.22046739 13.9110401 -23.16747105 12.91626447 -27 11 C-29.1610211 7.75846834 -29.64247553 6.76307099 -29 3 C-21.35525037 -5.10806779 -9.39173502 -4.45774035 0 0 Z M-16 1 C-16 1.99 -16 2.98 -16 4 C-11.44262737 3.56179109 -8.42346555 3.14958831 -5 0 C-8.78971948 -1.89485974 -12.97870606 -2.02129394 -16 1 Z M-27 3 C-27.41780879 5.62694422 -27.41780879 5.62694422 -27 8 C-26.01 8.33 -25.02 8.66 -24 9 C-22.35 6.03 -20.7 3.06 -19 0 C-22.65923696 0 -24.13896577 0.75756777 -27 3 Z M-2 2 C-4.475 6.455 -4.475 6.455 -7 11 C-5.02 10.67 -3.04 10.34 -1 10 C-1 9.34 -1 8.68 -1 8 C-0.34 8 0.32 8 1 8 C0.65555119 5.52733235 0.65555119 5.52733235 0 3 C-0.66 2.67 -1.32 2.34 -2 2 Z M-17.75 8.5 C-19.35875 9.2425 -19.35875 9.2425 -21 10 C-19.05667668 12.37994368 -19.05667668 12.37994368 -15.5 12.25 C-11.94332332 12.37994368 -11.94332332 12.37994368 -10 10 C-10 9.01 -10 8.02 -10 7 C-13.54065105 7 -14.74583192 7.11346089 -17.75 8.5 Z " fill="#043979" transform="translate(29,5)"/>
<path d="M0 0 C10.75100043 -0.68867618 10.75100043 -0.68867618 14.625 1.875 C17.84095717 4.75243536 17.95245503 5.41995132 18.3125 9.8125 C18.27673467 13.09098835 17.99591603 14.00661884 16.1875 16.9375 C12.73000957 20.19741955 9.86943392 20.11611099 5.3125 20.0625 C4.31863281 20.05347656 3.32476562 20.04445313 2.30078125 20.03515625 C1.16189453 20.01775391 1.16189453 20.01775391 0 20 C0 17.36 0 14.72 0 12 C1.65 11.67 3.3 11.34 5 11 C5 11.66 5 12.32 5 13 C7.31 13 9.62 13 12 13 C12 11.02 12 9.04 12 7 C9.69 7 7.38 7 5 7 C5 7.66 5 8.32 5 9 C3.35 9 1.7 9 0 9 C0 6.03 0 3.06 0 0 Z " fill="#878787" transform="translate(434,53)"/>
<path d="M0 0 C0.598125 0.185625 1.19625 0.37125 1.8125 0.5625 C4.16408762 1.22093687 4.16408762 1.22093687 7 0 C7 0.66 7 1.32 7 2 C9.04159095 2.0272616 11.08328963 2.04651345 13.125 2.0625 C14.83042969 2.07990234 14.83042969 2.07990234 16.5703125 2.09765625 C20.57128325 1.98373339 24.38187924 1.80906038 28 0 C28.33 0.66 28.66 1.32 29 2 C31.64 2 34.28 2 37 2 C37 2.66 37 3.32 37 4 C37.99 4 38.98 4 40 4 C39.505 2.02 39.505 2.02 39 0 C40.66611905 -0.042721 42.33382885 -0.04063832 44 0 C44.495 0.495 44.495 0.495 45 1 C47.34987262 1.23527773 49.70556039 1.41386417 52.0625 1.5625 C53.35285156 1.64628906 54.64320313 1.73007813 55.97265625 1.81640625 C57.47119141 1.90728516 57.47119141 1.90728516 59 2 C59 3.65 59 5.3 59 7 C55.70840684 7.05790353 52.41694397 7.09356261 49.125 7.125 C47.71927734 7.15013672 47.71927734 7.15013672 46.28515625 7.17578125 C45.38925781 7.18222656 44.49335938 7.18867188 43.5703125 7.1953125 C42.74289551 7.20578613 41.91547852 7.21625977 41.06298828 7.22705078 C39 7 39 7 37 5 C37 5.66 37 6.32 37 7 C24.33333333 7 11.66666667 7 -1 7 C-0.67 4.69 -0.34 2.38 0 0 Z M42 1 C43 3 43 3 43 3 Z M17 3 C17.33 3.99 17.66 4.98 18 6 C18 5.01 18 4.02 18 3 C17.67 3 17.34 3 17 3 Z M25 3 C25 3.99 25 4.98 25 6 C25.66 6 26.32 6 27 6 C27 5.01 27 4.02 27 3 C26.34 3 25.68 3 25 3 Z M49 3 C50 6 50 6 50 6 Z M51 3 C51 3.99 51 4.98 51 6 C51.66 6 52.32 6 53 6 C53 5.01 53 4.02 53 3 C52.34 3 51.68 3 51 3 Z M55 3 C55 6 55 6 55 6 Z M1 4 C2 6 2 6 2 6 Z M4 4 C5 6 5 6 5 6 Z M42 4 C43 6 43 6 43 6 Z " fill="#343537" transform="translate(182,9)"/>
<path d="M0 0 C2.62527189 -0.05382106 5.24944713 -0.09358313 7.875 -0.125 C8.62136719 -0.14175781 9.36773437 -0.15851563 10.13671875 -0.17578125 C12.09194461 -0.1933959 14.04742021 -0.10320189 16 0 C16.66 0.66 17.32 1.32 18 2 C17.71395102 3.67542976 17.38218767 5.34385343 17 7 C17.33 7.33 17.66 7.66 18 8 C18.125 10.5 18.125 10.5 18 13 C17 14 17 14 13.18359375 14.09765625 C11.60153318 14.09098089 10.01948841 14.07901875 8.4375 14.0625 C7.63119141 14.05798828 6.82488281 14.05347656 5.99414062 14.04882812 C3.99606244 14.03700518 1.99802217 14.01906914 0 14 C0 9.38 0 4.76 0 0 Z " fill="#E4E4E4" transform="translate(311,4)"/>
<path d="M0 0 C3.44312714 2.1244827 4.71617547 3.14852641 6 7 C3.125 7.625 3.125 7.625 0 8 C-0.66 7.34 -1.32 6.68 -2 6 C-4.58354218 5.83312552 -4.58354218 5.83312552 -7 6 C-7.79953138 9.28696233 -8.09658936 10.71023192 -7 14 C-5.23966377 15.0248753 -5.23966377 15.0248753 -3 15 C-0.27018168 13.64599355 -0.27018168 13.64599355 2 12 C3.32 12.99 4.64 13.98 6 15 C2.25 19.875 2.25 19.875 0 21 C-3.67329964 21.13357453 -6.49852959 21.1671568 -10 20 C-10 19.34 -10 18.68 -10 18 C-10.99 17.67 -11.98 17.34 -13 17 C-14.52199443 12.43401671 -14.74716734 8.60107286 -12.6875 4.1875 C-9.21843018 -0.30944235 -5.37612834 -0.86982193 0 0 Z " fill="#470481" transform="translate(215,118)"/>
<path d="M0 0 C2.5 2.5 2.5 2.5 4 5 C3.01 5.66 2.02 6.32 1 7 C-2.0625 6.125 -2.0625 6.125 -5 5 C-5.66 5 -6.32 5 -7 5 C-6.67 5.66 -6.34 6.32 -6 7 C-3.98798124 7.5969726 -1.97233904 7.95435405 0.08984375 8.33984375 C2 9 2 9 4 12 C3.8125 15.5625 3.8125 15.5625 3 19 C-0.20058729 21.13372486 -2.18258832 21.46560278 -5.9921875 21.40234375 C-9.33186859 20.73310805 -10.94677157 18.56653554 -13 16 C-12.67 15.34 -12.34 14.68 -12 14 C-10.35 14 -8.7 14 -7 14 C-7 14.66 -7 15.32 -7 16 C-5.35 15.67 -3.7 15.34 -2 15 C-2.95712891 14.60167969 -2.95712891 14.60167969 -3.93359375 14.1953125 C-4.75988281 13.84210938 -5.58617187 13.48890625 -6.4375 13.125 C-7.26121094 12.77695313 -8.08492187 12.42890625 -8.93359375 12.0703125 C-11 11 -11 11 -12 9 C-12.56338028 3.70422535 -12.56338028 3.70422535 -10.5 1.125 C-6.96758307 -0.46458762 -3.80156015 -0.87248921 0 0 Z " fill="#470381" transform="translate(182,118)"/>
<path d="M0 0 C1.65 0 3.3 0 5 0 C5 0.99 5 1.98 5 3 C6.65 3 8.3 3 10 3 C9.67 4.65 9.34 6.3 9 8 C7.68 8 6.36 8 5 8 C5.78130071 10.49552484 5.78130071 10.49552484 7 13 C7.99 13.33 8.98 13.66 10 14 C9.938125 13.0925 9.87625 12.185 9.8125 11.25 C10 8 10 8 11.0625 5.6875 C14.48344373 2.70796837 18.63562738 3 23 3 C23 3.99 23 4.98 23 6 C22.01 6 21.02 6 20 6 C20 6.66 20 7.32 20 8 C18.35 8 16.7 8 15 8 C15 11.3 15 14.6 15 18 C5.98196393 18.6012024 5.98196393 18.6012024 1.9375 16.125 C-0.69519834 11.87871236 -1.11753312 7.9531815 -1 3 C-0.67 2.01 -0.34 1.02 0 0 Z " fill="#C71E1B" transform="translate(377,55)"/>
<path d="M0 0 C3 2.4375 3 2.4375 5 5 C5.33 5.33 5.66 5.66 6 6 C6.43839055 9.38186995 6.48172213 12.62270898 6 16 C3.80977082 18.82424288 2.16982793 20.41508603 -1 22 C-5.93378393 22.49337839 -8.06919235 22.52463704 -12.4375 20.0625 C-15.73518395 16.12136552 -16.40632045 13.07900568 -16 8 C-12.96936947 0.66268397 -7.5837127 -1.5005207 0 0 Z M-11.6875 4.625 C-13.71209824 7.17090198 -13.9966882 7.96423253 -14.3125 11.375 C-14.209375 12.24125 -14.10625 13.1075 -14 14 C-9.32902808 12.41553379 -9.32902808 12.41553379 -6 9 C-5.7496423 5.37464024 -5.7496423 5.37464024 -6 2 C-9.26843937 1.65063024 -9.26843937 1.65063024 -11.6875 4.625 Z M-4 2 C-4.07414046 7.34470941 -4.07414046 7.34470941 -1.375 11.64453125 C0.35565118 12.85528923 2.17438492 13.93782395 4 15 C4.60687986 9.03062724 4.60687986 9.03062724 1.6875 4 C-0.84277939 1.70149462 -0.84277939 1.70149462 -4 2 Z M-12 16 C-9.76726097 18.7479865 -8.60907583 19.89632752 -5.0625 20.5 C-1.36603315 19.89649521 0.30505778 18.53641621 3 16 C-3.35012201 12.99204747 -5.84103277 12.53558093 -12 16 Z " fill="#606060" transform="translate(170,0)"/>
<path d="M0 0 C2.83353895 1.41676947 3.40976097 3.33876826 4.875 6.125 C6.65277509 9.47575746 8.44275513 12.79838635 10.375 16.0625 C12 19 12 19 12 21 C9.24317931 19.97603803 6.90288813 18.93604828 4.4375 17.3125 C2.18584456 15.83639003 2.18584456 15.83639003 0.125 16.0625 C-1.88802515 16.95059933 -3.722043 17.96161578 -5.625 19.0625 C-9 21 -9 21 -11 21 C-9.3003494 16.26525903 -6.86340973 12.03832889 -4.375 7.6875 C-3.95476562 6.94693359 -3.53453125 6.20636719 -3.1015625 5.44335938 C-2.07051505 3.62730989 -1.03563954 1.81343467 0 0 Z " fill="#E70201" transform="translate(276,114)"/>
<path d="M0 0 C1.14726562 0.01289062 2.29453125 0.02578125 3.4765625 0.0390625 C6.375 0.375 6.375 0.375 8.375 2.375 C8.375 3.695 8.375 5.015 8.375 6.375 C7.715 6.21 7.055 6.045 6.375 5.875 C2.64400206 5.25316701 -0.84373378 5.31091074 -4.625 5.375 C-4.625 7.355 -4.625 9.335 -4.625 11.375 C-0.62245544 11.46681134 -0.62245544 11.46681134 3.375 11.375 C3.705 11.045 4.035 10.715 4.375 10.375 C6.04117115 10.33436168 7.70888095 10.332279 9.375 10.375 C7.625 15.25 7.625 15.25 5.375 16.375 C3.42160577 16.54869832 1.46057296 16.64196102 -0.5 16.6875 C-1.54929687 16.72488281 -2.59859375 16.76226563 -3.6796875 16.80078125 C-6.625 16.375 -6.625 16.375 -8.9765625 14.60546875 C-10.71759594 12.24971023 -11.16999237 11.25451174 -11.125 8.375 C-11.14046875 7.385 -11.14046875 7.385 -11.15625 6.375 C-9.59411879 0.49403545 -5.45452126 -0.13543958 0 0 Z " fill="#E7E7E7" transform="translate(299.625,2.625)"/>
<path d="M0 0 C10.19117647 -0.60661765 10.19117647 -0.60661765 13.75 2.0625 C15.36897528 5.86709191 15.11752603 8.05140801 14 12 C10.5647952 14.29013653 9.014669 14.17842973 5 14 C4.67 15.32 4.34 16.64 4 18 C2.68 18 1.36 18 0 18 C0 12.06 0 6.12 0 0 Z M5 4 C5 5.98 5 7.96 5 10 C5.99 10.33 6.98 10.66 8 11 C8.99 10.34 9.98 9.68 11 9 C10.67 7.35 10.34 5.7 10 4 C8.35 4 6.7 4 5 4 Z " fill="#CD0606" transform="translate(324,118)"/>
<path d="M0 0 C1.32 0 2.64 0 4 0 C4.33 1.32 4.66 2.64 5 4 C5.928125 3.938125 6.85625 3.87625 7.8125 3.8125 C11 4 11 4 12.875 5 C14.63528603 8.12939738 14.71914054 11.50300285 14 15 C12.83203125 16.73828125 12.83203125 16.73828125 11 18 C7.29631297 18.40199208 3.73655831 18.13187853 0 18 C0 12.06 0 6.12 0 0 Z M5 8 C4.67 9.65 4.34 11.3 4 13 C5.98 13.99 5.98 13.99 8 15 C8.99 14.01 9.98 13.02 11 12 C10.34 10.68 9.68 9.36 9 8 C7.68 8 6.36 8 5 8 Z " fill="#B60808" transform="translate(309,114)"/>
<path d="M0 0 C0 4.62 0 9.24 0 14 C-10.50008233 14.37059114 -10.50008233 14.37059114 -12.796875 12.66796875 C-14.65255048 10.09532775 -14.93693402 8.15329913 -15 5 C-12.02924835 -1.8327288 -6.47580572 -0.38546463 0 0 Z M-10 4 C-10.33 5.65 -10.66 7.3 -11 9 C-9.11683841 10.10836423 -9.11683841 10.10836423 -7 11 C-6.34 10.67 -5.68 10.34 -5 10 C-5 8.02 -5 6.04 -5 4 C-6.65 4 -8.3 4 -10 4 Z " fill="#D70707" transform="translate(308,118)"/>
<path d="M0 0 C2.97 0 5.94 0 9 0 C9 1.32 9 2.64 9 4 C9.33 4.66 9.66 5.32 10 6 C10.66 5.01 11.32 4.02 12 3 C15.125 2.8125 15.125 2.8125 18 3 C18.125 8.75 18.125 8.75 17 11 C10.66666667 11 4.33333333 11 -2 11 C-1.125 3.375 -1.125 3.375 0 0 Z M2 2 C2 2.66 2 3.32 2 4 C3.65 3.67 5.3 3.34 7 3 C7 2.67 7 2.34 7 2 C5.35 2 3.7 2 2 2 Z M1 6 C1 6.99 1 7.98 1 9 C2.65 8.67 4.3 8.34 6 8 C6 7.34 6 6.68 6 6 C4.35 6 2.7 6 1 6 Z " fill="#0A3E68" transform="translate(428,11)"/>
<path d="M0 0 C1.17369141 0.32484375 1.17369141 0.32484375 2.37109375 0.65625 C3.88896484 1.07390625 3.88896484 1.07390625 5.4375 1.5 C6.95150391 1.91765625 6.95150391 1.91765625 8.49609375 2.34375 C10.72980861 3.04225458 10.72980861 3.04225458 12 3 C12 8.28 12 13.56 12 19 C7.49366493 17.87341623 7.49366493 17.87341623 5.60546875 14.7265625 C5.20779297 14.0665625 4.81011719 13.4065625 4.40039062 12.7265625 C3.80000977 11.68628906 3.80000977 11.68628906 3.1875 10.625 C2.55811523 9.59632812 2.55811523 9.59632812 1.91601562 8.546875 C0.85392809 6.74815014 -0.08242905 4.87656723 -1 3 C-0.67 2.01 -0.34 1.02 0 0 Z " fill="#94C55A" transform="translate(156,57)"/>
<path d="M0 0 C4.55555556 0.55555556 4.55555556 0.55555556 6 2 C6.04063832 3.66617115 6.042721 5.33388095 6 7 C5.34 7 4.68 7 4 7 C4 7.99 4 8.98 4 10 C4.66 10 5.32 10 6 10 C6 12.97 6 15.94 6 19 C3.125 19.625 3.125 19.625 0 20 C-2 18 -2 18 -2.1875 14.625 C-2 11 -2 11 -1.4375 8.875 C-0.83109355 6.8780435 -0.83109355 6.8780435 -1.5625 4.375 C-1.706875 3.59125 -1.85125 2.8075 -2 2 C-1.34 1.34 -0.68 0.68 0 0 Z " fill="#8B8A8C" transform="translate(427,53)"/>
<path d="M0 0 C3.96 0 7.92 0 12 0 C12 4.29 12 8.58 12 13 C10.68 13 9.36 13 8 13 C8 11.68 8 10.36 8 9 C6.35 9 4.7 9 3 9 C3 10.32 3 11.64 3 13 C1.68 13 0.36 13 -1 13 C-1.02696365 11.20841511 -1.04637917 9.41671527 -1.0625 7.625 C-1.07410156 6.62726562 -1.08570312 5.62953125 -1.09765625 4.6015625 C-1 2 -1 2 0 0 Z M3 3 C3 3.99 3 4.98 3 6 C4.65 6 6.3 6 8 6 C8 5.01 8 4.02 8 3 C6.35 3 4.7 3 3 3 Z " fill="#082B62" transform="translate(109,4)"/>
<path d="M0 0 C1.3479743 0.63654342 2.68596724 1.29605388 4 2 C6.07361988 1.75243555 6.07361988 1.75243555 8 1 C8.99 0.67 9.98 0.34 11 0 C11.33 0.99 11.66 1.98 12 3 C13.32 2.34 14.64 1.68 16 1 C13.37409557 4.69571734 11.45427785 6.82782162 7 8 C6.34 7.67 5.68 7.34 5 7 C5 7.66 5 8.32 5 9 C4.34 9 3.68 9 3 9 C3 7.68 3 6.36 3 5 C0.03 4.505 0.03 4.505 -3 4 C-3.598125 4.99 -4.19625 5.98 -4.8125 7 C-5.534375 7.99 -6.25625 8.98 -7 10 C-7.99 10 -8.98 10 -10 10 C-10 8.35 -10 6.7 -10 5 C-10.66 5 -11.32 5 -12 5 C-10.03353466 -0.89939601 -5.43045044 -0.58380096 0 0 Z M-7 4 C-7.66 5.65 -8.32 7.3 -9 9 C-7.68 7.68 -6.36 6.36 -5 5 C-5.66 4.67 -6.32 4.34 -7 4 Z " fill="#C73B42" transform="translate(319,52)"/>
<path d="M0 0 C8.49609375 -0.09765625 8.49609375 -0.09765625 11 0 C12 1 12 1 12.1328125 3.46875 C12.13023438 4.4690625 12.12765625 5.469375 12.125 6.5 C12.12757812 7.5003125 12.13015625 8.500625 12.1328125 9.53125 C12 12 12 12 11 13 C7.3308423 13.14310287 3.67284559 13.04221662 0 13 C0 8.71 0 4.42 0 0 Z M4 3 C4 5.31 4 7.62 4 10 C5.65 10 7.3 10 9 10 C9 7.69 9 5.38 9 3 C7.35 3 5.7 3 4 3 Z " fill="#10438C" transform="translate(94,4)"/>
<path d="M0 0 C1.32 0 2.64 0 4 0 C4.33 0.66 4.66 1.32 5 2 C5.99 1.34 6.98 0.68 8 0 C10.0625 0.125 10.0625 0.125 12 1 C13.25 3.0625 13.25 3.0625 14 5 C13.01 5.99 12.02 6.98 11 8 C10.01 6.68 9.02 5.36 8 4 C6.87483915 5.83284443 6.87483915 5.83284443 6 8 C6.33 8.99 6.66 9.98 7 11 C6.01 11.33 5.02 11.66 4 12 C3.01 11.01 2.02 10.02 1 9 C-1.475 10.485 -1.475 10.485 -4 12 C-4.75 9.875 -4.75 9.875 -5 7 C-3.51209453 4.42096386 -2.11387131 2.11387131 0 0 Z M2 1 C3 4 3 4 3 4 Z M-1 5 C-0.67 5.99 -0.34 6.98 0 8 C0.66 7.01 1.32 6.02 2 5 C1.01 5 0.02 5 -1 5 Z " fill="#C2272C" transform="translate(279,58)"/>
<path d="M0 0 C1.875 1.0625 1.875 1.0625 3 3 C3.4375 6.5 3.4375 6.5 3 10 C1.375 12 1.375 12 -1 13 C-4.67293796 12.77962372 -6.36966546 12.63033454 -9 10 C-9.30078125 8.125 -9.30078125 8.125 -9.3125 6 C-9.32925781 5.29875 -9.34601563 4.5975 -9.36328125 3.875 C-9.24339844 3.25625 -9.12351562 2.6375 -9 2 C-5.53076119 -0.31282587 -4.07794425 -0.42478586 0 0 Z M-5 4 C-5.33 4.99 -5.66 5.98 -6 7 C-4.02 7.99 -4.02 7.99 -2 9 C-1.67 7.35 -1.34 5.7 -1 4 C-2.32 4 -3.64 4 -5 4 Z " fill="#B41A34" transform="translate(87,131)"/>
<path d="M0 0 C1.32 0 2.64 0 4 0 C4.08075665 2.29109597 4.13907731 4.58299267 4.1875 6.875 C4.22230469 8.15117187 4.25710938 9.42734375 4.29296875 10.7421875 C4.19628906 11.81726563 4.09960938 12.89234375 4 14 C0.90219052 16.06520632 0.0459519 16.29477024 -3.5 16.3125 C-4.66015625 16.33763672 -4.66015625 16.33763672 -5.84375 16.36328125 C-8 16 -8 16 -9.78125 14.73046875 C-11 13 -11 13 -11 9 C-9.68 9 -8.36 9 -7 9 C-6.67 9.66 -6.34 10.32 -6 11 C-4.35 11 -2.7 11 -1 11 C-0.67 7.37 -0.34 3.74 0 0 Z " fill="#E8E9E9" transform="translate(283,3)"/>
<path d="M0 0 C1.65 0 3.3 0 5 0 C5 2.97 5 5.94 5 9 C6.98 9 8.96 9 11 9 C11.042721 10.66611905 11.04063832 12.33382885 11 14 C10 15 10 15 6.625 15.25 C3 15 3 15 1.28515625 13.87109375 C-0.57523706 11.16249681 -0.2921745 9.05740964 -0.1875 5.8125 C-0.16042969 4.72582031 -0.13335937 3.63914062 -0.10546875 2.51953125 C-0.07066406 1.68808594 -0.03585938 0.85664062 0 0 Z " fill="#46047D" transform="translate(189,124)"/>
<path d="M0 0 C1.258125 -0.04125 2.51625 -0.0825 3.8125 -0.125 C4.52019531 -0.14820313 5.22789062 -0.17140625 5.95703125 -0.1953125 C8 0 8 0 11 2 C11.3125 4.5 11.3125 4.5 11 7 C10.34 7.66 9.68 8.32 9 9 C9.66 10.32 10.32 11.64 11 13 C9.0625 12.6875 9.0625 12.6875 7 12 C6.67 11.01 6.34 10.02 6 9 C5.01 9 4.02 9 3 9 C3 10.32 3 11.64 3 13 C2.01 13 1.02 13 0 13 C0 8.71 0 4.42 0 0 Z M3 3 C3 4.32 3 5.64 3 7 C4.65 6.67 6.3 6.34 8 6 C8 5.01 8 4.02 8 3 C6.35 3 4.7 3 3 3 Z " fill="#48494A" transform="translate(206,57)"/>
<path d="M0 0 C7.25581395 -0.48372093 7.25581395 -0.48372093 10.5 1.625 C12.45562482 4.72140596 12.60024477 6.39853135 12 10 C10.5 12.375 10.5 12.375 8 14 C5.24150058 14.32638734 2.79515088 14.18634339 0 14 C0 9.38 0 4.76 0 0 Z M3 2 C3 5.3 3 8.6 3 12 C5.45224694 11.89386164 5.45224694 11.89386164 8 11 C9.37466625 8.52363988 9.37466625 8.52363988 10 6 C8.18777466 3.9375006 8.18777466 3.9375006 6 2 C5.01 2 4.02 2 3 2 Z " fill="#1F2C31" transform="translate(390,123)"/>
<path d="M0 0 C0.99 0 1.98 0 3 0 C3 1.65 3 3.3 3 5 C4.98 5 6.96 5 9 5 C9 3.35 9 1.7 9 0 C9.99 0 10.98 0 12 0 C12 4.29 12 8.58 12 13 C11.01 13 10.02 13 9 13 C9 11.35 9 9.7 9 8 C7.02 8 5.04 8 3 8 C3 9.65 3 11.3 3 13 C2.01 13 1.02 13 0 13 C0 8.71 0 4.42 0 0 Z " fill="#053067" transform="translate(38,4)"/>
<path d="M0 0 C3.96 0 7.92 0 12 0 C12 4.29 12 8.58 12 13 C11.01 13 10.02 13 9 13 C9 9.7 9 6.4 9 3 C7.02 3 5.04 3 3 3 C3 6.3 3 9.6 3 13 C2.01 13 1.02 13 0 13 C0 8.71 0 4.42 0 0 Z " fill="#0A3575" transform="translate(80,4)"/>
<path d="M0 0 C0.99 0 1.98 0 3 0 C3 3.3 3 6.6 3 10 C4.98 10 6.96 10 9 10 C9 6.7 9 3.4 9 0 C9.99 0 10.98 0 12 0 C12.02686553 1.97909398 12.04633375 3.95828971 12.0625 5.9375 C12.07410156 7.03964844 12.08570312 8.14179688 12.09765625 9.27734375 C12 12 12 12 11 13 C7.3308423 13.14310287 3.67284559 13.04221662 0 13 C0 8.71 0 4.42 0 0 Z " fill="#062F6B" transform="translate(66,4)"/>
<path d="M0 0 C1.875 1 1.875 1 3 3 C2.90340217 8.89246775 1.79583702 12.3365431 -2 17 C-4.25 18.875 -4.25 18.875 -6 20 C-6.33 18.35 -6.66 16.7 -7 15 C-6.34 15 -5.68 15 -5 15 C-5 14.34 -5 13.68 -5 13 C-4.34 13 -3.68 13 -3 13 C-3 10.69 -3 8.38 -3 6 C-2.34 6 -1.68 6 -1 6 C-1 4.68 -1 3.36 -1 2 C-1.78375 2.20625 -2.5675 2.4125 -3.375 2.625 C-4.24125 2.74875 -5.1075 2.8725 -6 3 C-6.66 2.34 -7.32 1.68 -8 1 C-4.99825776 -0.00058075 -3.12414314 -0.31241431 0 0 Z " fill="#AC2A22" transform="translate(376,0)"/>
<path d="M0 0 C3.3 0 6.6 0 10 0 C10 0.99 10 1.98 10 3 C7.69 3 5.38 3 3 3 C3 3.66 3 4.32 3 5 C4.98 5 6.96 5 9 5 C9 5.99 9 6.98 9 8 C7.02 8 5.04 8 3 8 C3 8.99 3 9.98 3 11 C5.31 11 7.62 11 10 11 C10 11.66 10 12.32 10 13 C6.7 13 3.4 13 0 13 C0 8.71 0 4.42 0 0 Z " fill="#494B4D" transform="translate(195,57)"/>
<path d="M0 0 C0 0.33 0 0.66 0 1 C-1.0725 1.226875 -2.145 1.45375 -3.25 1.6875 C-7.47183651 3.16514278 -8.75161459 4.19504008 -11 8 C-11.79690838 11.18762109 -11.79690838 11.18762109 -12 14 C-7.91110799 11.77777608 -6.2588343 10.70591174 -4.625 6.25 C-4.315625 4.64125 -4.315625 4.64125 -4 3 C-3.67 3 -3.34 3 -3 3 C-3 5.97 -3 8.94 -3 12 C-4.98 12.66 -6.96 13.32 -9 14 C-8.67 15.32 -8.34 16.64 -8 18 C-5.36 18.66 -2.72 19.32 0 20 C-2.35695352 21.48400777 -3.68599981 22.01570001 -6.5 21.875 C-9.74830684 20.73809261 -11.01125324 19.8410668 -13 17 C-14.17587783 12.72044463 -14.52160209 9.2628261 -12.8125 5.125 C-8.73303047 0.34217366 -6.38442849 -0.36833241 0 0 Z " fill="#808080" transform="translate(168,0)"/>
<path d="M0 0 C1.65 0 3.3 0 5 0 C5 0.99 5 1.98 5 3 C6.65 3 8.3 3 10 3 C9.67 4.65 9.34 6.3 9 8 C7.68 8 6.36 8 5 8 C5.66 9.98 6.32 11.96 7 14 C6.01 14.495 6.01 14.495 5 15 C4.34 13.02 3.68 11.04 3 9 C2.67 10.98 2.34 12.96 2 15 C-0.45406016 12.54593984 -0.38381215 11.4528512 -0.6875 8.0625 C-0.77386719 7.18722656 -0.86023438 6.31195313 -0.94921875 5.41015625 C-1 3 -1 3 0 0 Z " fill="#A71716" transform="translate(377,55)"/>
<path d="M0 0 C0.33 1.32 0.66 2.64 1 4 C-1.31 3.67 -3.62 3.34 -6 3 C-6.66 4.65 -7.32 6.3 -8 8 C-6.68 8 -5.36 8 -4 8 C-4 7.34 -4 6.68 -4 6 C-2.68 6 -1.36 6 0 6 C-0.33 7.32 -0.66 8.64 -1 10 C-2.45736087 10.19491452 -3.91594593 10.38069358 -5.375 10.5625 C-6.18710937 10.66691406 -6.99921875 10.77132813 -7.8359375 10.87890625 C-10 11 -10 11 -12 10 C-12.31424507 6.54330418 -12.37956836 4.60098323 -10.5 1.625 C-6.86748926 -0.73613198 -4.28156703 -0.2854378 0 0 Z " fill="#044373" transform="translate(416,11)"/>
<path d="M0 0 C1.8871875 0.061875 1.8871875 0.061875 3.8125 0.125 C4.1425 1.445 4.4725 2.765 4.8125 4.125 C2.5025 3.795 0.1925 3.465 -2.1875 3.125 C-2.8475 4.775 -3.5075 6.425 -4.1875 8.125 C-2.8675 8.125 -1.5475 8.125 -0.1875 8.125 C-0.1875 7.465 -0.1875 6.805 -0.1875 6.125 C1.1325 6.125 2.4525 6.125 3.8125 6.125 C3.4825 7.445 3.1525 8.765 2.8125 10.125 C1.35614629 10.34674933 -0.10272956 10.55198698 -1.5625 10.75 C-2.37460937 10.86601562 -3.18671875 10.98203125 -4.0234375 11.1015625 C-4.73757813 11.10929687 -5.45171875 11.11703125 -6.1875 11.125 C-6.8475 10.465 -7.5075 9.805 -8.1875 9.125 C-8 5.625 -8 5.625 -7.1875 2.125 C-4.09861478 0.06574319 -3.47814073 -0.1140374 0 0 Z " fill="#064270" transform="translate(393.1875,10.875)"/>
<path d="M0 0 C0.90492188 0.02320313 1.80984375 0.04640625 2.7421875 0.0703125 C4.10730469 0.09738281 4.10730469 0.09738281 5.5 0.125 C6.19867188 0.14820313 6.89734375 0.17140625 7.6171875 0.1953125 C7.2871875 1.1853125 6.9571875 2.1753125 6.6171875 3.1953125 C5.2971875 3.1953125 3.9771875 3.1953125 2.6171875 3.1953125 C2.2871875 3.8553125 1.9571875 4.5153125 1.6171875 5.1953125 C2.2771875 5.5253125 2.9371875 5.8553125 3.6171875 6.1953125 C-0.0078125 11.0703125 -0.0078125 11.0703125 -3.3828125 12.1953125 C-4.0428125 11.8653125 -4.7028125 11.5353125 -5.3828125 11.1953125 C-5.3828125 11.8553125 -5.3828125 12.5153125 -5.3828125 13.1953125 C-7.0328125 13.1953125 -8.6828125 13.1953125 -10.3828125 13.1953125 C-9.3928125 12.5353125 -8.4028125 11.8753125 -7.3828125 11.1953125 C-8.0428125 10.8653125 -8.7028125 10.5353125 -9.3828125 10.1953125 C-9.3828125 9.5353125 -9.3828125 8.8753125 -9.3828125 8.1953125 C-8.7228125 8.1953125 -8.0628125 8.1953125 -7.3828125 8.1953125 C-7.0528125 7.5353125 -6.7228125 6.8753125 -6.3828125 6.1953125 C-5.3928125 6.5253125 -4.4028125 6.8553125 -3.3828125 7.1953125 C-3.0528125 6.2053125 -2.7228125 5.2153125 -2.3828125 4.1953125 C-3.0428125 3.5353125 -3.7028125 2.8753125 -4.3828125 2.1953125 C-2.3828125 0.1953125 -2.3828125 0.1953125 0 0 Z " fill="#B72D35" transform="translate(295.3828125,57.8046875)"/>
<path d="M0 0 C2.31 0 4.62 0 7 0 C9.61382886 3.92074329 9.29386386 7.44511017 9 12 C8.34 12.66 7.68 13.32 7 14 C4.69 14 2.38 14 0 14 C0 9.38 0 4.76 0 0 Z M2 2 C2 3.32 2 4.64 2 6 C3.32 5.67 4.64 5.34 6 5 C5.67 4.01 5.34 3.02 5 2 C4.01 2 3.02 2 2 2 Z M2 8 C2 9.32 2 10.64 2 12 C3.65 11.67 5.3 11.34 7 11 C6.67 10.01 6.34 9.02 6 8 C4.68 8 3.36 8 2 8 Z " fill="#253135" transform="translate(419,123)"/>
<path d="M0 0 C1.4540625 0.0309375 1.4540625 0.0309375 2.9375 0.0625 C2.9375 1.0525 2.9375 2.0425 2.9375 3.0625 C1.9475 3.3925 0.9575 3.7225 -0.0625 4.0625 C1.2575 5.0525 2.5775 6.0425 3.9375 7.0625 C3.36405063 9.92974686 3.0760485 10.9239515 0.9375 13.0625 C-2.1875 13.1875 -2.1875 13.1875 -5.0625 13.0625 C-5.0625 11.7425 -5.0625 10.4225 -5.0625 9.0625 C-3.7425 9.0625 -2.4225 9.0625 -1.0625 9.0625 C-2.0834375 8.19625 -2.0834375 8.19625 -3.125 7.3125 C-3.764375 6.57 -4.40375 5.8275 -5.0625 5.0625 C-4.71869766 1.05147274 -4.05965192 0.08285004 0 0 Z " fill="#BD2541" transform="translate(60.0625,130.9375)"/>
<path d="M0 0 C0 1.32 0 2.64 0 4 C-1.65 4 -3.3 4 -5 4 C-4.67 5.32 -4.34 6.64 -4 8 C-2.68 8 -1.36 8 0 8 C0 9.65 0 11.3 0 13 C-6.75 12.25 -6.75 12.25 -9 10 C-9.30078125 8.125 -9.30078125 8.125 -9.3125 6 C-9.32925781 5.29875 -9.34601562 4.5975 -9.36328125 3.875 C-9.24339844 3.25625 -9.12351563 2.6375 -9 2 C-5.5647952 -0.29013653 -4.014669 -0.17842973 0 0 Z " fill="#B51E3E" transform="translate(45,131)"/>
<path d="M0 0 C2.5 2.5 2.5 2.5 4 5 C3.01 5.66 2.02 6.32 1 7 C-1.01222047 6.3711811 -3.01276732 5.70381157 -5 5 C-5.99 5.33 -6.98 5.66 -8 6 C-7.67 4.68 -7.34 3.36 -7 2 C-7.99 2.495 -7.99 2.495 -9 3 C-9.40749675 7.25731568 -9.40749675 7.25731568 -7.5 10.875 C-7.005 11.24625 -6.51 11.6175 -6 12 C-8.4375 11.625 -8.4375 11.625 -11 11 C-12.41441874 8.17116253 -12.31900332 6.12623255 -12 3 C-9.00990933 -0.73761334 -4.45539599 -1.0225499 0 0 Z " fill="#40066E" transform="translate(182,118)"/>
<path d="M0 0 C0 1.32 0 2.64 0 4 C-1.65 4 -3.3 4 -5 4 C-4.67 5.32 -4.34 6.64 -4 8 C-2.68 8 -1.36 8 0 8 C0 9.65 0 11.3 0 13 C-3.375 12.6875 -3.375 12.6875 -7 12 C-9.31282587 8.53076119 -9.42478586 7.07794425 -9 3 C-6.77089201 -0.71517998 -4.03410755 -0.2689405 0 0 Z " fill="#B81E33" transform="translate(75,131)"/>
<path d="M0 0 C0 0.99 0 1.98 0 3 C-2.97 2.505 -2.97 2.505 -6 2 C-6 2.66 -6 3.32 -6 4 C-5.21625 4.12375 -4.4325 4.2475 -3.625 4.375 C-1 5 -1 5 1 7 C0.625 9.625 0.625 9.625 0 12 C-2.64 12 -5.28 12 -8 12 C-8.33 11.01 -8.66 10.02 -9 9 C-7.02 9 -5.04 9 -3 9 C-3.99 8.34 -4.98 7.68 -6 7 C-6.99 6.34 -7.98 5.68 -9 5 C-8.625 2.5625 -8.625 2.5625 -8 0 C-5.13822943 -1.43088528 -3.06624227 -0.59991697 0 0 Z " fill="#4A4B4B" transform="translate(227,58)"/>
<path d="M0 0 C4.87362847 0.45336079 7.39042389 1.7089159 11 5 C10.360625 5.103125 9.72125 5.20625 9.0625 5.3125 C8.381875 5.539375 7.70125 5.76625 7 6 C6.10869587 8.6739124 5.52268466 11.23723823 5 14 C3.19874664 11.29811996 1.99756247 9.06942297 1 6 C1.33 5.01 1.66 4.02 2 3 C2 3.66 2 4.32 2 5 C2.66 5 3.32 5 4 5 C4 4.01 4 3.02 4 2 C2.68 2 1.36 2 0 2 C0 8.27 0 14.54 0 21 C-0.33 21 -0.66 21 -1 21 C-2.8558792 14.04045299 -2.80324191 6.65769953 0 0 Z " fill="#A51218" transform="translate(433,115)"/>
<path d="M0 0 C0.99 0.66 1.98 1.32 3 2 C3.99 2 4.98 2 6 2 C5.51789063 2.47050781 5.03578125 2.94101562 4.5390625 3.42578125 C3.90742188 4.04839844 3.27578125 4.67101563 2.625 5.3125 C1.99851562 5.92738281 1.37203125 6.54226562 0.7265625 7.17578125 C-1.18086607 9.08812528 -1.18086607 9.08812528 -3 12 C-3.99 11.67 -4.98 11.34 -6 11 C-6.598125 11.825 -7.19625 12.65 -7.8125 13.5 C-8.534375 14.325 -9.25625 15.15 -10 16 C-10.99 16 -11.98 16 -13 16 C-13 15.34 -13 14.68 -13 14 C-12.34 14 -11.68 14 -11 14 C-10.67 13.34 -10.34 12.68 -10 12 C-9 10.66666667 -8 9.33333333 -7 8 C-6.67 7.34 -6.34 6.68 -6 6 C-6.66 5.67 -7.32 5.34 -8 5 C-6.68 5 -5.36 5 -4 5 C-1.73122465 2.58119071 -1.73122465 2.58119071 0 0 Z " fill="#C1242E" transform="translate(321,59)"/>
<path d="M0 0 C0.99 0 1.98 0 3 0 C3.83790789 1.78953185 4.67019396 3.58169695 5.5 5.375 C5.9640625 6.37273438 6.428125 7.37046875 6.90625 8.3984375 C8 11 8 11 8 13 C7.01 13 6.02 13 5 13 C4.67 12.34 4.34 11.68 4 11 C2.35 11 0.7 11 -1 11 C-1.33 11.66 -1.66 12.32 -2 13 C-2.99 13 -3.98 13 -5 13 C-4.54554036 11.58208592 -4.08625056 10.16571954 -3.625 8.75 C-3.24214844 7.56664063 -3.24214844 7.56664063 -2.8515625 6.359375 C-2.04826333 4.13372042 -1.10288338 2.09068328 0 0 Z M1 4 C0.67 5.32 0.34 6.64 0 8 C0.99 8 1.98 8 3 8 C2.34 6.68 1.68 5.36 1 4 Z " fill="#454647" transform="translate(233,57)"/>
<path d="M0 0 C1.32 0.33 2.64 0.66 4 1 C5.265625 3.1796875 5.265625 3.1796875 6.25 5.875 C6.58515625 6.75929687 6.9203125 7.64359375 7.265625 8.5546875 C8 11 8 11 8 14 C7.34 14 6.68 14 6 14 C5.67 12.68 5.34 11.36 5 10 C3.02 10 1.04 10 -1 10 C-1.33 11.32 -1.66 12.64 -2 14 C-2.99 13.67 -3.98 13.34 -5 13 C-3.35 8.71 -1.7 4.42 0 0 Z M1 4 C0.67 5.32 0.34 6.64 0 8 C1.32 7.67 2.64 7.34 4 7 C3.67 6.01 3.34 5.02 3 4 C2.34 4 1.68 4 1 4 Z " fill="#222F33" transform="translate(380,123)"/>
<path d="M0 0 C1.32 0.33 2.64 0.66 4 1 C4.83982775 3.90590706 5.16544482 5.53161739 4.14453125 8.421875 C3.48517578 9.57429688 3.48517578 9.57429688 2.8125 10.75 C2.38582031 11.52859375 1.95914063 12.3071875 1.51953125 13.109375 C-0.24282099 15.30212174 -1.25840459 15.64776076 -4 16 C-3.32587732 10.4946648 -2.50344259 5.00688519 0 0 Z " fill="#0487C6" transform="translate(173,53)"/>
<path d="M0 0 C0.66 0.33 1.32 0.66 2 1 C1.8046875 2.890625 1.8046875 2.890625 1 5 C-1.1796875 6.046875 -1.1796875 6.046875 -3.875 6.75 C-4.75929688 6.99234375 -5.64359375 7.2346875 -6.5546875 7.484375 C-9 8 -9 8 -12 8 C-11.8125 5.6875 -11.8125 5.6875 -11 3 C-7.40389285 0.02036836 -4.59219867 -0.40819544 0 0 Z " fill="#0797D4" transform="translate(37,48)"/>
<path d="M0 0 C0.99 0.33 1.98 0.66 3 1 C3 6.61 3 12.22 3 18 C1.68 18.33 0.36 18.66 -1 19 C-1.02683987 16.02077407 -1.04676037 13.04178705 -1.0625 10.0625 C-1.07087891 9.21236328 -1.07925781 8.36222656 -1.08789062 7.48632812 C-1.09111328 6.67744141 -1.09433594 5.86855469 -1.09765625 5.03515625 C-1.10289307 4.2862915 -1.10812988 3.53742676 -1.11352539 2.76586914 C-1 1 -1 1 0 0 Z " fill="#2E4950" transform="translate(78,107)"/>
<path d="M0 0 C0.99 0.33 1.98 0.66 3 1 C3 6.94 3 12.88 3 19 C1.68 18.67 0.36 18.34 -1 18 C-1.02684312 15.18743719 -1.04676188 12.37512759 -1.0625 9.5625 C-1.07087891 8.76005859 -1.07925781 7.95761719 -1.08789062 7.13085938 C-1.0965143 5.08704779 -1.0522815 3.04316098 -1 1 C-0.67 0.67 -0.34 0.34 0 0 Z " fill="#0E2E38" transform="translate(46,107)"/>
<path d="M0 0 C1.875 0.3125 1.875 0.3125 4 1 C6 4 6 4 5.9375 6.4375 C4.68902426 9.85000035 3.01463426 11.03698234 0 13 C-3.36315229 14.12595689 -6.59570124 14.16582126 -10.125 14.1875 C-11.17945313 14.20167969 -12.23390625 14.21585938 -13.3203125 14.23046875 C-16 14 -16 14 -18 12 C-15.03609162 10.51804581 -12.27556022 10.94253403 -9 11 C-5.25838897 11 -1.71046443 10.48661829 2 10 C2 9.34 2 8.68 2 8 C2.66 8 3.32 8 4 8 C3.34 6.35 2.68 4.7 2 3 C1.01 3.66 0.02 4.32 -1 5 C-0.67 3.35 -0.34 1.7 0 0 Z " fill="#10386A" transform="translate(26,5)"/>
<path d="M0 0 C1.65 0 3.3 0 5 0 C5.66 1.32 6.32 2.64 7 4 C7.4125 3.34 7.825 2.68 8.25 2 C8.8275 1.34 9.405 0.68 10 0 C11.32 0 12.64 0 14 0 C12.87548273 2.9719385 11.77706209 5.33440687 10 8 C9.61500109 9.65549531 9.27206865 11.3222433 9 13 C8.01 13 7.02 13 6 13 C5.7525 11.96875 5.505 10.9375 5.25 9.875 C4.15920937 5.99399857 2.37066116 3.23990359 0 0 Z " fill="#0D3A76" transform="translate(51,4)"/>
<path d="M0 0 C2.475 0.99 2.475 0.99 5 2 C3.19587357 5.26460973 2.16605307 6.88929795 -1 9 C-7.32258065 9.4516129 -7.32258065 9.4516129 -11 7 C-10.360625 6.71125 -9.72125 6.4225 -9.0625 6.125 C-6.84793921 5.17176549 -6.84793921 5.17176549 -6 3 C-4.34795544 2.29788106 -2.68076231 1.63028587 -1 1 C-0.67 0.67 -0.34 0.34 0 0 Z " fill="#430677" transform="translate(216,130)"/>
<path d="M0 0 C0.99 0.33 1.98 0.66 3 1 C4.1875 4.5625 4.1875 4.5625 5 8 C5.66 8 6.32 8 7 8 C7.4021875 6.2984375 7.4021875 6.2984375 7.8125 4.5625 C8.4003125 2.7990625 8.4003125 2.7990625 9 1 C9.99 0.67 10.98 0.34 12 0 C11.27991594 4.60853797 9.68704061 8.67237409 8 13 C6.68 13 5.36 13 4 13 C3.32942113 11.2097939 2.6636531 9.41778511 2 7.625 C1.62875 6.62726562 1.2575 5.62953125 0.875 4.6015625 C0 2 0 2 0 0 Z " fill="#434444" transform="translate(182,57)"/>
<path d="M0 0 C2.97 0.99 5.94 1.98 9 3 C9.25 5.75 9.25 5.75 9 9 C6.984375 11.203125 6.984375 11.203125 5 13 C3.96679519 11.40377344 2.94877571 9.79770894 1.9375 8.1875 C1.36902344 7.29417969 0.80054688 6.40085937 0.21484375 5.48046875 C-1 3 -1 3 0 0 Z " fill="#8AC157" transform="translate(156,57)"/>
<path d="M0 0 C2.31243792 -0.02685412 4.6249627 -0.04632841 6.9375 -0.0625 C8.22527344 -0.07410156 9.51304688 -0.08570313 10.83984375 -0.09765625 C14 0 14 0 15 1 C15.04092937 3.33297433 15.04241723 5.66705225 15 8 C14.34 8 13.68 8 13 8 C12.67 6.02 12.34 4.04 12 2 C11.34 2 10.68 2 10 2 C10 3.98 10 5.96 10 8 C8.02 8 6.04 8 4 8 C3.67 6.35 3.34 4.7 3 3 C4.32 3 5.64 3 7 3 C7 2.34 7 1.68 7 1 C5.35 1.33 3.7 1.66 2 2 C1.67 3.98 1.34 5.96 1 8 C0.67 8 0.34 8 0 8 C0 5.36 0 2.72 0 0 Z M4 4 C4 4.99 4 5.98 4 7 C4.99 7 5.98 7 7 7 C7 6.01 7 5.02 7 4 C6.01 4 5.02 4 4 4 Z " fill="#0A0A0A" transform="translate(46,59)"/>
<path d="M0 0 C1.0725 0.103125 2.145 0.20625 3.25 0.3125 C3.58 1.3025 3.91 2.2925 4.25 3.3125 C2.8578125 3.2196875 2.8578125 3.2196875 1.4375 3.125 C-1.73395103 3.00355736 -1.73395103 3.00355736 -3.625 4.8125 C-3.99625 5.3075 -4.3675 5.8025 -4.75 6.3125 C-4.09 7.9625 -3.43 9.6125 -2.75 11.3125 C0.87885324 11.46399298 0.87885324 11.46399298 4.25 10.3125 C4.25 11.3025 4.25 12.2925 4.25 13.3125 C1.47899606 14.69800197 -0.6834706 14.5002467 -3.75 14.3125 C-6.75 12.3125 -6.75 12.3125 -7.6875 9 C-7.75 5.3125 -7.75 5.3125 -6.25 2.375 C-3.75 0.3125 -3.75 0.3125 0 0 Z " fill="#232F33" transform="translate(411.75,122.6875)"/>
<path d="M0 0 C1.65 0 3.3 0 5 0 C5 1.65 5 3.3 5 5 C6.98 5 8.96 5 11 5 C11 6.98 11 8.96 11 11 C9.02 11 7.04 11 5 11 C5 9.35 5 7.7 5 6 C3.35 6 1.7 6 0 6 C0 4.02 0 2.04 0 0 Z " fill="#39036D" transform="translate(189,113)"/>
<path d="M0 0 C0 4.62 0 9.24 0 14 C-0.33 14 -0.66 14 -1 14 C-1 10.04 -1 6.08 -1 2 C-2.65 2 -4.3 2 -6 2 C-6 2.66 -6 3.32 -6 4 C-8.97 3.505 -8.97 3.505 -12 3 C-12.33 5.64 -12.66 8.28 -13 11 C-13.66 10.34 -14.32 9.68 -15 9 C-14.80859503 6.00132218 -14.56891476 3.79945539 -12.8046875 1.3203125 C-9.19744066 -1.31875553 -4.26070561 -0.15037784 0 0 Z " fill="#AB0606" transform="translate(308,118)"/>
<path d="M0 0 C1.32 0 2.64 0 4 0 C4.309375 1.11375 4.61875 2.2275 4.9375 3.375 C5.82326483 6.7945155 5.82326483 6.7945155 7 9 C9.02463255 9.65213292 9.02463255 9.65213292 11 10 C11 8.35 11 6.7 11 5 C11.33 5 11.66 5 12 5 C12.125 7.875 12.125 7.875 12 11 C11.34 11.66 10.68 12.32 10 13 C6.57268235 12.90980743 5.25587961 12.24166407 2.75 9.875 C0.71186495 6.52663527 0.30410781 3.87737452 0 0 Z " fill="#057EC1" transform="translate(24,66)"/>
<path d="M0 0 C4.95 0 9.9 0 15 0 C15 1.65 15 3.3 15 5 C9.72 5 4.44 5 -1 5 C-0.67 3.35 -0.34 1.7 0 0 Z M5 1 C6 4 6 4 6 4 Z M7 1 C7 1.99 7 2.98 7 4 C7.66 4 8.32 4 9 4 C9 3.01 9 2.02 9 1 C8.34 1 7.68 1 7 1 Z M11 1 C11 4 11 4 11 4 Z " fill="#4C4D4F" transform="translate(226,11)"/>
<path d="M0 0 C1.32 0.66 2.64 1.32 4 2 C3.21625 2.9075 2.4325 3.815 1.625 4.75 C-1.5886422 8.62821977 -3 10.81682742 -3 16 C-4.32 16.33 -5.64 16.66 -7 17 C-6.96586242 9.62628201 -4.87106829 5.46691762 0 0 Z " fill="#D02232" transform="translate(305,56)"/>
<path d="M0 0 C1.32 0.66 2.64 1.32 4 2 C3.34 2 2.68 2 2 2 C2 2.66 2 3.32 2 4 C3.32 3.67 4.64 3.34 6 3 C6 3.99 6 4.98 6 6 C3.69 6 1.38 6 -1 6 C-1 6.99 -1 7.98 -1 9 C0.32 9 1.64 9 3 9 C2.01 8.34 1.02 7.68 0 7 C1.98 7 3.96 7 6 7 C6 7.66 6 8.32 6 9 C6.66 9.33 7.32 9.66 8 10 C5.59454362 11.20272819 4.05003047 11.10071472 1.375 11.0625 C0.14910156 11.04896484 0.14910156 11.04896484 -1.1015625 11.03515625 C-2.04128906 11.01775391 -2.04128906 11.01775391 -3 11 C-2.835 9.865625 -2.67 8.73125 -2.5 7.5625 C-2.14367797 5.28867481 -2.14367797 5.28867481 -2 3 C-1.34 2.67 -0.68 2.34 0 2 C0 1.34 0 0.68 0 0 Z " fill="#DB1C23" transform="translate(440,119)"/>
<path d="M0 0 C0.66 0 1.32 0 2 0 C2.33 1.32 2.66 2.64 3 4 C4.65 3.67 6.3 3.34 8 3 C7.01 3.99 6.02 4.98 5 6 C5.66 7.65 6.32 9.3 7 11 C2.125 10.125 2.125 10.125 1 9 C0.67 9.66 0.34 10.32 0 11 C-0.99 11 -1.98 11 -3 11 C-2.01 7.37 -1.02 3.74 0 0 Z " fill="#0B3E67" transform="translate(460,11)"/>
<path d="M0 0 C-0.33 1.216875 -0.66 2.43375 -1 3.6875 C-1.66383384 6.27416291 -1.99612123 8.17842361 -1.9375 10.875 C-1.958125 11.57625 -1.97875 12.2775 -2 13 C-2.99 13.66 -3.98 14.32 -5 15 C-5.99 14.67 -6.98 14.34 -8 14 C-7.690625 13.46375 -7.38125 12.9275 -7.0625 12.375 C-5.82172561 9.6015043 -5.4090325 6.99957163 -5 4 C-5.99 4.33 -6.98 4.66 -8 5 C-7 2 -7 2 -5.125 0.8125 C-3 0 -3 0 0 0 Z " fill="#F6E1D9" transform="translate(372,7)"/>
<path d="M0 0 C-0.33 0.66 -0.66 1.32 -1 2 C-1.99 2 -2.98 2 -4 2 C-4.33 3.32 -4.66 4.64 -5 6 C-5.66 6 -6.32 6 -7 6 C-7 6.66 -7 7.32 -7 8 C-8.65 8 -10.3 8 -12 8 C-11.64212875 5.35175278 -11.31760089 3.44464124 -9.75 1.25 C-6.42260924 -1.12670768 -3.81381542 -1.27127181 0 0 Z " fill="#08A7EE" transform="translate(18,60)"/>
<path d="M0 0 C3.3 0 6.6 0 10 0 C9.01 0.495 9.01 0.495 8 1 C8 1.66 8 2.32 8 3 C6.68 3 5.36 3 4 3 C4 5.31 4 7.62 4 10 C3.01 9.67 2.02 9.34 1 9 C0.67 10.32 0.34 11.64 0 13 C0 8.71 0 4.42 0 0 Z " fill="#022E69" transform="translate(94,4)"/>
<path d="M0 0 C2.31 0 4.62 0 7 0 C7 1.32 7 2.64 7 4 C6.34 4 5.68 4 5 4 C5 6.31 5 8.62 5 11 C4.34 11 3.68 11 3 11 C2.67 11.66 2.34 12.32 2 13 C2.875 7.25 2.875 7.25 4 5 C1.69 5.33 -0.62 5.66 -3 6 C-2.67 5.01 -2.34 4.02 -2 3 C-1.34 3 -0.68 3 0 3 C0 2.01 0 1.02 0 0 Z " fill="#9D343A" transform="translate(368,2)"/>
<path d="M0 0 C1.32 0 2.64 0 4 0 C4 4.29 4 8.58 4 13 C2.68 13 1.36 13 0 13 C0 8.71 0 4.42 0 0 Z " fill="#AC2636" transform="translate(48,131)"/>
<path d="M0 0 C2.64 0 5.28 0 8 0 C8.79953138 3.28696233 9.09658936 4.71023192 8 8 C7.01 8 6.02 8 5 8 C5.33 6.02 5.66 4.04 6 2 C5.01 2.33 4.02 2.66 3 3 C1.78130071 5.50447516 1.78130071 5.50447516 1 8 C0.34 8 -0.32 8 -1 8 C-0.67 5.36 -0.34 2.72 0 0 Z " fill="#0A3C65" transform="translate(448,14)"/>
<path d="M0 0 C5.61 0 11.22 0 17 0 C17.33 1.32 17.66 2.64 18 4 C13.38 4 8.76 4 4 4 C4 3.01 4 2.02 4 1 C3.34 1 2.68 1 2 1 C1.67 1.99 1.34 2.98 1 4 C0.67 2.68 0.34 1.36 0 0 Z M11 1 C12 3 12 3 12 3 Z " fill="#115D8E" transform="translate(215,72)"/>
<path d="M0 0 C0.33 0 0.66 0 1 0 C1 4.62 1 9.24 1 14 C5.95 14 10.9 14 16 14 C16 14.33 16 14.66 16 15 C10.06 15.33 4.12 15.66 -2 16 C-3 13 -3 13 -2.0625 10.8125 C-1.5365625 9.9153125 -1.5365625 9.9153125 -1 9 C-2.65 9 -4.3 9 -6 9 C-6 8.67 -6 8.34 -6 8 C-4.02 8 -2.04 8 0 8 C0 5.36 0 2.72 0 0 Z " fill="#444444" transform="translate(310,4)"/>
<path d="M0 0 C2.72838213 0.86159436 4.57893606 1.52630307 6.5 3.6875 C7.28744037 7.32941171 5.6152008 9.76959839 4 13 C3.67 13 3.34 13 3 13 C3 11.02 3 9.04 3 7 C1.68 7 0.36 7 -1 7 C-0.67 4.69 -0.34 2.38 0 0 Z " fill="#049AD3" transform="translate(25,59)"/>
<path d="M0 0 C0.66 0.66 1.32 1.32 2 2 C1.64644564 4.26274788 1.02455574 5.95088852 0 8 C0.66 8.33 1.32 8.66 2 9 C-1 11 -1 11 -3.6875 10.625 C-4.450625 10.41875 -5.21375 10.2125 -6 10 C-4.87548273 7.0280615 -3.77706209 4.66559313 -2 2 C-1.34 2 -0.68 2 0 2 C0 1.34 0 0.68 0 0 Z " fill="#023877" transform="translate(11,4)"/>
<path d="M0 0 C2.97 0 5.94 0 9 0 C9 1.32 9 2.64 9 4 C6.69 3.34 4.38 2.68 2 2 C2 2.66 2 3.32 2 4 C2.99 4.33 3.98 4.66 5 5 C4.01 5.33 3.02 5.66 2 6 C2 7.32 2 8.64 2 10 C1.01 10 0.02 10 -1 10 C-1.125 3.375 -1.125 3.375 0 0 Z " fill="#054276" transform="translate(428,11)"/>
<path d="M0 0 C1.32 0 2.64 0 4 0 C3 7.42857143 3 7.42857143 2 11 C0.35 11 -1.3 11 -3 11 C-2.01 7.37 -1.02 3.74 0 0 Z " fill="#06426E" transform="translate(381,11)"/>
<path d="M0 0 C1.32 0 2.64 0 4 0 C3.34 3.3 2.68 6.6 2 10 C0.35 10.33 -1.3 10.66 -3 11 C-2.69078116 9.54096742 -2.37751201 8.08279278 -2.0625 6.625 C-1.88847656 5.81289063 -1.71445312 5.00078125 -1.53515625 4.1640625 C-1 2 -1 2 0 0 Z " fill="#084068" transform="translate(419,11)"/>
<path d="M0 0 C1.16659166 3.49977498 0.68403157 5.42783513 0 9 C0 9.66 0 10.32 0 11 C1.32 11.33 2.64 11.66 4 12 C3.01 13.485 3.01 13.485 2 15 C0.125 14.8125 0.125 14.8125 -2 14 C-3.4375 11.9375 -3.4375 11.9375 -4 9 C-3.2311008 5.90692822 -2.3021284 2.3021284 0 0 Z " fill="#D45A2B" transform="translate(362,7)"/>
<path d="M0 0 C0.99 0 1.98 0 3 0 C3.33 0.66 3.66 1.32 4 2 C4.99 1.34 5.98 0.68 7 0 C9.0625 0.125 9.0625 0.125 11 1 C12.25 3.0625 12.25 3.0625 13 5 C12.01 5.99 11.02 6.98 10 8 C9.01 6.68 8.02 5.36 7 4 C6.01 4.33 5.02 4.66 4 5 C1.8125 3.6875 1.8125 3.6875 0 2 C0 1.34 0 0.68 0 0 Z " fill="#CD3441" transform="translate(280,58)"/>
<path d="M0 0 C0.33 0.99 0.66 1.98 1 3 C2.32 3 3.64 3 5 3 C5 2.34 5 1.68 5 1 C6.32 1 7.64 1 9 1 C8.67 2.32 8.34 3.64 8 5 C6.54263913 5.19491452 5.08405407 5.38069358 3.625 5.5625 C2.81289063 5.66691406 2.00078125 5.77132813 1.1640625 5.87890625 C-1 6 -1 6 -3 5 C-3 4.01 -3 3.02 -3 2 C-2.01 2 -1.02 2 0 2 C0 1.34 0 0.68 0 0 Z " fill="#0D3E65" transform="translate(407,16)"/>
<path d="M0 0 C1.32 0 2.64 0 4 0 C3.34 3.3 2.68 6.6 2 10 C0.35 10.33 -1.3 10.66 -3 11 C-2.01 7.37 -1.02 3.74 0 0 Z " fill="#084370" transform="translate(400,11)"/>
<path d="M0 0 C1.875 1 1.875 1 3 3 C2.94003672 5.76376193 2.49377694 8.26178244 2 11 C1.67 9.68 1.34 8.36 1 7 C0.01 7 -0.98 7 -2 7 C-2.33 7.66 -2.66 8.32 -3 9 C-3 8.01 -3 7.02 -3 6 C-2.34 6 -1.68 6 -1 6 C-1 4.68 -1 3.36 -1 2 C-1.78375 2.20625 -2.5675 2.4125 -3.375 2.625 C-4.24125 2.74875 -5.1075 2.8725 -6 3 C-6.66 2.34 -7.32 1.68 -8 1 C-4.99825776 -0.00058075 -3.12414314 -0.31241431 0 0 Z " fill="#9C2A31" transform="translate(376,0)"/>
<path d="M0 0 C1.98362069 2.91708924 1.9876191 4.12380904 1.625 7.75 C1.41875 8.8225 1.2125 9.895 1 11 C-0.98 11 -2.96 11 -5 11 C-5.33 11.66 -5.66 12.32 -6 13 C-6 9.7 -6 6.4 -6 3 C-4.35 3 -2.7 3 -1 3 C-0.67 2.01 -0.34 1.02 0 0 Z M-5 4 C-5 5.65 -5 7.3 -5 9 C-4.01 9.33 -3.02 9.66 -2 10 C-2 8.02 -2 6.04 -2 4 C-2.99 4 -3.98 4 -5 4 Z " fill="#040404" transform="translate(91,56)"/>
<path d="M0 0 C2.4375 1.375 2.4375 1.375 3.25 4 C3.311875 4.78375 3.37375 5.5675 3.4375 6.375 C2.1175 6.705 0.7975 7.035 -0.5625 7.375 C-0.5625 6.715 -0.5625 6.055 -0.5625 5.375 C-1.160625 5.890625 -1.75875 6.40625 -2.375 6.9375 C-3.096875 7.411875 -3.81875 7.88625 -4.5625 8.375 C-5.5525 8.045 -6.5425 7.715 -7.5625 7.375 C-7.5625 6.385 -7.5625 5.395 -7.5625 4.375 C-5.2525 4.375 -2.9425 4.375 -0.5625 4.375 C-0.5625 3.385 -0.5625 2.395 -0.5625 1.375 C-1.8825 1.705 -3.2025 2.035 -4.5625 2.375 C-4.5625 1.715 -4.5625 1.055 -4.5625 0.375 C-2.5625 -0.625 -2.5625 -0.625 0 0 Z " fill="#C31116" transform="translate(446.5625,120.625)"/>
<path d="M0 0 C1.485 0.99 1.485 0.99 3 2 C3.29296875 4.1640625 3.29296875 4.1640625 3.1875 6.625 C3.16042969 7.44226563 3.13335937 8.25953125 3.10546875 9.1015625 C3.07066406 9.72804688 3.03585938 10.35453125 3 11 C2.01 11.33 1.02 11.66 0 12 C-1 11 -1 11 -1.1328125 8.75 C-1.13023438 7.8425 -1.12765625 6.935 -1.125 6 C-1.12757812 5.0925 -1.13015625 4.185 -1.1328125 3.25 C-1 1 -1 1 0 0 Z " fill="#486B72" transform="translate(70,112)"/>
<path d="M0 0 C0.66 0.33 1.32 0.66 2 1 C2 4.3 2 7.6 2 11 C1.01 11.495 1.01 11.495 0 12 C-0.66 11.67 -1.32 11.34 -2 11 C-2.05399736 9.54207116 -2.09279177 8.08357288 -2.125 6.625 C-2.15980469 5.40683594 -2.15980469 5.40683594 -2.1953125 4.1640625 C-2 2 -2 2 0 0 Z " fill="#4B6D78" transform="translate(55,112)"/>
<path d="M0 0 C0.57234375 0.22558594 1.1446875 0.45117188 1.734375 0.68359375 C1.404375 2.33359375 1.074375 3.98359375 0.734375 5.68359375 C0.074375 5.68359375 -0.585625 5.68359375 -1.265625 5.68359375 C-1.595625 5.02359375 -1.925625 4.36359375 -2.265625 3.68359375 C-3.915625 5.00359375 -5.565625 6.32359375 -7.265625 7.68359375 C-8.255625 7.02359375 -9.245625 6.36359375 -10.265625 5.68359375 C-9.02827516 4.64746342 -7.77517863 3.63011573 -6.515625 2.62109375 C-5.81953125 2.05261719 -5.1234375 1.48414063 -4.40625 0.8984375 C-2.265625 -0.31640625 -2.265625 -0.31640625 0 0 Z " fill="#B61F28" transform="translate(281.265625,52.31640625)"/>
<path d="M0 0 C1.32 1.65 2.64 3.3 4 5 C-0.83646298 8.22430866 -3.26939984 8.09242903 -9 8 C-9 6.35 -9 4.7 -9 3 C-8.67 4.32 -8.34 5.64 -8 7 C-5.97954558 6.39816251 -3.97888961 5.72693904 -2 5 C-1.67 4.34 -1.34 3.68 -1 3 C-2.32 2.67 -3.64 2.34 -5 2 C-3.35 1.34 -1.7 0.68 0 0 Z " fill="#0B416C" transform="translate(435,14)"/>
<path d="M0 0 C0.66 0.66 1.32 1.32 2 2 C0.02 2.99 0.02 2.99 -2 4 C-2 5.65 -2 7.3 -2 9 C0.475 9.99 0.475 9.99 3 11 C3 11.99 3 12.98 3 14 C-2.75 12.375 -2.75 12.375 -5 9 C-5.4375 6.5625 -5.4375 6.5625 -5 4 C-2.5 1.6875 -2.5 1.6875 0 0 Z " fill="#1A457C" transform="translate(5,4)"/>
<path d="M0 0 C1.45792884 -0.05399736 2.91642712 -0.09279177 4.375 -0.125 C5.18710938 -0.14820312 5.99921875 -0.17140625 6.8359375 -0.1953125 C9 0 9 0 11 2 C11 2.99 11 3.98 11 5 C6.91621717 4.25749403 2.98060777 3.17076699 -1 2 C-0.67 1.34 -0.34 0.68 0 0 Z " fill="#4A0189" transform="translate(208,119)"/>
<path d="M0 0 C0.33 1.32 0.66 2.64 1 4 C1.33 3.34 1.66 2.68 2 2 C3.75 1.4375 3.75 1.4375 6 1 C6.9075 0.814375 7.815 0.62875 8.75 0.4375 C9.4925 0.293125 10.235 0.14875 11 0 C11 1.65 11 3.3 11 5 C8.69 5 6.38 5 4 5 C3.67 5.66 3.34 6.32 3 7 C3 6.34 3 5.68 3 5 C2.01 5 1.02 5 0 5 C0 3.35 0 1.7 0 0 Z " fill="#1D262F" transform="translate(384,115)"/>
<path d="M0 0 C0.66 0.33 1.32 0.66 2 1 C2 4.3 2 7.6 2 11 C1.01 11 0.02 11 -1 11 C-2.89488952 9.10511048 -2.18019112 6.42860854 -2.23046875 3.91015625 C-2 2 -2 2 0 0 Z " fill="#2E485A" transform="translate(39,112)"/>
<path d="M0 0 C0.33 0 0.66 0 1 0 C0.95875 0.928125 0.9175 1.85625 0.875 2.8125 C0.72863661 6.15809719 0.72863661 6.15809719 3 9 C0.03 9 -2.94 9 -6 9 C-6.33 7.35 -6.66 5.7 -7 4 C-5.68 4.33 -4.36 4.66 -3 5 C-2.525625 4.175 -2.05125 3.35 -1.5625 2.5 C-1.046875 1.675 -0.53125 0.85 0 0 Z " fill="#C0333A" transform="translate(322,66)"/>
<path d="M0 0 C2.6875 2 2.6875 2 4 4 C2.52093108 4.02689216 1.04172517 4.04634621 -0.4375 4.0625 C-1.67306641 4.07990234 -1.67306641 4.07990234 -2.93359375 4.09765625 C-5 4 -5 4 -6 3 C-7.51928038 2.92820036 -9.04167482 2.91607993 -10.5625 2.9375 C-11.80193359 2.95103516 -11.80193359 2.95103516 -13.06640625 2.96484375 C-14.02353516 2.98224609 -14.02353516 2.98224609 -15 3 C-15 2.34 -15 1.68 -15 1 C-10.07813461 -0.42780529 -5.07801635 -0.59333423 0 0 Z " fill="#CE3743" transform="translate(293,71)"/>
<path d="M0 0 C0.99 0 1.98 0 3 0 C3 3.96 3 7.92 3 12 C0.03 11.67 -2.94 11.34 -6 11 C-6 10.67 -6 10.34 -6 10 C-4.02 10 -2.04 10 0 10 C0 6.7 0 3.4 0 0 Z " fill="#134687" transform="translate(75,4)"/>
<path d="M0 0 C1.32 0 2.64 0 4 0 C4 0.99 4 1.98 4 3 C3.01 3.33 2.02 3.66 1 4 C1.99 4.33 2.98 4.66 4 5 C4 7.31 4 9.62 4 12 C2.68 12 1.36 12 0 12 C0 8.04 0 4.08 0 0 Z " fill="#D71C26" transform="translate(433,117)"/>
<path d="M0 0 C0.99 0 1.98 0 3 0 C3 4.29 3 8.58 3 13 C2.01 13 1.02 13 0 13 C0 8.71 0 4.42 0 0 Z " fill="#05357B" transform="translate(123,4)"/>
<path d="M0 0 C0.99 0 1.98 0 3 0 C4.4783226 2.95664519 4.06032783 5.74229737 4 9 C2.02 9.99 2.02 9.99 0 11 C-0.19491452 9.54263913 -0.38069358 8.08405407 -0.5625 6.625 C-0.66691406 5.81289062 -0.77132812 5.00078125 -0.87890625 4.1640625 C-1 2 -1 2 0 0 Z " fill="#BF2946" transform="translate(86,132)"/>
<path d="M0 0 C3.0625 0.125 3.0625 0.125 5.0625 1.125 C4.7325 2.445 4.4025 3.765 4.0625 5.125 C1.7525 5.125 -0.5575 5.125 -2.9375 5.125 C-3.5 3.1875 -3.5 3.1875 -3.9375 1.125 C-2.9375 0.125 -2.9375 0.125 0 0 Z " fill="#0899D1" transform="translate(33.9375,47.875)"/>
<path d="M0 0 C2.69082872 0.17635452 5.32851446 0.61835921 8 1 C8 2.65 8 4.3 8 6 C4.625 5.75 4.625 5.75 1 5 C-0.4375 2.9375 -0.4375 2.9375 -1 1 C-0.67 0.67 -0.34 0.34 0 0 Z " fill="#C02E49" transform="translate(67,138)"/>
<path d="M0 0 C0.33 1.32 0.66 2.64 1 4 C1.66 4 2.32 4 3 4 C3 5.98 3 7.96 3 10 C2.01 10 1.02 10 0 10 C0 8.68 0 7.36 0 6 C-1.65 6 -3.3 6 -5 6 C-5 5.01 -5 4.02 -5 3 C-3.35 3 -1.7 3 0 3 C0 2.01 0 1.02 0 0 Z " fill="#204C86" transform="translate(117,7)"/>
<path d="M0 0 C0.495 0.33 0.99 0.66 1.5 1 C-1.44369145 2.47184573 -4.23383414 2 -7.5 2 C-8.8303125 2.309375 -8.8303125 2.309375 -10.1875 2.625 C-12.98337396 3.07838497 -14.1441079 2.48333947 -16.5 1 C-11.03314877 -1.18674049 -5.63485218 -2.25394087 0 0 Z " fill="#0B336F" transform="translate(22.5,3)"/>
<path d="M0 0 C0.99 0.33 1.98 0.66 3 1 C3.6875 3.0625 3.6875 3.0625 4 5 C2.35 5 0.7 5 -1 5 C-1.33 5.66 -1.66 6.32 -2 7 C-3.65 6.67 -5.3 6.34 -7 6 C-6.67 4.68 -6.34 3.36 -6 2 C-5.67 2.66 -5.34 3.32 -5 4 C-4.67 3.34 -4.34 2.68 -4 2 C-3.01 2 -2.02 2 -1 2 C-0.67 1.34 -0.34 0.68 0 0 Z " fill="#1E2930" transform="translate(404,115)"/>
<path d="M0 0 C0.99 0.33 1.98 0.66 3 1 C3 6.94 3 12.88 3 19 C2.67 19 2.34 19 2 19 C1.67 17.02 1.34 15.04 1 13 C0.67 13 0.34 13 0 13 C0 8.71 0 4.42 0 0 Z " fill="#3E6773" transform="translate(46,107)"/>
<path d="M0 0 C0 3 0 3 -1.125 4.625 C-3.68316224 6.50098564 -5.87258169 6.73383674 -9 7 C-9.66 6.67 -10.32 6.34 -11 6 C-10.67 5.01 -10.34 4.02 -10 3 C-8.22265625 2.3046875 -8.22265625 2.3046875 -6.0625 1.875 C-3.81226851 1.40943487 -2.06266481 1.03133241 0 0 Z " fill="#0D3D7E" transform="translate(22,6)"/>
<path d="M0 0 C0.33 0 0.66 0 1 0 C1.66 2.31 2.32 4.62 3 7 C3.99 7 4.98 7 6 7 C6 7.99 6 8.98 6 10 C4.1875 10.625 4.1875 10.625 2 11 C1.01 10.34 0.02 9.68 -1 9 C-1.4375 2.875 -1.4375 2.875 0 0 Z " fill="#DD1F21" transform="translate(380,62)"/>
<path d="M0 0 C0.33 0 0.66 0 1 0 C1 2.31 1 4.62 1 7 C-6.26 7 -13.52 7 -21 7 C-21 6.67 -21 6.34 -21 6 C-19.81921875 5.93941406 -18.6384375 5.87882812 -17.421875 5.81640625 C-15.8645723 5.73197418 -14.30728121 5.64732751 -12.75 5.5625 C-11.97269531 5.52318359 -11.19539063 5.48386719 -10.39453125 5.44335938 C-9.64042969 5.40146484 -8.88632812 5.35957031 -8.109375 5.31640625 C-7.41811523 5.27974854 -6.72685547 5.24309082 -6.01464844 5.20532227 C-3.93371671 4.99324476 -2.01427578 4.55491323 0 4 C0 2.68 0 1.36 0 0 Z " fill="#020202" transform="translate(330,13)"/>
<path d="M0 0 C-0.33 1.65 -0.66 3.3 -1 5 C-1.99 4.34 -2.98 3.68 -4 3 C-6.75417318 2.69933846 -9.42645147 2.49074701 -12.1875 2.375 C-13.31188477 2.31699219 -13.31188477 2.31699219 -14.45898438 2.2578125 C-16.30559199 2.16371784 -18.1527619 2.08077681 -20 2 C-20 1.67 -20 1.34 -20 1 C-17.79187393 0.83060951 -15.58348776 0.66460778 -13.375 0.5 C-12.14523437 0.4071875 -10.91546875 0.314375 -9.6484375 0.21875 C-6.41962143 0.02515931 -3.23321325 -0.03979339 0 0 Z " fill="#3F3F3F" transform="translate(331,2)"/>
<path d="M0 0 C2.31 0.33 4.62 0.66 7 1 C7 2.65 7 4.3 7 6 C4.6568787 5.74438677 2.32156597 5.40729228 0 5 C-0.33 4.34 -0.66 3.68 -1 3 C-0.67 2.01 -0.34 1.02 0 0 Z " fill="#C02543" transform="translate(38,138)"/>
<path d="M0 0 C3.0625 0.3125 3.0625 0.3125 4.9375 1.8125 C5.30875 2.3075 5.68 2.8025 6.0625 3.3125 C5.7325 3.9725 5.4025 4.6325 5.0625 5.3125 C3.7425 4.3225 2.4225 3.3325 1.0625 2.3125 C1.0625 2.9725 1.0625 3.6325 1.0625 4.3125 C-0.2575 4.3125 -1.5775 4.3125 -2.9375 4.3125 C-3.2675 4.9725 -3.5975 5.6325 -3.9375 6.3125 C-4.5625 4.4375 -4.5625 4.4375 -4.9375 2.3125 C-2.9375 0.3125 -2.9375 0.3125 0 0 Z " fill="#C1080A" transform="translate(316.9375,117.6875)"/>
<path d="M0 0 C1.32 0 2.64 0 4 0 C4.66 2.31 5.32 4.62 6 7 C4.34385343 7.38218767 2.67542976 7.71395102 1 8 C0 7 0 7 -0.0625 3.4375 C-0.041875 2.303125 -0.02125 1.16875 0 0 Z " fill="#DE2920" transform="translate(406,59)"/>
<path d="M0 0 C2.97 0 5.94 0 9 0 C9.33 1.32 9.66 2.64 10 4 C8.68 4 7.36 4 6 4 C6 4.99 6 5.98 6 7 C5.01 7.33 4.02 7.66 3 8 C2.814375 6.576875 2.814375 6.576875 2.625 5.125 C2.28312823 1.91332809 2.28312823 1.91332809 0 0 Z M6 1 C6 1.66 6 2.32 6 3 C6.99 3 7.98 3 9 3 C9 2.34 9 1.68 9 1 C8.01 1 7.02 1 6 1 Z " fill="#080808" transform="translate(61,59)"/>
<path d="M0 0 C1.32 0 2.64 0 4 0 C4 1.32 4 2.64 4 4 C5.32 4 6.64 4 8 4 C8 4.66 8 5.32 8 6 C6.33388095 6.042721 4.66617115 6.04063832 3 6 C2.67 5.67 2.34 5.34 2 5 C1.67 5.66 1.34 6.32 1 7 C0.34 7 -0.32 7 -1 7 C-0.67 4.69 -0.34 2.38 0 0 Z " fill="#DD2620" transform="translate(378,55)"/>
<path d="M0 0 C0.66 0 1.32 0 2 0 C2 4.62 2 9.24 2 14 C2.66 14.33 3.32 14.66 4 15 C2.68 15.33 1.36 15.66 0 16 C0 10.72 0 5.44 0 0 Z " fill="#EE0403" transform="translate(311,115)"/>
<path d="M0 0 C0.66 0.33 1.32 0.66 2 1 C2 4.3 2 7.6 2 11 C1.01 11 0.02 11 -1 11 C-1.02688151 9.35425434 -1.04634123 7.70838587 -1.0625 6.0625 C-1.07410156 5.14597656 -1.08570312 4.22945313 -1.09765625 3.28515625 C-1 1 -1 1 0 0 Z " fill="#364F59" transform="translate(86,112)"/>
<path d="M0 0 C2.31 0 4.62 0 7 0 C8.43088528 2.86177057 7.59991697 4.93375773 7 8 C6.01 7.67 5.02 7.34 4 7 C4 5.02 4 3.04 4 1 C3.01 1 2.02 1 1 1 C1 2.98 1 4.96 1 7 C0.67 7 0.34 7 0 7 C0 4.69 0 2.38 0 0 Z " fill="#080808" transform="translate(98,59)"/>
<path d="M0 0 C0.66 0.33 1.32 0.66 2 1 C2 4.63 2 8.26 2 12 C1.67 11.34 1.34 10.68 1 10 C0.34 10 -0.32 10 -1 10 C-1.33 7.03 -1.66 4.06 -2 1 C-1.34 0.67 -0.68 0.34 0 0 Z " fill="#0A407C" transform="translate(104,4)"/>
<path d="M0 0 C0.33 1.32 0.66 2.64 1 4 C1.66 4 2.32 4 3 4 C3 6.97 3 9.94 3 13 C2.01 13 1.02 13 0 13 C0 8.71 0 4.42 0 0 Z " fill="#3567A0" transform="translate(80,4)"/>
<path d="M0 0 C0.33 0 0.66 0 1 0 C0.979375 0.94875 0.95875 1.8975 0.9375 2.875 C0.77448174 5.90666283 0.77448174 5.90666283 2 8 C-2.75 11 -2.75 11 -5 11 C-3.55049545 7.2089881 -1.84827434 3.6125362 0 0 Z " fill="#C80A0A" transform="translate(270,124)"/>
<path d="M0 0 C2.64 0.33 5.28 0.66 8 1 C7.401875 1.2475 6.80375 1.495 6.1875 1.75 C3.71352479 3.16370012 2.56629745 4.65055383 1 7 C0.34 6.34 -0.32 5.68 -1 5 C-0.625 2.375 -0.625 2.375 0 0 Z " fill="#086EB1" transform="translate(166,51)"/>
<path d="M0 0 C1.98 0 3.96 0 6 0 C6 1.65 6 3.3 6 5 C4.02 5 2.04 5 0 5 C0 3.35 0 1.7 0 0 Z " fill="#BA8841" transform="translate(272,4)"/>
<path d="M0 0 C0.66 0 1.32 0 2 0 C2.33 0.99 2.66 1.98 3 3 C4.32 2.34 5.64 1.68 7 1 C3.55384615 5.8 3.55384615 5.8 0.75 6.8125 C-0.11625 6.9053125 -0.11625 6.9053125 -1 7 C-1 3 -1 3 0 0 Z " fill="#AC2A30" transform="translate(328,52)"/>
<path d="M0 0 C0 0.33 0 0.66 0 1 C-1.546875 1.2784375 -1.546875 1.2784375 -3.125 1.5625 C-7.86674262 2.86623779 -10.19309799 6.15464707 -13 10 C-13.33 9.34 -13.66 8.68 -14 8 C-10.66139915 1.14708247 -7.54666052 -0.43538426 0 0 Z " fill="#999999" transform="translate(168,0)"/>
<path d="M0 0 C1.98 0.66 3.96 1.32 6 2 C6 3.65 6 5.3 6 7 C5.67 6.34 5.34 5.68 5 5 C2.36 5 -0.28 5 -3 5 C-1.125 1.125 -1.125 1.125 0 0 Z " fill="#212C31" transform="translate(421,115)"/>
<path d="M0 0 C1.28317892 3.84953676 1.06643637 6.94738135 1 11 C-0.32 11.33 -1.64 11.66 -3 12 C-2.88541307 10.56163249 -2.75790884 9.12429034 -2.625 7.6875 C-2.55539062 6.88699219 -2.48578125 6.08648437 -2.4140625 5.26171875 C-2 3 -2 3 0 0 Z " fill="#D9333F" transform="translate(301,61)"/>
<path d="M0 0 C0.66 1.32 1.32 2.64 2 4 C0.35 4 -1.3 4 -3 4 C-3 5.32 -3 6.64 -3 8 C-4.65 8 -6.3 8 -8 8 C-7.01 7.34 -6.02 6.68 -5 6 C-5.66 5.67 -6.32 5.34 -7 5 C-7 4.34 -7 3.68 -7 3 C-6.34 3 -5.68 3 -5 3 C-4.67 2.34 -4.34 1.68 -4 1 C-3.01 1.33 -2.02 1.66 -1 2 C-0.67 1.34 -0.34 0.68 0 0 Z " fill="#B81523" transform="translate(293,63)"/>
<path d="M0 0 C1.32 0 2.64 0 4 0 C3.67 1.32 3.34 2.64 3 4 C-1.455 4.495 -1.455 4.495 -6 5 C-5.34 4.01 -4.68 3.02 -4 2 C-2.68 2 -1.36 2 0 2 C0 1.34 0 0.68 0 0 Z " fill="#063B68" transform="translate(393,17)"/>
<path d="M0 0 C2.97 0 5.94 0 9 0 C9 0.99 9 1.98 9 3 C6.03 3 3.06 3 0 3 C0 2.01 0 1.02 0 0 Z " fill="#191919" transform="translate(315,12)"/>
<path d="M0 0 C3.4375 0.1875 3.4375 0.1875 7 1 C8.4375 3.0625 8.4375 3.0625 9 5 C7.35 5.33 5.7 5.66 4 6 C3.67 5.01 3.34 4.02 3 3 C0.99983534 1.79117904 0.99983534 1.79117904 -1 1 C-0.67 0.67 -0.34 0.34 0 0 Z " fill="#490184" transform="translate(177,119)"/>
<path d="M0 0 C0.33 0 0.66 0 1 0 C1.33 3.3 1.66 6.6 2 10 C2.66 10 3.32 10 4 10 C2.92598892 12.91517292 2.22189824 14.77810176 0 17 C0 11.39 0 5.78 0 0 Z " fill="#0D7699" transform="translate(168,58)"/>
<path d="M0 0 C1.65 0 3.3 0 5 0 C4.67 3.3 4.34 6.6 4 10 C3.67 9.34 3.34 8.68 3 8 C0.97536745 7.34786708 0.97536745 7.34786708 -1 7 C-1.04254356 5.00045254 -1.04080783 2.99958364 -1 1 C-0.67 0.67 -0.34 0.34 0 0 Z M0 1 C0 2.65 0 4.3 0 6 C0.99 6.33 1.98 6.66 3 7 C3 5.02 3 3.04 3 1 C2.01 1 1.02 1 0 1 Z " fill="#080908" transform="translate(40,59)"/>
<path d="M0 0 C0.99 0.33 1.98 0.66 3 1 C3.94921875 3.28515625 3.94921875 3.28515625 4.6875 6.0625 C4.93886719 6.98160156 5.19023437 7.90070313 5.44921875 8.84765625 C5.63097656 9.55792969 5.81273437 10.26820312 6 11 C5.01 10.67 4.02 10.34 3 10 C2.05078125 7.71484375 2.05078125 7.71484375 1.3125 4.9375 C1.06113281 4.01839844 0.80976563 3.09929688 0.55078125 2.15234375 C0.36902344 1.44207031 0.18726563 0.73179688 0 0 Z " fill="#474B4A" transform="translate(182,57)"/>
<path d="M0 0 C1.98 0 3.96 0 6 0 C5.1875 1.9375 5.1875 1.9375 4 4 C1.66682784 4.77772405 -0.61435923 5.42415568 -3 6 C-2.67 5.01 -2.34 4.02 -2 3 C-1.34 3 -0.68 3 0 3 C0 2.01 0 1.02 0 0 Z " fill="#CF8381" transform="translate(368,2)"/>
<path d="M0 0 C1.65 0 3.3 0 5 0 C5 0.66 5 1.32 5 2 C4.01 2 3.02 2 2 2 C2 3.32 2 4.64 2 6 C3.32 6.33 4.64 6.66 6 7 C4.35 7 2.7 7 1 7 C0.67 7.66 0.34 8.32 0 9 C0 6.03 0 3.06 0 0 Z " fill="#20373B" transform="translate(419,123)"/>
<path d="M0 0 C1.32 0 2.64 0 4 0 C4 1.98 4 3.96 4 6 C2.68 6 1.36 6 0 6 C0 4.02 0 2.04 0 0 Z " fill="#385A64" transform="translate(61,117)"/>
<path d="M0 0 C2.33333333 0 4.66666667 0 7 0 C7 1.65 7 3.3 7 5 C6.01 4.67 5.02 4.34 4 4 C2.68 4 1.36 4 0 4 C0 2.68 0 1.36 0 0 Z " fill="#152027" transform="translate(376,117)"/>
<path d="M0 0 C0.33 0 0.66 0 1 0 C1.125 2.875 1.125 2.875 1 6 C0.34 6.66 -0.32 7.32 -1 8 C-3.5 7.8125 -3.5 7.8125 -6 7 C-6.66 6.01 -7.32 5.02 -8 4 C-5.36 4.33 -2.72 4.66 0 5 C0 3.35 0 1.7 0 0 Z " fill="#0E80B7" transform="translate(35,71)"/>
<path d="M0 0 C0.99 0.33 1.98 0.66 3 1 C4.2077558 4.62326739 3.54311128 5.64146369 2 9 C0.35 8.67 -1.3 8.34 -3 8 C-2.2575 7.4121875 -2.2575 7.4121875 -1.5 6.8125 C0.45593143 4.44908285 0.24207973 2.98564997 0 0 Z " fill="#1D282C" transform="translate(424,123)"/>
<path d="M0 0 C1.65 0 3.3 0 5 0 C5 1.65 5 3.3 5 5 C3.35 5 1.7 5 0 5 C0 3.35 0 1.7 0 0 Z " fill="#44097B" transform="translate(194,119)"/>
<path d="M0 0 C0.99 0.33 1.98 0.66 3 1 C3 2.65 3 4.3 3 6 C1.02 6 -0.96 6 -3 6 C-3 5.34 -3 4.68 -3 4 C-2.34 4 -1.68 4 -1 4 C-0.67 2.68 -0.34 1.36 0 0 Z " fill="#DE1D19" transform="translate(421,61)"/>
<path d="M0 0 C0 1.32 0 2.64 0 4 C-0.99 4.495 -0.99 4.495 -2 5 C-2.66 4.67 -3.32 4.34 -4 4 C-4 4.66 -4 5.32 -4 6 C-4.66 6 -5.32 6 -6 6 C-6 4.02 -6 2.04 -6 0 C-2.25 -1.125 -2.25 -1.125 0 0 Z " fill="#D73A44" transform="translate(328,55)"/>
<path d="M0 0 C0.33 0 0.66 0 1 0 C0.125 6.75 0.125 6.75 -1 9 C-1.66 9 -2.32 9 -3 9 C-3 6.69 -3 4.38 -3 2 C-2.01 2 -1.02 2 0 2 C0 1.34 0 0.68 0 0 Z " fill="#E41E1C" transform="translate(400,59)"/>
<path d="M0 0 C1.65 0 3.3 0 5 0 C5.33 1.32 5.66 2.64 6 4 C4.35 4 2.7 4 1 4 C1.95865509 6.33075929 1.95865509 6.33075929 5 8 C3.35 7.67 1.7 7.34 0 7 C0 4.69 0 2.38 0 0 Z M1 1 C1 1.66 1 2.32 1 3 C1.99 3 2.98 3 4 3 C4 2.34 4 1.68 4 1 C3.01 1 2.02 1 1 1 Z " fill="#050505" transform="translate(111,59)"/>
<path d="M0 0 C0 0.99 0 1.98 0 3 C-2.97 3 -5.94 3 -9 3 C-8.67 2.01 -8.34 1.02 -8 0 C-5.13822943 -1.43088528 -3.06624227 -0.59991697 0 0 Z " fill="#3D3F3E" transform="translate(227,58)"/>
<path d="M0 0 C0.33 0 0.66 0 1 0 C1 2.97 1 5.94 1 9 C-0.4540625 9.433125 -0.4540625 9.433125 -1.9375 9.875 C-5.10664203 10.64214682 -5.10664203 10.64214682 -6 13 C-6 12.01 -6 11.02 -6 10 C-4.7934375 9.1028125 -4.7934375 9.1028125 -3.5625 8.1875 C-0.71154069 6.18226129 -0.71154069 6.18226129 -0.1875 2.75 C-0.125625 1.8425 -0.06375 0.935 0 0 Z " fill="#ADADAD" transform="translate(164,3)"/>
<path d="M0 0 C0.33 0.66 0.66 1.32 1 2 C3.31 2 5.62 2 8 2 C8 2.66 8 3.32 8 4 C5.36 4.33 2.72 4.66 0 5 C-0.66 4.01 -1.32 3.02 -2 2 C-1.34 1.34 -0.68 0.68 0 0 Z " fill="#AF2D31" transform="translate(270,70)"/>
<path d="M0 0 C0.66 0 1.32 0 2 0 C2.33 1.65 2.66 3.3 3 5 C0.36 5 -2.28 5 -5 5 C-5.33 4.01 -5.66 3.02 -6 2 C-4.02 2 -2.04 2 0 2 C0 1.34 0 0.68 0 0 Z " fill="#3E4042" transform="translate(224,65)"/>
<path d="M0 0 C2.31 0 4.62 0 7 0 C5.25 4.875 5.25 4.875 3 6 C2.01 4.02 1.02 2.04 0 0 Z " fill="#7FAB41" transform="translate(158,64)"/>
<path d="M0 0 C0.94875 0.350625 1.8975 0.70125 2.875 1.0625 C2.875 2.0525 2.875 3.0425 2.875 4.0625 C0.235 3.7325 -2.405 3.4025 -5.125 3.0625 C-5.125 2.0725 -5.125 1.0825 -5.125 0.0625 C-3.125 -0.9375 -3.125 -0.9375 0 0 Z " fill="#B41F28" transform="translate(320.125,52.9375)"/>
<path d="M0 0 C1.65 0 3.3 0 5 0 C4.67 1.32 4.34 2.64 4 4 C2.68 4.33 1.36 4.66 0 5 C0 3.35 0 1.7 0 0 Z " fill="#E90210" transform="translate(325,119)"/>
<path d="M0 0 C1.65 0 3.3 0 5 0 C5 2.64 5 5.28 5 8 C4.34 7.34 3.68 6.68 3 6 C3 5.01 3 4.02 3 3 C2.01 2.67 1.02 2.34 0 2 C0 1.34 0 0.68 0 0 Z " fill="#E90305" transform="translate(302,120)"/>
<path d="M0 0 C2 1 2 1 3.125 4.0625 C3.41375 5.031875 3.7025 6.00125 4 7 C1.69 6.67 -0.62 6.34 -3 6 C-2.01 4.02 -1.02 2.04 0 0 Z " fill="#C50E0C" transform="translate(276,114)"/>
<path d="M0 0 C2.31 0 4.62 0 7 0 C7.33 1.32 7.66 2.64 8 4 C7.4225 3.814375 6.845 3.62875 6.25 3.4375 C3.79307475 2.95976454 2.35602466 3.24270636 0 4 C0 2.68 0 1.36 0 0 Z " fill="#1072A3" transform="translate(234,72)"/>
<path d="M0 0 C0.66 0.33 1.32 0.66 2 1 C1.34 2.65 0.68 4.3 0 6 C-0.99 6 -1.98 6 -3 6 C-3.33 6.66 -3.66 7.32 -4 8 C-3.50168276 4.31245243 -2.89932357 2.39509338 0 0 Z " fill="#1095CB" transform="translate(10,60)"/>
<path d="M0 0 C1.32 0 2.64 0 4 0 C4 1.32 4 2.64 4 4 C2.68 4 1.36 4 0 4 C0.33 4.66 0.66 5.32 1 6 C1.99 6 2.98 6 4 6 C4 6.66 4 7.32 4 8 C2.35 7.67 0.7 7.34 -1 7 C-1.04254356 5.00045254 -1.04080783 2.99958364 -1 1 C-0.67 0.67 -0.34 0.34 0 0 Z M0 1 C0 1.66 0 2.32 0 3 C0.99 3 1.98 3 3 3 C3 2.34 3 1.68 3 1 C2.01 1 1.02 1 0 1 Z " fill="#020202" transform="translate(73,59)"/>
<path d="M0 0 C-3.06117568 2.62386487 -3.73173127 3 -8 3 C-8 2.01 -8 1.02 -8 0 C-5.13822943 -1.43088528 -3.06624227 -0.59991697 0 0 Z " fill="#B1161D" transform="translate(441,134)"/>
<path d="M0 0 C0.433125 0.495 0.86625 0.99 1.3125 1.5 C2.99740483 3.33218192 2.99740483 3.33218192 6 3 C4.35 4.32 2.7 5.64 1 7 C0.34 6.67 -0.32 6.34 -1 6 C-0.67 4.02 -0.34 2.04 0 0 Z " fill="#D73945" transform="translate(275,63)"/>
<path d="M0 0 C1.32 0 2.64 0 4 0 C3.67 1.32 3.34 2.64 3 4 C1.35 4.33 -0.3 4.66 -2 5 C-2 4.01 -2 3.02 -2 2 C-1.34 2 -0.68 2 0 2 C0 1.34 0 0.68 0 0 Z " fill="#023A5A" transform="translate(412,17)"/>
<path d="M0 0 C0.33 0.99 0.66 1.98 1 3 C1.99 3.33 2.98 3.66 4 4 C3.01 4.33 2.02 4.66 1 5 C1 6.32 1 7.64 1 9 C0.01 9 -0.98 9 -2 9 C-2 7.02 -2 5.04 -2 3 C-1.34 3 -0.68 3 0 3 C0 2.01 0 1.02 0 0 Z " fill="#01497C" transform="translate(429,12)"/>
<path d="M0 0 C1.98 0 3.96 0 6 0 C6 0.99 6 1.98 6 3 C4.02 3.33 2.04 3.66 0 4 C0 2.68 0 1.36 0 0 Z " fill="#BF2C43" transform="translate(57,131)"/>
<path d="M0 0 C4.42857143 5.14285714 4.42857143 5.14285714 5 9 C2.525 8.01 2.525 8.01 0 7 C0.66 6.67 1.32 6.34 2 6 C1.04134491 3.66924071 1.04134491 3.66924071 -2 2 C-1.34 2 -0.68 2 0 2 C0 1.34 0 0.68 0 0 Z " fill="#C70709" transform="translate(283,126)"/>
<path d="M0 0 C0.66 0.33 1.32 0.66 2 1 C-1.625 5.875 -1.625 5.875 -5 7 C-5.66 6.67 -6.32 6.34 -7 6 C-7 5.34 -7 4.68 -7 4 C-5.824375 3.8453125 -5.824375 3.8453125 -4.625 3.6875 C-1.66954819 3.22404978 -1.66954819 3.22404978 0 0 Z " fill="#AC222D" transform="translate(297,63)"/>
<path d="M0 0 C1.32 0.66 2.64 1.32 4 2 C3.67 3.32 3.34 4.64 3 6 C2.34 6 1.68 6 1 6 C0.34 4.35 -0.32 2.7 -1 1 C-0.67 0.67 -0.34 0.34 0 0 Z " fill="#619B41" transform="translate(156,57)"/>
<path d="M0 0 C0.66 0 1.32 0 2 0 C2.33 1.98 2.66 3.96 3 6 C1.35 5.67 -0.3 5.34 -2 5 C-2 4.01 -2 3.02 -2 2 C-1.34 2 -0.68 2 0 2 C0 1.34 0 0.68 0 0 Z " fill="#014777" transform="translate(387,15)"/>
<path d="M0 0 C0.99 0.33 1.98 0.66 3 1 C2.34 2.32 1.68 3.64 1 5 C0.01 5 -0.98 5 -2 5 C-2 3.68 -2 2.36 -2 1 C-1.34 0.67 -0.68 0.34 0 0 Z " fill="#B24630" transform="translate(371,14)"/>
<path d="M0 0 C1.32 0 2.64 0 4 0 C4.33 1.32 4.66 2.64 5 4 C3.68 4.33 2.36 4.66 1 5 C0.67 3.35 0.34 1.7 0 0 Z " fill="#FDFCFC" transform="translate(272,12)"/>
<path d="M0 0 C0.99 0 1.98 0 3 0 C2.34 2.64 1.68 5.28 1 8 C0.34 8 -0.32 8 -1 8 C-1.04241723 5.66705225 -1.04092937 3.33297433 -1 1 C-0.67 0.67 -0.34 0.34 0 0 Z " fill="#FDEAEC" transform="translate(369,7)"/>
<path d="M0 0 C2.375 0.6875 2.375 0.6875 5 2 C6.3125 4.625 6.3125 4.625 7 7 C5 7 5 7 3 5.125 C2.34 4.42375 1.68 3.7225 1 3 C0.34 2.34 -0.32 1.68 -1 1 C-0.67 0.67 -0.34 0.34 0 0 Z " fill="#7F7F7F" transform="translate(168,0)"/>
<path d="M0 0 C1.7074998 1.28062485 3.37373596 2.61767557 5 4 C5 4.66 5 5.32 5 6 C0.25 5.25 0.25 5.25 -2 3 C-1.34 3 -0.68 3 0 3 C0 2.01 0 1.02 0 0 Z " fill="#DF0904" transform="translate(280,126)"/>
<path d="M0 0 C0.99 0 1.98 0 3 0 C3 1.98 3 3.96 3 6 C2.01 6 1.02 6 0 6 C0 4.02 0 2.04 0 0 Z " fill="#235058" transform="translate(30,117)"/>
<path d="M0 0 C0.99 0 1.98 0 3 0 C3 1.98 3 3.96 3 6 C2.01 6 1.02 6 0 6 C0 4.02 0 2.04 0 0 Z " fill="#233F4F" transform="translate(93,117)"/>
<path d="M0 0 C0.33 0.99 0.66 1.98 1 3 C-0.75 5.6875 -0.75 5.6875 -3 8 C-3.99 8 -4.98 8 -6 8 C-6 7.34 -6 6.68 -6 6 C-5.34 6 -4.68 6 -4 6 C-3.67 5.34 -3.34 4.68 -3 4 C-2.01268258 2.65724831 -1.01405257 1.32267727 0 0 Z " fill="#9F2226" transform="translate(314,67)"/>
<path d="M0 0 C0.66 0 1.32 0 2 0 C2 1.65 2 3.3 2 5 C0.68 5.33 -0.64 5.66 -2 6 C-1.125 1.125 -1.125 1.125 0 0 Z " fill="#0DA5E3" transform="translate(27,50)"/>
<path d="M0 0 C1.65 0.33 3.3 0.66 5 1 C5 2.32 5 3.64 5 5 C3.02 5 1.04 5 -1 5 C-0.67 3.35 -0.34 1.7 0 0 Z " fill="#072B54" transform="translate(438,17)"/>
<path d="M0 0 C1.65 0 3.3 0 5 0 C5 1.32 5 2.64 5 4 C3.35 4.33 1.7 4.66 0 5 C0 3.35 0 1.7 0 0 Z " fill="#1C2A2F" transform="translate(409,117)"/>
<path d="M0 0 C0.33 0.66 0.66 1.32 1 2 C2.32 2 3.64 2 5 2 C5 2.99 5 3.98 5 5 C3.35 5.33 1.7 5.66 0 6 C0 4.02 0 2.04 0 0 Z " fill="#4C4B50" transform="translate(188,9)"/>
<path d="M0 0 C2.64 0 5.28 0 8 0 C6.8125 1.5 6.8125 1.5 5 3 C2.3125 3.1875 2.3125 3.1875 0 3 C0 2.01 0 1.02 0 0 Z " fill="#CF2029" transform="translate(433,131)"/>
<path d="M0 0 C0.99 0.33 1.98 0.66 3 1 C2.67 2.98 2.34 4.96 2 7 C1.01 7 0.02 7 -1 7 C-0.67 4.69 -0.34 2.38 0 0 Z " fill="#0890D9" transform="translate(25,59)"/>
<path d="M0 0 C1.98 0.495 1.98 0.495 4 1 C4.33 2.32 4.66 3.64 5 5 C4.01 4.34 3.02 3.68 2 3 C1.01 3.66 0.02 4.32 -1 5 C-0.67 3.35 -0.34 1.7 0 0 Z " fill="#214069" transform="translate(26,5)"/>
<path d="M0 0 C1.32 0 2.64 0 4 0 C4 1.32 4 2.64 4 4 C2.68 4 1.36 4 0 4 C0 2.68 0 1.36 0 0 Z " fill="#18648B" transform="translate(206,72)"/>
<path d="M0 0 C1.32 0.33 2.64 0.66 4 1 C4 3.31 4 5.62 4 8 C3.67 8 3.34 8 3 8 C2.814375 6.576875 2.814375 6.576875 2.625 5.125 C2.28312823 1.91332809 2.28312823 1.91332809 0 0 Z " fill="#010101" transform="translate(106,59)"/>
<path d="M0 0 C1.32 0.33 2.64 0.66 4 1 C4 3.31 4 5.62 4 8 C3.67 8 3.34 8 3 8 C2.814375 6.576875 2.814375 6.576875 2.625 5.125 C2.28312823 1.91332809 2.28312823 1.91332809 0 0 Z " fill="#030303" transform="translate(93,59)"/>
<path d="M0 0 C1.32 0.33 2.64 0.66 4 1 C4 3.31 4 5.62 4 8 C3.67 8 3.34 8 3 8 C2.814375 6.576875 2.814375 6.576875 2.625 5.125 C2.28312823 1.91332809 2.28312823 1.91332809 0 0 Z " fill="#000000" transform="translate(80,59)"/>
<path d="M0 0 C0.99 0.33 1.98 0.66 3 1 C3 1.99 3 2.98 3 4 C2.01 4 1.02 4 0 4 C0 2.68 0 1.36 0 0 Z " fill="#147FAF" transform="translate(211,72)"/>
<path d="M0 0 C0.99 0 1.98 0 3 0 C3 0.99 3 1.98 3 3 C2.01 3 1.02 3 0 3 C0 2.01 0 1.02 0 0 Z " fill="#9A5D5F" transform="translate(93,141)"/>
<path d="M0 0 C0.66 0.66 1.32 1.32 2 2 C1.625 5.125 1.625 5.125 1 8 C0.67 8 0.34 8 0 8 C0 5.36 0 2.72 0 0 Z " fill="#010101" transform="translate(78,59)"/>
<path d="M0 0 C0.33 0 0.66 0 1 0 C1 1.98 1 3.96 1 6 C0.67 6 0.34 6 0 6 C0 4.02 0 2.04 0 0 Z " fill="#252F33" transform="translate(415,114)"/>
<path d="M0 0 C1.98 0.99 1.98 0.99 4 2 C2.68 1.67 1.36 1.34 0 1 C0 0.67 0 0.34 0 0 Z " fill="#070B09" transform="translate(39,68)"/>
<path d="M0 0 C0.33 0.66 0.66 1.32 1 2 C-0.32 1.67 -1.64 1.34 -3 1 C-2.01 0.67 -1.02 0.34 0 0 Z " fill="#050505" transform="translate(70,65)"/>
<path d="M0 0 C3 1 3 1 3 1 Z " fill="#010101" transform="translate(99,66)"/>
<path d="" fill="#6D1F07" transform="translate(0,0)"/>
<path d="" fill="#810317" transform="translate(0,0)"/>
<path d="" fill="#B9293C" transform="translate(0,0)"/>
</svg>
