<?xml version="1.0" encoding="UTF-8"?>
<svg version="1.1" xmlns="http://www.w3.org/2000/svg" width="3840" height="2690">
<path d="M0 0 C1267.2 0 2534.4 0 3840 0 C3840 887.7 3840 1775.4 3840 2690 C2572.8 2690 1305.6 2690 0 2690 C0 1802.3 0 914.6 0 0 Z " fill="#F6F5F8" transform="translate(0,0)"/>
<path d="M0 0 C3.58911913 2.12084312 4.78445808 3.28601738 6 7.3125 C6 11.7584481 5.36714065 14.2273696 3 18 C-1.17266339 20.12724016 -4.01335032 20.28450977 -8.375 18.875 C-10.3984375 18.1171875 -10.3984375 18.1171875 -12 17 C-12.69140625 15.16015625 -12.69140625 15.16015625 -13 13 C-13.12503906 12.27941406 -13.25007812 11.55882812 -13.37890625 10.81640625 C-13.58023065 8.34482793 -13.60027301 6.41395505 -13 4 C-9.47634172 0.21121209 -4.98692539 -2.29129004 0 0 Z " fill="#E4E7E9" transform="translate(939,1283)"/>
<path d="M0 0 C-0.03305502 1.93822596 -0.10249905 3.87585668 -0.1875 5.8125 C-0.22230469 6.89144531 -0.25710937 7.97039062 -0.29296875 9.08203125 C-1 12 -1 12 -3.390625 13.8046875 C-4.25171875 14.19914062 -5.1128125 14.59359375 -6 15 C-6.845625 15.433125 -7.69125 15.86625 -8.5625 16.3125 C-11 17 -11 17 -13.3125 16.125 C-13.869375 15.75375 -14.42625 15.3825 -15 15 C-15 14.34 -15 13.68 -15 13 C-15.66 13 -16.32 13 -17 13 C-19.37507814 4.20025005 -19.37507814 4.20025005 -18.0625 0 C-12.20447098 -5.68051299 -6.18244431 -4.12162954 0 0 Z " fill="#E5E6E8" transform="translate(2298,1327)"/>
<path d="M0 0 C0.680625 0.07863281 1.36125 0.15726563 2.0625 0.23828125 C4 0.6875 4 0.6875 7 2.6875 C7.29296875 5.9453125 7.29296875 5.9453125 7.1875 9.8125 C7.16042969 11.09382813 7.13335938 12.37515625 7.10546875 13.6953125 C7.07066406 14.68273438 7.03585938 15.67015625 7 16.6875 C-0.10615079 19.87301587 -0.10615079 19.87301587 -4.3125 19 C-7 17.6875 -7 17.6875 -10 15.6875 C-10.546875 13.59375 -10.546875 13.59375 -10.75 11.1875 C-10.82734375 10.3934375 -10.9046875 9.599375 -10.984375 8.78125 C-11 6.6875 -11 6.6875 -10 4.6875 C-9.34 4.6875 -8.68 4.6875 -8 4.6875 C-7.896875 4.048125 -7.79375 3.40875 -7.6875 2.75 C-7.460625 2.069375 -7.23375 1.38875 -7 0.6875 C-4.09583903 -0.28055366 -2.92345144 -0.37096827 0 0 Z " fill="#E5E8E9" transform="translate(2169,1323.3125)"/>
<path d="M0 0 C1.77049689 -0.05410687 3.54146849 -0.09284119 5.3125 -0.125 C6.29863281 -0.14820313 7.28476563 -0.17140625 8.30078125 -0.1953125 C11 0 11 0 14 2 C14.29296875 5.2578125 14.29296875 5.2578125 14.1875 9.125 C14.16042969 10.40632813 14.13335938 11.68765625 14.10546875 13.0078125 C14.07066406 13.99523438 14.03585938 14.98265625 14 16 C7.37209302 19.25369979 7.37209302 19.25369979 3.46484375 18.53125 C1.25817537 17.77587699 -0.87465882 16.95935539 -3 16 C-3.2493357 14.39884424 -3.47378648 12.79379841 -3.6875 11.1875 C-3.81511719 10.29417969 -3.94273437 9.40085937 -4.07421875 8.48046875 C-4 6 -4 6 -2.58203125 4.36328125 C-2.05996094 3.91339844 -1.53789062 3.46351562 -1 3 C-0.67 2.01 -0.34 1.02 0 0 Z " fill="#E4E7E9" transform="translate(2566,1324)"/>
<path d="M0 0 C2.6015625 -0.29296875 2.6015625 -0.29296875 5.625 -0.1875 C7.12933594 -0.14689453 7.12933594 -0.14689453 8.6640625 -0.10546875 C9.43492188 -0.07066406 10.20578125 -0.03585937 11 0 C11 0.66 11 1.32 11 2 C11.66 2 12.32 2 13 2 C15.37104692 5.55657038 15.48401112 6.80523694 15 11 C14.07097865 13.72030802 12.97315259 15.89376087 11 18 C7.2349611 19.18529003 4.5828775 19.06598613 0.6875 18.625 C-2.44240163 16.73250134 -2.60870677 16.09939318 -3.5 12.6875 C-4.37141627 7.25857664 -3.00094176 4.50141264 0 0 Z " fill="#E4E7E8" transform="translate(1071,1243)"/>
<path d="M0 0 C2.89518397 2.98291682 3.12167711 5.59303566 3.3125 9.671875 C3.0625 12.125 3.0625 12.125 1.1875 15.25 C-2.82955495 17.66023297 -6.34282882 18.15751038 -10.9375 17.125 C-14.19771541 14.43881801 -14.71685874 12.30493569 -15.1328125 8.1953125 C-15.30980588 4.9740329 -15.41460077 2.76113436 -13.4375 0.125 C-8.78319792 -1.73672083 -4.67529885 -1.39264221 0 0 Z " fill="#E4E7E8" transform="translate(153.9375,1001.875)"/>
<path d="M0 0 C3.72627337 1.08955362 5.95672545 3.35626959 8.00390625 6.5859375 C8.81640625 9.5234375 8.81640625 9.5234375 8.00390625 12.5859375 C5.99707083 15.39550708 3.84583357 17.61799201 1.00390625 19.5859375 C-3.07886897 19.78509727 -6.45071792 17.51977886 -9.99609375 15.5859375 C-10.99609375 14.5859375 -10.99609375 14.5859375 -11.37109375 10.8984375 C-11.31371003 7.71364119 -10.85136795 5.69452774 -8.99609375 3.0859375 C-5.68798533 0.32918048 -4.19340341 -0.33419913 0 0 Z " fill="#E5E7E9" transform="translate(350.99609375,1080.4140625)"/>
<path d="M0 0 C0 0.66 0 1.32 0 2 C1.32 2.66 2.64 3.32 4 4 C4.77416328 13.01470128 4.77416328 13.01470128 1.9375 16.625 C-1.78981006 18.36969833 -3.92385633 18.64360163 -8 18 C-11.4375 16.0625 -11.4375 16.0625 -14 13 C-14.84696809 9.80539554 -14.88065785 7.18940952 -14 4 C-9.65277051 -0.45591023 -5.85377147 -0.40370838 0 0 Z " fill="#E4E7E8" transform="translate(1162,1243)"/>
<path d="M0 0 C2.92896007 2.77875699 3.32545758 3.58422429 3.9375 7.5625 C3.40660126 11.54424052 3.08871544 12.19527488 0.3125 14.8125 C-2.35326861 16.82257553 -3.26040944 17.30041638 -6.6875 17.4375 C-10.06980658 16.11398873 -12.12665784 15.03491182 -14.5625 12.3125 C-14.96787934 8.52895947 -14.99844576 4.86956361 -13.5625 1.3125 C-8.87498975 -1.37112169 -4.90606521 -2.32392562 0 0 Z " fill="#E4E7E9" transform="translate(2112.5625,1284.6875)"/>
<path d="M0 0 C2.82821622 0.55820057 3.75675795 1.09358828 5.375 3.46875 C5.7734375 5.80859375 5.7734375 5.80859375 5.75 8.40625 C5.75773437 9.26089844 5.76546875 10.11554688 5.7734375 10.99609375 C5.29591432 13.95954644 4.4742998 15.34029326 2.375 17.46875 C-2.62752766 18.11722581 -5.57522151 17.4465283 -9.625 14.46875 C-10.625 13.46875 -10.625 13.46875 -10.875 9.71875 C-10.80726194 7.02858119 -10.51389721 5.08782615 -9.75 2.46875 C-6.68600636 -0.41500872 -4.07905422 -0.04856017 0 0 Z " fill="#E3E6E7" transform="translate(1967.625,1243.53125)"/>
<path d="M0 0 C0.76441406 0.00386719 1.52882813 0.00773437 2.31640625 0.01171875 C4.4375 0.3125 4.4375 0.3125 7.4375 2.3125 C8.64526206 5.93578619 8.83790892 8.50861527 8.4375 12.3125 C5.963568 15.07748283 3.99578464 16.12244565 0.5 17.3125 C-2.5625 17.3125 -2.5625 17.3125 -5.9375 16 C-9.35758768 12.49848166 -9.20672211 10.38045072 -9.1640625 5.65234375 C-8.5625 3.3125 -8.5625 3.3125 -6.80859375 1.5234375 C-4.30098302 0.17150823 -2.82771442 -0.06220015 0 0 Z " fill="#E5E7E8" transform="translate(1440.5625,1243.6875)"/>
<path d="M0 0 C1.51400391 0.01740234 1.51400391 0.01740234 3.05859375 0.03515625 C4.07050781 0.04417969 5.08242187 0.05320312 6.125 0.0625 C7.29869141 0.07990234 7.29869141 0.07990234 8.49609375 0.09765625 C10.65125982 4.88229135 10.75541032 8.07088426 9.49609375 13.09765625 C8.30859375 15.59765625 8.30859375 15.59765625 6.49609375 17.09765625 C1.06451963 18.08521518 -2.07769788 15.93042961 -6.50390625 13.09765625 C-6.79933979 8.0752861 -6.51070198 5.18689845 -3.50390625 1.09765625 C-2.50390625 0.09765625 -2.50390625 0.09765625 0 0 Z " fill="#E3E6E7" transform="translate(2144.50390625,1283.90234375)"/>
<path d="M0 0 C3.26851699 1.29378797 4.53108836 2.03459368 6.0625 5.1875 C5.96910601 9.39022969 4.0264885 13.9735115 1 17 C-2.68050903 17.42796617 -4.8716277 17.05328661 -8.3125 15.625 C-11.753651 12.26387577 -11.88626761 9.99354452 -12.28515625 5.33984375 C-12 3 -12 3 -10.76953125 1.21484375 C-7.48081853 -1.04297006 -3.82205187 -0.48949085 0 0 Z " fill="#E3E6E7" transform="translate(2373,1244)"/>
<path d="M0 0 C4.53172672 0.29366123 4.53172672 0.29366123 7.0625 2.75 C8.11999362 6.30015716 8.33974904 9.00021715 7.9375 12.6875 C6.72265625 14.87109375 6.72265625 14.87109375 4.9375 16.6875 C0.4521239 17.70588255 -3.76869268 17.48842834 -7.6875 15.0625 C-9.50659148 11.92043289 -9.63658417 10.27552607 -9.0625 6.6875 C-7.02609069 1.68904078 -5.25757624 0.26863528 0 0 Z " fill="#E5E7E9" transform="translate(2087.0625,1243.3125)"/>
<path d="M0 0 C0.60552093 7.14514693 0.60552093 7.14514693 -2.125 11 C-5 13 -5 13 -8 13.5625 C-11.80470451 12.8491179 -13.41196019 11.88381579 -16 9 C-17.0625 5.5625 -17.0625 5.5625 -17 2 C-15.25832654 -1.08142227 -13.94851554 -2.55208989 -10.75 -4.0625 C-6.6076662 -3.96835605 -3.53393893 -2.04319546 0 0 Z " fill="#E4E7E8" transform="translate(1994,1207)"/>
<path d="M0 0 C2.85809689 0.4569225 4.62030772 0.96915661 7.1875 2.375 C9.3753142 6.4522901 8.5053283 10.5134595 7.5625 14.9375 C6.5625 15.9375 6.5625 15.9375 4.05859375 16.03515625 C3.04925781 16.02355469 2.03992188 16.01195312 1 16 C-0.01191406 15.99097656 -1.02382812 15.98195313 -2.06640625 15.97265625 C-2.84886719 15.96105469 -3.63132813 15.94945312 -4.4375 15.9375 C-7.08223443 11.41941202 -8.0307427 8.17781055 -7.4375 2.9375 C-5.21436663 -0.11495271 -3.67532609 -0.44004747 0 0 Z " fill="#E3E5E7" transform="translate(207.4375,961.0625)"/>
<path d="M0 0 C1.98789991 2.50648249 2.0045232 3.78288662 1.9375 7 C0.72940536 10.86590284 -0.45028236 12.07080563 -4 14 C-8.2587625 13.85314612 -10.4423257 13.37178287 -14 11 C-14.6171875 8.72265625 -14.6171875 8.72265625 -14.875 6.0625 C-14.97554687 5.18722656 -15.07609375 4.31195312 -15.1796875 3.41015625 C-15 1 -15 1 -13.68359375 -0.76171875 C-8.90411047 -4.27702316 -4.63823804 -3.05702053 0 0 Z " fill="#E3E6E7" transform="translate(1548,1206)"/>
<path d="M0 0 C0.7425 0.61875 1.485 1.2375 2.25 1.875 C3.1471875 2.5246875 3.1471875 2.5246875 4.0625 3.1875 C5.95664661 5.87918202 5.76214964 7.67406477 5.25 10.875 C2.78959272 14.20378632 1.35389613 15.66801948 -2.75 16.4375 C-6.55484394 15.72409176 -8.2011805 14.7986459 -10.75 11.875 C-11.15040892 8.07111527 -10.95776206 5.49828619 -9.75 1.875 C-3.80319149 -1.55585106 -3.80319149 -1.55585106 0 0 Z " fill="#E2E6E7" transform="translate(271.75,921.125)"/>
<path d="M0 0 C2.4375 1.4375 2.4375 1.4375 4 4 C4.31821008 7.03082057 4.23343667 9.96532334 4 13 C-0.4296965 14.91953515 -3.68238396 16.28234629 -8.5 15.25 C-11.21708877 12.80462011 -11.56292717 12.02916569 -12.1875 8.5625 C-12.34160186 5.05810952 -12.23703488 4.30370093 -10 1.4375 C-6.30228637 -0.33432112 -4.05493065 -0.58980809 0 0 Z " fill="#E4E7E8" transform="translate(1141,1123)"/>
<path d="M0 0 C2.5625 2.125 2.5625 2.125 4 5 C4.08473493 9.06727645 3.26225245 10.66489965 0.75 13.875 C-2.33555015 16.25928875 -3.26854353 16.21286832 -7 16 C-7.86916887 14.59248779 -8.71985149 13.1735479 -9.5625 11.75 C-10.27599609 10.56664062 -10.27599609 10.56664062 -11.00390625 9.359375 C-12.14393853 6.65906325 -12.06204005 5.67818795 -11 3 C-8.54937578 -1.03632225 -4.24235233 -0.90299066 0 0 Z " fill="#E3E6E7" transform="translate(212,800)"/>
<path d="M0 0 C1.21236328 0.04060547 1.21236328 0.04060547 2.44921875 0.08203125 C3.06410156 0.11683594 3.67898437 0.15164063 4.3125 0.1875 C7.72606674 8.06496171 7.72606674 8.06496171 6 12.75 C5.443125 13.554375 4.88625 14.35875 4.3125 15.1875 C-3.84134615 15.80288462 -3.84134615 15.80288462 -6.75 13.6875 C-8.15853902 9.93139595 -8.07022538 7.20611644 -7.6875 3.1875 C-5.4693284 0.06093432 -3.72105549 -0.16178502 0 0 Z " fill="#E5E7E8" transform="translate(2531.6875,1163.8125)"/>
<path d="M0 0 C1.47968324 0.14049518 2.95874516 0.28754826 4.4375 0.4375 C5.67306641 0.55931641 5.67306641 0.55931641 6.93359375 0.68359375 C9 1 9 1 10 2 C10.51234009 6.61106079 10.8678629 10.64999104 8.3125 14.625 C5.48476112 16.30635825 4.2345986 16.63114119 1 16 C-2.77285753 13.85633095 -3.8164503 12.65389581 -5 8.4375 C-5 5 -5 5 -3.6875 3.0625 C-2 2 -2 2 0 2 C0 1.34 0 0.68 0 0 Z " fill="#E2E6E7" transform="translate(1578,1204)"/>
<path d="M0 0 C2.875 1.0625 2.875 1.0625 5 3 C5.54886514 7.39092112 5.47666082 9.28500878 3 13 C0.8359375 13.73046875 0.8359375 13.73046875 -1.625 14.1875 C-2.44226562 14.34605469 -3.25953125 14.50460937 -4.1015625 14.66796875 C-4.72804688 14.77753906 -5.35453125 14.88710937 -6 15 C-6 14.34 -6 13.68 -6 13 C-6.66 13 -7.32 13 -8 13 C-9.82177738 9.24928186 -10.36624071 6.99362668 -9 3 C-6.62738007 -0.62136727 -4.10637248 -0.4927647 0 0 Z " fill="#E5E7E8" transform="translate(2089,1164)"/>
<path d="M0 0 C3 2 3 2 3.65234375 4.05859375 C4.41408352 10.41338168 4.41408352 10.41338168 2.5 13.125 C-1.86900592 14.65415207 -5.72879489 13.42373504 -10 12 C-11.38550197 9.22899606 -11.1877467 7.0665294 -11 4 C-8.0167091 -0.47493635 -5.10001107 -0.31875069 0 0 Z " fill="#E4E6E8" transform="translate(252,801)"/>
<path d="M0 0 C0 0.66 0 1.32 0 2 C1.32 2.66 2.64 3.32 4 4 C3.98699811 7.1009511 3.81640525 9.99944566 3 13 C0.25 15.1875 0.25 15.1875 -3 16 C-5.875 15.1875 -5.875 15.1875 -8 14 C-8 12.68 -8 11.36 -8 10 C-8.66 10 -9.32 10 -10 10 C-10.21691118 6.81863606 -10.25066255 4.56030453 -8.9375 1.625 C-6.06052441 -0.78794727 -3.62340201 -0.2734643 0 0 Z " fill="#E5E7E8" transform="translate(1322,1083)"/>
<path d="M0 0 C4.13507958 0.37778966 6.34208199 0.59523891 9.5390625 3.40234375 C11.12257312 6.43166842 11.74686629 7.81436068 10.9765625 11.15234375 C8.8515625 13.52734375 8.8515625 13.52734375 5.9765625 15.15234375 C2.04828214 14.99521254 0.26762142 14.34638303 -3.0234375 12.15234375 C-3.60546875 9.83984375 -3.60546875 9.83984375 -3.8359375 7.15234375 C-3.92488281 6.26546875 -4.01382813 5.37859375 -4.10546875 4.46484375 C-3.99594159 1.37722091 -3.14642679 0.23689314 0 0 Z " fill="#E4E6E7" transform="translate(225.0234375,840.84765625)"/>
<path d="M0 0 C3.375 -0.5 3.375 -0.5 7 0 C9.5710653 2.36808646 10.73664008 4.32514021 12 7.5625 C12 10 12 10 10.625 12.3125 C6.82052822 14.75823186 3.40296564 14.33868966 -1 14 C-2.62298792 9.89479526 -3.37979067 7.25435455 -2 3 C-1.34 2.01 -0.68 1.02 0 0 Z " fill="#E3E7E8" transform="translate(891,1043)"/>
<path d="M0 0 C3.66265039 1.29718868 5.47062239 3.16115509 8 6.0625 C5.79976162 12.32471692 5.79976162 12.32471692 3 14.0625 C-0.57443924 13.80718291 -3.60365077 13.19461641 -7 12.0625 C-8.43735246 9.18779507 -8.38172649 7.24355412 -8 4.0625 C-5.38370682 1.06145782 -4.00874507 0.08351552 0 0 Z " fill="#E5E8E9" transform="translate(653,880.9375)"/>
<path d="M0 0 C7.75 1.875 7.75 1.875 10 3 C10.08131463 4.43655854 10.13933559 5.8744483 10.1875 7.3125 C10.22230469 8.11300781 10.25710938 8.91351562 10.29296875 9.73828125 C10 12 10 12 8.671875 13.76953125 C6.07807334 15.67852079 4.12713643 15.38291467 1 15 C-1.375 14 -1.375 14 -3 12 C-3.75 5.25 -3.75 5.25 -1.5 1.5 C-1.005 1.005 -0.51 0.51 0 0 Z " fill="#E4E7E8" transform="translate(386,840)"/>
<path d="M0 0 C0.08090971 1.62418745 0.13914995 3.24951745 0.1875 4.875 C0.22230469 5.77992188 0.25710938 6.68484375 0.29296875 7.6171875 C0.19628906 8.40351562 0.09960938 9.18984375 0 10 C-3.8503105 12.56687367 -5.58569763 11.83288724 -10 11 C-10 10.34 -10 9.68 -10 9 C-10.66 9 -11.32 9 -12 9 C-13.36952673 6.26094655 -13.12621361 4.02912668 -13 1 C-12 -1 -12 -1 -9.3125 -2.3125 C-5.15666374 -3.17503205 -3.53462154 -2.18809905 0 0 Z " fill="#E3E6E7" transform="translate(295,803)"/>
<path d="M0 0 C1.19109375 0.16048828 1.19109375 0.16048828 2.40625 0.32421875 C3.2003125 0.42347656 3.994375 0.52273438 4.8125 0.625 C6.90625 1.01171875 6.90625 1.01171875 8.90625 2.01171875 C9.91495526 5.42579809 10.10111188 7.42713311 8.96875 10.82421875 C6.70129524 13.22909501 5.98769888 13.45761947 2.84375 13.94921875 C1.544375 13.96984375 0.245 13.99046875 -1.09375 14.01171875 C-3.54901122 11.55645753 -3.50832598 10.40542057 -3.84375 7.01171875 C-3.94171875 6.12484375 -4.0396875 5.23796875 -4.140625 4.32421875 C-4.07698306 1.18454952 -3.2187464 0.01801537 0 0 Z " fill="#E5E7E8" transform="translate(2448.09375,1083.98828125)"/>
<path d="M0 0 C2.475 0.99 2.475 0.99 5 2 C5 5.3 5 8.6 5 12 C0.545 13.485 0.545 13.485 -4 15 C-7.15081975 11.84918025 -8.13949233 10.30253837 -9 6 C-7.9375 3.125 -7.9375 3.125 -6 1 C-3.375 0.75 -3.375 0.75 -1 1 C-0.67 0.67 -0.34 0.34 0 0 Z " fill="#E4E8E9" transform="translate(1967,1164)"/>
<path d="M0 0 C3.84974401 0.61595904 5.49514664 1.63810076 8.125 4.5 C8.75 7 8.75 7 8.125 9.5 C5.37246868 12.49540173 3.89812715 13.44165078 -0.1875 13.75 C-1.074375 13.6675 -1.96125 13.585 -2.875 13.5 C-3.205 12.51 -3.535 11.52 -3.875 10.5 C-4.535 10.5 -5.195 10.5 -5.875 10.5 C-6.09431821 7.28333296 -6.14328383 5.06637697 -4.75 2.125 C-2.875 0.5 -2.875 0.5 0 0 Z " fill="#E3E7E8" transform="translate(105.875,598.5)"/>
<path d="M0 0 C2.92449292 2.85802717 4.68025693 4.65707909 5.625 8.625 C4.72659539 12.0389375 2.90532721 13.13228965 0 15 C-0.66 15 -1.32 15 -2 15 C-2 14.34 -2 13.68 -2 13 C-4.97 12.505 -4.97 12.505 -8 12 C-8.125 5.375 -8.125 5.375 -7 2 C-4 0 -4 0 0 0 Z " fill="#E3E6E7" transform="translate(573,881)"/>
<path d="M0 0 C3.5625 0.3125 3.5625 0.3125 5.3046875 1.5390625 C6.99366399 3.92041445 6.70300413 5.15842866 6.25 8 C6.07017578 9.21236328 6.07017578 9.21236328 5.88671875 10.44921875 C5.77972656 11.06410156 5.67273437 11.67898438 5.5625 12.3125 C2.375 13.125 2.375 13.125 -1.4375 13.3125 C-4.4375 11.25 -4.4375 11.25 -6.4375 8.3125 C-6.33479225 3.07440451 -5.52220483 0.50201862 0 0 Z " fill="#E4E7E8" transform="translate(2005.4375,1083.6875)"/>
<path d="M0 0 C3.26023324 0.22484367 4.93132641 0.5260489 7.625 2.25 C7.8395758 5.39711179 7.85818878 7.69617664 6.625 10.625 C3.44868122 13.20575901 0.63054268 12.51265854 -3.375 12.25 C-4.96469234 8.77254801 -5.78965662 6.08557374 -5.375 2.25 C-3.375 0.25 -3.375 0.25 0 0 Z " fill="#E4E8E9" transform="translate(2429.375,1043.75)"/>
<path d="M0 0 C0.99 0.66 1.98 1.32 3 2 C3 2.66 3 3.32 3 4 C3.66 4 4.32 4 5 4 C4.8125 7.3125 4.8125 7.3125 4 11 C1.4375 12.9375 1.4375 12.9375 -1 14 C-7.64029975 10.61948376 -7.64029975 10.61948376 -9.125 8.0625 C-8.93772211 4.97241479 -7.96836363 3.36203635 -6 1 C-3.375 0.75 -3.375 0.75 -1 1 C-0.67 0.67 -0.34 0.34 0 0 Z " fill="#E4E7E8" transform="translate(1967,1084)"/>
<path d="M0 0 C0.58059139 3.01024012 1.03805049 5.92878196 1 9 C-0.6875 11.125 -0.6875 11.125 -3 12 C-5.82128085 11.91183497 -7.02551212 10.98138304 -9.3125 9.3125 C-11 7 -11 7 -10.75 3.75 C-10.5025 2.8425 -10.255 1.935 -10 1 C-6.61981469 -0.04005702 -3.5219721 -0.08004482 0 0 Z " fill="#E5E7E8" transform="translate(1081,923)"/>
<path d="M0 0 C6.625 -0.25 6.625 -0.25 10 2 C10.37331109 5.42201828 10.63763183 7.90185629 8.875 10.9375 C6.15050101 12.48138276 4.07108055 12.3267107 1 12 C0.34 11.34 -0.32 10.68 -1 10 C-0.9765625 7.6171875 -0.9765625 7.6171875 -0.625 4.875 C-0.51414063 3.96492187 -0.40328125 3.05484375 -0.2890625 2.1171875 C-0.19367187 1.41851563 -0.09828125 0.71984375 0 0 Z " fill="#E4E7E8" transform="translate(62,519)"/>
<path d="M0 0 C1.8125 1.125 1.8125 1.125 3 3 C3.39769128 6.18153026 3.55198782 8.12844028 1.8125 10.875 C-0.69798407 12.43323149 -2.09302053 12.49631357 -5 12 C-7.375 10.3125 -7.375 10.3125 -9 8 C-8.92939767 5.10530438 -8.38702969 3.56119305 -6.75 1.1875 C-4.3314673 -0.45364719 -2.86449123 -0.42967368 0 0 Z " fill="#E5E5E7" transform="translate(352,680)"/>
<path d="M0 0 C0.99 0.66 1.98 1.32 3 2 C3.39845122 5.12120123 3.4176778 7.1646444 2 10 C-1.44101215 11.72050607 -4.44022586 10.10878211 -8 9 C-9.3260274 3.57534247 -9.3260274 3.57534247 -7.9375 1.125 C-5.16812713 -0.48302295 -3.14758022 -0.32787294 0 0 Z " fill="#E4E6E8" transform="translate(2089,1004)"/>
<path d="M0 0 C1.010625 0.0825 2.02125 0.165 3.0625 0.25 C5.21752531 3.48253796 5.53106135 4.50150923 5.0625 8.25 C3.875 10.0625 3.875 10.0625 2.0625 11.25 C-0.3125 11.6875 -0.3125 11.6875 -2.9375 11.25 C-5.75 9.25 -5.75 9.25 -7.9375 7.25 C-3.3432554 0.28453237 -3.3432554 0.28453237 0 0 Z " fill="#E5E8E9" transform="translate(2005.9375,1003.75)"/>
<path d="M0 0 C1.670625 0.061875 1.670625 0.061875 3.375 0.125 C4.365 2.435 5.355 4.745 6.375 7.125 C1.62923729 11.02330508 1.62923729 11.02330508 -1.625 11.125 C-3.875 9.5 -3.875 9.5 -5.625 7.125 C-6 4.5 -6 4.5 -5.625 2.125 C-3.625 0.125 -3.625 0.125 0 0 Z " fill="#E2E7E8" transform="translate(268.625,600.875)"/>
<path d="M0 0 C3 0.5 3 0.5 4.9375 2.1875 C6.28969442 5.13051139 6.11068406 6.48528613 5 9.5 C2 11.5 2 11.5 -1.1875 11.125 C-2.5796875 10.815625 -2.5796875 10.815625 -4 10.5 C-5.1875 7.75 -5.1875 7.75 -6 4.5 C-4.56916966 1.10177793 -3.63971168 0.60661861 0 0 Z " fill="#E4E7E8" transform="translate(1258,882.5)"/>
<path d="M0 0 C2.4375 0.8125 2.4375 0.8125 4.4375 2.8125 C4.80237512 5.65852594 4.83949375 7.1989306 3.25 9.625 C0.76512734 11.25302002 -0.64961432 11.32225499 -3.5625 10.8125 C-5.4375 9.0625 -5.4375 9.0625 -6.5625 6.8125 C-6.41010984 4.29806239 -5.73612009 3.06424913 -4.3125 1 C-2.5625 -0.1875 -2.5625 -0.1875 0 0 Z " fill="#E7E7E9" transform="translate(430.5625,600.1875)"/>
<path d="M0 0 C2.5625 0.3125 2.5625 0.3125 4.375 1.5 C5.96449375 3.9260694 5.92737512 5.46647406 5.5625 8.3125 C3.5625 10.3125 3.5625 10.3125 0.625 10.625 C-2.4375 10.3125 -2.4375 10.3125 -4.375 9.125 C-5.4375 7.3125 -5.4375 7.3125 -5.25 4.75 C-4.18108204 1.54324612 -3.41484064 0.43780008 0 0 Z " fill="#E5E7E8" transform="translate(1985.4375,963.6875)"/>
<path d="M0 0 C2.97 0 5.94 0 9 0 C10.39431504 2.78863007 10.25660094 4.92078868 10 8 C7 10 7 10 3.8125 9.625 C2.4203125 9.315625 2.4203125 9.315625 1 9 C0.67 6.03 0.34 3.06 0 0 Z " fill="#E4E6E7" transform="translate(2607,924)"/>
<path d="M0 0 C3.26581976 0.63723312 4.45190767 1.99855724 6.5625 4.5 C4.8125 9.375 4.8125 9.375 2.5625 10.5 C0.56289988 10.539992 -1.43797242 10.54346799 -3.4375 10.5 C-4.625 7.75 -4.625 7.75 -5.4375 4.5 C-4.08097107 1.46775885 -3.26413179 0.6695655 0 0 Z " fill="#E6E6E8" transform="translate(1237.4375,842.5)"/>
<path d="M0 0 C2 3 2 3 1.6875 5.625 C1 8 1 8 0 9 C-2.67058851 9.14115161 -5.32432238 9.04247107 -8 9 C-8 6.03 -8 3.06 -8 0 C-4.71303767 -0.79953138 -3.28976808 -1.09658936 0 0 Z " fill="#E4E7E8" transform="translate(1080,844)"/>
<path d="M0 0 C6.36 -0.36 6.36 -0.36 9 1.125 C10.49672661 3.93136238 9.73294398 6.00159282 9 9 C3.375 10.125 3.375 10.125 0 9 C0 6.03 0 3.06 0 0 Z " fill="#E5E5E7" transform="translate(1194,843)"/>
<path d="M0 0 C1 1 1 1 1.0625 4.0625 C1.041875 5.031875 1.02125 6.00125 1 7 C-2.21451269 8.60725635 -5.43612536 8.05748185 -9 8 C-10.31668238 2.6135721 -10.31668238 2.6135721 -9 0.0625 C-5.86248991 -1.60430224 -3.36468653 -0.74770812 0 0 Z " fill="#E7E7E9" transform="translate(2131,925)"/>
<path d="M0 0 C0.94875 0.04125 1.8975 0.0825 2.875 0.125 C4.0625 2.3125 4.0625 2.3125 4.875 5.125 C3.5 7.9375 3.5 7.9375 1.875 10.125 C-0.435 9.795 -2.745 9.465 -5.125 9.125 C-5.25 5.75 -5.25 5.75 -5.125 2.125 C-3.125 0.125 -3.125 0.125 0 0 Z " fill="#E4E6E8" transform="translate(1602.125,923.875)"/>
<path d="M0 0 C6.0546875 -0.1953125 6.0546875 -0.1953125 8 0 C10 2 10 2 10.1875 5.0625 C10 8 10 8 9 9 C3.47058824 9.23529412 3.47058824 9.23529412 1 8 C1 6.35 1 4.7 1 3 C0.34 2.67 -0.32 2.34 -1 2 C-0.67 1.34 -0.34 0.68 0 0 Z " fill="#E5E7E8" transform="translate(1375,884)"/>
<path d="M0 0 C3 0.4375 3 0.4375 4.9375 1.625 C6 3.4375 6 3.4375 5.8125 6.0625 C5 8.4375 5 8.4375 3 9.4375 C0.0625 9.8125 0.0625 9.8125 -3 9.4375 C-4.875 6.9375 -4.875 6.9375 -6 4.4375 C-4.25840822 1.34133684 -3.60277923 0.5254053 0 0 Z " fill="#E4E7E8" transform="translate(1258,802.5625)"/>
<path d="M0 0 C0.02689216 1.47906892 0.04634621 2.95827483 0.0625 4.4375 C0.07410156 5.26121094 0.08570312 6.08492187 0.09765625 6.93359375 C0 9 0 9 -1 10 C-3.33297433 10.04092937 -5.66705225 10.04241723 -8 10 C-9.36623674 7.26752652 -9.128426 5.01801098 -9 2 C-6.98634914 -0.01365086 -2.76905449 0 0 0 Z " fill="#E8E7EA" transform="translate(2394,883)"/>
<path d="M0 0 C0.02689216 1.47906892 0.04634621 2.95827483 0.0625 4.4375 C0.07410156 5.26121094 0.08570313 6.08492187 0.09765625 6.93359375 C0 9 0 9 -1 10 C-3.33297433 10.04092937 -5.66705225 10.04241723 -8 10 C-9.36623674 7.26752652 -9.128426 5.01801098 -9 2 C-6.98634914 -0.01365086 -2.76905449 0 0 0 Z " fill="#E7E7E9" transform="translate(1626,883)"/>
<path d="M0 0 C3.5 0.125 3.5 0.125 4.5 1.125 C4.8125 4 4.8125 4 4.5 7.125 C2.8125 9.125 2.8125 9.125 0.5 10.125 C-2.25 9.3125 -2.25 9.3125 -4.5 8.125 C-4.54241723 5.79205225 -4.54092937 3.45797433 -4.5 1.125 C-3.5 0.125 -3.5 0.125 0 0 Z " fill="#E4E9EA" transform="translate(268.5,520.875)"/>
<path d="M0 0 C0 2.97 0 5.94 0 9 C-2.31 9.66 -4.62 10.32 -7 11 C-8.125 9.375 -8.125 9.375 -9 7 C-8.125 3.75 -8.125 3.75 -7 1 C-2.25 0 -2.25 0 0 0 Z " fill="#E5E8E9" transform="translate(1586,883)"/>
<path d="M0 0 C0.78375 0.2475 1.5675 0.495 2.375 0.75 C3.74123674 3.48247348 3.503426 5.73198902 3.375 8.75 C2.375 9.75 2.375 9.75 0 9.9375 C-2.625 9.75 -2.625 9.75 -5.625 7.75 C-6 4.75 -6 4.75 -5.625 1.75 C-2.625 -0.25 -2.625 -0.25 0 0 Z " fill="#E4E7E8" transform="translate(693.625,641.25)"/>
<path d="M0 0 C2.31 0 4.62 0 7 0 C7.74714785 2.68973228 8.1205535 4.51778598 7.4375 7.25 C6 9 6 9 2.875 9.75 C1.451875 9.87375 1.451875 9.87375 0 10 C-1.125 8.375 -1.125 8.375 -2 6 C-1.125 2.75 -1.125 2.75 0 0 Z " fill="#E4E8E9" transform="translate(811,804)"/>
<path d="M0 0 C0.02689216 1.47906892 0.04634621 2.95827483 0.0625 4.4375 C0.07410156 5.26121094 0.08570313 6.08492187 0.09765625 6.93359375 C0 9 0 9 -1 10 C-3.33944736 9.71269945 -5.6739143 9.38063221 -8 9 C-8 6.36 -8 3.72 -8 1 C-5.23735711 0.40267181 -2.83967231 0 0 0 Z " fill="#E5E7E9" transform="translate(1990,883)"/>
<path d="M0 0 C0.78375 0.04125 1.5675 0.0825 2.375 0.125 C2.375 0.785 2.375 1.445 2.375 2.125 C3.035 2.125 3.695 2.125 4.375 2.125 C5.0625 3.875 5.0625 3.875 5.375 6.125 C4.25 8.375 4.25 8.375 2.375 10.125 C-0.3125 10.375 -0.3125 10.375 -2.625 10.125 C-3.01422918 8.83754964 -3.38598036 7.54480403 -3.75 6.25 C-4.06324219 5.17105469 -4.06324219 5.17105469 -4.3828125 4.0703125 C-4.46273437 3.42835938 -4.54265625 2.78640625 -4.625 2.125 C-2.625 0.125 -2.625 0.125 0 0 Z " fill="#E6E5E8" transform="translate(692.625,721.875)"/>
<path d="M0 0 C1.4540625 0.0309375 1.4540625 0.0309375 2.9375 0.0625 C3.5975 2.0425 4.2575 4.0225 4.9375 6.0625 C3.8125 7.5625 3.8125 7.5625 1.9375 9.0625 C-1.25 9.25 -1.25 9.25 -4.0625 9.0625 C-4.16015625 2.91015625 -4.16015625 2.91015625 -4.0625 1.0625 C-3.0625 0.0625 -3.0625 0.0625 0 0 Z " fill="#E6E6E8" transform="translate(1400.0625,843.9375)"/>
<path d="M0 0 C0 0.66 0 1.32 0 2 C0.66 2 1.32 2 2 2 C2.25 4.3125 2.25 4.3125 2 7 C0 8.8125 0 8.8125 -2 10 C-4.4375 8.8125 -4.4375 8.8125 -7 7 C-7.8125 4.3125 -7.8125 4.3125 -8 2 C-4.91190305 0.23537317 -3.76687864 0 0 0 Z " fill="#E6E6E8" transform="translate(393,601)"/>
<path d="M0 0 C0 0.66 0 1.32 0 2 C0.66 2 1.32 2 2 2 C1.67 4.31 1.34 6.62 1 9 C-2 10 -2 10 -4.625 8.875 C-7 7 -7 7 -7.8125 4.3125 C-7.9053125 3.1678125 -7.9053125 3.1678125 -8 2 C-4.91190305 0.23537317 -3.76687864 0 0 0 Z " fill="#E6E6E8" transform="translate(473,601)"/>
<path d="M0 0 C2.00720923 0.28674418 4.0085944 0.61866701 6 1 C6.38063221 3.3260857 6.71269945 5.66055264 7 8 C6 9 6 9 3.0625 9.125 C0 9 0 9 -2 8 C-1.125 1.125 -1.125 1.125 0 0 Z " fill="#E3E6E8" transform="translate(23,277)"/>
<path d="M0 0 C5.71428571 0.71428571 5.71428571 0.71428571 7 2 C7.125 5 7.125 5 7 8 C6.67 8.33 6.34 8.66 6 9 C3.66055264 8.71269945 1.3260857 8.38063221 -1 8 C-1.04241723 5.66705225 -1.04092937 3.33297433 -1 1 C-0.67 0.67 -0.34 0.34 0 0 Z " fill="#E3E7E8" transform="translate(2347,884)"/>
<path d="M0 0 C0 2.97 0 5.94 0 9 C-4 10 -4 10 -7 9 C-7.33 6.69 -7.66 4.38 -8 2 C-1.125 0 -1.125 0 0 0 Z " fill="#E6E6E8" transform="translate(1666,883)"/>
<path d="M0 0 C2.31 0.33 4.62 0.66 7 1 C7.22732116 3.80362763 7.34081872 5.46186517 5.8125 7.875 C4 9 4 9 1.3125 8.6875 C0.549375 8.460625 -0.21375 8.23375 -1 8 C-1.625 5.6875 -1.625 5.6875 -2 3 C-1.34 2.01 -0.68 1.02 0 0 Z " fill="#E5E8E9" transform="translate(529,561)"/>
<path d="M0 0 C1.98 0 3.96 0 6 0 C6.625 3.375 6.625 3.375 7 7 C6.34 7.66 5.68 8.32 5 9 C1.70285207 8.67028521 0.3773161 8.3773161 -2 6 C-1.64644564 3.73725212 -1.02455574 2.04911148 0 0 Z " fill="#E8E7EA" transform="translate(2407,763)"/>
<path d="M0 0 C1.25 6.625 1.25 6.625 -1 10 C-2.875 9.6875 -2.875 9.6875 -5 9 C-7 6 -7 6 -7 2 C-2.25 0 -2.25 0 0 0 Z " fill="#E7E7E9" transform="translate(1302,722)"/>
<path d="M0 0 C1.4540625 0.0309375 1.4540625 0.0309375 2.9375 0.0625 C3.5625 2.375 3.5625 2.375 3.9375 5.0625 C2.9475 6.5475 2.9475 6.5475 1.9375 8.0625 C-0.6875 8.25 -0.6875 8.25 -3.0625 8.0625 C-3.44313221 5.7364143 -3.77519945 3.40194736 -4.0625 1.0625 C-3.0625 0.0625 -3.0625 0.0625 0 0 Z " fill="#E5E7E9" transform="translate(1926.0625,843.9375)"/>
<path d="M0 0 C0.33 0.66 0.66 1.32 1 2 C1.99 2.33 2.98 2.66 4 3 C3.42655063 5.86724686 3.1385485 6.8614515 1 9 C-1.26274788 8.64644564 -2.95088852 8.02455574 -5 7 C-4.49396008 4.83125748 -4.00016187 3.00032373 -3 1 C-2.01 0.67 -1.02 0.34 0 0 Z " fill="#E8E7EA" transform="translate(1905,803)"/>
<path d="M0 0 C1.98 0 3.96 0 6 0 C7.42944945 2.35438733 8.08661261 3.48032433 7.625 6.25 C7.41875 6.8275 7.2125 7.405 7 8 C4.69 8 2.38 8 0 8 C0 5.36 0 2.72 0 0 Z " fill="#E1E7E7" transform="translate(346,520)"/>
<path d="M0 0 C2.625 0.1875 2.625 0.1875 5.625 2.1875 C4.875 4.625 4.875 4.625 3.625 7.1875 C1.625 8.0625 1.625 8.0625 -0.375 8.1875 C-1.035 7.8575 -1.695 7.5275 -2.375 7.1875 C-3.0625 4.1875 -3.0625 4.1875 -3.375 1.1875 C-2.375 0.1875 -2.375 0.1875 0 0 Z " fill="#E7E7E9" transform="translate(126.375,318.8125)"/>
<path d="M0 0 C-0.33 2.64 -0.66 5.28 -1 8 C-3.31 7.67 -5.62 7.34 -8 7 C-8 5.02 -8 3.04 -8 1 C-1.125 0 -1.125 0 0 0 Z " fill="#E7E7E9" transform="translate(2374,763)"/>
<path d="M0 0 C4.75 0.75 4.75 0.75 7 3 C6.875 5 6.875 5 6 7 C3.9375 8.25 3.9375 8.25 2 9 C0.4375 7.3125 0.4375 7.3125 -1 5 C-0.6875 2.25 -0.6875 2.25 0 0 Z " fill="#E9E8EB" transform="translate(1417,642)"/>
<path d="M0 0 C2.02045442 0.60183749 4.02111039 1.27306096 6 2 C7.24546405 4.49092811 6.7767578 5.41080733 6 8 C3.625 8.625 3.625 8.625 1 9 C-1.3773161 6.6226839 -1.67028521 5.29714793 -2 2 C-1.34 1.34 -0.68 0.68 0 0 Z " fill="#E6E6E8" transform="translate(407,561)"/>
<path d="M0 0 C2.31 0 4.62 0 7 0 C7.125 5.75 7.125 5.75 6 8 C3.69 7.34 1.38 6.68 -1 6 C-0.67 4.02 -0.34 2.04 0 0 Z " fill="#E8E7EA" transform="translate(2507,723)"/>
<path d="M0 0 C2.8992226 0.46761655 3.86675182 0.86675182 6 3 C5.875 5 5.875 5 5 7 C2.9375 8.25 2.9375 8.25 1 9 C-0.5625 7.25 -0.5625 7.25 -2 5 C-1.75203633 2.83031791 -1.55766393 1.55766393 0 0 Z " fill="#E7E7E9" transform="translate(85,238)"/>
<path d="M0 0 C2.625 0.375 2.625 0.375 5 1 C5.33 3.31 5.66 5.62 6 8 C4.02 8 2.04 8 0 8 C-0.66 6.02 -1.32 4.04 -2 2 C-1.34 1.34 -0.68 0.68 0 0 Z " fill="#E6E5E8" transform="translate(771,561)"/>
<path d="M0 0 C2.625 0.375 2.625 0.375 5 1 C5.33 3.31 5.66 5.62 6 8 C4.02 8 2.04 8 0 8 C-0.66 6.02 -1.32 4.04 -2 2 C-1.34 1.34 -0.68 0.68 0 0 Z " fill="#E6E5E8" transform="translate(731,561)"/>
<path d="M0 0 C2.00720923 0.28674418 4.0085944 0.61866701 6 1 C6.33 1.99 6.66 2.98 7 4 C5 7 5 7 1.875 7.6875 C0.92625 7.790625 -0.0225 7.89375 -1 8 C-1.04241723 5.66705225 -1.04092937 3.33297433 -1 1 C-0.67 0.67 -0.34 0.34 0 0 Z " fill="#E9E9EB" transform="translate(508,521)"/>
<path d="M0 0 C1 1 1 1 1.0625 3.5625 C1.041875 4.366875 1.02125 5.17125 1 6 C-3.75 7 -3.75 7 -6 7 C-6.66 5.02 -7.32 3.04 -8 1 C-5.26752652 -0.36623674 -3.01801098 -0.128426 0 0 Z " fill="#E4E9EA" transform="translate(352,441)"/>
<path d="M0 0 C1.65 0.33 3.3 0.66 5 1 C5.33 2.65 5.66 4.3 6 6 C3.64561267 7.42944945 2.51967567 8.08661261 -0.25 7.625 C-0.8275 7.41875 -1.405 7.2125 -2 7 C-1.125 2.25 -1.125 2.25 0 0 Z " fill="#E8E8EA" transform="translate(933,642)"/>
<path d="M0 0 C2.31 0.33 4.62 0.66 7 1 C6.625 3.9375 6.625 3.9375 6 7 C5.01 7.495 5.01 7.495 4 8 C1.375 7.0625 1.375 7.0625 -1 6 C-0.67 4.02 -0.34 2.04 0 0 Z " fill="#E8E7EA" transform="translate(2467,723)"/>
<path d="M0 0 C1.99954746 -0.04254356 4.00041636 -0.04080783 6 0 C7 1 7 1 7.0625 4.0625 C7.041875 5.031875 7.02125 6.00125 7 7 C5.35 7.33 3.7 7.66 2 8 C0 1.125 0 1.125 0 0 Z " fill="#E7E6E9" transform="translate(22,117)"/>
<path d="M0 0 C1.98 0 3.96 0 6 0 C6.04254356 1.99954746 6.04080783 4.00041636 6 6 C5 7 5 7 1.9375 7.0625 C0.4834375 7.0315625 0.4834375 7.0315625 -1 7 C-0.67 4.69 -0.34 2.38 0 0 Z " fill="#E7E7E9" transform="translate(3,723)"/>
<path d="M0 0 C0.33 0.66 0.66 1.32 1 2 C1.99 2.33 2.98 2.66 4 3 C3.67 4.32 3.34 5.64 3 7 C0.625 7.625 0.625 7.625 -2 8 C-2.66 7.34 -3.32 6.68 -4 6 C-3.625 3.375 -3.625 3.375 -3 1 C-2.01 0.67 -1.02 0.34 0 0 Z " fill="#E9E9EB" transform="translate(1905,723)"/>
<path d="M0 0 C2.31 0 4.62 0 7 0 C7 1.98 7 3.96 7 6 C5.1875 6.625 5.1875 6.625 3 7 C2.01 6.34 1.02 5.68 0 5 C-0.1875 2.375 -0.1875 2.375 0 0 Z " fill="#E9E8EB" transform="translate(1639,683)"/>
<path d="M0 0 C1.4540625 0.0309375 1.4540625 0.0309375 2.9375 0.0625 C3.2675 1.7125 3.5975 3.3625 3.9375 5.0625 C0.9375 7.0625 0.9375 7.0625 -1.25 6.6875 C-1.848125 6.48125 -2.44625 6.275 -3.0625 6.0625 C-3.44468767 4.40635343 -3.77645102 2.73792976 -4.0625 1.0625 C-3.0625 0.0625 -3.0625 0.0625 0 0 Z " fill="#E7E6E9" transform="translate(1925.0625,763.9375)"/>
<path d="M0 0 C2.31 0 4.62 0 7 0 C7 1.65 7 3.3 7 5 C5.02 5.99 5.02 5.99 3 7 C2.01 6.34 1.02 5.68 0 5 C-0.1875 2.375 -0.1875 2.375 0 0 Z " fill="#E9E8EB" transform="translate(2043,683)"/>
<path d="M0 0 C2.31 0 4.62 0 7 0 C7 1.65 7 3.3 7 5 C5.02 5.99 5.02 5.99 3 7 C2.01 6.34 1.02 5.68 0 5 C-0.1875 2.375 -0.1875 2.375 0 0 Z " fill="#E9E8EB" transform="translate(2427,643)"/>
<path d="M0 0 C2.31 0 4.62 0 7 0 C7 1.65 7 3.3 7 5 C5.02 5.99 5.02 5.99 3 7 C2.01 6.34 1.02 5.68 0 5 C-0.1875 2.375 -0.1875 2.375 0 0 Z " fill="#E9E8EB" transform="translate(1619,643)"/>
<path d="M0 0 C0.33 1.32 0.66 2.64 1 4 C-0.75 5.125 -0.75 5.125 -3 6 C-5.25 5.125 -5.25 5.125 -7 4 C-7 2.68 -7 1.36 -7 0 C-4.3333581 -1.33332095 -2.83319697 -0.67102033 0 0 Z " fill="#E6E6E8" transform="translate(1605,684)"/>
<path d="M0 0 C0.38133299 1.9914056 0.71325582 3.99279077 1 6 C0 7 0 7 -3.5625 7.0625 C-4.696875 7.041875 -5.83125 7.02125 -7 7 C-6.8125 4.625 -6.8125 4.625 -6 2 C-2.19047619 0 -2.19047619 0 0 0 Z " fill="#E7E7E9" transform="translate(1221,642)"/>
<path d="M0 0 C2.97 0.495 2.97 0.495 6 1 C6 2.65 6 4.3 6 6 C4.1875 6.625 4.1875 6.625 2 7 C1.01 6.34 0.02 5.68 -1 5 C-0.67 3.35 -0.34 1.7 0 0 Z " fill="#EAE9EC" transform="translate(1397,602)"/>
<path d="M0 0 C0.38133299 1.9914056 0.71325582 3.99279077 1 6 C0 7 0 7 -2.5 7.125 C-5 7 -5 7 -6 6 C-6.04063832 4.33382885 -6.042721 2.66611905 -6 1 C-3.92446352 0.4465236 -2.15634036 0 0 0 Z " fill="#E7E7E9" transform="translate(1988,723)"/>
<path d="M0 0 C1.67542976 0.28604898 3.34385343 0.61781233 5 1 C5 2.65 5 4.3 5 6 C3.1875 6.625 3.1875 6.625 1 7 C0.01 6.34 -0.98 5.68 -2 5 C-1.125 1.125 -1.125 1.125 0 0 Z " fill="#EAE9EC" transform="translate(2610,602)"/>
<path d="M0 0 C1.98 0 3.96 0 6 0 C6 1.98 6 3.96 6 6 C2 6 2 6 -1 5 C-0.67 3.35 -0.34 1.7 0 0 Z " fill="#E8E7EA" transform="translate(1579,643)"/>
<path d="M0 0 C0.66 0 1.32 0 2 0 C2.73080266 1.97746603 3.39421747 3.98072489 4 6 C3.67 6.66 3.34 7.32 3 8 C1.68 8 0.36 8 -1 8 C-1 7.34 -1 6.68 -1 6 C-1.66 6 -2.32 6 -3 6 C-2.42655063 3.13275314 -2.1385485 2.1385485 0 0 Z " fill="#E8E7EA" transform="translate(591,440)"/>
<path d="M0 0 C1.98 0 3.96 0 6 0 C6 1.98 6 3.96 6 6 C4.125 6.625 4.125 6.625 2 7 C0 5 0 5 -0.125 2.375 C-0.08375 1.59125 -0.0425 0.8075 0 0 Z " fill="#E8E7EA" transform="translate(245,239)"/>
<path d="M0 0 C2.31 0 4.62 0 7 0 C7 1.98 7 3.96 7 6 C4.625 6.1875 4.625 6.1875 2 6 C0 3 0 3 0 0 Z " fill="#E7E6E9" transform="translate(22,37)"/>
<path d="M0 0 C1.65 0 3.3 0 5 0 C5.33 1.98 5.66 3.96 6 6 C2 6 2 6 -1 5 C-0.67 3.35 -0.34 1.7 0 0 Z " fill="#E8E7EA" transform="translate(2387,643)"/>
<path d="M0 0 C1.65 0 3.3 0 5 0 C6.04449911 3.13349732 5.93423645 3.98968256 5 7 C3.68 6.67 2.36 6.34 1 6 C1 5.34 1 4.68 1 4 C0.34 4 -0.32 4 -1 4 C-0.67 2.68 -0.34 1.36 0 0 Z " fill="#E7E6E9" transform="translate(84,158)"/>
<path d="M0 0 C1.65 0 3.3 0 5 0 C5.66 1.65 6.32 3.3 7 5 C6 6 6 6 3.5 6.125 C1 6 1 6 0 5 C-0.04063832 3.33382885 -0.042721 1.66611905 0 0 Z " fill="#E9E8EB" transform="translate(2063,643)"/>
<path d="M0 0 C2.475 0.99 2.475 0.99 5 2 C3.95125002 4.62187494 3.35068687 5.79371361 0.875 7.25 C0.25625 7.4975 -0.3625 7.745 -1 8 C-1 6.68 -1 5.36 -1 4 C-1.66 3.67 -2.32 3.34 -3 3 C-2.01 2.01 -1.02 1.02 0 0 Z " fill="#E8E8EA" transform="translate(631,440)"/>
<path d="M0 0 C0.66 0 1.32 0 2 0 C2 0.66 2 1.32 2 2 C2.99 2 3.98 2 5 2 C4.67 3.65 4.34 5.3 4 7 C2.68 7 1.36 7 0 7 C-1 6 -1 6 -1.125 3.5 C-1 1 -1 1 0 0 Z " fill="#E8E7EA" transform="translate(206,238)"/>
<path d="M0 0 C0.99 0.33 1.98 0.66 3 1 C3 2.65 3 4.3 3 6 C1.02 6 -0.96 6 -3 6 C-2.625 3.5625 -2.625 3.5625 -2 1 C-1.34 0.67 -0.68 0.34 0 0 Z " fill="#E8E7EA" transform="translate(1561,603)"/>
<path d="M0 0 C2.475 0.99 2.475 0.99 5 2 C5 2.99 5 3.98 5 5 C3.35 5.66 1.7 6.32 0 7 C0 6.34 0 5.68 0 5 C-0.66 5 -1.32 5 -2 5 C-1.125 1.125 -1.125 1.125 0 0 Z " fill="#E9E8EB" transform="translate(651,400)"/>
<path d="M0 0 C0.66 0 1.32 0 2 0 C2 0.66 2 1.32 2 2 C2.99 2.33 3.98 2.66 5 3 C3.75 4.5 3.75 4.5 2 6 C0.68 6 -0.64 6 -2 6 C-1.125 1.125 -1.125 1.125 0 0 Z " fill="#EAEAEC" transform="translate(2530,440)"/>
<path d="M0 0 C0.33 0.66 0.66 1.32 1 2 C1.99 2.33 2.98 2.66 4 3 C3.67 3.99 3.34 4.98 3 6 C1.02 6 -0.96 6 -3 6 C-2.42655063 3.13275314 -2.1385485 2.1385485 0 0 Z " fill="#EAE9EC" transform="translate(1359,440)"/>
<path d="M0 0 C1.32 0.66 2.64 1.32 4 2 C3.67 3.32 3.34 4.64 3 6 C1.35 6 -0.3 6 -2 6 C-1.49396008 3.83125748 -1.00016187 2.00032373 0 0 Z " fill="#E9E9EB" transform="translate(531,400)"/>
<path d="M0 0 C0.66 0 1.32 0 2 0 C2 0.66 2 1.32 2 2 C2.99 2.33 3.98 2.66 5 3 C3.68 4.32 2.36 5.64 1 7 C0.01 5.35 -0.98 3.7 -2 2 C-1.34 1.34 -0.68 0.68 0 0 Z " fill="#EBEAED" transform="translate(2610,360)"/>
<path d="M0 0 C0.66 0 1.32 0 2 0 C2 0.66 2 1.32 2 2 C2.99 2.33 3.98 2.66 5 3 C3.68 4.32 2.36 5.64 1 7 C0.01 5.35 -0.98 3.7 -2 2 C-1.34 1.34 -0.68 0.68 0 0 Z " fill="#EBEAED" transform="translate(2530,360)"/>
<path d="M0 0 C0.66 0 1.32 0 2 0 C2 0.66 2 1.32 2 2 C2.99 2.33 3.98 2.66 5 3 C3.68 4.32 2.36 5.64 1 7 C0.01 5.35 -0.98 3.7 -2 2 C-1.34 1.34 -0.68 0.68 0 0 Z " fill="#EBEAED" transform="translate(994,360)"/>
<path d="M0 0 C0.66 0 1.32 0 2 0 C2.33 1.98 2.66 3.96 3 6 C1.68 6 0.36 6 -1 6 C-1.625 4.125 -1.625 4.125 -2 2 C-1.34 1.34 -0.68 0.68 0 0 Z " fill="#E9E8EB" transform="translate(631,360)"/>
<path d="M0 0 C1.32 0 2.64 0 4 0 C4.33 1.65 4.66 3.3 5 5 C3.0625 5.5625 3.0625 5.5625 1 6 C0 5 0 5 -0.0625 2.4375 C-0.041875 1.633125 -0.02125 0.82875 0 0 Z " fill="#E8E8EA" transform="translate(2045,603)"/>
<path d="M0 0 C0.33 0.66 0.66 1.32 1 2 C1.99 2.33 2.98 2.66 4 3 C2.75 4.5 2.75 4.5 1 6 C-0.32 6 -1.64 6 -3 6 C-2.42655063 3.13275314 -2.1385485 2.1385485 0 0 Z " fill="#E9E9EB" transform="translate(975,400)"/>
<path d="M0 0 C2.475 0.495 2.475 0.495 5 1 C4.67 2.32 4.34 3.64 4 5 C2.68 5.33 1.36 5.66 0 6 C0 4.02 0 2.04 0 0 Z " fill="#EAEAEC" transform="translate(286,158)"/>
<path d="M0 0 C0.66 0.66 1.32 1.32 2 2 C1.625 4.625 1.625 4.625 1 7 C-0.32 6.67 -1.64 6.34 -3 6 C-2.42655063 3.13275314 -2.1385485 2.1385485 0 0 Z " fill="#E7E6E9" transform="translate(975,480)"/>
<path d="M0 0 C0 0.33 0 0.66 0 1 C-1.299375 1.3403125 -1.299375 1.3403125 -2.625 1.6875 C-6.61778814 3.24025095 -8.84248305 5.14319895 -12 8 C-9.83199867 1.31532922 -6.98981916 -0.47657858 0 0 Z " fill="#EBEBED" transform="translate(999,1162)"/>
<path d="M0 0 C-0.33 1.65 -0.66 3.3 -1 5 C-2.65 5.33 -4.3 5.66 -6 6 C-6 5.01 -6 4.02 -6 3 C-2.66666667 0 -2.66666667 0 0 0 Z " fill="#EAEAEC" transform="translate(1888,522)"/>
<path d="M0 0 C0.66 0 1.32 0 2 0 C2.33 1.98 2.66 3.96 3 6 C1.68 6 0.36 6 -1 6 C-1.042721 4.33388095 -1.04063832 2.66617115 -1 1 C-0.67 0.67 -0.34 0.34 0 0 Z " fill="#EAEAEC" transform="translate(1439,360)"/>
<path d="M0 0 C0.33 0.66 0.66 1.32 1 2 C1.99 2.33 2.98 2.66 4 3 C2.68 4.32 1.36 5.64 0 7 C-0.66 6.34 -1.32 5.68 -2 5 C-1.46428571 1.46428571 -1.46428571 1.46428571 0 0 Z " fill="#EAE9EC" transform="translate(1359,360)"/>
<path d="M0 0 C0 0.33 0 0.66 0 1 C-1.85625 1.37125 -1.85625 1.37125 -3.75 1.75 C-7.51439673 2.6710758 -9.53077893 3.91347366 -12 7 C-12.33 6.01 -12.66 5.02 -13 4 C-9.09650503 -0.27525639 -5.61326496 -0.10591066 0 0 Z " fill="#E9EAEC" transform="translate(2434,1283)"/>
<path d="M0 0 C2.475 0.495 2.475 0.495 5 1 C4.34 2.65 3.68 4.3 3 6 C2.34 6 1.68 6 1 6 C0.67 4.02 0.34 2.04 0 0 Z " fill="#E8E7EA" transform="translate(2286,522)"/>
<path d="M0 0 C2.475 0.99 2.475 0.99 5 2 C3.68 3.32 2.36 4.64 1 6 C0.34 5.34 -0.32 4.68 -1 4 C-0.625 1.875 -0.625 1.875 0 0 Z " fill="#EAE9EC" transform="translate(2570,361)"/>
<path d="M0 0 C2.475 0.99 2.475 0.99 5 2 C3.68 3.32 2.36 4.64 1 6 C0.34 5.34 -0.32 4.68 -1 4 C-0.625 1.875 -0.625 1.875 0 0 Z " fill="#EAE9EC" transform="translate(1398,361)"/>
<path d="M0 0 C2.475 0.99 2.475 0.99 5 2 C3.68 3.32 2.36 4.64 1 6 C0.34 5.34 -0.32 4.68 -1 4 C-0.625 1.875 -0.625 1.875 0 0 Z " fill="#EAE9EC" transform="translate(954,361)"/>
<path d="M0 0 C1.98 0.66 3.96 1.32 6 2 C5.67 2.99 5.34 3.98 5 5 C3.35 4.67 1.7 4.34 0 4 C0 2.68 0 1.36 0 0 Z " fill="#E7E7E9" transform="translate(427,280)"/>
<path d="M0 0 C2.31 0 4.62 0 7 0 C6.195625 0.3403125 6.195625 0.3403125 5.375 0.6875 C2.21499137 2.43382056 -0.2676983 4.6402849 -3 7 C-1.125 2.25 -1.125 2.25 0 0 Z " fill="#EAEAEC" transform="translate(2606,1323)"/>
<path d="M0 0 C-1.875 3.875 -1.875 3.875 -3 5 C-3.04092937 7.33297433 -3.04241723 9.66705225 -3 12 C-3.66 12 -4.32 12 -5 12 C-5.08131463 10.56344146 -5.13933559 9.1255517 -5.1875 7.6875 C-5.22230469 6.88699219 -5.25710938 6.08648438 -5.29296875 5.26171875 C-5 3 -5 3 -3.61328125 1.20703125 C-2 0 -2 0 0 0 Z " fill="#EAEBED" transform="translate(1761,1164)"/>
<path d="M0 0 C1.32 0 2.64 0 4 0 C4 0.66 4 1.32 4 2 C4.66 2.33 5.32 2.66 6 3 C4.625 4.5 4.625 4.5 3 6 C2.34 6 1.68 6 1 6 C0.67 4.02 0.34 2.04 0 0 Z " fill="#E9E8EB" transform="translate(2226,482)"/>
<path d="M0 0 C1.32 0 2.64 0 4 0 C4 0.66 4 1.32 4 2 C4.66 2.33 5.32 2.66 6 3 C4.625 4.5 4.625 4.5 3 6 C2.34 6 1.68 6 1 6 C0.67 4.02 0.34 2.04 0 0 Z " fill="#E9E8EB" transform="translate(1418,482)"/>
<path d="M0 0 C1.65 0 3.3 0 5 0 C4.625 2.4375 4.625 2.4375 4 5 C3.01 5.495 3.01 5.495 2 6 C1.34 4.02 0.68 2.04 0 0 Z " fill="#E7E7E9" transform="translate(1902,482)"/>
<path d="M0 0 C1.32 0 2.64 0 4 0 C3.67 1.32 3.34 2.64 3 4 C1.68 4.33 0.36 4.66 -1 5 C-0.67 3.35 -0.34 1.7 0 0 Z " fill="#E9E8EB" transform="translate(368,159)"/>
<path d="M0 0 C2.31 0 4.62 0 7 0 C6.443125 0.226875 5.88625 0.45375 5.3125 0.6875 C2.36753316 2.35896766 0.31843456 4.55276352 -2 7 C-1.125 2.25 -1.125 2.25 0 0 Z " fill="#EAEAEC" transform="translate(990,1083)"/>
<path d="M0 0 C1.32 0.66 2.64 1.32 4 2 C4 3.32 4 4.64 4 6 C2.68 6 1.36 6 0 6 C-0.38218767 4.34385343 -0.71395102 2.67542976 -1 1 C-0.67 0.67 -0.34 0.34 0 0 Z " fill="#E8E7EA" transform="translate(1398,522)"/>
<path d="M0 0 C1.65 0 3.3 0 5 0 C5 1.32 5 2.64 5 4 C3.35 4 1.7 4 0 4 C0 2.68 0 1.36 0 0 Z " fill="#E8E7EA" transform="translate(1438,442)"/>
<path d="M0 0 C0 2 0 2 -1.875 3.9375 C-2.57625 4.618125 -3.2775 5.29875 -4 6 C-4.66 6.99 -5.32 7.98 -6 9 C-6.36521739 3.52173913 -6.36521739 3.52173913 -4.6875 1.125 C-3 0 -3 0 0 0 Z " fill="#EAEAEC" transform="translate(2146,1124)"/>
<path d="M0 0 C0.99 0 1.98 0 3 0 C3.33 1.32 3.66 2.64 4 4 C2.02 4.99 2.02 4.99 0 6 C-1.125 2.25 -1.125 2.25 0 0 Z " fill="#E8E7EA" transform="translate(550,360)"/>
<path d="M0 0 C0.99 0.33 1.98 0.66 3 1 C2.54625 1.5775 2.0925 2.155 1.625 2.75 C0.15886484 4.7800333 -0.94857784 6.73539843 -2 9 C-2.6875 7.3125 -2.6875 7.3125 -3 5 C-1.5625 2.25 -1.5625 2.25 0 0 Z " fill="#EAEBED" transform="translate(2646,1244)"/>
<path d="M0 0 C1.32 0 2.64 0 4 0 C4 0.66 4 1.32 4 2 C3.01 2.495 3.01 2.495 2 3 C0.86649466 5.01669827 0.86649466 5.01669827 0 7 C-0.38133299 5.0085944 -0.71325582 3.00720923 -1 1 C-0.67 0.67 -0.34 0.34 0 0 Z " fill="#ECECEE" transform="translate(1033,602)"/>
<path d="M0 0 C2.475 0.495 2.475 0.495 5 1 C5 1.99 5 2.98 5 4 C3.02 4.99 3.02 4.99 1 6 C0.67 4.02 0.34 2.04 0 0 Z " fill="#E9E8EB" transform="translate(1822,482)"/>
<path d="M0 0 C1.32 0 2.64 0 4 0 C4 1.65 4 3.3 4 5 C3.01 5 2.02 5 1 5 C0.67 3.35 0.34 1.7 0 0 Z " fill="#E8E8EA" transform="translate(1882,442)"/>
<path d="M0 0 C1.32 0 2.64 0 4 0 C3.67 1.65 3.34 3.3 3 5 C2.01 5 1.02 5 0 5 C0 3.35 0 1.7 0 0 Z " fill="#E8E8EA" transform="translate(1600,442)"/>
<path d="M0 0 C0.99 0.33 1.98 0.66 3 1 C2.67 2.32 2.34 3.64 2 5 C1.01 5 0.02 5 -1 5 C-0.67 3.35 -0.34 1.7 0 0 Z " fill="#E7E6E9" transform="translate(611,401)"/>
<path d="M0 0 C-1.44253657 3.36591866 -3.33264727 5.51047079 -6 8 C-5.62403791 5.21788056 -5.32681541 3.4120716 -3.5625 1.1875 C-2 0 -2 0 0 0 Z " fill="#E8E9EB" transform="translate(265,1081)"/>
<path d="M0 0 C1.4540625 0.0309375 1.4540625 0.0309375 2.9375 0.0625 C0.96446226 2.03553774 -0.60541869 2.83395934 -3.0625 4.0625 C-3.7225 4.7225 -4.3825 5.3825 -5.0625 6.0625 C-3.98897059 0.08140756 -3.98897059 0.08140756 0 0 Z " fill="#E8E8EB" transform="translate(2066.0625,1043.9375)"/>
<path d="M0 0 C0.99 0 1.98 0 3 0 C3 0.66 3 1.32 3 2 C1.04072937 3.7143618 -0.95880212 5.38405168 -3 7 C-2.25 2.25 -2.25 2.25 0 0 Z " fill="#E9EAEC" transform="translate(1375,1044)"/>
<path d="M0 0 C0.99 0 1.98 0 3 0 C3 0.66 3 1.32 3 2 C1.04072937 3.7143618 -0.95880212 5.38405168 -3 7 C-2.25 2.25 -2.25 2.25 0 0 Z " fill="#E9E9EC" transform="translate(1295,1044)"/>
<path d="M0 0 C0.99 0.33 1.98 0.66 3 1 C2 3 2 3 -1 5 C-1.66 5.99 -2.32 6.98 -3 8 C-2.25 2.25 -2.25 2.25 0 0 Z " fill="#E7E9EB" transform="translate(1922,1004)"/>
<path d="M0 0 C1.32 0.33 2.64 0.66 4 1 C2.35 2.98 0.7 4.96 -1 7 C-1.625 5.1875 -1.625 5.1875 -2 3 C-1.34 2.01 -0.68 1.02 0 0 Z " fill="#E8EAEB" transform="translate(62,679)"/>
<path d="M0 0 C2.475 0.495 2.475 0.495 5 1 C4.67 1.99 4.34 2.98 4 4 C2.68 4 1.36 4 0 4 C0 2.68 0 1.36 0 0 Z " fill="#E8E7EA" transform="translate(2549,482)"/>
<path d="M0 0 C2.475 0.495 2.475 0.495 5 1 C4.67 1.99 4.34 2.98 4 4 C2.68 3.67 1.36 3.34 0 3 C0 2.01 0 1.02 0 0 Z " fill="#E6E5E8" transform="translate(1862,482)"/>
<path d="M0 0 C0.99 0.33 1.98 0.66 3 1 C2.67 2.32 2.34 3.64 2 5 C1.01 5 0.02 5 -1 5 C-0.67 3.35 -0.34 1.7 0 0 Z " fill="#E8E8EA" transform="translate(1823,401)"/>
<path d="M0 0 C1.32 0 2.64 0 4 0 C3.67 1.98 3.34 3.96 3 6 C2.67 5.34 2.34 4.68 2 4 C1.34 4 0.68 4 0 4 C0 2.68 0 1.36 0 0 Z " fill="#E7E7E9" transform="translate(2630,402)"/>
<path d="M0 0 C1.32 0 2.64 0 4 0 C3.67 1.98 3.34 3.96 3 6 C2.67 5.34 2.34 4.68 2 4 C1.34 4 0.68 4 0 4 C0 2.68 0 1.36 0 0 Z " fill="#E7E7E9" transform="translate(1418,402)"/>
<path d="M0 0 C0.99 0.33 1.98 0.66 3 1 C2.67 2.32 2.34 3.64 2 5 C1.01 5 0.02 5 -1 5 C-0.67 3.35 -0.34 1.7 0 0 Z " fill="#E8E8EA" transform="translate(671,360)"/>
<path d="M0 0 C2.475 0.495 2.475 0.495 5 1 C3.68 2.32 2.36 3.64 1 5 C0.67 3.35 0.34 1.7 0 0 Z " fill="#EAEAEC" transform="translate(226,38)"/>
</svg>
