<svg xmlns="http://www.w3.org/2000/svg" width="60" height="60" viewBox="0 0 60 60">
  <g id="Group_141852" data-name="Group 141852" transform="translate(-293 -6143)">
    <rect id="Rectangle_35330" data-name="Rectangle 35330" width="60" height="60" rx="8" transform="translate(293 6143)" fill="rgba(0,80,76,0.14)"/>
    <g id="exchange_1_" data-name="exchange (1)" transform="translate(296 6091.051)">
      <path id="Path_187839" data-name="Path 187839" d="M16.2,87.343h-4.2a1.168,1.168,0,0,1-1.167-1.167V70.945a1.168,1.168,0,0,1,1.167-1.167H37.6a1.168,1.168,0,0,1,1.167,1.167v1.377a.414.414,0,0,0,.828,0V70.945A2,2,0,0,0,37.6,68.95h-25.6A2,2,0,0,0,10,70.945V86.176a2,2,0,0,0,1.995,1.995h4.2a.414.414,0,1,0,0-.828Z" transform="translate(0)" stroke="#000" stroke-width="0.5"/>
      <path id="Path_187840" data-name="Path 187840" d="M148.027,132.516h-7.233a2.582,2.582,0,0,0-2.579,2.579v4.472a.414.414,0,0,0,.828,0v-4.472a1.754,1.754,0,0,1,1.752-1.752h7.233a1.754,1.754,0,0,1,1.752,1.752v16.256a1.754,1.754,0,0,1-1.752,1.752h-7.233a1.754,1.754,0,0,1-1.752-1.752v-7.638h2.811a.215.215,0,0,0,.215-.215v-1.8a.215.215,0,0,0-.215-.215H136.9v-1.612a.117.117,0,0,0-.194-.088l-2.956,2.588a.3.3,0,0,0,0,.457l2.956,2.588a.117.117,0,0,0,.194-.088v-1.612h1.319v2.812H124.993a.414.414,0,0,0,0,.828h3.752v3.735H127.7a.414.414,0,0,0,0,.828h7.541a.414.414,0,1,0,0-.828H134.2v-3.735h4.012v4a2.582,2.582,0,0,0,2.579,2.579h7.233a2.582,2.582,0,0,0,2.579-2.579V135.095A2.582,2.582,0,0,0,148.027,132.516Z" transform="translate(-106.678 -59.182)" stroke="#000" stroke-width="0.5"/>
      <path id="Path_187841" data-name="Path 187841" d="M383.572,164.254a.631.631,0,1,0,0-1.262h-3.209a.631.631,0,1,0,0,1.262Z" transform="translate(-344.235 -87.556)" stroke="#000" stroke-width="0.5"/>
      <path id="Path_187842" data-name="Path 187842" d="M186.345,145.7l2.956-2.588a.3.3,0,0,0,0-.457l-2.956-2.588a.117.117,0,0,0-.194.088v1.612h-4.958a.215.215,0,0,0-.215.215v1.8a.215.215,0,0,0,.215.215h4.958v1.612A.117.117,0,0,0,186.345,145.7Z" transform="translate(-159.187 -66.182)" stroke="#000" stroke-width="0.5"/>
    </g>
  </g>
</svg>
