<svg xmlns="http://www.w3.org/2000/svg" width="60" height="60" viewBox="0 0 60 60">
  <g id="Group_141851" data-name="Group 141851" transform="translate(-778 -6143)">
    <rect id="Rectangle_35330" data-name="Rectangle 35330" width="60" height="60" rx="8" transform="translate(778 6143)" fill="rgba(0,80,76,0.14)"/>
    <path id="network" d="M52.572,23.138a4.145,4.145,0,1,0,4.145,4.145A4.15,4.15,0,0,0,52.572,23.138Zm0,7.046a2.9,2.9,0,1,1,2.9-2.9A2.9,2.9,0,0,1,52.572,30.185Zm8.873-4.511-2.159-.444a6.976,6.976,0,0,0-.515-1.242l1.213-1.841a.622.622,0,0,0-.08-.782L58.49,19.951a.622.622,0,0,0-.782-.08l-1.841,1.213a6.972,6.972,0,0,0-1.242-.515l-.444-2.159a.622.622,0,0,0-.609-.5h-2a.622.622,0,0,0-.609.5l-.444,2.159a6.97,6.97,0,0,0-1.242.515l-1.841-1.213a.622.622,0,0,0-.782.08l-1.414,1.414a.622.622,0,0,0-.08.782l1.213,1.841a6.968,6.968,0,0,0-.515,1.242l-2.159.444a.622.622,0,0,0-.5.609v2a.622.622,0,0,0,.5.609l2.159.444a6.97,6.97,0,0,0,.515,1.242L45.159,32.42a.622.622,0,0,0,.08.782l1.414,1.414a.622.622,0,0,0,.782.08l1.841-1.213A6.973,6.973,0,0,0,50.518,34l.444,2.159a.622.622,0,0,0,.609.5h2a.622.622,0,0,0,.609-.5L54.625,34a6.969,6.969,0,0,0,1.242-.515L57.708,34.7a.622.622,0,0,0,.782-.08L59.9,33.2a.622.622,0,0,0,.08-.782l-1.213-1.841a6.978,6.978,0,0,0,.515-1.242l2.159-.444a.622.622,0,0,0,.5-.609v-2A.622.622,0,0,0,61.445,25.674Zm-.747,2.1-2.036.418a.622.622,0,0,0-.479.462,5.738,5.738,0,0,1-.672,1.623.622.622,0,0,0,.012.665l1.144,1.735-.7.7-1.735-1.144a.622.622,0,0,0-.666-.012,5.736,5.736,0,0,1-1.623.672.622.622,0,0,0-.462.479l-.418,2.036h-.986l-.418-2.036a.622.622,0,0,0-.462-.479,5.736,5.736,0,0,1-1.623-.672.622.622,0,0,0-.665.012l-1.735,1.144-.7-.7,1.144-1.735a.622.622,0,0,0,.012-.666,5.736,5.736,0,0,1-.672-1.623.622.622,0,0,0-.479-.462l-2.036-.418v-.986l2.036-.418a.622.622,0,0,0,.479-.462,5.737,5.737,0,0,1,.672-1.623.622.622,0,0,0-.012-.665l-1.144-1.735.7-.7,1.735,1.144a.622.622,0,0,0,.666.012,5.736,5.736,0,0,1,1.623-.672.622.622,0,0,0,.462-.479l.418-2.036h.986l.418,2.036a.622.622,0,0,0,.462.479,5.734,5.734,0,0,1,1.623.672.622.622,0,0,0,.665-.012l1.735-1.144.7.7-1.144,1.735a.622.622,0,0,0-.012.666,5.736,5.736,0,0,1,.672,1.623.622.622,0,0,0,.479.462l2.036.418v.986Zm6.278,4.153V22.638a3.369,3.369,0,1,0-3.177-5.5L55.75,12.487a3.37,3.37,0,1,0-6.358,0l-8.048,4.647a3.369,3.369,0,1,0-3.177,5.5v9.291a3.369,3.369,0,1,0,3.177,5.5l8.048,4.647a3.37,3.37,0,1,0,6.358,0L63.8,37.434a3.369,3.369,0,1,0,3.177-5.5ZM66.353,17.2a2.126,2.126,0,1,1-2.126,2.126A2.128,2.128,0,0,1,66.353,17.2ZM52.572,9.244a2.126,2.126,0,1,1-2.126,2.126,2.128,2.128,0,0,1,2.126-2.126ZM36.664,19.327a2.126,2.126,0,1,1,2.126,2.126A2.128,2.128,0,0,1,36.664,19.327Zm2.126,18.04a2.126,2.126,0,1,1,2.126-2.126A2.128,2.128,0,0,1,38.79,37.366Zm13.782,7.957A2.126,2.126,0,1,1,54.7,43.2,2.128,2.128,0,0,1,52.572,45.323ZM55.127,41a3.363,3.363,0,0,0-5.11,0l-8.048-4.647a3.367,3.367,0,0,0-2.557-4.428V22.638a3.367,3.367,0,0,0,2.557-4.428l8.048-4.646a3.363,3.363,0,0,0,5.11,0l8.048,4.646a3.367,3.367,0,0,0,2.557,4.428v9.291a3.367,3.367,0,0,0-2.557,4.428Zm11.227-3.638a2.126,2.126,0,1,1,2.126-2.126A2.128,2.128,0,0,1,66.353,37.366Z" transform="translate(755.58 6146)"/>
  </g>
</svg>
