<svg xmlns="http://www.w3.org/2000/svg" width="60" height="60" viewBox="0 0 60 60">
  <g id="Group_141848" data-name="Group 141848" transform="translate(-778 -5904)">
    <rect id="Rectangle_35330" data-name="Rectangle 35330" width="60" height="60" rx="8" transform="translate(778 5904)" fill="rgba(0,80,76,0.14)"/>
    <g id="inconsistent" transform="translate(785.001 5904.743)">
      <path id="Path_187811" data-name="Path 187811" d="M54.427,100.855A5.427,5.427,0,1,0,49,95.427,5.427,5.427,0,0,0,54.427,100.855Zm0-9.407a3.98,3.98,0,1,1-3.98,3.98,3.98,3.98,0,0,1,3.98-3.98Z" transform="translate(-31.271 -52.692)"/>
      <path id="Path_187812" data-name="Path 187812" d="M58.212,103.13a.723.723,0,0,0,1.023,0l.936-.936.936.936a.724.724,0,1,0,1.023-1.023l-.936-.936.936-.936a.724.724,0,0,0-1.023-1.023l-.936.936-.936-.936a.724.724,0,1,0-1.023,1.023l.936.936-.936.936a.723.723,0,0,0,0,1.023Z" transform="translate(-37.015 -58.436)"/>
      <path id="Path_187813" data-name="Path 187813" d="M.723,68.693a.724.724,0,0,0,.724-.724V61.234a5.463,5.463,0,0,1,5.339-5.567h.107a7.287,7.287,0,0,1-1.359-1.323A6.964,6.964,0,0,0,0,61.234v6.735a.724.724,0,0,0,.724.724Z" transform="translate(0 -29.576)"/>
      <path id="Path_187814" data-name="Path 187814" d="M42.949,55.667h.107a5.463,5.463,0,0,1,5.339,5.567v3.781a.724.724,0,1,0,1.447,0V61.234a6.964,6.964,0,0,0-5.535-6.89A7.287,7.287,0,0,1,42.949,55.667Z" transform="translate(-27.409 -29.576)"/>
      <path id="Path_187815" data-name="Path 187815" d="M26.578,31.789a5.789,5.789,0,1,0-5.789,5.789,5.789,5.789,0,0,0,5.789-5.789Zm-10.131,0a4.342,4.342,0,1,1,4.342,4.342A4.342,4.342,0,0,1,16.447,31.789Z" transform="translate(-9.573 -11.487)"/>
      <path id="Path_187816" data-name="Path 187816" d="M14.447,86.895V84.724a.724.724,0,1,0-1.447,0v2.171a.724.724,0,1,0,1.447,0Z" transform="translate(-8.297 -49.501)"/>
      <path id="Path_187817" data-name="Path 187817" d="M45.724,87.618a.724.724,0,0,0,.724-.724V84.724a.724.724,0,1,0-1.447,0v2.171a.724.724,0,0,0,.724.724Z" transform="translate(-28.719 -49.501)"/>
      <path id="Path_187818" data-name="Path 187818" d="M110.308,54.345a7.287,7.287,0,0,1-1.359,1.323h.107a5.463,5.463,0,0,1,5.339,5.567v6.735a.724.724,0,1,0,1.447,0V61.234A6.964,6.964,0,0,0,110.308,54.345Z" transform="translate(-69.53 -29.576)"/>
      <path id="Path_187819" data-name="Path 187819" d="M72.893,55.667a7.288,7.288,0,0,1-1.359-1.323A6.964,6.964,0,0,0,66,61.234v3.781a.724.724,0,1,0,1.447,0V61.234a5.463,5.463,0,0,1,5.339-5.567Z" transform="translate(-42.12 -29.576)"/>
      <path id="Path_187820" data-name="Path 187820" d="M86.79,26a5.789,5.789,0,1,0,5.789,5.789A5.789,5.789,0,0,0,86.79,26Zm0,10.131a4.342,4.342,0,1,1,4.342-4.342A4.342,4.342,0,0,1,86.79,36.131Z" transform="translate(-51.693 -11.487)"/>
      <path id="Path_187821" data-name="Path 187821" d="M111.724,87.618a.724.724,0,0,0,.724-.724V84.724a.724.724,0,1,0-1.447,0v2.171a.724.724,0,0,0,.724.724Z" transform="translate(-70.838 -48.501)"/>
      <path id="Path_187822" data-name="Path 187822" d="M79,84.724v2.171a.724.724,0,1,0,1.447,0V84.724a.724.724,0,1,0-1.447,0Z" transform="translate(-44.627 -48.5)"/>
      <path id="Path_187823" data-name="Path 187823" d="M62.618,21.774a.725.725,0,0,0-.23-.529l-1.6-1.5,1.6-1.5A.724.724,0,1,0,61.4,17.2L59.23,19.22a.724.724,0,0,0,0,1.058l1.6,1.5-1.6,1.5a.724.724,0,0,0,0,1.058l1.6,1.5-1.6,1.5a.724.724,0,0,0,.988,1.058l2.171-2.027a.724.724,0,0,0,0-1.058l-1.6-1.5,1.6-1.5A.724.724,0,0,0,62.618,21.774Z" transform="translate(-37.653 -5.744)"/>
    </g>
  </g>
</svg>
