<svg xmlns="http://www.w3.org/2000/svg" width="60" height="60" viewBox="0 0 60 60">
  <g id="Group_141847" data-name="Group 141847" transform="translate(-293 -5904)">
    <rect id="Rectangle_35330" data-name="Rectangle 35330" width="60" height="60" rx="8" transform="translate(293 5904)" fill="rgba(0,80,76,0.14)"/>
    <g id="Group_140849" data-name="Group 140849" transform="translate(-245 159)">
      <g id="Rectangle_36831" data-name="Rectangle 36831" transform="translate(549 5756)" fill="#fff" stroke="#707070" stroke-width="1" opacity="0">
        <rect width="39" height="39" stroke="none"/>
        <rect x="0.5" y="0.5" width="38" height="38" fill="none"/>
      </g>
      <path id="discovery" d="M57.587,4.559V.6a.6.6,0,1,1,1.2,0V4.558a.6.6,0,0,1-1.2,0Zm16.056,10.9H69.685a.6.6,0,0,0,0,1.2h3.958a.6.6,0,1,0,0-1.2ZM66.318,8.527a.6.6,0,0,0,.424-.176l2.8-2.8a.6.6,0,0,0-.848-.848l-2.8,2.8a.6.6,0,0,0,.424,1.024ZM50.479,8.351a.6.6,0,0,0,0-.848l-2.8-2.8a.6.6,0,0,0-.848.848l2.8,2.8a.6.6,0,0,0,.848,0Zm-3.791,7.105H42.73a.6.6,0,0,0,0,1.2h3.958a.6.6,0,0,0,0-1.2ZM71.653,33.571a1.539,1.539,0,0,1-2.665,1.54L67.437,32.3a1.2,1.2,0,0,1,.225-1.486l-.435-.754a6.12,6.12,0,0,1-2.55.557,6.235,6.235,0,0,1-3.635-1.174,3.543,3.543,0,0,1-2.325.869h-1.06a3.565,3.565,0,0,1-3.525-3.066.608.608,0,0,1-.013-.1,3.665,3.665,0,0,1-.023-.4V25.381a4.1,4.1,0,0,0-1.023-2.769c-.2-.239-.41-.47-.61-.694-1.309-1.465-2.545-2.848-2.545-5.863a8.269,8.269,0,1,1,16.223,2.354l.128.031a6.191,6.191,0,0,1,2,11.017l.435.755a1.2,1.2,0,0,1,1.4.547ZM55.111,23.922h1V17.7h-.624a1.824,1.824,0,1,1,1.824-1.824V16.5h1.749v-.624A1.824,1.824,0,1,1,60.885,17.7h-.624V20.07a6.217,6.217,0,0,1,1.309-1.009,6.144,6.144,0,0,1,3.366-.824,6.857,6.857,0,0,0,.318-2.18,7.068,7.068,0,0,0-14.135,0c0,2.558.989,3.664,2.24,5.064.2.228.416.465.628.714a5.3,5.3,0,0,1,1.126,2.088Zm.186,1.46v1.134h3.544a6.142,6.142,0,0,1-.327-1.394H55.292c0,.086.005.172.005.26Zm.815-9.507a.624.624,0,1,0-.624.624h.624Zm2.95,5.918V17.7H57.312v6.223H58.5a6.193,6.193,0,0,1,.565-2.129ZM60.885,16.5a.624.624,0,1,0-.624-.624V16.5ZM58.716,29.111a2.342,2.342,0,0,0,1.414-.475,6.222,6.222,0,0,1-.7-.919H55.5a2.363,2.363,0,0,0,2.152,1.394Zm8.444-.366a4.993,4.993,0,0,0-1.868-9.274l-.041,0A5,5,0,0,0,60.193,22.2a.062.062,0,0,1-.005.01,5.04,5.04,0,0,0-.514,2.294s0,.009,0,.014,0,.007,0,.011a4.992,4.992,0,0,0,7.486,4.212Zm3.453,5.428-1.55-2.812h0l-.587.335,1.551,2.818a.34.34,0,0,0,.2.157.338.338,0,0,0,.415-.239A.339.339,0,0,0,70.614,34.172Z" transform="translate(510.406 5757.653)"/>
    </g>
  </g>
</svg>
