<svg xmlns="http://www.w3.org/2000/svg" width="60" height="60" viewBox="0 0 60 60">
  <g id="Group_141850" data-name="Group 141850" transform="translate(-1263 -6143)">
    <rect id="Rectangle_35330" data-name="Rectangle 35330" width="60" height="60" rx="8" transform="translate(1263 6143)" fill="rgba(0,80,76,0.14)"/>
    <g id="target" transform="translate(1274 6154)">
      <path id="Path_187843" data-name="Path 187843" d="M36.455,17.919H35.2a16.7,16.7,0,0,0-16.05-16.05V.618a.618.618,0,0,0-1.236,0V1.869a16.7,16.7,0,0,0-16.05,16.05H.618a.618.618,0,0,0,0,1.236H1.869A16.7,16.7,0,0,0,17.919,35.2v1.251a.618.618,0,0,0,1.236,0V35.2A16.7,16.7,0,0,0,35.2,19.155h1.251a.618.618,0,0,0,0-1.236Zm-17.3,16.05v-1.22a.618.618,0,0,0-1.236,0v1.22A15.465,15.465,0,0,1,3.1,19.155h1.22a.618.618,0,1,0,0-1.236H3.1A15.465,15.465,0,0,1,17.919,3.1v1.22a.618.618,0,1,0,1.236,0V3.1A15.465,15.465,0,0,1,33.968,17.919h-1.22a.618.618,0,0,0,0,1.236h1.22A15.465,15.465,0,0,1,19.155,33.968Z"/>
      <path id="Path_187844" data-name="Path 187844" d="M32.447,24.415H29.308a4.328,4.328,0,0,0-3.658-3.658V17.618a.618.618,0,1,0-1.236,0v3.139a4.329,4.329,0,0,0-3.658,3.658H17.618a.618.618,0,0,0,0,1.236h3.139a4.328,4.328,0,0,0,3.658,3.658v3.139a.618.618,0,1,0,1.236,0V29.308a4.329,4.329,0,0,0,3.658-3.658h3.139a.618.618,0,1,0,0-1.236Zm-7.415,3.707a3.089,3.089,0,1,1,3.089-3.089A3.093,3.093,0,0,1,25.033,28.122Z" transform="translate(-6.496 -6.496)"/>
    </g>
  </g>
</svg>
