<svg xmlns="http://www.w3.org/2000/svg" width="60" height="60" viewBox="0 0 60 60">
  <g id="Group_141849" data-name="Group 141849" transform="translate(-1263 -5904)">
    <rect id="Rectangle_35330" data-name="Rectangle 35330" width="60" height="60" rx="8" transform="translate(1263 5904)" fill="rgba(0,80,76,0.14)"/>
    <g id="Group_140851" data-name="Group 140851" transform="translate(602.438 155.611)">
      <g id="testing" transform="translate(672.562 5762.388)">
        <g id="Group_137481" data-name="Group 137481" transform="translate(0 0)">
          <path id="Path_187826" data-name="Path 187826" d="M38.892,2.049H6.538a1.758,1.758,0,0,0-1.9,1.569v8.12a.57.57,0,0,0,.616.509.57.57,0,0,0,.616-.509V8.692H22.1V33.578H6.538a.617.617,0,0,1-.665-.551V13.84a.57.57,0,0,0-.616-.509.57.57,0,0,0-.616.509V33.027a1.758,1.758,0,0,0,1.9,1.569H38.892a1.758,1.758,0,0,0,1.9-1.569V29.987a.627.627,0,0,0-1.231,0v3.041a.617.617,0,0,1-.665.551H23.331V8.692H39.558V27.409a.627.627,0,0,0,1.231,0V3.618a1.758,1.758,0,0,0-1.9-1.569ZM5.873,7.673V3.618a.616.616,0,0,1,.665-.55H38.892a.617.617,0,0,1,.665.55V7.673Z" transform="translate(-4.642 -2.049)"/>
          <path id="Path_187827" data-name="Path 187827" d="M18.541,26.058l.742,2.194h1.594l-3.414-9.4H15.98l-3.453,9.4h1.588l.748-2.194h3.678ZM16.7,20.734h.038L18.1,24.748H15.315Z" transform="translate(-7.673 -8.509)"/>
          <path id="Path_187828" data-name="Path 187828" d="M47.779,22.56a1.887,1.887,0,0,0,.368-1.142,2.225,2.225,0,0,0-.877-1.92,4.064,4.064,0,0,0-2.439-.642H41.706v9.4h3.543a3.742,3.742,0,0,0,2.388-.687,2.415,2.415,0,0,0,.865-2.01,2.377,2.377,0,0,0-.452-1.439,2.1,2.1,0,0,0-1.29-.807,2.172,2.172,0,0,0,1.019-.748Zm-4.5-2.446H44.83a2.126,2.126,0,0,1,1.3.338,1.218,1.218,0,0,1,.445,1.036,1.19,1.19,0,0,1-.423.978A1.768,1.768,0,0,1,45,22.812H43.275v-2.7Zm3.665,5.437a1.325,1.325,0,0,1-.439,1.072,1.888,1.888,0,0,1-1.252.37H43.275V23.98h2.149a1.465,1.465,0,0,1,1.149.412,1.681,1.681,0,0,1,.368,1.159Z" transform="translate(-18.889 -8.509)"/>
          <path id="Path_187829" data-name="Path 187829" d="M10.118,41.484a.615.615,0,0,0,.616.616H20.819a.616.616,0,1,0,0-1.231H10.734A.615.615,0,0,0,10.118,41.484Z" transform="translate(-6.747 -16.97)"/>
          <path id="Path_187830" data-name="Path 187830" d="M10.734,48.349H20.819a.616.616,0,1,0,0-1.231H10.734a.616.616,0,0,0,0,1.231Z" transform="translate(-6.747 -19.373)"/>
          <path id="Path_187832" data-name="Path 187832" d="M49.3,40.868H39.212a.616.616,0,1,0,0,1.231H49.3a.616.616,0,1,0,0-1.231Z" transform="translate(-17.693 -16.97)"/>
          <path id="Path_187833" data-name="Path 187833" d="M49.3,47.118H39.212a.616.616,0,1,0,0,1.231H49.3a.616.616,0,1,0,0-1.231Z" transform="translate(-17.693 -19.373)"/>
          <path id="Path_187836" data-name="Path 187836" d="M10.98,7.57h-.962a.616.616,0,1,0,0,1.231h.962a.616.616,0,0,0,0-1.231Z" transform="translate(-6.472 -5.133)"/>
          <path id="Path_187837" data-name="Path 187837" d="M15.918,7.57h-.962a.616.616,0,0,0,0,1.231h.962a.616.616,0,0,0,0-1.231Z" transform="translate(-8.37 -5.133)"/>
          <path id="Path_187838" data-name="Path 187838" d="M20.855,7.57h-.962a.616.616,0,0,0,0,1.231h.962a.616.616,0,0,0,0-1.231Z" transform="translate(-10.267 -5.133)"/>
        </g>
      </g>
    </g>
  </g>
</svg>
