<svg xmlns="http://www.w3.org/2000/svg" xmlns:xlink="http://www.w3.org/1999/xlink" width="88" height="88" viewBox="0 0 88 88">
  <defs>
    <filter id="Ellipse_8805" x="0" y="0" width="88" height="88" filterUnits="userSpaceOnUse">
      <feOffset dy="3" input="SourceAlpha"/>
      <feGaussianBlur stdDeviation="3" result="blur"/>
      <feFlood flood-opacity="0.161"/>
      <feComposite operator="in" in2="blur"/>
      <feComposite in="SourceGraphic"/>
    </filter>
  </defs>
  <g id="Group_130885" data-name="Group 130885" transform="translate(-1419 -9346)">
    <g transform="matrix(1, 0, 0, 1, 1419, 9346)" filter="url(#Ellipse_8805)">
      <circle id="Ellipse_8805-2" data-name="Ellipse 8805" cx="35" cy="35" r="35" transform="translate(9 6)" fill="#fff"/>
    </g>
    <g id="youtube_3_" data-name="youtube (3)" transform="translate(1444 9374)">
      <path id="Path_181286" data-name="Path 181286" d="M37.525,4.2A4.8,4.8,0,0,0,34.148.821C31.15,0,19.157,0,19.157,0S7.164,0,4.166.789A4.9,4.9,0,0,0,.789,4.2C0,7.2,0,13.413,0,13.413s0,6.249.789,9.216a4.8,4.8,0,0,0,3.377,3.377c3.03.821,14.991.821,14.991.821s11.993,0,14.991-.789a4.8,4.8,0,0,0,3.377-3.377c.789-3,.789-9.216.789-9.216S38.346,7.2,37.525,4.2Zm0,0" fill="red"/>
      <path id="Path_181287" data-name="Path 181287" d="M204.969,113.972l9.973-5.744-9.973-5.744Zm0,0" transform="translate(-189.63 -94.815)" fill="#fff"/>
    </g>
  </g>
</svg>
