<?xml version="1.0" encoding="UTF-8"?>
<svg version="1.1" xmlns="http://www.w3.org/2000/svg" width="357" height="49">
<path d="M0 0 C5.28 0 10.56 0 16 0 C17.48113281 2.90619141 17.48113281 2.90619141 18.9921875 5.87109375 C19.95058009 7.74169273 20.91097986 9.61124783 21.87158203 11.48071289 C22.53905577 12.78236787 23.20443142 14.08510092 23.86767578 15.38891602 C24.82037016 17.26083942 25.78049738 19.12877934 26.7421875 20.99609375 C27.3182373 22.12200928 27.89428711 23.2479248 28.48779297 24.40795898 C29.74044971 27.09822704 29.74044971 27.09822704 32 28 C32.22558594 27.23300781 32.45117188 26.46601563 32.68359375 25.67578125 C34.47342352 20.67806667 36.76201393 15.96743498 39.0625 11.1875 C39.75182617 9.73827148 39.75182617 9.73827148 40.45507812 8.25976562 C43.86452367 1.13547633 43.86452367 1.13547633 45 0 C47.69654854 -0.07319621 50.36691458 -0.09242537 53.0625 -0.0625 C53.82111328 -0.05798828 54.57972656 -0.05347656 55.36132812 -0.04882812 C57.24091871 -0.0370068 59.12046899 -0.01907078 61 0 C61 1.32 61 2.64 61 4 C59.02 4.33 57.04 4.66 55 5 C55.12117188 5.70640625 55.24234375 6.4128125 55.3671875 7.140625 C57.04019533 17.38458064 58.03182807 27.66939954 59 38 C60.65 38.66 62.3 39.32 64 40 C64 41.32 64 42.64 64 44 C55.75 44 47.5 44 39 44 C39 42.68 39 41.36 39 40 C43.455 39.505 43.455 39.505 48 39 C47.01 30.75 46.02 22.5 45 14 C43.55367187 17.12275391 43.55367187 17.12275391 42.078125 20.30859375 C41.13495625 22.31911203 40.18687357 24.3272411 39.23828125 26.33520508 C38.58140806 27.73252104 37.92967506 29.13226538 37.28320312 30.53442383 C36.35324958 32.54908545 35.40518362 34.554302 34.453125 36.55859375 C34.16753723 37.18777206 33.88194946 37.81695038 33.58770752 38.4651947 C31.49850183 42.79694124 31.49850183 42.79694124 28.78417969 43.90258789 C28.19540039 43.93473389 27.60662109 43.96687988 27 44 C26.65743164 43.33991943 26.31486328 42.67983887 25.96191406 41.99975586 C24.39274792 38.97823691 22.82139213 35.95786184 21.25 32.9375 C20.71117187 31.89916016 20.17234375 30.86082031 19.6171875 29.79101562 C19.08867187 28.77587891 18.56015625 27.76074219 18.015625 26.71484375 C17.53383789 25.78792725 17.05205078 24.86101074 16.55566406 23.90600586 C14.76890564 20.56831197 12.87831061 17.28704356 11 14 C10.34 22.25 9.68 30.5 9 39 C12.3 39.33 15.6 39.66 19 40 C18.67 41.32 18.34 42.64 18 44 C10.41 44 2.82 44 -5 44 C-5 42.68 -5 41.36 -5 40 C-2.69 39.34 -0.38 38.68 2 38 C3.78793048 21.53827458 3.78793048 21.53827458 4 5 C2.35 4.67 0.7 4.34 -1 4 C-0.67 2.68 -0.34 1.36 0 0 Z " fill="#022C51" transform="translate(142,2)"/>
<path d="M0 0 C4.16642697 -0.11703447 8.3324259 -0.18753101 12.5 -0.25 C13.67304688 -0.28351562 14.84609375 -0.31703125 16.0546875 -0.3515625 C23.22645437 -0.43214415 27.9394967 0.06210222 34 4 C37.13316518 7.36815257 38.25739808 9.98912059 38.5 14.5 C38.30569681 18.92413409 36.89271343 21.59680772 34 25 C33.01 25.495 33.01 25.495 32 26 C34.21500843 31.50726139 39.04916327 34.09270013 44 37 C46.95238357 38.23991439 49.89755863 39.21314893 53 40 C52.6875 41.9375 52.6875 41.9375 52 44 C46.15825909 45.94724697 40.63334879 45.44960374 35.01953125 43.11328125 C30.22436031 40.46990849 26.05786459 36.94647084 23.4375 32.125 C22.06495795 29.57074829 22.06495795 29.57074829 18.3125 29.1875 C16.6728125 29.0946875 16.6728125 29.0946875 15 29 C15 32.3 15 35.6 15 39 C18.465 39.495 18.465 39.495 22 40 C21.67 41.32 21.34 42.64 21 44 C13.74 44 6.48 44 -1 44 C-1 42.68 -1 41.36 -1 40 C0.98 39.34 2.96 38.68 5 38 C5 27.11 5 16.22 5 5 C2.03 4.505 2.03 4.505 -1 4 C-0.67 2.68 -0.34 1.36 0 0 Z M15 4 C15 10.6 15 17.2 15 24 C22.49152482 24.73960026 22.49152482 24.73960026 26 22 C28.74561602 17.88157597 28.54367526 15.89307732 28 11 C27.04453287 8.26366219 26.52876149 7.26438075 23.90625 5.953125 C23.1121875 5.72109375 22.318125 5.4890625 21.5 5.25 C20.7059375 5.00765625 19.911875 4.7653125 19.09375 4.515625 C17.03572144 3.92029195 17.03572144 3.92029195 15 4 Z " fill="#022B4D" transform="translate(302,2)"/>
<path d="M0 0 C3.96516109 -0.07493036 7.93004014 -0.12896449 11.89575195 -0.16479492 C13.89744576 -0.18705458 15.89894275 -0.22520146 17.90039062 -0.26367188 C26.48290074 -0.32852712 33.38588768 0.23153261 40.8125 4.6875 C45.84267991 10.00511876 47.27207706 14.65930953 47.5 22 C47.28356264 28.74563093 46.23476918 33.55253367 41.57421875 38.51953125 C34.97716521 44.43471879 27.62148646 45.1354933 19.0703125 45.09765625 C17.78125 45.09443359 16.4921875 45.09121094 15.1640625 45.08789062 C13.81770764 45.07953733 12.47135348 45.07107241 11.125 45.0625 C9.75520996 45.0574783 8.38541815 45.05291657 7.015625 45.04882812 C3.6770381 45.03707254 0.33854185 45.02063964 -3 45 C-3 43.68 -3 42.36 -3 41 C0.465 40.505 0.465 40.505 4 40 C3.505 22.675 3.505 22.675 3 5 C1.35 4.67 -0.3 4.34 -2 4 C-1.34 2.68 -0.68 1.36 0 0 Z M14 5 C14 16.22 14 27.44 14 39 C18.28377052 41.14188526 23.82985097 40.63614084 28.33203125 39.31640625 C31.65312049 37.83146653 33.68015315 36.38981335 36 33.5625 C37.85246678 26.96308708 37.9784587 20.04409374 35.875 13.5 C32.90393342 9.5385779 29.78937819 6.5964594 25 5 C21.37 5 17.74 5 14 5 Z " fill="#032D50" transform="translate(5,1)"/>
<path d="M0 0 C10.89 0 21.78 0 33 0 C33.84728203 4.23641013 34.08384078 7.72412002 34 12 C32.68 12.33 31.36 12.66 30 13 C29.01 10.69 28.02 8.38 27 6 C23.04 5.67 19.08 5.34 15 5 C15 9.95 15 14.9 15 20 C17.31 20 19.62 20 22 20 C22.33 18.02 22.66 16.04 23 14 C24.32 14.33 25.64 14.66 27 15 C27 20.28 27 25.56 27 31 C25.68 31 24.36 31 23 31 C22.67 29.02 22.34 27.04 22 25 C19.69 25 17.38 25 15 25 C15 29.29 15 33.58 15 38 C19.80059891 38.16240186 24.31270828 38.11475794 29 37 C31.64434111 34.32026618 32.88920661 31.57040732 34 28 C34.99 28.33 35.98 28.66 37 29 C36.35006899 34.19944809 35.28739837 38.85040653 34 44 C21.79 44 9.58 44 -3 44 C-3 42.68 -3 41.36 -3 40 C-0.69 39.34 1.62 38.68 4 38 C4.33 26.78 4.66 15.56 5 4 C3.02 4 1.04 4 -1 4 C-0.67 2.68 -0.34 1.36 0 0 Z " fill="#032B4E" transform="translate(257,2)"/>
<path d="M0 0 C0.30180176 0.71953857 0.60360352 1.43907715 0.91455078 2.18041992 C3.80994545 9.0756097 6.72498517 15.96212232 9.65820312 22.84130859 C10.7478339 25.40638191 11.8224947 27.97673255 12.890625 30.55078125 C13.62539062 32.25814453 13.62539062 32.25814453 14.375 34 C14.77460937 34.94875 15.17421875 35.8975 15.5859375 36.875 C17.3660517 39.55008874 18.96797902 40.10763262 22 41 C21.67 42.32 21.34 43.64 21 45 C13.74 45 6.48 45 -1 45 C-1 43.68 -1 42.36 -1 41 C1.97 40.505 1.97 40.505 5 40 C4.01 36.7 3.02 33.4 2 30 C-3.28 30 -8.56 30 -14 30 C-14.495 32.475 -14.495 32.475 -15 35 C-15.33333333 36.66666667 -15.66666667 38.33333333 -16 40 C-13.36 40.33 -10.72 40.66 -8 41 C-8.33 42.32 -8.66 43.64 -9 45 C-15.6 45 -22.2 45 -29 45 C-29.33 43.68 -29.66 42.36 -30 41 C-27.03 40.505 -27.03 40.505 -24 40 C-23.62746094 38.81148437 -23.25492188 37.62296875 -22.87109375 36.3984375 C-20.84025653 30.3166458 -18.37509355 24.41959013 -15.86645508 18.52294922 C-15.05703685 16.61210278 -14.26396535 14.69494347 -13.47070312 12.77734375 C-12.95572266 11.56433594 -12.44074219 10.35132813 -11.91015625 9.1015625 C-11.21611694 7.45148193 -11.21611694 7.45148193 -10.50805664 5.76806641 C-7.8753985 0.93577273 -5.4807922 -0.45673268 0 0 Z M-7 13 C-8.65 17.29 -10.3 21.58 -12 26 C-8.04 26 -4.08 26 0 26 C-1.65 21.71 -3.3 17.42 -5 13 C-5.66 13 -6.32 13 -7 13 Z " fill="#03284B" transform="translate(83,1)"/>
<path d="M0 0 C7.26 0 14.52 0 22 0 C22.33 1.32 22.66 2.64 23 4 C20.36 4.33 17.72 4.66 15 5 C15 15.89 15 26.78 15 38 C24.29959067 38.1347605 24.29959067 38.1347605 27.0703125 34.93359375 C27.59238281 33.69802734 27.59238281 33.69802734 28.125 32.4375 C28.68574219 31.19806641 28.68574219 31.19806641 29.2578125 29.93359375 C29.50273437 29.29550781 29.74765625 28.65742188 30 28 C31.32 28.66 32.64 29.32 34 30 C33.52188823 31.77111844 33.0424722 33.54188483 32.5625 35.3125 C32.29566406 36.29863281 32.02882812 37.28476562 31.75390625 38.30078125 C31.21920575 40.21517526 30.62855462 42.11433615 30 44 C19.44 44 8.88 44 -2 44 C-2 42.68 -2 41.36 -2 40 C-0.02 39.34 1.96 38.68 4 38 C4 27.11 4 16.22 4 5 C2.35 4.67 0.7 4.34 -1 4 C-0.67 2.68 -0.34 1.36 0 0 Z " fill="#022A4E" transform="translate(216,2)"/>
<path d="M0 0 C6.93 0 13.86 0 21 0 C21 1.32 21 2.64 21 4 C19.35 4.66 17.7 5.32 16 6 C16 16.89 16 27.78 16 39 C17.98 39.33 19.96 39.66 22 40 C21.67 41.32 21.34 42.64 21 44 C13.74 44 6.48 44 -1 44 C-1 42.68 -1 41.36 -1 40 C1.97 39.505 1.97 39.505 5 39 C5 27.78 5 16.56 5 5 C2.03 4.505 2.03 4.505 -1 4 C-0.67 2.68 -0.34 1.36 0 0 Z " fill="#022D51" transform="translate(109,2)"/>
<path d="M0 0 C6.27 0.33 12.54 0.66 19 1 C19.33 1.66 19.66 2.32 20 3 C15.545 3.495 15.545 3.495 11 4 C11 15.22 11 26.44 11 38 C16.45916508 38.24916653 16.45916508 38.24916653 21.91918945 38.47802734 C22.60198975 38.5136377 23.28479004 38.54924805 23.98828125 38.5859375 C24.68477783 38.6173584 25.38127441 38.6487793 26.09887695 38.68115234 C28 39 28 39 31 41 C23.4317783 44.67792407 16.2924244 44.34587637 8 44.1875 C6.63933774 44.17242476 5.27865931 44.15874138 3.91796875 44.14648438 C0.61156157 44.11130983 -2.69400684 44.06208288 -6 44 C-6 42.68 -6 41.36 -6 40 C-3.03 39.34 -0.06 38.68 3 38 C2.99214478 36.56164795 2.99214478 36.56164795 2.98413086 35.09423828 C2.96605321 31.54216441 2.95455785 27.99009463 2.94506836 24.43798828 C2.94003448 22.89956987 2.93320692 21.36115625 2.92456055 19.82275391 C2.91245361 17.61359474 2.90676231 15.40449874 2.90234375 13.1953125 C2.89718246 12.50567413 2.89202118 11.81603577 2.88670349 11.10549927 C2.88612829 6.22774341 2.88612829 6.22774341 4 4 C2.68 3.34 1.36 2.68 0 2 C0 1.34 0 0.68 0 0 Z " fill="#01325C" transform="translate(8,2)"/>
<path d="M0 0 C0.66 0.33 1.32 0.66 2 1 C2 1.99 2 2.98 2 4 C2.99 4 3.98 4 5 4 C5.50599731 5.21115479 5.50599731 5.21115479 6.0222168 6.44677734 C7.28500279 9.44592109 8.56325245 12.43783913 9.85229492 15.42578125 C10.40641994 16.7190096 10.95434535 18.01491304 11.49584961 19.31347656 C12.2765426 21.18256005 13.07922084 23.04080495 13.88671875 24.8984375 C14.36326904 26.01911621 14.83981934 27.13979492 15.33081055 28.29443359 C17.25349307 31.41088345 18.52183447 32.06664498 22 33 C22 33.99 22 34.98 22 36 C17.38 36 12.76 36 8 36 C7.67 34.35 7.34 32.7 7 31 C6.05781067 28.86558979 6.05781067 28.86558979 4.9375 26.875 C3.46280377 24.17751295 3 23.16611388 3 20 C2.34 20 1.68 20 1 20 C1 19.01 1 18.02 1 17 C1.66 17 2.32 17 3 17 C2.67 15.02 2.34 13.04 2 11 C1.01 10.67 0.02 10.34 -1 10 C-1.02689216 8.52093108 -1.04634621 7.04172517 -1.0625 5.5625 C-1.07410156 4.73878906 -1.08570312 3.91507813 -1.09765625 3.06640625 C-1 1 -1 1 0 0 Z " fill="#01315B" transform="translate(83,9)"/>
<path d="M0 0 C6.93 0 13.86 0 21 0 C21 1.32 21 2.64 21 4 C19.35 4.66 17.7 5.32 16 6 C16 16.89 16 27.78 16 39 C17.98 39.33 19.96 39.66 22 40 C21.67 41.32 21.34 42.64 21 44 C13.74 44 6.48 44 -1 44 C-0.67 42.68 -0.34 41.36 0 40 C0 40.99 0 41.98 0 43 C6.435 42.505 6.435 42.505 13 42 C13.33 29.46 13.66 16.92 14 4 C9.545 4.495 9.545 4.495 5 5 C1.4375 4.5625 1.4375 4.5625 -1 4 C-0.67 2.68 -0.34 1.36 0 0 Z " fill="#042345" transform="translate(109,2)"/>
<path d="M0 0 C9.57 0 19.14 0 29 0 C29 0.33 29 0.66 29 1 C20.42 1 11.84 1 3 1 C3 1.66 3 2.32 3 3 C5.475 3.99 5.475 3.99 8 5 C7.67 5.66 7.34 6.32 7 7 C6.84391977 9.40560273 6.74195542 11.78702772 6.68359375 14.1953125 C6.66281265 14.90275604 6.64203156 15.61019958 6.62062073 16.33908081 C6.55518922 18.60095425 6.49627026 20.86294462 6.4375 23.125 C6.39430867 24.65756422 6.35069418 26.19011657 6.30664062 27.72265625 C6.19951445 31.48165073 6.0982291 35.24076292 6 39 C5.34 39 4.68 39 4 39 C3.67 27.78 3.34 16.56 3 5 C1.35 4.67 -0.3 4.34 -2 4 C-1.34 2.68 -0.68 1.36 0 0 Z " fill="#041528" transform="translate(5,1)"/>
<path d="M0 0 C1.23611431 3.70834293 0.25778496 5.29404354 -1.17578125 8.796875 C-2.00045728 11.0012223 -2.51593107 13.13713824 -3 15.4375 C-3.33 16.613125 -3.66 17.78875 -4 19 C-4.99 19.33 -5.98 19.66 -7 20 C-7 20.99 -7 21.98 -7 23 C-7.66 23 -8.32 23 -9 23 C-9.73915132 15.27997507 -8.48133849 9.42718283 -4 3 C-1.828125 1.21484375 -1.828125 1.21484375 0 0 Z " fill="#02335A" transform="translate(72,17)"/>
<path d="M0 0 C10.89 0 21.78 0 33 0 C33.84728203 4.23641013 34.08384078 7.72412002 34 12 C32.68 12.33 31.36 12.66 30 13 C28.8422494 9.52674819 28.93133348 6.63932552 29 3 C26.3178719 1.65893595 24.11601968 1.78549581 21.1171875 1.68359375 C19.95058594 1.64169922 18.78398437 1.59980469 17.58203125 1.55664062 C16.35871094 1.51732422 15.13539063 1.47800781 13.875 1.4375 C12.64394531 1.39431641 11.41289062 1.35113281 10.14453125 1.30664062 C7.09647147 1.20031296 4.0483281 1.09828219 1 1 C1.33 1.99 1.66 2.98 2 4 C1.01 4 0.02 4 -1 4 C-0.67 2.68 -0.34 1.36 0 0 Z " fill="#031939" transform="translate(257,2)"/>
<path d="M0 0 C5.94 0 11.88 0 18 0 C22.875 9.625 22.875 9.625 24 13 C23.67 13.66 23.34 14.32 23 15 C27.29 15 31.58 15 36 15 C36 15.33 36 15.66 36 16 C28.74 16 21.48 16 14 16 C14 14.68 14 13.36 14 12 C15.98 11.67 17.96 11.34 20 11 C18.515 6.05 18.515 6.05 17 1 C11.39 1 5.78 1 0 1 C0 0.67 0 0.34 0 0 Z " fill="#001938" transform="translate(68,30)"/>
<path d="M0 0 C3.96 0.33 7.92 0.66 12 1 C12 2.32 12 3.64 12 5 C2.43 5 -7.14 5 -17 5 C-17 4.67 -17 4.34 -17 4 C-9.08 3.505 -9.08 3.505 -1 3 C-0.67 2.01 -0.34 1.02 0 0 Z " fill="#002143" transform="translate(19,41)"/>
<path d="M0 0 C0.33 0 0.66 0 1 0 C1 3.3 1 6.6 1 10 C0.01 10.33 -0.98 10.66 -2 11 C-2 11.66 -2 12.32 -2 13 C3.61 13.33 9.22 13.66 15 14 C15 14.33 15 14.66 15 15 C7.41 15 -0.18 15 -8 15 C-8 13.68 -8 12.36 -8 11 C-5.69 10.34 -3.38 9.68 -1 9 C-0.67 6.03 -0.34 3.06 0 0 Z " fill="#02142E" transform="translate(145,31)"/>
<path d="M0 0 C0.99 0.33 1.98 0.66 3 1 C2.67 2.32 2.34 3.64 2 5 C2 4.01 2 3.02 2 2 C1.34 2 0.68 2 0 2 C0.33 3.65 0.66 5.3 1 7 C0.360625 7.103125 -0.27875 7.20625 -0.9375 7.3125 C-1.9584375 7.6528125 -1.9584375 7.6528125 -3 8 C-3.33 8.99 -3.66 9.98 -4 11 C-7.16678884 12.2710735 -10.37733787 12.10265074 -13.75 12.0625 C-14.73484375 12.05347656 -15.7196875 12.04445313 -16.734375 12.03515625 C-17.48203125 12.02355469 -18.2296875 12.01195312 -19 12 C-19 11.34 -19 10.68 -19 10 C-18.04738281 10.03222656 -17.09476562 10.06445312 -16.11328125 10.09765625 C-8.88549929 10.33773135 -8.88549929 10.33773135 -2.95703125 6.9296875 C-1.73710548 4.64724574 -0.76816182 2.46909156 0 0 Z " fill="#01223D" transform="translate(291,30)"/>
<path d="M0 0 C0.5859375 1.84765625 0.5859375 1.84765625 1 4 C0.04504326 5.69287785 -0.9590934 7.35857037 -2 9 C-2.70670728 11.69254991 -2.70670728 11.69254991 -3 14 C-2.34 14 -1.68 14 -1 14 C-1.33 15.32 -1.66 16.64 -2 18 C-3.175625 18.2165625 -3.175625 18.2165625 -4.375 18.4375 C-6.96421018 18.87798925 -6.96421018 18.87798925 -9 20 C-7.55676531 15.26210835 -5.62773267 11.01141849 -3.375 6.625 C-2.88773438 5.66400391 -2.88773438 5.66400391 -2.390625 4.68359375 C-1.59742593 3.12052499 -0.79922969 1.55999378 0 0 Z " fill="#011D36" transform="translate(185,6)"/>
<path d="M0 0 C1.32 0.66 2.64 1.32 4 2 C3.01 5.63 2.02 9.26 1 13 C0.34 12.34 -0.32 11.68 -1 11 C-1 10.01 -1 9.02 -1 8 C-1.66 8 -2.32 8 -3 8 C-1.125 1.125 -1.125 1.125 0 0 Z " fill="#032442" transform="translate(246,30)"/>
<path d="M0 0 C4.16138263 -0.08159574 7.9472484 0.01751476 12 1 C12 1.66 12 2.32 12 3 C10.35 3.66 8.7 4.32 7 5 C7 4.34 7 3.68 7 3 C4.36 3 1.72 3 -1 3 C-0.67 2.01 -0.34 1.02 0 0 Z " fill="#05315D" transform="translate(303,3)"/>
<path d="M0 0 C0 3 0 3 -1 5 C0.98 5 2.96 5 5 5 C1.30827405 8.53790403 -2.09390595 8.59115883 -7 9 C-5.68 8.01 -4.36 7.02 -3 6 C-4.65 5.67 -6.3 5.34 -8 5 C-5.37352812 3.24901874 -2.71224618 1.61268692 0 0 Z " fill="#011E3D" transform="translate(39,36)"/>
<path d="M0 0 C3.93769336 3.93769336 3.14356123 9.52321262 3.23046875 14.79296875 C3 17 3 17 1 19 C0.25492456 12.62694402 -0.10349817 6.41688675 0 0 Z " fill="#011D3C" transform="translate(189,22)"/>
<path d="M0 0 C3.63 0 7.26 0 11 0 C11 0.66 11 1.32 11 2 C11.99 2.33 12.98 2.66 14 3 C12.34385343 3.38218767 10.67542976 3.71395102 9 4 C8.67 3.67 8.34 3.34 8 3 C5.32941149 2.85884839 2.67567762 2.95752893 0 3 C0 2.01 0 1.02 0 0 Z " fill="#06345B" transform="translate(318,3)"/>
<path d="M0 0 C2.4294516 3.6441774 2.16179575 5.71241272 2 10 C0.68 10.33 -0.64 10.66 -2 11 C-2.33 9.02 -2.66 7.04 -3 5 C-2.67 5.66 -2.34 6.32 -2 7 C-1.34 6.67 -0.68 6.34 0 6 C0 4.02 0 2.04 0 0 Z " fill="#09203D" transform="translate(289,4)"/>
<path d="M0 0 C1.98 0 3.96 0 6 0 C6.33 1.32 6.66 2.64 7 4 C5.1875 4.625 5.1875 4.625 3 5 C2.01 4.34 1.02 3.68 0 3 C0 2.01 0 1.02 0 0 Z " fill="#01335C" transform="translate(34,4)"/>
<path d="M0 0 C1.32 0 2.64 0 4 0 C4 1.65 4 3.3 4 5 C3.34 5 2.68 5 2 5 C2 5.99 2 6.98 2 8 C1.34 8 0.68 8 0 8 C0 5.36 0 2.72 0 0 Z " fill="#013363" transform="translate(63,32)"/>
<path d="M0 0 C2.375 0.25 2.375 0.25 5 1 C6.3125 3.0625 6.3125 3.0625 7 5 C5.68 5 4.36 5 3 5 C3 4.34 3 3.68 3 3 C1.68 3 0.36 3 -1 3 C-0.67 2.01 -0.34 1.02 0 0 Z " fill="#02355C" transform="translate(77,3)"/>
<path d="M0 0 C0 0.66 0 1.32 0 2 C0.99 2.66 1.98 3.32 3 4 C0.03 4 -2.94 4 -6 4 C-6 3.01 -6 2.02 -6 1 C-3 0 -3 0 0 0 Z " fill="#062E4F" transform="translate(308,41)"/>
<path d="M0 0 C0.33 0 0.66 0 1 0 C0.67 2.97 0.34 5.94 0 9 C-0.66 9 -1.32 9 -2 9 C-2 9.66 -2 10.32 -2 11 C-2.66 11 -3.32 11 -4 11 C-3.52269162 9.5410574 -3.04308958 8.08286504 -2.5625 6.625 C-2.29566406 5.81289063 -2.02882813 5.00078125 -1.75390625 4.1640625 C-1 2 -1 2 0 0 Z " fill="#02182D" transform="translate(67,21)"/>
<path d="M0 0 C2.00476438 1.92123253 2.93016331 3.4301731 3.26953125 6.19921875 C3.310674 8.52191423 3.34177671 10.70077487 3 13 C2.34 13.66 1.68 14.32 1 15 C1.03480469 14.09507813 1.03480469 14.09507813 1.0703125 13.171875 C1.08835937 12.37265625 1.10640625 11.5734375 1.125 10.75 C1.14820313 9.96109375 1.17140625 9.1721875 1.1953125 8.359375 C0.98242698 5.78771792 0.1552391 4.27164664 -1 2 C-0.67 1.34 -0.34 0.68 0 0 Z " fill="#04213E" transform="translate(337,8)"/>
<path d="M0 0 C0.99 0.33 1.98 0.66 3 1 C2.67 1.99 2.34 2.98 2 4 C2.66 4 3.32 4 4 4 C4.66 7.3 5.32 10.6 6 14 C3.74402173 11.74402173 3.03425808 9.95396133 1.875 7 C1.52179688 6.113125 1.16859375 5.22625 0.8046875 4.3125 C0 2 0 2 0 0 Z " fill="#01142C" transform="translate(77,12)"/>
<path d="M0 0 C0.33 1.65 0.66 3.3 1 5 C0.01 4.34 -0.98 3.68 -2 3 C-5.32240324 3.3241369 -6.60776303 3.60776303 -9 6 C-8.6875 4.125 -8.6875 4.125 -8 2 C-4.77208445 -0.1519437 -3.71599191 -0.20086443 0 0 Z " fill="#031933" transform="translate(83,1)"/>
<path d="M0 0 C0.66 0.33 1.32 0.66 2 1 C1.34 2.65 0.68 4.3 0 6 C-0.66 5.34 -1.32 4.68 -2 4 C-2.99 4.33 -3.98 4.66 -5 5 C-5 4.34 -5 3.68 -5 3 C-2.625 1.3125 -2.625 1.3125 0 0 Z " fill="#042A46" transform="translate(180,23)"/>
<path d="M0 0 C0.33 0.66 0.66 1.32 1 2 C0.34 2 -0.32 2 -1 2 C-1 2.66 -1 3.32 -1 4 C-2.65 4 -4.3 4 -6 4 C-6 3.01 -6 2.02 -6 1 C-4.02 0.67 -2.04 0.34 0 0 Z " fill="#072A49" transform="translate(188,41)"/>
<path d="M0 0 C0.99 0.495 0.99 0.495 2 1 C2.34153937 2.66500443 2.67449498 4.33178677 3 6 C3.66 6.66 4.32 7.32 5 8 C3.35 7.67 1.7 7.34 0 7 C0 4.69 0 2.38 0 0 Z " fill="#082A47" transform="translate(269,15)"/>
<path d="M0 0 C2.99324263 1.0975223 3.84610901 1.67682892 5.25 4.625 C5.4975 5.40875 5.745 6.1925 6 7 C5.01 7 4.02 7 3 7 C0 2.77777778 0 2.77777778 0 0 Z " fill="#02162F" transform="translate(166,39)"/>
<path d="M0 0 C1.32 0 2.64 0 4 0 C4 0.66 4 1.32 4 2 C4.66 2.33 5.32 2.66 6 3 C3.3333581 4.33332095 1.83319697 3.67102033 -1 3 C-0.67 2.01 -0.34 1.02 0 0 Z " fill="#062340" transform="translate(4,2)"/>
</svg>
