<?xml version="1.0" encoding="UTF-8"?>
<svg version="1.1" xmlns="http://www.w3.org/2000/svg" width="204" height="64">
<path d="M0 0 C23.76 0 47.52 0 72 0 C72 7.92 72 15.84 72 24 C65.4 24 58.8 24 52 24 C52 22.35 52 20.7 52 19 C46.39 19 40.78 19 35 19 C35.495 21.97 35.495 21.97 36 25 C39.63 25.33 43.26 25.66 47 26 C47 29.96 47 33.92 47 38 C43.04 38 39.08 38 35 38 C35.495 40.97 35.495 40.97 36 44 C39.96 44.33 43.92 44.66 48 45 C48 51.27 48 57.54 48 64 C32.16 64 16.32 64 0 64 C0 57.73 0 51.46 0 45 C2.64 45 5.28 45 8 45 C8 36.42 8 27.84 8 19 C5.36 19 2.72 19 0 19 C0 12.73 0 6.46 0 0 Z " fill="#264CA3" transform="translate(132,0)"/>
<path d="M0 0 C23.76 0 47.52 0 72 0 C72 7.92 72 15.84 72 24 C65.4 24 58.8 24 52 24 C52 22.35 52 20.7 52 19 C46.72 19 41.44 19 36 19 C36 21.31 36 23.62 36 26 C39.96 26 43.92 26 48 26 C48.09765625 34.49609375 48.09765625 34.49609375 48 37 C47 38 47 38 44.49609375 38.09765625 C43.48675781 38.08605469 42.47742188 38.07445312 41.4375 38.0625 C40.42558594 38.05347656 39.41367188 38.04445312 38.37109375 38.03515625 C37.19740234 38.01775391 37.19740234 38.01775391 36 38 C36 40.31 36 42.62 36 45 C39.96 45 43.92 45 48 45 C48 51.27 48 57.54 48 64 C32.16 64 16.32 64 0 64 C0 57.73 0 51.46 0 45 C2.97 45 5.94 45 9 45 C9 36.42 9 27.84 9 19 C6.36 19 3.72 19 1 19 C0.67 18.67 0.34 18.34 0 18 C0 12.06 0 6.12 0 0 Z " fill="#264DA5" transform="translate(54,0)"/>
<path d="M0 0 C15.84 0 31.68 0 48 0 C48 6.27 48 12.54 48 19 C45.03 19 42.06 19 39 19 C39 27.58 39 36.16 39 45 C41.97 45 44.94 45 48 45 C48 51.27 48 57.54 48 64 C32.16 64 16.32 64 0 64 C0 57.73 0 51.46 0 45 C2.64 44.67 5.28 44.34 8 44 C8.33 35.75 8.66 27.5 9 19 C6.03 19 3.06 19 0 19 C0 12.73 0 6.46 0 0 Z " fill="#254CA3" transform="translate(0,0)"/>
<path d="M0 0 C1.51400391 0.01740234 1.51400391 0.01740234 3.05859375 0.03515625 C4.07050781 0.04417969 5.08242187 0.05320312 6.125 0.0625 C7.29869141 0.07990234 7.29869141 0.07990234 8.49609375 0.09765625 C8.52296654 1.91007677 8.5424309 3.72260858 8.55859375 5.53515625 C8.57019531 6.54449219 8.58179687 7.55382813 8.59375 8.59375 C8.49609375 11.09765625 8.49609375 11.09765625 7.49609375 12.09765625 C5.30969922 12.17024571 3.12108986 12.18139408 0.93359375 12.16015625 C-0.86271484 12.14662109 -0.86271484 12.14662109 -2.6953125 12.1328125 C-3.62214844 12.12121094 -4.54898438 12.10960937 -5.50390625 12.09765625 C-5.19620918 10.28433471 -4.88261561 8.4720128 -4.56640625 6.66015625 C-4.30537109 5.14615234 -4.30537109 5.14615234 -4.0390625 3.6015625 C-3.29678695 0.12857983 -3.29678695 0.12857983 0 0 Z " fill="#294B99" transform="translate(93.50390625,25.90234375)"/>
<path d="M0 0 C2.97 0 5.94 0 9 0 C9.33 1.65 9.66 3.3 10 5 C10.33 5 10.66 5 11 5 C11.33 11.6 11.66 18.2 12 25 C11.34 25 10.68 25 10 25 C9.34 25.66 8.68 26.32 8 27 C8 18.42 8 9.84 8 1 C5.36 1 2.72 1 0 1 C0 0.67 0 0.34 0 0 Z " fill="#4B6FBB" transform="translate(132,18)"/>
<path d="M0 0 C1.98 0 3.96 0 6 0 C5.71848913 1.31471568 5.42446661 2.62675767 5.125 3.9375 C4.96257812 4.66839844 4.80015625 5.39929687 4.6328125 6.15234375 C4 8 4 8 2 9 C4.97 9.33 7.94 9.66 11 10 C11 10.33 11 10.66 11 11 C6.71 11 2.42 11 -2 11 C-1.34 7.37 -0.68 3.74 0 0 Z " fill="#3C60BA" transform="translate(90,27)"/>
<path d="M0 0 C0.99 0.495 0.99 0.495 2 1 C2.31241371 3.54941373 2.51303421 6.00361513 2.625 8.5625 C2.66367187 9.27341797 2.70234375 9.98433594 2.7421875 10.71679688 C2.83671783 12.47742425 2.91945817 14.23867728 3 16 C4.98 16.66 6.96 17.32 9 18 C9 18.33 9 18.66 9 19 C2.84765625 19.09765625 2.84765625 19.09765625 1 19 C0 18 0 18 -0.11352539 16.23413086 C-0.10828857 15.48526611 -0.10305176 14.73640137 -0.09765625 13.96484375 C-0.09443359 13.15595703 -0.09121094 12.34707031 -0.08789062 11.51367188 C-0.07951172 10.66353516 -0.07113281 9.81339844 -0.0625 8.9375 C-0.05798828 8.08349609 -0.05347656 7.22949219 -0.04882812 6.34960938 C-0.03700373 4.23304337 -0.01906769 2.11651315 0 0 Z " fill="#687CBA" transform="translate(54,0)"/>
<path d="M0 0 C0.66 0 1.32 0 2 0 C2 6.27 2 12.54 2 19 C0.68 19 -0.64 19 -2 19 C-1.505 17.515 -1.505 17.515 -1 16 C-0.95522015 13.64625926 -0.96105325 11.29134448 -1 8.9375 C-1.11088911 2.22177822 -1.11088911 2.22177822 0 0 Z " fill="#6586C6" transform="translate(178,45)"/>
<path d="M0 0 C0.33 0 0.66 0 1 0 C1 3.63 1 7.26 1 11 C-1.97 10.505 -1.97 10.505 -5 10 C-5 9.34 -5 8.68 -5 8 C-4.34 8 -3.68 8 -3 8 C-3 6.68 -3 5.36 -3 4 C-2.01 4 -1.02 4 0 4 C0 2.68 0 1.36 0 0 Z " fill="#4A67B8" transform="translate(101,26)"/>
</svg>
