<?xml version="1.0" encoding="UTF-8"?>
<svg version="1.1" xmlns="http://www.w3.org/2000/svg" width="308" height="82">
<path d="M0 0 C1.48260567 -0.02882263 1.48260567 -0.02882263 2.99516296 -0.05822754 C4.58274162 -0.07097717 4.58274162 -0.07097717 6.20239258 -0.08398438 C7.8542028 -0.10108459 7.8542028 -0.10108459 9.53938293 -0.11853027 C11.86850154 -0.13740163 14.1976732 -0.15048687 16.52685547 -0.15820312 C20.06745137 -0.17757314 23.60570282 -0.23962047 27.14575195 -0.30273438 C29.41461845 -0.31580027 31.68350147 -0.32629893 33.95239258 -0.33398438 C35.0006572 -0.35867798 36.04892181 -0.38337158 37.12895203 -0.40881348 C44.59524912 -0.36418515 50.18193331 1.37988645 55.90942383 6.32226562 C59.17392372 10.99430971 60.0231378 14.71859232 60.08642578 20.33105469 C60.10567863 21.82345673 60.10567863 21.82345673 60.12532043 23.3460083 C60.13270737 24.41582947 60.1400943 25.48565063 60.14770508 26.58789062 C60.15577682 27.69525574 60.16384857 28.80262085 60.17216492 29.94354248 C60.18598993 32.28705283 60.19671915 34.63058318 60.20458984 36.97412109 C60.22179242 40.54498766 60.26569315 44.11492579 60.30981445 47.68554688 C60.31994285 49.965488 60.32845849 52.24543698 60.33520508 54.52539062 C60.35271317 55.58711487 60.37022125 56.64883911 60.38825989 57.74273682 C60.36633547 65.29334182 59.09785469 70.45575218 54.18286133 76.41601562 C46.44603905 82.14699509 38.13729671 80.73239331 28.90942383 80.32226562 C28.57942383 74.71226563 28.24942383 69.10226563 27.90942383 63.32226562 C22.80094898 65.32268764 22.80094898 65.32268764 19.90942383 69.32226562 C19.14629883 68.51789063 18.38317383 67.71351562 17.59692383 66.88476562 C15.11511484 64.15427539 15.11511484 64.15427539 11.90942383 63.32226562 C11.90942383 68.93226562 11.90942383 74.54226562 11.90942383 80.32226562 C-6.23343331 80.8936942 -6.23343331 80.8936942 -14.09057617 76.32226562 C-14.09057617 75.66226563 -14.09057617 75.00226563 -14.09057617 74.32226562 C-14.75057617 74.32226562 -15.41057617 74.32226562 -16.09057617 74.32226562 C-20.17689537 67.55823055 -20.68074348 62.22843539 -20.62182617 54.41210938 C-20.62565308 53.28583633 -20.62947998 52.15956329 -20.63342285 50.99916077 C-20.63613414 48.62825624 -20.62882818 46.2573214 -20.61206055 43.88647461 C-20.59062131 40.26738592 -20.61190105 36.65027785 -20.63745117 33.03125 C-20.63480815 30.72069877 -20.62968371 28.41014876 -20.62182617 26.09960938 C-20.63397156 24.48529274 -20.63397156 24.48529274 -20.6463623 22.83836365 C-20.55636217 15.59525785 -19.49399526 11.12608696 -14.56323242 5.61523438 C-9.85573822 1.92487189 -5.99032536 0.09459896 0 0 Z " fill="#F2755B" transform="translate(20.090576171875,0.677734375)"/>
<path d="M0 0 C10 0 10 0 12.62109375 2.265625 C13.22050781 3.25046875 13.81992188 4.2353125 14.4375 5.25 C15.05496094 6.22453125 15.67242187 7.1990625 16.30859375 8.203125 C16.86675781 9.12609375 17.42492187 10.0490625 18 11 C19.49078079 13.29622978 19.49078079 13.29622978 21 15 C21.66 15 22.32 15 23 15 C24.68075662 12.92191216 24.68075662 12.92191216 26.375 10.3125 C27.00535156 9.40371094 27.63570312 8.49492187 28.28515625 7.55859375 C29.52655391 5.7063945 30.69380251 3.80378877 31.8125 1.875 C34 0 34 0 44 0 C44 13.86 44 27.72 44 42 C41.03 42 38.06 42 35 42 C34.505 29.13 34.505 29.13 34 16 C30.50463592 20.59960021 30.50463592 20.59960021 27.0300293 25.21484375 C26.59086182 25.78332031 26.15169434 26.35179688 25.69921875 26.9375 C25.25408936 27.52402344 24.80895996 28.11054687 24.3503418 28.71484375 C23 30 23 30 20 30 C18.02734375 27.69921875 18.02734375 27.69921875 15.9375 24.6875 C15.24527344 23.70136719 14.55304688 22.71523438 13.83984375 21.69921875 C12.5496667 19.80641123 11.27064819 17.90597228 10 16 C9.67 24.58 9.34 33.16 9 42 C6.03 42 3.06 42 0 42 C0 28.14 0 14.28 0 0 Z " fill="#514F4F" transform="translate(97,15)"/>
<path d="M0 0 C3.25 2.25 3.25 2.25 3.953125 4.390625 C4.10007812 5.31101562 4.10007812 5.31101562 4.25 6.25 C2.6 7.57 0.95 8.89 -0.75 10.25 C-1.760625 9.755 -2.77125 9.26 -3.8125 8.75 C-7.61459153 7.14790901 -10.59613929 6.72132682 -14.75 7.25 C-18.45390021 9.27666238 -20.40363011 10.73044516 -22.75 14.25 C-24.05063788 20.25294405 -23.97581311 23.7661177 -20.75 29.25 C-16.92406791 32.84405742 -12.94103702 32.54279227 -7.95703125 32.453125 C-5.70928571 32.38104242 -5.70928571 32.38104242 -3.75 31.25 C-3.34270772 28.92843403 -3.00561323 26.5931213 -2.75 24.25 C-6.05 24.25 -9.35 24.25 -12.75 24.25 C-12.75 21.61 -12.75 18.97 -12.75 16.25 C-6.48 16.25 -0.21 16.25 6.25 16.25 C7.0837469 32.68672457 7.0837469 32.68672457 4.9375 36.7109375 C0.35968894 40.73695883 -5.15950111 42.01013899 -11.125 42.5625 C-16.99990293 42.05604285 -23.4495866 40.5504134 -27.75 36.25 C-27.75 35.59 -27.75 34.93 -27.75 34.25 C-28.41 34.25 -29.07 34.25 -29.75 34.25 C-33.64416778 27.2729494 -34.07778761 19.3627454 -32.0703125 11.6328125 C-31.25 9.4375 -31.25 9.4375 -29.75 6.25 C-29.09 6.25 -28.43 6.25 -27.75 6.25 C-27.35748047 5.32960938 -27.35748047 5.32960938 -26.95703125 4.390625 C-22.08562388 -4.24863467 -7.85963961 -3.5622827 0 0 Z " fill="#50504F" transform="translate(210.75,15.75)"/>
<path d="M0 0 C0.56976563 0.32355469 1.13953125 0.64710937 1.7265625 0.98046875 C2.0565625 0.65046875 2.3865625 0.32046875 2.7265625 -0.01953125 C5.3665625 -0.01953125 8.0065625 -0.01953125 10.7265625 -0.01953125 C10.7265625 9.88046875 10.7265625 19.78046875 10.7265625 29.98046875 C8.0865625 29.98046875 5.4465625 29.98046875 2.7265625 29.98046875 C2.3965625 29.32046875 2.0665625 28.66046875 1.7265625 27.98046875 C0.7778125 28.51671875 -0.1709375 29.05296875 -1.1484375 29.60546875 C-5.32825188 31.38104031 -8.61654114 30.97420394 -12.96484375 29.921875 C-17.25094839 28.1740726 -19.22956701 25.06820973 -21.2734375 20.98046875 C-21.95513293 13.615923 -22.02278542 7.85466223 -17.2734375 1.98046875 C-12.27770279 -1.62110744 -5.70380039 -2.55788987 0 0 Z M-11.1484375 8.35546875 C-13.44556547 11.67354248 -13.74787498 13.94775015 -13.2734375 17.98046875 C-11.35677083 21.06380208 -11.35677083 21.06380208 -8.2734375 22.98046875 C-4.45449209 23.04631264 -2.29371938 22.83618904 0.6640625 20.35546875 C2.16356116 17.00364822 2.18033723 14.61066657 1.7265625 10.98046875 C0.30989583 8.39713542 0.30989583 8.39713542 -2.2734375 6.98046875 C-7.00983569 6.35702303 -7.00983569 6.35702303 -11.1484375 8.35546875 Z " fill="#515050" transform="translate(241.2734375,27.01953125)"/>
<path d="M0 0 C3.54139265 2.61388505 4.92187281 4.87619671 6.625 8.9375 C6.625 11.9075 6.625 14.8775 6.625 17.9375 C-0.635 17.9375 -7.895 17.9375 -15.375 17.9375 C-13.60756629 21.34234981 -13.60756629 21.34234981 -9.625 21.75 C-5.79842247 22.1131059 -2.93883193 21.45212857 0.625 19.9375 C1.945 21.2575 3.265 22.5775 4.625 23.9375 C3.69966668 26.25083329 3.05144502 27.65419736 0.94921875 29.05078125 C-2.05914145 30.19850859 -4.59689159 30.2388476 -7.8125 30.25 C-9.48119141 30.27513672 -9.48119141 30.27513672 -11.18359375 30.30078125 C-15.94898721 29.75833132 -18.46129272 27.95273031 -21.625 24.4375 C-24.8391064 19.84591944 -25.00717093 15.36513901 -24.375 9.9375 C-22.96825387 5.59014601 -20.84189433 3.30167757 -17.25 0.5 C-11.68399385 -2.27701812 -5.79273259 -1.82363804 0 0 Z M-14.375 7.9375 C-14.705 8.9275 -15.035 9.9175 -15.375 10.9375 C-10.755 10.9375 -6.135 10.9375 -1.375 10.9375 C-3.62458334 8.35416771 -3.62458334 8.35416771 -6.375 5.9375 C-10.11085209 5.9375 -11.39040871 5.98207812 -14.375 7.9375 Z " fill="#504F4E" transform="translate(301.375,27.0625)"/>
<path d="M0 0 C2.97 0 5.94 0 9 0 C11.55625728 5.64139539 13.81624371 11.17664991 16 17 C18.31 11.39 20.62 5.78 23 0 C25.97 0 28.94 0 32 0 C31.3569672 3.87458265 30.20352738 7.21202335 28.671875 10.82421875 C28.20136719 11.93603516 27.73085937 13.04785156 27.24609375 14.19335938 C26.75238281 15.34642578 26.25867188 16.49949219 25.75 17.6875 C25.27175781 18.82123047 24.79351562 19.95496094 24.30078125 21.12304688 C16.4720803 39.5279197 16.4720803 39.5279197 14 42 C11.32941149 42.14115161 8.67567762 42.04247107 6 42 C6.48296485 38.81243199 7.25228924 36.45660779 8.625 33.5 C10.706083 28.20269783 8.99017577 24.6652757 6.93359375 19.55078125 C6.53076172 18.53822266 6.12792969 17.52566406 5.71289062 16.48242188 C5.08157227 14.91331055 5.08157227 14.91331055 4.4375 13.3125 C3.59979166 11.22649183 2.76500118 9.13930873 1.93359375 7.05078125 C1.56290771 6.12950439 1.19222168 5.20822754 0.81030273 4.2590332 C0 2 0 2 0 0 Z " fill="#4F4F4E" transform="translate(144,27)"/>
<path d="M0 0 C2.64 0 5.28 0 8 0 C8 2.64 8 5.28 8 8 C10.64 8 13.28 8 16 8 C16 10.31 16 12.62 16 15 C13.36 15 10.72 15 8 15 C8.33 19.62 8.66 24.24 9 29 C11.31 29.33 13.62 29.66 16 30 C16.33 32.31 16.66 34.62 17 37 C13.54260443 38.72869779 9.78024432 38.48966895 6 38 C3.12970131 36.20606332 1.50868362 35.01736724 0 32 C-0.07194869 29.11629667 -0.09291708 26.25760336 -0.0625 23.375 C-0.05798828 22.57320312 -0.05347656 21.77140625 -0.04882812 20.9453125 C-0.03703168 18.96350994 -0.01909605 16.98174567 0 15 C-1.98 15 -3.96 15 -6 15 C-6.04254356 13.00045254 -6.04080783 10.99958364 -6 9 C-5 8 -5 8 -2.4375 7.9375 C-1.2309375 7.9684375 -1.2309375 7.9684375 0 8 C0 5.36 0 2.72 0 0 Z " fill="#4E4D4C" transform="translate(260,19)"/>
<path d="M0 0 C0.66 0 1.32 0 2 0 C4.47105763 5.76415788 4.32299945 11.30189891 4.3359375 17.4609375 C4.3425943 18.56547272 4.3492511 19.67000793 4.35610962 20.80801392 C4.36621381 23.13957052 4.37092733 25.4711559 4.37060547 27.80273438 C4.37497657 31.35595688 4.41131612 34.90793467 4.44921875 38.4609375 C4.45508787 40.73176661 4.45905663 43.00260159 4.4609375 45.2734375 C4.47530853 46.32888763 4.48967957 47.38433777 4.50448608 48.47177124 C4.45886481 55.89400133 3.400246 61.599754 -2.0625 67.0625 C-4 68 -4 68 -7 67 C-6.67 65.35 -6.34 63.7 -6 62 C-5.34 62 -4.68 62 -4 62 C-3.67 60.35 -3.34 58.7 -3 57 C-2.67 57.66 -2.34 58.32 -2 59 C-1.01 58.505 -1.01 58.505 0 58 C0 57.01 0 56.02 0 55 C0.66 55 1.32 55 2 55 C1.88231023 48.66441544 1.75748057 42.3290004 1.62768555 35.99365234 C1.58437309 33.83841135 1.54269537 31.68313686 1.50268555 29.52783203 C1.44489382 26.42991033 1.38122477 23.33215666 1.31640625 20.234375 C1.29969376 19.27070007 1.28298126 18.30702515 1.26576233 17.31414795 C1.24581711 16.41351624 1.22587189 15.51288452 1.20532227 14.58496094 C1.18977798 13.79442322 1.1742337 13.0038855 1.15821838 12.18939209 C1.00108067 10.01495412 0.5396853 8.10628693 0 6 C-0.03845443 4.00036972 -0.04544281 1.99948367 0 0 Z " fill="#E69B48" transform="translate(76,10)"/>
<path d="M0 0 C16.83 0 33.66 0 51 0 C51 0.33 51 0.66 51 1 C42.09074434 2.08380636 33.19337951 2.33018006 24.22998047 2.55761719 C21.61011745 2.62538497 18.99066345 2.7030393 16.37109375 2.78125 C14.69793255 2.826117 13.02475579 2.87040858 11.3515625 2.9140625 C10.18278061 2.94990952 10.18278061 2.94990952 8.99038696 2.98648071 C5.4616353 3.06822239 2.39221349 2.9572538 -1 2 C-0.67 1.34 -0.34 0.68 0 0 Z " fill="#BA635A" transform="translate(15,1)"/>
<path d="M0 0 C-0.66 0 -1.32 0 -2 0 C-2.226875 0.61875 -2.45375 1.2375 -2.6875 1.875 C-4 4 -4 4 -6.5 4.9375 C-9.2048276 5.76816217 -9.2048276 5.76816217 -10.1875 8.375 C-10.5896875 9.674375 -10.5896875 9.674375 -11 11 C-11.391875 11.721875 -11.78375 12.44375 -12.1875 13.1875 C-12.455625 13.785625 -12.72375 14.38375 -13 15 C-12.67 15.66 -12.34 16.32 -12 17 C-11.86584528 19.6723621 -11.95681459 22.32250488 -12 25 C-13.32 25.33 -14.64 25.66 -16 26 C-16.75489859 10.88105878 -16.75489859 10.88105878 -12 5 C-5.23866827 -1.57160048 -5.23866827 -1.57160048 0 0 Z " fill="#E25B69" transform="translate(16,3)"/>
<path d="M0 0 C0.99 0 1.98 0 3 0 C3.0825 1.11375 3.165 2.2275 3.25 3.375 C3.57873787 7.05753944 3.57873787 7.05753944 6.0625 8.4375 C6.701875 8.623125 7.34125 8.80875 8 9 C8 9.66 8 10.32 8 11 C10.64738916 12.4606285 11.89448334 13 15 13 C15 13.66 15 14.32 15 15 C19.95 15 24.9 15 30 15 C30.33 15.66 30.66 16.32 31 17 C13.14350797 17.738041 13.14350797 17.738041 5 13 C5 12.34 5 11.68 5 11 C4.34 11 3.68 11 3 11 C2.30034557 9.73581754 1.61565237 8.46334598 0.9375 7.1875 C0.55464844 6.47980469 0.17179688 5.77210937 -0.22265625 5.04296875 C-1 3 -1 3 0 0 Z " fill="#D45464" transform="translate(1,64)"/>
<path d="M0 0 C0.99 0 1.98 0 3 0 C3 0.66 3 1.32 3 2 C7.95 2 12.9 2 18 2 C18.33 2.66 18.66 3.32 19 4 C16.2291017 4.02696009 13.4584655 4.04681952 10.6875 4.0625 C9.50897461 4.07506836 9.50897461 4.07506836 8.30664062 4.08789062 C7.54931641 4.09111328 6.79199219 4.09433594 6.01171875 4.09765625 C4.96697388 4.10551147 4.96697388 4.10551147 3.90112305 4.11352539 C2 4 2 4 -1 3 C-0.67 2.01 -0.34 1.02 0 0 Z " fill="#C65F5F" transform="translate(13,77)"/>
<path d="M0 0 C12.66970387 -0.738041 12.66970387 -0.738041 18 4 C17.67 4.66 17.34 5.32 17 6 C15.68 6 14.36 6 13 6 C13 4.68 13 3.36 13 2 C12.01 2.33 11.02 2.66 10 3 C9.030625 2.835 8.06125 2.67 7.0625 2.5 C4.1932158 2.03154544 2.69288256 2.06784834 0 3 C0 2.01 0 1.02 0 0 Z " fill="#EF9651" transform="translate(56,2)"/>
<path d="M0 0 C1.485 0.99 1.485 0.99 3 2 C3.29296875 4.3828125 3.29296875 4.3828125 3.1875 7.125 C3.16042969 8.03507812 3.13335938 8.94515625 3.10546875 9.8828125 C3.07066406 10.58148438 3.03585938 11.28015625 3 12 C1.68 12.33 0.36 12.66 -1 13 C-1.02686553 11.02090602 -1.04633375 9.04171029 -1.0625 7.0625 C-1.07410156 5.96035156 -1.08570312 4.85820312 -1.09765625 3.72265625 C-1 1 -1 1 0 0 Z " fill="#F45E76" transform="translate(1,16)"/>
<path d="M0 0 C0.33 0.66 0.66 1.32 1 2 C1.66 2.33 2.32 2.66 3 3 C3 5.31 3 7.62 3 10 C1.68 10 0.36 10 -1 10 C-1.02689216 8.52093108 -1.04634621 7.04172517 -1.0625 5.5625 C-1.07410156 4.73878906 -1.08570312 3.91507813 -1.09765625 3.06640625 C-1 1 -1 1 0 0 Z " fill="#F45E73" transform="translate(1,40)"/>
<path d="M0 0 C0.99 0.495 0.99 0.495 2 1 C2.5625 3.25 2.5625 3.25 3 6 C3.185625 6.928125 3.37125 7.85625 3.5625 8.8125 C3.706875 9.534375 3.85125 10.25625 4 11 C2.68 11.99 1.36 12.98 0 14 C0 9.38 0 4.76 0 0 Z " fill="#F76278" transform="translate(0,51)"/>
<path d="M0 0 C0.66 0 1.32 0 2 0 C3.44207941 2.88415883 3.09394887 5.41721528 3.0625 8.625 C3.05347656 9.81351563 3.04445313 11.00203125 3.03515625 12.2265625 C3.02355469 13.14179688 3.01195313 14.05703125 3 15 C2.67 15 2.34 15 2 15 C0.73694665 9.92523206 -0.27036084 5.27203646 0 0 Z " fill="#F09F4A" transform="translate(76,10)"/>
<path d="M0 0 C2.875 0.25 2.875 0.25 6 1 C7.375 3.0625 7.375 3.0625 8 5 C7.34 5.66 6.68 6.32 6 7 C1.125 2.25 1.125 2.25 0 0 Z " fill="#BE5C50" transform="translate(34,63)"/>
<path d="M0 0 C1.231394 2.46278801 1.07159196 4.2795055 1 7 C-0.65 7.66 -2.3 8.32 -4 9 C-2.94124926 5.59687262 -1.99097846 2.98646769 0 0 Z " fill="#C7515C" transform="translate(4,8)"/>
<path d="M0 0 C0.33 1.32 0.66 2.64 1 4 C-1.31 4 -3.62 4 -6 4 C-4 1 -4 1 -1.875 0.3125 C-1.25625 0.209375 -0.6375 0.10625 0 0 Z " fill="#DE845C" transform="translate(56,76)"/>
<path d="M0 0 C0.99 0 1.98 0 3 0 C3 0.99 3 1.98 3 3 C4.98 3 6.96 3 9 3 C9 3.33 9 3.66 9 4 C2.375 4.125 2.375 4.125 -1 3 C-0.67 2.01 -0.34 1.02 0 0 Z " fill="#BE5460" transform="translate(13,77)"/>
</svg>
