<?xml version="1.0" encoding="UTF-8"?>
<svg version="1.1" xmlns="http://www.w3.org/2000/svg" width="251" height="69">
<path d="M0 0 C1.08869385 0.00684814 2.1773877 0.01369629 3.29907227 0.02075195 C11.96878512 0.19269085 19.54088985 1.30260192 27.6875 4.4375 C29.06035156 4.9634375 29.06035156 4.9634375 30.4609375 5.5 C37.42523972 8.5857216 45.74577029 13.88436258 48.81445312 21.08007812 C49.10255859 21.85802734 49.39066406 22.63597656 49.6875 23.4375 C48.89279297 23.31632812 48.09808594 23.19515625 47.27929688 23.0703125 C44.24625904 22.61368839 41.21185943 22.16782817 38.17626953 21.72851562 C36.25045355 21.44671196 34.32635639 21.15323864 32.40234375 20.859375 C22.88787201 19.49319444 14.50443707 19.4375 4.6875 19.4375 C4.3575 35.6075 4.0275 51.7775 3.6875 68.4375 C1.7075 68.4375 -0.2725 68.4375 -2.3125 68.4375 C-2.6425 52.2675 -2.9725 36.0975 -3.3125 19.4375 C-13.96229263 19.4375 -23.30551033 19.71077929 -33.625 21.4375 C-35.97500278 21.81411117 -38.32525204 22.1891885 -40.67578125 22.5625 C-41.68938721 22.73007812 -42.70299316 22.89765625 -43.74731445 23.0703125 C-46.3125 23.4375 -46.3125 23.4375 -49.3125 23.4375 C-47.69246516 17.49737224 -43.76265486 13.56151087 -38.61279297 10.39111328 C-36.63931644 9.27363918 -34.64456248 8.21926938 -32.625 7.1875 C-31.99062012 6.85838623 -31.35624023 6.52927246 -30.70263672 6.19018555 C-20.8832876 1.41231433 -10.83542609 -0.10567436 0 0 Z " fill="#2D4F9C" transform="translate(52.3125,-0.4375)"/>
<path d="M0 0 C1.43267212 -0.05099854 1.43267212 -0.05099854 2.89428711 -0.10302734 C6.24474582 0.467385 7.41162779 1.68944786 9.47265625 4.3359375 C10.01728143 12.99807127 6.51357081 22.72104485 4.47265625 31.0859375 C4.21178223 32.15811523 3.9509082 33.23029297 3.68212891 34.33496094 C3.42737793 35.34075195 3.17262695 36.34654297 2.91015625 37.3828125 C2.56791016 38.74164551 2.56791016 38.74164551 2.21875 40.12792969 C1.47265625 42.3359375 1.47265625 42.3359375 -0.52734375 44.3359375 C-14.14468048 40.39598807 -24.95534291 35.22748768 -33.52734375 23.3359375 C-35.59873764 19.32010612 -35.74296361 16.00912035 -35.65234375 11.5234375 C-35.63429687 10.36199219 -35.61625 9.20054688 -35.59765625 8.00390625 C-35.57445312 7.12347656 -35.55125 6.24304688 -35.52734375 5.3359375 C-30.10411069 2.96728136 -24.79872208 2.41372801 -18.96484375 1.7109375 C-17.94326172 1.576875 -16.92167969 1.4428125 -15.86914062 1.3046875 C-10.58852402 0.65169012 -5.31871493 0.18254056 0 0 Z " fill="#2D4F9D" transform="translate(35.52734375,22.6640625)"/>
<path d="M0 0 C1.05703125 0.13470703 2.1140625 0.26941406 3.203125 0.40820312 C11.55119466 1.49408782 11.55119466 1.49408782 15.5 2.5625 C17.05196019 11.30991199 16.0029354 18.29575132 10.9375 25.75 C3.2472669 35.09891083 -7.97065389 39.76910061 -19.5 42.5625 C-22.15215163 35.10931485 -24.02144065 27.59058411 -25.75 19.875 C-26.03101563 18.67810547 -26.31203125 17.48121094 -26.6015625 16.24804688 C-26.86195312 15.08982422 -27.12234375 13.93160156 -27.390625 12.73828125 C-27.62813477 11.69583252 -27.86564453 10.65338379 -28.11035156 9.5793457 C-28.53939765 6.25746447 -28.39170975 3.78962634 -27.5 0.5625 C-20.22645362 -4.28653092 -8.27742777 -1.1178687 0 0 Z " fill="#2D4F9E" transform="translate(89.5,24.4375)"/>
<path d="M0 0 C4.95 0 9.9 0 15 0 C16.42591306 4.680863 17.85003119 9.36226676 19.27246094 14.04418945 C19.75698879 15.63809098 20.24201386 17.23184145 20.72753906 18.82543945 C21.42382322 21.11109878 22.11833936 23.39728875 22.8125 25.68359375 C23.03123779 26.40026718 23.24997559 27.11694061 23.4753418 27.85533142 C25 32.88612829 25 32.88612829 25 34 C21.04 34 17.08 34 13 34 C12.65066406 32.71222656 12.30132812 31.42445312 11.94140625 30.09765625 C11.48194678 28.41922266 11.02230178 26.74083985 10.5625 25.0625 C10.33240234 24.21236328 10.10230469 23.36222656 9.86523438 22.48632812 C9.64287109 21.67744141 9.42050781 20.86855469 9.19140625 20.03515625 C8.88505249 18.91185913 8.88505249 18.91185913 8.57250977 17.76586914 C8.14608201 15.99456078 8.14608201 15.99456078 7 15 C5.35 21.27 3.7 27.54 2 34 C-1.96 34 -5.92 34 -10 34 C-7.34668061 22.45025678 -3.65781034 11.26405157 0 0 Z " fill="#2D4F9B" transform="translate(161,14)"/>
<path d="M0 0 C4.62 0 9.24 0 14 0 C16.44604904 6.3522012 18.61202077 12.76791874 20.6875 19.25 C21.00783203 20.2296875 21.32816406 21.209375 21.65820312 22.21875 C22.11163086 23.63414063 22.11163086 23.63414063 22.57421875 25.078125 C22.84838623 25.92793945 23.12255371 26.77775391 23.4050293 27.65332031 C24 30 24 30 24 34 C20.37 34 16.74 34 13 34 C11.02 27.4 9.04 20.8 7 14 C5.39575953 20.206914 5.39575953 20.206914 3.79907227 26.41577148 C3.59854248 27.18477783 3.3980127 27.95378418 3.19140625 28.74609375 C2.98717041 29.53685303 2.78293457 30.3276123 2.57250977 31.14233398 C2 33 2 33 1 34 C-0.85287502 34.07226502 -2.70833878 34.0838122 -4.5625 34.0625 C-5.57441406 34.05347656 -6.58632812 34.04445312 -7.62890625 34.03515625 C-8.41136719 34.02355469 -9.19382813 34.01195312 -10 34 C-8.48020523 26.45701858 -6.26246686 19.24753545 -3.875 11.9375 C-3.50246094 10.78572266 -3.12992188 9.63394531 -2.74609375 8.44726562 C-1.83438653 5.63032408 -0.91770104 2.81499459 0 0 Z " fill="#2F4E9B" transform="translate(226,14)"/>
<path d="M0 0 C11.22 0 22.44 0 34 0 C34 3.63 34 7.26 34 11 C30.04 11 26.08 11 22 11 C22 18.59 22 26.18 22 34 C18.37 34 14.74 34 11 34 C11 26.41 11 18.82 11 11 C7.37 11 3.74 11 0 11 C0 7.37 0 3.74 0 0 Z " fill="#2C509B" transform="translate(185,14)"/>
<path d="M0 0 C10.89 0 21.78 0 33 0 C33 3.63 33 7.26 33 11 C29.37 11 25.74 11 22 11 C22 18.59 22 26.18 22 34 C18.37 34 14.74 34 11 34 C11 26.41 11 18.82 11 11 C7.37 11 3.74 11 0 11 C0 7.37 0 3.74 0 0 Z " fill="#2D4F9C" transform="translate(120,14)"/>
<path d="M0 0 C1.65 0 3.3 0 5 0 C5 1.32 5 2.64 5 4 C4.01 4 3.02 4 2 4 C2 4.66 2 5.32 2 6 C2.99 6 3.98 6 5 6 C4.67 6.99 4.34 7.98 4 9 C1.69 7.02 -0.62 5.04 -3 3 C-2.01 2.67 -1.02 2.34 0 2 C0 1.34 0 0.68 0 0 Z " fill="#2D528E" transform="translate(11,50)"/>
<path d="M0 0 C1.98 0 3.96 0 6 0 C6 0.66 6 1.32 6 2 C3 4 3 4 0 4 C0 2.68 0 1.36 0 0 Z " fill="#285491" transform="translate(86,56)"/>
<path d="M0 0 C0.66 0.66 1.32 1.32 2 2 C3.31747324 2.69748583 4.64914193 3.36959957 6 4 C3.36 4.33 0.72 4.66 -2 5 C-1.34 3.35 -0.68 1.7 0 0 Z " fill="#374B98" transform="translate(5,18)"/>
</svg>
