<?xml version="1.0" encoding="UTF-8"?>
<svg version="1.1" xmlns="http://www.w3.org/2000/svg" width="234" height="72">
<path d="M0 0 C4.96758324 3.82695791 7.52777789 8.67100722 9.8203125 14.40234375 C9.8203125 18.03234375 9.8203125 21.66234375 9.8203125 25.40234375 C-3.5446875 25.89734375 -3.5446875 25.89734375 -17.1796875 26.40234375 C-17.1796875 27.06234375 -17.1796875 27.72234375 -17.1796875 28.40234375 C-15.2925 28.71171875 -15.2925 28.71171875 -13.3671875 29.02734375 C-12.65949219 29.14335938 -11.95179687 29.259375 -11.22265625 29.37890625 C-8.86212926 29.59812223 -8.86212926 29.59812223 -6.1796875 27.40234375 C-3.83984375 27.35546875 -3.83984375 27.35546875 -1.2421875 27.65234375 C-0.38753906 27.74 0.46710938 27.82765625 1.34765625 27.91796875 C3.81758848 28.40181013 5.64014972 29.16809846 7.8203125 30.40234375 C6.66380423 35.31750389 3.76175636 37.3124574 -0.109375 40.16796875 C-5.48922365 43.37557662 -12.44739033 43.22383723 -18.43359375 41.90625 C-24.42490474 39.89398805 -27.93395747 36.67902277 -30.9921875 31.08984375 C-31.3840625 30.20296875 -31.7759375 29.31609375 -32.1796875 28.40234375 C-34.35187569 30.35265186 -34.35187569 30.35265186 -35.5546875 33.27734375 C-37.84858968 37.68869409 -39.64997243 39.79045772 -44.3046875 41.65234375 C-52.71352841 43.27986135 -60.86641694 43.27785746 -68.1796875 38.40234375 C-68.1796875 37.74234375 -68.1796875 37.08234375 -68.1796875 36.40234375 C-68.8396875 36.40234375 -69.4996875 36.40234375 -70.1796875 36.40234375 C-72.66156168 31.32122879 -73.54430064 27.69293289 -73.47265625 21.9375 C-73.46841141 21.25932724 -73.46416656 20.58115448 -73.45979309 19.88243103 C-73.44316691 17.74280973 -73.40554924 15.60417428 -73.3671875 13.46484375 C-73.35211972 12.00326893 -73.338435 10.54167917 -73.32617188 9.08007812 C-73.29331727 5.52051978 -73.24164991 1.96152819 -73.1796875 -1.59765625 C-71.59789135 -1.70632927 -70.01391597 -1.78355452 -68.4296875 -1.84765625 C-67.54796875 -1.8940625 -66.66625 -1.94046875 -65.7578125 -1.98828125 C-63.1796875 -1.59765625 -63.1796875 -1.59765625 -60.88085938 0.07202148 C-58.79776928 2.92550813 -58.69455804 4.43258703 -58.7109375 7.9375 C-58.69675781 8.99388672 -58.68257812 10.05027344 -58.66796875 11.13867188 C-58.67183594 12.23630859 -58.67570312 13.33394531 -58.6796875 14.46484375 C-58.68733547 16.64324065 -58.67771099 18.82178638 -58.6484375 21 C-58.65294922 21.96429932 -58.65746094 22.92859863 -58.66210938 23.92211914 C-58.3805153 26.50883153 -58.3805153 26.50883153 -56.46289062 28.30249023 C-53.82823476 29.85399766 -53.82823476 29.85399766 -49.1796875 28.40234375 C-48.8496875 18.50234375 -48.5196875 8.60234375 -48.1796875 -1.59765625 C-43.2296875 -1.59765625 -38.2796875 -1.59765625 -33.1796875 -1.59765625 C-32.6846875 5.33234375 -32.6846875 5.33234375 -32.1796875 12.40234375 C-31.6434375 11.18546875 -31.1071875 9.96859375 -30.5546875 8.71484375 C-27.90966344 3.45273603 -24.81041685 0.65791912 -19.4296875 -1.91015625 C-12.55661179 -3.36407611 -6.23952736 -3.54920483 0 0 Z M-19.1796875 14.40234375 C-19.1796875 14.73234375 -19.1796875 15.06234375 -19.1796875 15.40234375 C-14.2296875 15.40234375 -9.2796875 15.40234375 -4.1796875 15.40234375 C-5.51532366 10.4577074 -5.51532366 10.4577074 -8.1796875 9.40234375 C-13.73070005 8.66220874 -15.6690001 10.16886777 -19.1796875 14.40234375 Z " fill="#CF1F1A" transform="translate(139.1796875,17.59765625)"/>
<path d="M0 0 C4.83799361 -0.09951569 9.67538025 -0.17177037 14.51416016 -0.21972656 C16.1571695 -0.23973571 17.80010859 -0.26695213 19.44287109 -0.30175781 C21.81625788 -0.35075305 24.18869649 -0.37307504 26.5625 -0.390625 C27.64893799 -0.42159271 27.64893799 -0.42159271 28.75732422 -0.45318604 C35.19205705 -0.45596282 39.99420953 1.79099128 45.13671875 5.5703125 C51.99967333 12.45055412 55.47118211 19.14761972 55.625 29 C55.47655285 37.28123042 53.52192083 43.16209375 47.91015625 49.27734375 C41.15224545 55.66559106 35.20639284 58.49708074 25.87890625 58.29296875 C25.13414536 58.28872391 24.38938446 58.28447906 23.62205505 58.28010559 C21.26848527 58.26345724 18.91580621 58.22583375 16.5625 58.1875 C14.95639267 58.17243515 13.35027177 58.15874991 11.74414062 58.14648438 C7.82908953 58.11359952 3.91469521 58.06191626 0 58 C-0.08745946 54.6043303 -0.14054444 51.20895227 -0.1875 47.8125 C-0.21263672 46.85279297 -0.23777344 45.89308594 -0.26367188 44.90429688 C-0.35891146 35.72954997 -0.35891146 35.72954997 3 32 C6.81272616 30.87030336 8.99300806 30.57846849 12.6875 32.125 C15.21462661 34.17402157 16.98990193 36.45387577 19 39 C21.67643957 39.89214652 23.25384378 40.13540211 26 40.125 C27.0209375 40.12886719 27.0209375 40.12886719 28.0625 40.1328125 C30.21874781 40.06631126 30.21874781 40.06631126 33 39 C33.495 38.01 33.495 38.01 34 37 C34.66 37 35.32 37 36 37 C37.23615622 31.90085558 37.67479795 27.02439385 36 22 C33.99878825 19.63493157 33.03200339 19.0106678 30 18 C24.64780697 17.65469722 21.33002984 17.51192041 17 21 C16.38125 21.86625 15.7625 22.7325 15.125 23.625 C13 26 13 26 9.5 26.9375 C4.60349127 27.02493766 4.60349127 27.02493766 2 25 C0.09725653 21.91855836 -0.23912275 19.6080658 -0.1953125 16.015625 C-0.18886719 15.08105469 -0.18242187 14.14648438 -0.17578125 13.18359375 C-0.15902344 12.21550781 -0.14226562 11.24742188 -0.125 10.25 C-0.11597656 9.26644531 -0.10695312 8.28289063 -0.09765625 7.26953125 C-0.07412785 4.84610593 -0.04125368 2.42317778 0 0 Z " fill="#919192" transform="translate(179,1)"/>
<path d="M0 0 C3.36059895 2.78449627 4.75720724 5.52162173 6.125 9.625 C6.21108544 14.01535745 4.67390149 17.22820694 2.1875 20.8125 C1.1975 21.4725 0.2075 22.1325 -0.8125 22.8125 C-0.26278435 26.66050954 1.45787858 28.16559439 4.1875 30.8125 C6.50405296 34.35258446 6.4865567 37.52007556 6.5 41.6875 C6.51675781 42.88117187 6.53351563 44.07484375 6.55078125 45.3046875 C6.07692396 49.88021273 4.56503996 52.99523683 1.8046875 56.63671875 C-1.52759619 59.05946607 -5.82153471 58.79970844 -9.8125 58.8125 C-13.76642256 58.03890646 -14.58235374 57.11296872 -17.0625 53.875 C-20.26561459 48.26954947 -20.47548796 43.14963167 -19.8125 36.8125 C-18.75197219 33.8485795 -17.45117529 31.52655596 -15.8125 28.8125 C-15.1525 28.8125 -14.4925 28.8125 -13.8125 28.8125 C-12.86642193 26.06288489 -12.86642193 26.06288489 -12.8125 22.8125 C-14.45679829 21.12376121 -16.12634218 19.45944485 -17.8125 17.8125 C-19.56136714 14.3814598 -20.24330252 11.37905461 -19.2109375 7.625 C-17.74458092 4.38232528 -16.22996149 2.18357688 -13.5625 -0.1875 C-8.79605946 -1.92075111 -4.68737747 -1.97911493 0 0 Z " fill="#8D8D8E" transform="translate(170.8125,1.1875)"/>
<path d="M0 0 C1.58179615 -0.10867302 3.16577153 -0.18589827 4.75 -0.25 C5.63171875 -0.29640625 6.5134375 -0.3428125 7.421875 -0.390625 C10 0 10 0 12.29882812 1.66967773 C14.38191822 4.52316438 14.48512946 6.03024328 14.46875 9.53515625 C14.48292969 10.59154297 14.49710938 11.64792969 14.51171875 12.73632812 C14.50785156 13.83396484 14.50398438 14.93160156 14.5 16.0625 C14.49235203 18.2408969 14.50197651 20.41944263 14.53125 22.59765625 C14.52673828 23.56195557 14.52222656 24.52625488 14.51757812 25.51977539 C14.79021266 28.1276555 14.79021266 28.1276555 16.83007812 29.88452148 C19.08954803 31.34265291 19.08954803 31.34265291 22.1875 30.25 C24.852669 29.26699069 24.852669 29.26699069 26 28 C26.15825258 26.00217874 26.25119171 23.99911166 26.31640625 21.99609375 C26.35830078 20.78115234 26.40019531 19.56621094 26.44335938 18.31445312 C26.48267578 17.03505859 26.52199219 15.75566406 26.5625 14.4375 C26.60568359 13.15423828 26.64886719 11.87097656 26.69335938 10.54882812 C26.79984719 7.36602555 26.90046421 4.18302757 27 1 C30.96 1 34.92 1 39 1 C39.07451364 5.3049777 39.12877223 9.60960734 39.16479492 13.91503906 C39.17982196 15.37767075 39.20024955 16.84025782 39.22631836 18.30273438 C39.26297267 20.4128728 39.27978676 22.52241226 39.29296875 24.6328125 C39.3086792 25.90012207 39.32438965 27.16743164 39.34057617 28.47314453 C38.87828741 33.26040147 37.17355293 36.49114623 34.25 40.25 C28.68037731 44.58192876 21.75534233 44.54216231 15 44 C11.18208141 43.30064295 8.26443752 42.17629168 5 40 C5 39.34 5 38.68 5 38 C4.34 38 3.68 38 3 38 C0.51812582 32.91888504 -0.36461314 29.29058914 -0.29296875 23.53515625 C-0.28872391 22.85698349 -0.28447906 22.17881073 -0.28010559 21.48008728 C-0.26347941 19.34046598 -0.22586174 17.20183053 -0.1875 15.0625 C-0.17243222 13.60092518 -0.1587475 12.13933542 -0.14648438 10.67773438 C-0.11362977 7.11817603 -0.06196241 3.55918444 0 0 Z " fill="#DC201B" transform="translate(66,16)"/>
<path d="M0 0 C4.62 0 9.24 0 14 0 C14 3.3 14 6.6 14 10 C18.62 10 23.24 10 28 10 C28.47710843 18.11084337 28.47710843 18.11084337 26.625 21.5625 C22.55710116 23.79015889 18.53831648 23.31179274 14 23 C14.14100857 25.27113803 14.28796755 27.54190725 14.4375 29.8125 C14.51871094 31.07707031 14.59992187 32.34164062 14.68359375 33.64453125 C14.87184547 36.99181893 14.87184547 36.99181893 16 40 C19.96 40.33 23.92 40.66 28 41 C28 44.96 28 48.92 28 53 C10.35775615 53.76244991 10.35775615 53.76244991 5 49 C1.07296901 45.33612057 -0.0869331 41.76519173 -0.3046875 36.4765625 C-0.36211573 31.97579229 -0.21611906 27.49527649 0 23 C-1.98 23 -3.96 23 -6 23 C-6 18.71 -6 14.42 -6 10 C-4.02 10 -2.04 10 0 10 C0 6.7 0 3.4 0 0 Z " fill="#DD211D" transform="translate(7,6)"/>
<path d="M0 0 C0 4.29 0 8.58 0 13 C-3.05989583 13.42317708 -6.11979167 13.84635417 -9.1796875 14.26953125 C-12.31238846 14.74665741 -12.31238846 14.74665741 -14 18 C-14.36798693 20.71075544 -14.36798693 20.71075544 -14.4140625 23.76171875 C-14.47207031 25.43911133 -14.47207031 25.43911133 -14.53125 27.15039062 C-14.5621875 28.31763672 -14.593125 29.48488281 -14.625 30.6875 C-14.68300781 32.45577148 -14.68300781 32.45577148 -14.7421875 34.25976562 C-14.83654391 37.17301977 -14.92213161 40.08626607 -15 43 C-17.14576637 43.02685938 -19.29162645 43.04633088 -21.4375 43.0625 C-22.63246094 43.07410156 -23.82742187 43.08570313 -25.05859375 43.09765625 C-28 43 -28 43 -29 42 C-29.25558038 37.98588464 -29.18524213 33.95877096 -29.1875 29.9375 C-29.19974609 28.81666016 -29.21199219 27.69582031 -29.22460938 26.54101562 C-29.23771391 19.10200541 -29.24845908 12.37268861 -25 6 C-24.34 6 -23.68 6 -23 6 C-22.67 5.01 -22.34 4.02 -22 3 C-14.88886552 -0.76471825 -7.89238539 -0.2992899 0 0 Z " fill="#DE211C" transform="translate(65,16)"/>
<path d="M0 0 C4.62 0 9.24 0 14 0 C14 4.29 14 8.58 14 13 C9.45898438 13.63476562 9.45898438 13.63476562 4.91796875 14.26953125 C1.93559009 15.01612403 0.85776521 15.62075684 -1 18 C-1 16.02 -1 14.04 -1 12 C-0.34 12 0.32 12 1 12 C1 11.34 1 10.68 1 10 C4.63 10.33 8.26 10.66 12 11 C12 7.7 12 4.4 12 1 C8.04 1 4.08 1 0 1 C0 0.67 0 0.34 0 0 Z " fill="#A9221E" transform="translate(51,16)"/>
<path d="M0 0 C4.62 0 9.24 0 14 0 C14.47487437 8.07286432 14.47487437 8.07286432 12.6875 11.5625 C8.24736229 13.93745738 3.97317025 13.23681763 -1 13 C-1 16.63 -1 20.26 -1 24 C-1.33 24 -1.66 24 -2 24 C-2.02686553 22.02090602 -2.04633375 20.04171029 -2.0625 18.0625 C-2.07410156 16.96035156 -2.08570312 15.85820312 -2.09765625 14.72265625 C-2 12 -2 12 -1 11 C1.01964199 10.92755947 3.04167124 10.91622812 5.0625 10.9375 C6.71958984 10.95103516 6.71958984 10.95103516 8.41015625 10.96484375 C9.26480469 10.97644531 10.11945312 10.98804688 11 11 C11.33 7.7 11.66 4.4 12 1 C8.04 1 4.08 1 0 1 C0 0.67 0 0.34 0 0 Z " fill="#BF231F" transform="translate(21,16)"/>
<path d="M0 0 C0.66 0.33 1.32 0.66 2 1 C0.125 4.875 0.125 4.875 -1 6 C-1.06031037 9.61485258 -1.01994507 13.21586424 -0.9609375 16.83007812 C-0.89986685 22.79973371 -0.89986685 22.79973371 -2 25 C-2.66 25 -3.32 25 -4 25 C-4.02901394 21.5625177 -4.04680335 18.12506688 -4.0625 14.6875 C-4.07087891 13.71103516 -4.07925781 12.73457031 -4.08789062 11.72851562 C-4.09111328 10.79072266 -4.09433594 9.85292969 -4.09765625 8.88671875 C-4.10551147 7.59060669 -4.10551147 7.59060669 -4.11352539 6.26831055 C-4 4 -4 4 -3 1 C-2.01 0.67 -1.02 0.34 0 0 Z " fill="#836D6F" transform="translate(183,34)"/>
<path d="M0 0 C0.99 0.33 1.98 0.66 3 1 C2.91941151 4.79255672 2.80654683 8.58347092 2.6875 12.375 C2.66494141 13.45523438 2.64238281 14.53546875 2.61914062 15.6484375 C2.58369141 16.6796875 2.54824219 17.7109375 2.51171875 18.7734375 C2.48553467 19.72653809 2.45935059 20.67963867 2.43237305 21.66162109 C2.28968994 22.43328613 2.14700684 23.20495117 2 24 C1.01 24.66 0.02 25.32 -1 26 C-1.02886751 21.85418113 -1.04675327 17.70838784 -1.0625 13.5625 C-1.07087891 12.37849609 -1.07925781 11.19449219 -1.08789062 9.97460938 C-1.09111328 8.84990234 -1.09433594 7.72519531 -1.09765625 6.56640625 C-1.10289307 5.52427979 -1.10812988 4.48215332 -1.11352539 3.40844727 C-1 1 -1 1 0 0 Z " fill="#A91411" transform="translate(37,32)"/>
<path d="M0 0 C10 0 10 0 13 2 C12.67 2.99 12.34 3.98 12 5 C9.525 4.01 9.525 4.01 7 3 C7 2.67 7 2.34 7 2 C4.03 1.505 4.03 1.505 1 1 C1 10.24 1 19.48 1 29 C0.67 29 0.34 29 0 29 C0 19.43 0 9.86 0 0 Z " fill="#BD2F29" transform="translate(66,16)"/>
<path d="M0 0 C1.65 0 3.3 0 5 0 C4.01 0.33 3.02 0.66 2 1 C2 4.3 2 7.6 2 11 C3.32 11.33 4.64 11.66 6 12 C6 12.33 6 12.66 6 13 C4.02 13 2.04 13 0 13 C0 8.71 0 4.42 0 0 Z " fill="#B9332D" transform="translate(1,16)"/>
<path d="M0 0 C0.66 0.33 1.32 0.66 2 1 C0.28484687 4.59365417 -1.34807246 8.00216887 -4 11 C-4.66 11 -5.32 11 -6 11 C-5.45276317 7.62537285 -4.9451 5.91765 -3 3 C-2.34 3 -1.68 3 -1 3 C-0.67 2.01 -0.34 1.02 0 0 Z " fill="#A81612" transform="translate(43,19)"/>
<path d="M0 0 C0.99 0.33 1.98 0.66 3 1 C1.52307692 5.67692308 1.52307692 5.67692308 -1.125 7.3125 C-2.053125 7.6528125 -2.053125 7.6528125 -3 8 C-3 7.34 -3 6.68 -3 6 C-2.34 6 -1.68 6 -1 6 C-1 5.01 -1 4.02 -1 3 C-1.66 2.67 -2.32 2.34 -3 2 C-2.01 1.34 -1.02 0.68 0 0 Z " fill="#AF1D1F" transform="translate(144,47)"/>
<path d="M0 0 C0 0.99 0 1.98 0 3 C-0.99 3 -1.98 3 -3 3 C-3.33 3.99 -3.66 4.98 -4 6 C-4.66 6 -5.32 6 -6 6 C-3.84615385 0 -3.84615385 0 0 0 Z " fill="#CC2427" transform="translate(49,17)"/>
<path d="M0 0 C2.475 0.99 2.475 0.99 5 2 C4.67 2.99 4.34 3.98 4 5 C1.525 4.01 1.525 4.01 -1 3 C-0.67 2.01 -0.34 1.02 0 0 Z " fill="#C42128" transform="translate(74,16)"/>
</svg>
