<?xml version="1.0" encoding="UTF-8"?>
<svg version="1.1" xmlns="http://www.w3.org/2000/svg" width="232" height="68">
<path d="M0 0 C1.64331299 0.03951782 1.64331299 0.03951782 3.31982422 0.07983398 C4.85727295 0.14086304 4.85727295 0.14086304 6.42578125 0.203125 C7.32337158 0.23567383 8.22096191 0.26822266 9.14575195 0.30175781 C12.20592672 0.84142556 14.15922484 1.97013842 16.6875 3.75 C17.75 5.5 17.75 5.5 18.6875 7.75 C19.38363458 9.00683442 20.09293517 10.25643152 20.8125 11.5 C21.43125 12.5725 22.05 13.645 22.6875 14.75 C22.69007813 14.15832031 22.69265625 13.56664062 22.6953125 12.95703125 C22.91211534 8.52702657 23.28100547 6.27416401 26.0625 2.6875 C30.46111406 -0.36503216 35.58530661 -0.08316164 40.6875 0.75 C43.37717403 1.83050698 45.30357747 3.0547662 47.6875 4.75 C47.6875 5.74 47.6875 6.73 47.6875 7.75 C45.6875 9.4375 45.6875 9.4375 43.6875 10.75 C42.98625 10.255 42.285 9.76 41.5625 9.25 C38.26646166 7.53032782 36.3538563 7.26115249 32.6875 7.75 C32.0275 8.74 31.3675 9.73 30.6875 10.75 C31.3475 10.75 32.0075 10.75 32.6875 10.75 C33.1825 12.235 33.1825 12.235 33.6875 13.75 C37.19940809 14.97969878 37.19940809 14.97969878 40.6875 15.75 C40.6875 15.09 40.6875 14.43 40.6875 13.75 C43.6575 13.75 46.6275 13.75 49.6875 13.75 C49.6875 15.73 49.6875 17.71 49.6875 19.75 C50.6775 19.75 51.6675 19.75 52.6875 19.75 C53.0175 21.07 53.3475 22.39 53.6875 23.75 C57.25022219 16.62182688 57.25022219 16.62182688 57.6875 8.75 C58.6775 8.42 59.6675 8.09 60.6875 7.75 C62.40317661 4.24705129 62.40317661 4.24705129 63.6875 0.75 C65.6675 0.75 67.6475 0.75 69.6875 0.75 C73.5348894 7.32262355 76.74966427 14.06677932 79.87548828 21.00488281 C80.54378776 22.44114398 81.27722069 23.84691487 82.02734375 25.2421875 C86.63165989 34.45081977 84.6875 41.3791407 84.6875 52.75 C55.9775 52.75 27.2675 52.75 -2.3125 52.75 C-2.6425 51.76 -2.9725 50.77 -3.3125 49.75 C-3.9725 49.75 -4.6325 49.75 -5.3125 49.75 C-5.6425 50.74 -5.9725 51.73 -6.3125 52.75 C-8.9525 52.75 -11.5925 52.75 -14.3125 52.75 C-14.3125 47.14 -14.3125 41.53 -14.3125 35.75 C-23.8825 36.08 -33.4525 36.41 -43.3125 36.75 C-43.3125 31.14 -43.3125 25.53 -43.3125 19.75 C-44.9625 19.75 -46.6125 19.75 -48.3125 19.75 C-48.3125 25.03 -48.3125 30.31 -48.3125 35.75 C-57.00328295 38.64692765 -57.00328295 38.64692765 -62.3125 36.75 C-64.59890993 34.90985321 -65.69036517 33.28458567 -67.3125 30.75 C-67.3125 29.76 -67.3125 28.77 -67.3125 27.75 C-68.9625 27.75 -70.6125 27.75 -72.3125 27.75 C-72.3125 25.11 -72.3125 22.47 -72.3125 19.75 C-71.6525 19.75 -70.9925 19.75 -70.3125 19.75 C-70.745625 18.780625 -71.17875 17.81125 -71.625 16.8125 C-76.3125 5.85267857 -76.3125 5.85267857 -76.3125 0.75 C-74.0025 0.75 -71.6925 0.75 -69.3125 0.75 C-67.8518715 3.39738916 -67.3125 4.64448334 -67.3125 7.75 C-65.0025 7.75 -62.6925 7.75 -60.3125 7.75 C-60.3125 9.73 -60.3125 11.71 -60.3125 13.75 C-58.6625 13.75 -57.0125 13.75 -55.3125 13.75 C-53.6625 9.46 -52.0125 5.17 -50.3125 0.75 C-47.6725 0.75 -45.0325 0.75 -42.3125 0.75 C-43.07220078 4.10867712 -44.18343255 7.27123658 -45.375 10.5 C-45.73722656 11.48484375 -46.09945312 12.4696875 -46.47265625 13.484375 C-46.74980469 14.23203125 -47.02695313 14.9796875 -47.3125 15.75 C-45.0025 16.08 -42.6925 16.41 -40.3125 16.75 C-40.3125 11.47 -40.3125 6.19 -40.3125 0.75 C-26.86266196 0.03458308 -13.4677693 -0.42859838 0 0 Z M-32.3125 7.75 C-32.3125 9.73 -32.3125 11.71 -32.3125 13.75 C-27.3625 14.08 -22.4125 14.41 -17.3125 14.75 C-16.9825 16.73 -16.6525 18.71 -16.3125 20.75 C-24.2325 21.245 -24.2325 21.245 -32.3125 21.75 C-32.3125 24.06 -32.3125 26.37 -32.3125 28.75 C-25.3825 28.75 -18.4525 28.75 -11.3125 28.75 C-11.3125 30.4 -11.3125 32.05 -11.3125 33.75 C-10.6525 34.08 -9.9925 34.41 -9.3125 34.75 C-9.3125 25.84 -9.3125 16.93 -9.3125 7.75 C-16.9025 7.75 -24.4925 7.75 -32.3125 7.75 Z M-2.3125 7.75 C-2.3125 11.05 -2.3125 14.35 -2.3125 17.75 C-0.54200311 17.80410687 1.22896849 17.84284119 3 17.875 C4.47919922 17.90980469 4.47919922 17.90980469 5.98828125 17.9453125 C8.91156527 17.95682639 8.91156527 17.95682639 11.6875 15.75 C11.9377157 12.66634129 11.9377157 12.66634129 11.6875 9.75 C11.0275 9.75 10.3675 9.75 9.6875 9.75 C9.6875 9.09 9.6875 8.43 9.6875 7.75 C5.7275 7.75 1.7675 7.75 -2.3125 7.75 Z M66.6875 10.75 C64.7075 15.205 64.7075 15.205 62.6875 19.75 C65.3275 19.75 67.9675 19.75 70.6875 19.75 C69.6975 16.78 68.7075 13.81 67.6875 10.75 C67.3575 10.75 67.0275 10.75 66.6875 10.75 Z M20.6875 19.75 C20.6875 23.05 20.6875 26.35 20.6875 29.75 C21.6775 29.42 22.6675 29.09 23.6875 28.75 C24.0175 28.09 24.3475 27.43 24.6875 26.75 C25.6775 26.42 26.6675 26.09 27.6875 25.75 C27.6875 26.41 27.6875 27.07 27.6875 27.75 C31.58778225 30.35018816 35.16184569 29.90085514 39.6875 29.75 C39.6875 29.09 39.6875 28.43 39.6875 27.75 C40.3475 27.75 41.0075 27.75 41.6875 27.75 C41.6875 26.43 41.6875 25.11 41.6875 23.75 C34.38013189 20.638117 28.63805855 19.28909806 20.6875 19.75 Z M-58.3125 20.75 C-57.3125 22.75 -57.3125 22.75 -57.3125 22.75 Z M63.6875 20.75 C63.6875 21.08 63.6875 21.41 63.6875 21.75 C65.9975 21.75 68.3075 21.75 70.6875 21.75 C70.6875 21.42 70.6875 21.09 70.6875 20.75 C68.3775 20.75 66.0675 20.75 63.6875 20.75 Z M12.6875 21.75 C13.6875 23.75 13.6875 23.75 13.6875 23.75 Z M-2.3125 23.75 C-2.3125 24.08 -2.3125 24.41 -2.3125 24.75 C-0.6625 24.75 0.9875 24.75 2.6875 24.75 C2.6875 24.42 2.6875 24.09 2.6875 23.75 C1.0375 23.75 -0.6125 23.75 -2.3125 23.75 Z M3.6875 23.75 C3.6875 24.41 3.6875 25.07 3.6875 25.75 C1.7075 25.75 -0.2725 25.75 -2.3125 25.75 C-2.3125 29.38 -2.3125 33.01 -2.3125 36.75 C1.9775 36.75 6.2675 36.75 10.6875 36.75 C11.14666631 32.65861986 11.14666631 32.65861986 8.3125 30.25 C7.44625 29.425 6.58 28.6 5.6875 27.75 C4.375 25.4375 4.375 25.4375 3.6875 23.75 Z M51.6875 25.75 C52.6875 28.75 52.6875 28.75 52.6875 28.75 Z M47.6875 28.75 C48.6875 30.75 48.6875 30.75 48.6875 30.75 Z M-14.3125 30.75 C-14.3125 32.4 -14.3125 34.05 -14.3125 35.75 C-13.9825 35.75 -13.6525 35.75 -13.3125 35.75 C-13.3125 34.1 -13.3125 32.45 -13.3125 30.75 C-13.6425 30.75 -13.9725 30.75 -14.3125 30.75 Z M62.6875 31.75 C62.41118479 34.3329465 62.16578726 36.91274443 61.9375 39.5 C61.85628906 40.22960938 61.77507812 40.95921875 61.69140625 41.7109375 C61.38517202 45.45380027 61.30034568 47.25919806 63.671875 50.265625 C64.33703125 50.75546875 65.0021875 51.2453125 65.6875 51.75 C65.6875 48.45 65.6875 45.15 65.6875 41.75 C66.3475 41.75 67.0075 41.75 67.6875 41.75 C68.0175 43.07 68.3475 44.39 68.6875 45.75 C69.120625 45.29625 69.55375 44.8425 70 44.375 C71.6875 42.75 71.6875 42.75 74.6875 40.75 C74.3575 40.42 74.0275 40.09 73.6875 39.75 C73.23290142 37.09536879 72.98506762 34.42810862 72.6875 31.75 C69.3875 31.75 66.0875 31.75 62.6875 31.75 Z M32.6875 35.75 C32.6875 36.08 32.6875 36.41 32.6875 36.75 C34.9975 36.75 37.3075 36.75 39.6875 36.75 C39.6875 36.42 39.6875 36.09 39.6875 35.75 C37.3775 35.75 35.0675 35.75 32.6875 35.75 Z M3.6875 40.75 C3.6875 41.08 3.6875 41.41 3.6875 41.75 C5.6675 41.75 7.6475 41.75 9.6875 41.75 C9.6875 41.42 9.6875 41.09 9.6875 40.75 C7.7075 40.75 5.7275 40.75 3.6875 40.75 Z M14.6875 40.75 C14.6875 41.08 14.6875 41.41 14.6875 41.75 C17.3275 41.75 19.9675 41.75 22.6875 41.75 C22.6875 41.42 22.6875 41.09 22.6875 40.75 C20.0475 40.75 17.4075 40.75 14.6875 40.75 Z M2.6875 41.75 C2.6875 45.05 2.6875 48.35 2.6875 51.75 C3.0175 51.75 3.3475 51.75 3.6875 51.75 C3.6875 48.45 3.6875 45.15 3.6875 41.75 C3.3575 41.75 3.0275 41.75 2.6875 41.75 Z M52.6875 41.75 C52.6875 45.05 52.6875 48.35 52.6875 51.75 C53.0175 51.75 53.3475 51.75 53.6875 51.75 C53.6875 48.45 53.6875 45.15 53.6875 41.75 C53.3575 41.75 53.0275 41.75 52.6875 41.75 Z M74.6875 41.75 C75.0175 42.74 75.3475 43.73 75.6875 44.75 C75.6875 44.09 75.6875 43.43 75.6875 42.75 C76.3475 42.42 77.0075 42.09 77.6875 41.75 C76.6975 41.75 75.7075 41.75 74.6875 41.75 Z M22.6875 42.75 C23.6875 44.75 23.6875 44.75 23.6875 44.75 Z M12.6875 41.75 C10.3775 42.41 8.0675 43.07 5.6875 43.75 C5.6875 44.41 5.6875 45.07 5.6875 45.75 C9.78973585 46.76540112 9.78973585 46.76540112 13.6875 45.75 C13.3575 44.43 13.0275 43.11 12.6875 41.75 Z M55.6875 43.75 C59.6875 44.75 59.6875 44.75 59.6875 44.75 Z M79.6875 43.75 C79.6875 44.41 79.6875 45.07 79.6875 45.75 C80.6775 45.42 81.6675 45.09 82.6875 44.75 C81.6975 44.42 80.7075 44.09 79.6875 43.75 Z M15.6875 45.75 C15.6875 47.73 15.6875 49.71 15.6875 51.75 C16.0175 51.75 16.3475 51.75 16.6875 51.75 C16.6875 49.77 16.6875 47.79 16.6875 45.75 C16.3575 45.75 16.0275 45.75 15.6875 45.75 Z M42.6875 45.75 C43.6875 47.75 43.6875 47.75 43.6875 47.75 Z M76.6875 45.75 C77.6875 47.75 77.6875 47.75 77.6875 47.75 Z M24.6875 47.75 C25.6875 49.75 25.6875 49.75 25.6875 49.75 Z M60.6875 47.75 C61.6875 49.75 61.6875 49.75 61.6875 49.75 Z " fill="#5A505A" transform="translate(147.3125,15.25)"/>
<path d="M0 0 C1.82144531 0.00966797 1.82144531 0.00966797 3.6796875 0.01953125 C6.62349218 0.16305007 9.25016749 0.60935103 12.125 1.1875 C12.455 0.8575 12.785 0.5275 13.125 0.1875 C14.64428038 0.11570036 16.16667482 0.10357993 17.6875 0.125 C18.51378906 0.13402344 19.34007812 0.14304688 20.19140625 0.15234375 C20.82949219 0.16394531 21.46757813 0.17554687 22.125 0.1875 C22.125 2.1675 22.125 4.1475 22.125 6.1875 C24.105 6.1875 26.085 6.1875 28.125 6.1875 C28.125 15.7575 28.125 25.3275 28.125 35.1875 C27.795 35.1875 27.465 35.1875 27.125 35.1875 C27.125 31.2275 27.125 27.2675 27.125 23.1875 C25.475 23.5175 23.825 23.8475 22.125 24.1875 C22.125 27.8175 22.125 31.4475 22.125 35.1875 C20.145 35.1875 18.165 35.1875 16.125 35.1875 C16.125 36.1775 16.125 37.1675 16.125 38.1875 C15.135 38.5175 14.145 38.8475 13.125 39.1875 C11.84374478 41.13508944 11.84374478 41.13508944 10.875 43.5 C10.34132813 44.66982422 10.34132813 44.66982422 9.796875 45.86328125 C9.0538665 48.43357227 9.23749004 49.70133429 10.125 52.1875 C8.805 52.1875 7.485 52.1875 6.125 52.1875 C5.16429566 55.06961302 5.01918117 56.88600044 5.0625 59.875 C5.07152344 60.68324219 5.08054688 61.49148437 5.08984375 62.32421875 C5.10144531 62.93910156 5.11304688 63.55398437 5.125 64.1875 C2.125 65.1875 2.125 65.1875 -0.875 64.1875 C-0.875 65.1775 -0.875 66.1675 -0.875 67.1875 C-4.45144848 68.4255014 -7.21194766 67.93676071 -10.875 67.1875 C-10.978125 66.548125 -11.08125 65.90875 -11.1875 65.25 C-11.414375 64.569375 -11.64125 63.88875 -11.875 63.1875 C-13.36 62.6925 -13.36 62.6925 -14.875 62.1875 C-15.66018995 60.48625511 -16.43658472 58.77848761 -17.11328125 57.03125 C-17.90643494 54.97388129 -17.90643494 54.97388129 -19.5625 52.4375 C-20.875 50.1875 -20.875 50.1875 -20.875 47.1875 C-21.865 46.8575 -22.855 46.5275 -23.875 46.1875 C-23.875 44.8675 -23.875 43.5475 -23.875 42.1875 C-24.535 41.8575 -25.195 41.5275 -25.875 41.1875 C-26.98828125 39.4375 -26.98828125 39.4375 -28.1875 37.1875 C-29.52562029 34.68648946 -30.86456403 32.20508234 -32.3125 29.765625 C-32.993125 28.61320312 -32.993125 28.61320312 -33.6875 27.4375 C-34.10644531 26.74140625 -34.52539062 26.0453125 -34.95703125 25.328125 C-36.05983875 22.75647177 -36.18247273 20.95934374 -35.875 18.1875 C-35.215 17.5275 -34.555 16.8675 -33.875 16.1875 C-29.8524995 16.59680707 -26.24416716 18.09507106 -22.5 19.5625 C-21.35789062 20.0059375 -20.21578125 20.449375 -19.0390625 20.90625 C-16.60448832 21.89210226 -14.24434541 22.93523434 -11.875 24.0625 C-8.63854772 25.27616961 -7.11490814 25.26746938 -3.875 24.1875 C-3.59039501 21.26919217 -3.59039501 21.26919217 -5 19.5625 C-7.52113093 17.71367065 -9.80850175 17.52822203 -12.875 17.1875 C-12.875 14.5475 -12.875 11.9075 -12.875 9.1875 C-12.215 9.1875 -11.555 9.1875 -10.875 9.1875 C-10.771875 8.07375 -10.66875 6.96 -10.5625 5.8125 C-10.335625 4.61625 -10.10875 3.42 -9.875 2.1875 C-6.20702576 -0.25781616 -4.35988996 -0.05069639 0 0 Z M24.125 12.1875 C24.125 14.4975 24.125 16.8075 24.125 19.1875 C24.455 19.1875 24.785 19.1875 25.125 19.1875 C25.125 16.8775 25.125 14.5675 25.125 12.1875 C24.795 12.1875 24.465 12.1875 24.125 12.1875 Z M20.125 25.1875 C21.125 27.1875 21.125 27.1875 21.125 27.1875 Z M0.125 60.1875 C1.125 62.1875 1.125 62.1875 1.125 62.1875 Z " fill="#0383C8" transform="translate(35.875,-0.1875)"/>
<path d="M0 0 C1.98 0 3.96 0 6 0 C9.8473894 6.57262355 13.06216427 13.31677932 16.18798828 20.25488281 C16.85628776 21.69114398 17.58972069 23.09691487 18.33984375 24.4921875 C22.94415989 33.70081977 21 40.6291407 21 52 C-7.71 52 -36.42 52 -66 52 C-66.495 50.515 -66.495 50.515 -67 49 C-67.66 49 -68.32 49 -69 49 C-69.33 49.99 -69.66 50.98 -70 52 C-72.64 52 -75.28 52 -78 52 C-78 44.41 -78 36.82 -78 29 C-77.01 28.67 -76.02 28.34 -75 28 C-74.34 30.64 -73.68 33.28 -73 36 C-72.16227051 35.96970703 -71.32454102 35.93941406 -70.46142578 35.90820312 C-67.3566183 35.79610065 -64.25179952 35.68431821 -61.14697266 35.57275391 C-59.14094158 35.5005736 -57.13492385 35.42802266 -55.12890625 35.35546875 C-53.24365234 35.28779297 -53.24365234 35.28779297 -51.3203125 35.21875 C-50.15773926 35.17685547 -48.99516602 35.13496094 -47.79736328 35.09179688 C-46.19880994 35.03933955 -44.59941382 35 -43 35 C-42.505 34.01 -42.505 34.01 -42 33 C-42.639375 32.7525 -43.27875 32.505 -43.9375 32.25 C-46 31 -46 31 -46.75 28.875 C-46.8325 28.25625 -46.915 27.6375 -47 27 C-47.66 27 -48.32 27 -49 27 C-49 24 -49 24 -47.6875 22.3125 C-46 21 -46 21 -43 21 C-43 24.3 -43 27.6 -43 31 C-41.34015202 31.68346682 -39.67163195 32.34588315 -38 33 C-37.0925 33.37125 -36.185 33.7425 -35.25 34.125 C-28.84002915 35.85076138 -22.47116554 35.10147499 -16 34 C-15.97298592 31.89590361 -15.95359777 29.79170822 -15.9375 27.6875 C-15.92589844 26.51574219 -15.91429687 25.34398437 -15.90234375 24.13671875 C-15.85100102 20.96940805 -15.85100102 20.96940805 -17 18 C-17.825 17.67 -18.65 17.34 -19.5 17 C-20.325 16.67 -21.15 16.34 -22 16 C-22.495 14.515 -22.495 14.515 -23 13 C-20.03 13 -17.06 13 -14 13 C-14 14.98 -14 16.96 -14 19 C-13.01 19 -12.02 19 -11 19 C-10.505 20.98 -10.505 20.98 -10 23 C-6.43727781 15.87182688 -6.43727781 15.87182688 -6 8 C-5.01 7.67 -4.02 7.34 -3 7 C-1.28432339 3.49705129 -1.28432339 3.49705129 0 0 Z M3 10 C1.02 14.455 1.02 14.455 -1 19 C1.64 19 4.28 19 7 19 C6.01 16.03 5.02 13.06 4 10 C3.67 10 3.34 10 3 10 Z M0 20 C0 20.33 0 20.66 0 21 C2.31 21 4.62 21 7 21 C7 20.67 7 20.34 7 20 C4.69 20 2.38 20 0 20 Z M-12 25 C-11 28 -11 28 -11 28 Z M-1 31 C-1.27631521 33.5829465 -1.52171274 36.16274443 -1.75 38.75 C-1.83121094 39.47960938 -1.91242188 40.20921875 -1.99609375 40.9609375 C-2.30232798 44.70380027 -2.38715432 46.50919806 -0.015625 49.515625 C0.64953125 50.00546875 1.3146875 50.4953125 2 51 C2 47.7 2 44.4 2 41 C2.66 41 3.32 41 4 41 C4.33 42.32 4.66 43.64 5 45 C5.433125 44.54625 5.86625 44.0925 6.3125 43.625 C8 42 8 42 11 40 C10.67 39.67 10.34 39.34 10 39 C9.54540142 36.34536879 9.29756762 33.67810862 9 31 C5.7 31 2.4 31 -1 31 Z M-60 40 C-60 40.33 -60 40.66 -60 41 C-58.02 41 -56.04 41 -54 41 C-54 40.67 -54 40.34 -54 40 C-55.98 40 -57.96 40 -60 40 Z M-49 40 C-49 40.33 -49 40.66 -49 41 C-46.36 41 -43.72 41 -41 41 C-41 40.67 -41 40.34 -41 40 C-43.64 40 -46.28 40 -49 40 Z M-61 41 C-61 44.3 -61 47.6 -61 51 C-60.67 51 -60.34 51 -60 51 C-60 47.7 -60 44.4 -60 41 C-60.33 41 -60.66 41 -61 41 Z M-11 41 C-11 44.3 -11 47.6 -11 51 C-10.67 51 -10.34 51 -10 51 C-10 47.7 -10 44.4 -10 41 C-10.33 41 -10.66 41 -11 41 Z M11 41 C11.33 41.99 11.66 42.98 12 44 C12 43.34 12 42.68 12 42 C12.66 41.67 13.32 41.34 14 41 C13.01 41 12.02 41 11 41 Z M-41 42 C-40 44 -40 44 -40 44 Z M-51 41 C-53.31 41.66 -55.62 42.32 -58 43 C-58 43.66 -58 44.32 -58 45 C-53.89776415 46.01540112 -53.89776415 46.01540112 -50 45 C-50.33 43.68 -50.66 42.36 -51 41 Z M-8 43 C-4 44 -4 44 -4 44 Z M16 43 C16 43.66 16 44.32 16 45 C16.99 44.67 17.98 44.34 19 44 C18.01 43.67 17.02 43.34 16 43 Z M-48 45 C-48 46.98 -48 48.96 -48 51 C-47.67 51 -47.34 51 -47 51 C-47 49.02 -47 47.04 -47 45 C-47.33 45 -47.66 45 -48 45 Z M-21 45 C-20 47 -20 47 -20 47 Z M13 45 C14 47 14 47 14 47 Z M-39 47 C-38 49 -38 49 -38 49 Z M-3 47 C-2 49 -2 49 -2 49 Z " fill="#2571AA" transform="translate(211,16)"/>
<path d="M0 0 C5.0428125 -0.0928125 5.0428125 -0.0928125 10.1875 -0.1875 C11.76374146 -0.22846802 11.76374146 -0.22846802 13.37182617 -0.27026367 C22.03859716 -0.3475491 22.03859716 -0.3475491 26 3 C27.0625 4.75 27.0625 4.75 28 7 C28.69613458 8.25683442 29.40543517 9.50643152 30.125 10.75 C30.74375 11.8225 31.3625 12.895 32 14 C32.00257813 13.40832031 32.00515625 12.81664062 32.0078125 12.20703125 C32.22461534 7.77702657 32.59350547 5.52416401 35.375 1.9375 C39.77361406 -1.11503216 44.89780661 -0.83316164 50 0 C52.68967403 1.08050698 54.61607747 2.3047662 57 4 C57 4.99 57 5.98 57 7 C55 8.6875 55 8.6875 53 10 C52.29875 9.505 51.5975 9.01 50.875 8.5 C47.57896166 6.78032782 45.6663563 6.51115249 42 7 C41.34 7.99 40.68 8.98 40 10 C40.66 10 41.32 10 42 10 C42.495 11.485 42.495 11.485 43 13 C46.28749811 14.17634286 49.61266496 14.98191614 52.99609375 15.83984375 C56 17 56 17 57.43359375 18.70703125 C58.20977241 21.84921657 57.94637018 24.53629817 57.625 27.75 C57.51414063 28.92046875 57.40328125 30.0909375 57.2890625 31.296875 C57.19367188 32.18890625 57.09828125 33.0809375 57 34 C50.84629161 35.823321 45.40353322 36.2361959 39 36 C39 35.34 39 34.68 39 34 C38.071875 33.9175 37.14375 33.835 36.1875 33.75 C33 33 33 33 31.125 30.9375 C30.75375 30.298125 30.3825 29.65875 30 29 C31.8125 27 31.8125 27 34 25 C34.99 25 35.98 25 37 25 C37 25.66 37 26.32 37 27 C42.94 27.99 42.94 27.99 49 29 C49 28.34 49 27.68 49 27 C49.66 27 50.32 27 51 27 C51 25.68 51 24.36 51 23 C50.37351563 22.86722656 49.74703125 22.73445313 49.1015625 22.59765625 C47.87566406 22.33275391 47.87566406 22.33275391 46.625 22.0625 C45.40683594 21.80146484 45.40683594 21.80146484 44.1640625 21.53515625 C42 21 42 21 40 20 C38.29636178 19.77377919 36.58671299 19.59111527 34.875 19.4375 C33.96492188 19.35371094 33.05484375 19.26992188 32.1171875 19.18359375 C31.41851562 19.12300781 30.71984375 19.06242187 30 19 C30 19.66 30 20.32 30 21 C29.01 21.66 28.02 22.32 27 23 C25.98131338 23.98095748 24.97648017 24.97702078 24 26 C24.4125 26.37125 24.825 26.7425 25.25 27.125 C27.50812012 29.54441441 29.21039207 32.22302218 31 35 C28.24921116 35.91692961 26.64051087 36.10886083 23.8125 36.0625 C22.554375 36.041875 21.29625 36.02125 20 36 C20 35.01 20 34.02 20 33 C18.37660195 31.29115995 16.70680947 29.62553283 15 28 C14.34 27.01 13.68 26.02 13 25 C9.91634129 24.7497843 9.91634129 24.7497843 7 25 C7 28.63 7 32.26 7 36 C4.69 36 2.38 36 0 36 C0 24.12 0 12.24 0 0 Z M7 7 C7 10.3 7 13.6 7 17 C8.77049689 17.05410687 10.54146849 17.09284119 12.3125 17.125 C13.79169922 17.15980469 13.79169922 17.15980469 15.30078125 17.1953125 C18.22406527 17.20682639 18.22406527 17.20682639 21 15 C21.2502157 11.91634129 21.2502157 11.91634129 21 9 C20.34 9 19.68 9 19 9 C19 8.34 19 7.68 19 7 C15.04 7 11.08 7 7 7 Z M22 21 C23 23 23 23 23 23 Z M7 23 C7 23.33 7 23.66 7 24 C8.65 24 10.3 24 12 24 C12 23.67 12 23.34 12 23 C10.35 23 8.7 23 7 23 Z " fill="#525152" transform="translate(138,16)"/>
<path d="M0 0 C4.0225005 0.40930707 7.63083284 1.90757106 11.375 3.375 C12.51710938 3.8184375 13.65921875 4.261875 14.8359375 4.71875 C17.27051168 5.70460226 19.63065459 6.74773434 22 7.875 C25.27196794 9.10198798 26.75061978 9.20691265 30 8 C30.66 7.34 31.32 6.68 32 6 C31.99777939 6.54679413 31.99555878 7.09358826 31.99327087 7.6569519 C31.97119314 13.33428292 31.95608295 19.0116018 31.94506836 24.68896484 C31.94003128 26.80941259 31.93320141 28.92985685 31.92456055 31.05029297 C31.91246766 34.09343322 31.90676553 37.13652766 31.90234375 40.1796875 C31.89718246 41.13181122 31.89202118 42.08393494 31.88670349 43.06491089 C31.88662796 43.94567291 31.88655243 44.82643494 31.88647461 45.73388672 C31.884254 46.51110077 31.88203339 47.28831482 31.87974548 48.08908081 C31.88069314 50.08651572 31.88069314 50.08651572 33 52 C31.741875 52.04125 30.48375 52.0825 29.1875 52.125 C28.47980469 52.14820313 27.77210937 52.17140625 27.04296875 52.1953125 C25 52 25 52 22 50 C22 49.01 22 48.02 22 47 C20.515 46.505 20.515 46.505 19 46 C18.21481005 44.29875511 17.43841528 42.59098761 16.76171875 40.84375 C15.96856506 38.78638129 15.96856506 38.78638129 14.3125 36.25 C13 34 13 34 13 31 C12.01 30.67 11.02 30.34 10 30 C10 28.68 10 27.36 10 26 C9.34 25.67 8.68 25.34 8 25 C6.88671875 23.25 6.88671875 23.25 5.6875 21 C4.34937971 18.49898946 3.01043597 16.01758234 1.5625 13.578125 C1.10875 12.80984375 0.655 12.0415625 0.1875 11.25 C-0.23144531 10.55390625 -0.65039062 9.8578125 -1.08203125 9.140625 C-2.18483875 6.56897177 -2.30747273 4.77184374 -2 2 C-1.34 1.34 -0.68 0.68 0 0 Z " fill="#80C14E" transform="translate(2,16)"/>
<path d="M0 0 C1.98 0 3.96 0 6 0 C8.74020247 4.68117922 11.23091202 9.38724812 13.5 14.3125 C13.80043213 14.96186523 14.10086426 15.61123047 14.41040039 16.28027344 C21 30.63498194 21 30.63498194 21 35 C15.06 35.495 15.06 35.495 9 36 C9 34.35 9 32.7 9 31 C5.7 31 2.4 31 -1 31 C-1 32.65 -1 34.3 -1 36 C-5.62 36 -10.24 36 -15 36 C-14.12104927 30.72629559 -13.69162026 29.13239022 -11 25 C-10.07185026 23.20383417 -9.17599786 21.3906261 -8.3125 19.5625 C-7.87550781 18.65628906 -7.43851563 17.75007813 -6.98828125 16.81640625 C-5.89856101 13.71091893 -5.82197019 11.26708752 -6 8 C-5.01 7.67 -4.02 7.34 -3 7 C-1.28432339 3.49705129 -1.28432339 3.49705129 0 0 Z M3 10 C1.02 14.455 1.02 14.455 -1 19 C1.64 19 4.28 19 7 19 C6.01 16.03 5.02 13.06 4 10 C3.67 10 3.34 10 3 10 Z M0 20 C0 20.33 0 20.66 0 21 C2.31 21 4.62 21 7 21 C7 20.67 7 20.34 7 20 C4.69 20 2.38 20 0 20 Z " fill="#4F4F4E" transform="translate(211,16)"/>
<path d="M0 0 C2.97 0 5.94 0 9 0 C9 1.98 9 3.96 9 6 C9.99 6 10.98 6 12 6 C11.58411954 12.19518473 10.39748106 17.26689311 8 23 C12.62 23 17.24 23 22 23 C21.67 24.32 21.34 25.64 21 27 C20.38511719 26.97679688 19.77023438 26.95359375 19.13671875 26.9296875 C18.32847656 26.91164063 17.52023438 26.89359375 16.6875 26.875 C15.88699219 26.85179688 15.08648437 26.82859375 14.26171875 26.8046875 C11.71611424 26.84182678 11.71611424 26.84182678 9 29 C8.67 28.67 8.34 28.34 8 28 C5.73671744 27.9278635 3.48995407 28.00351911 1.2265625 28.0625 C-1 28 -1 28 -4 27 C-4 27.66 -4 28.32 -4 29 C-5.32 29 -6.64 29 -8 29 C-8 28.34 -8 27.68 -8 27 C-8.99 27 -9.98 27 -11 27 C-11.33 28.32 -11.66 29.64 -12 31 C-12.38969971 30.51104248 -12.77939941 30.02208496 -13.1809082 29.51831055 C-15.59787463 27.5009821 -16.98830755 27.65297643 -20.10546875 27.70703125 C-21.57983398 27.7215332 -21.57983398 27.7215332 -23.08398438 27.73632812 C-24.10814453 27.76146484 -25.13230469 27.78660156 -26.1875 27.8125 C-27.22326172 27.82603516 -28.25902344 27.83957031 -29.32617188 27.85351562 C-31.88463699 27.88888611 -34.4420578 27.93824456 -37 28 C-37.33 30.31 -37.66 32.62 -38 35 C-38.33 35 -38.66 35 -39 35 C-39 32.69 -39 30.38 -39 28 C-40.65 27.67 -42.3 27.34 -44 27 C-44.33 27.99 -44.66 28.98 -45 30 C-46.65 29.01 -48.3 28.02 -50 27 C-50.33 27.66 -50.66 28.32 -51 29 C-51.33 27.02 -51.66 25.04 -52 23 C-52.99 22.67 -53.98 22.34 -55 22 C-55 20.02 -55 18.04 -55 16 C-54.01 15.67 -53.02 15.34 -52 15 C-51.34 17.64 -50.68 20.28 -50 23 C-49.16227051 22.96970703 -48.32454102 22.93941406 -47.46142578 22.90820312 C-44.3566183 22.79610065 -41.25179952 22.68431821 -38.14697266 22.57275391 C-36.14094158 22.5005736 -34.13492385 22.42802266 -32.12890625 22.35546875 C-30.87207031 22.31035156 -29.61523438 22.26523437 -28.3203125 22.21875 C-27.15773926 22.17685547 -25.99516602 22.13496094 -24.79736328 22.09179688 C-23.19880994 22.03933955 -21.59941382 22 -20 22 C-19.67 21.34 -19.34 20.68 -19 20 C-19.639375 19.7525 -20.27875 19.505 -20.9375 19.25 C-23 18 -23 18 -23.75 15.875 C-23.8325 15.25625 -23.915 14.6375 -24 14 C-24.66 14 -25.32 14 -26 14 C-26 11 -26 11 -24.6875 9.3125 C-23 8 -23 8 -20 8 C-20 11.3 -20 14.6 -20 18 C-18.34015202 18.68346682 -16.67163195 19.34588315 -15 20 C-13.63875 20.556875 -13.63875 20.556875 -12.25 21.125 C-5.84002915 22.85076138 0.52883446 22.10147499 7 21 C7.02701408 18.89590361 7.04640223 16.79170822 7.0625 14.6875 C7.07410156 13.51574219 7.08570313 12.34398437 7.09765625 11.13671875 C7.14899898 7.96940805 7.14899898 7.96940805 6 5 C5.175 4.67 4.35 4.34 3.5 4 C2.675 3.67 1.85 3.34 1 3 C0.505 1.515 0.505 1.515 0 0 Z " fill="#FD06F9" transform="translate(188,29)"/>
<path d="M0 0 C2.31 0 4.62 0 7 0 C8.4606285 2.64738916 9 3.89448334 9 7 C11.31 7 13.62 7 16 7 C16 8.98 16 10.96 16 13 C17.65 13 19.3 13 21 13 C21 13.99 21 14.98 21 16 C20.34 16 19.68 16 19 16 C19 16.99 19 17.98 19 19 C19.66 19 20.32 19 21 19 C21.33 19.66 21.66 20.32 22 21 C24.52733235 21.65555119 24.52733235 21.65555119 27 22 C27.33 21.01 27.66 20.02 28 19 C28 24.28 28 29.56 28 35 C19.30921705 37.89692765 19.30921705 37.89692765 14 36 C11.71359007 34.15985321 10.62213483 32.53458567 9 30 C9 29.01 9 28.02 9 27 C7.35 27 5.7 27 4 27 C4 24.36 4 21.72 4 19 C4.66 19 5.32 19 6 19 C5.566875 18.030625 5.13375 17.06125 4.6875 16.0625 C0 5.10267857 0 5.10267857 0 0 Z M18 20 C19 22 19 22 19 22 Z " fill="#574E57" transform="translate(71,16)"/>
<path d="M0 0 C0.33 0 0.66 0 1 0 C0.99666908 0.82019119 0.99666908 0.82019119 0.99327087 1.6569519 C0.97119314 7.33428292 0.95608295 13.0116018 0.94506836 18.68896484 C0.94003128 20.80941259 0.93320141 22.92985685 0.92456055 25.05029297 C0.91246766 28.09343322 0.90676553 31.13652766 0.90234375 34.1796875 C0.89718246 35.13181122 0.89202118 36.08393494 0.88670349 37.06491089 C0.88662796 37.94567291 0.88655243 38.82643494 0.88647461 39.73388672 C0.88314369 40.89970779 0.88314369 40.89970779 0.87974548 42.08908081 C0.88069314 44.08651572 0.88069314 44.08651572 2 46 C0.741875 46.04125 -0.51625 46.0825 -1.8125 46.125 C-2.52019531 46.14820313 -3.22789063 46.17140625 -3.95703125 46.1953125 C-6 46 -6 46 -9 44 C-9 43.01 -9 42.02 -9 41 C-9.99 40.67 -10.98 40.34 -12 40 C-12.765625 37.96875 -12.765625 37.96875 -13.25 35.5 C-13.42015625 34.6853125 -13.5903125 33.870625 -13.765625 33.03125 C-13.84296875 32.3609375 -13.9203125 31.690625 -14 31 C-13.67 30.67 -13.34 30.34 -13 30 C-12.63837971 28.67405895 -12.30271961 27.34061543 -12 26 C-11.01 26 -10.02 26 -9 26 C-9.02320313 24.90300781 -9.04640625 23.80601563 -9.0703125 22.67578125 C-9.08907921 21.221361 -9.10727844 19.76693336 -9.125 18.3125 C-9.15013672 17.2306543 -9.15013672 17.2306543 -9.17578125 16.12695312 C-9.21391569 11.95123219 -8.8789919 8.7505862 -7 5 C-7.66 5 -8.32 5 -9 5 C-9 4.34 -9 3.68 -9 3 C-7.6078125 3.0928125 -7.6078125 3.0928125 -6.1875 3.1875 C-3.01854089 3.31626754 -3.01854089 3.31626754 -1.1875 1.5 C-0.795625 1.005 -0.40375 0.51 0 0 Z " fill="#95C750" transform="translate(33,22)"/>
<path d="M0 0 C0.99 0 1.98 0 3 0 C3.226875 0.804375 3.45375 1.60875 3.6875 2.4375 C4.75357148 5.22758446 4.75357148 5.22758446 7.5 5.9375 C8.7375 5.9684375 8.7375 5.9684375 10 6 C10.66 5.34 11.32 4.68 12 4 C14.125 4.375 14.125 4.375 16 5 C16.33 7.31 16.66 9.62 17 12 C17.33 9.69 17.66 7.38 18 5 C22.455 4.505 22.455 4.505 27 4 C26.67 4.99 26.34 5.98 26 7 C24.02 7 22.04 7 20 7 C20 7.66 20 8.32 20 9 C23.3 9 26.6 9 30 9 C30.04254356 10.99954746 30.04080783 13.00041636 30 15 C29 16 29 16 25.18359375 16.09765625 C23.60153318 16.09098089 22.01948841 16.07901875 20.4375 16.0625 C19.63119141 16.05798828 18.82488281 16.05347656 17.99414062 16.04882812 C15.99606244 16.03700518 13.99802217 16.01906914 12 16 C11.67 15.01 11.34 14.02 11 13 C10.34 13 9.68 13 9 13 C8.67 13.99 8.34 14.98 8 16 C5.36 16 2.72 16 0 16 C0 10.72 0 5.44 0 0 Z " fill="#1580C6" transform="translate(133,52)"/>
<path d="M0 0 C3 1 3 1 4.02734375 2.71484375 C4.32769531 3.44832031 4.62804687 4.18179688 4.9375 4.9375 C5.27136719 5.74316406 5.60523438 6.54882812 5.94921875 7.37890625 C6.29597656 8.24386719 6.64273438 9.10882813 7 10 C7.37769531 10.89589844 7.75539062 11.79179688 8.14453125 12.71484375 C11 19.58613074 11 19.58613074 11 23 C8.36 23 5.72 23 3 23 C2.34 20.69 1.68 18.38 1 16 C-2.96 15.67 -6.92 15.34 -11 15 C-11 12.33333333 -11 9.66666667 -11 7 C-8.36 7 -5.72 7 -3 7 C-2.87625 6.21625 -2.7525 5.4325 -2.625 4.625 C-2 2 -2 2 0 0 Z " fill="#595858" transform="translate(221,28)"/>
<path d="M0 0 C3.96 0 7.92 0 12 0 C12 5.28 12 10.56 12 16 C6.39 16 0.78 16 -5 16 C-4.67 14.68 -4.34 13.36 -4 12 C-3.34 12 -2.68 12 -2 12 C-2 11.01 -2 10.02 -2 9 C-1.34 9 -0.68 9 0 9 C0.33 8.01 0.66 7.02 1 6 C1.33 5.67 1.66 5.34 2 5 C1.34 4.34 0.68 3.68 0 3 C0 2.01 0 1.02 0 0 Z M7 7 C7 7.66 7 8.32 7 9 C7.99 8.67 8.98 8.34 10 8 C9.01 7.67 8.02 7.34 7 7 Z M4 9 C5 11 5 11 5 11 Z " fill="#2A8FC8" transform="translate(220,52)"/>
<path d="M0 0 C2.31 0 4.62 0 7 0 C8.4606285 2.64738916 9 3.89448334 9 7 C11.31 7 13.62 7 16 7 C16 7.99 16 8.98 16 10 C14.35 10 12.7 10 11 10 C11.33 12.97 11.66 15.94 12 19 C11.34 18.67 10.68 18.34 10 18 C9.01 20.31 8.02 22.62 7 25 C7.99 25.33 8.98 25.66 10 26 C9.67 27.32 9.34 28.64 9 30 C9 29.01 9 28.02 9 27 C7.35 27 5.7 27 4 27 C4 24.36 4 21.72 4 19 C4.66 19 5.32 19 6 19 C5.566875 18.030625 5.13375 17.06125 4.6875 16.0625 C0 5.10267857 0 5.10267857 0 0 Z " fill="#534E54" transform="translate(71,16)"/>
<path d="M0 0 C2.64 0 5.28 0 8 0 C7.03801609 4.5694236 5.02841978 8.67376666 3.15625 12.9296875 C2.0100101 15.97341912 1.42251568 18.78311922 1 22 C-0.65 22 -2.3 22 -4 22 C-4.33 21.01 -4.66 20.02 -5 19 C-5.66 19 -6.32 19 -7 19 C-7 18.01 -7 17.02 -7 16 C-6.34 16 -5.68 16 -5 16 C-4.80664062 15.26394531 -4.61328125 14.52789062 -4.4140625 13.76953125 C-4.15367188 12.79371094 -3.89328125 11.81789063 -3.625 10.8125 C-3.36976562 9.84957031 -3.11453125 8.88664062 -2.8515625 7.89453125 C-2.05233704 5.17789793 -1.0968638 2.60862825 0 0 Z " fill="#534D52" transform="translate(97,16)"/>
<path d="M0 0 C2.97 0 5.94 0 9 0 C9 1.98 9 3.96 9 6 C9.99 6 10.98 6 12 6 C11.58411954 12.19518473 10.39748106 17.26689311 8 23 C12.62 23 17.24 23 22 23 C21.67 24.32 21.34 25.64 21 27 C14.8894576 27.11269443 9.04829486 26.89604368 3 26 C3.33 24.35 3.66 22.7 4 21 C4.99 21 5.98 21 7 21 C7.02701408 18.89590361 7.04640223 16.79170822 7.0625 14.6875 C7.07410156 13.51574219 7.08570313 12.34398437 7.09765625 11.13671875 C7.14899898 7.96940805 7.14899898 7.96940805 6 5 C4.7625 4.505 4.7625 4.505 3.5 4 C2.2625 3.505 2.2625 3.505 1 3 C0.67 2.01 0.34 1.02 0 0 Z " fill="#8D2294" transform="translate(188,29)"/>
<path d="M0 0 C0.66 0 1.32 0 2 0 C2.66 2.64 3.32 5.28 4 8 C13.24 7.67 22.48 7.34 32 7 C32 7.66 32 8.32 32 9 C25.565 9.495 25.565 9.495 19 10 C25.27 10.33 31.54 10.66 38 11 C36 13 36 13 34.02880859 13.22705078 C33.24328613 13.21657715 32.45776367 13.20610352 31.6484375 13.1953125 C30.79765625 13.18886719 29.946875 13.18242188 29.0703125 13.17578125 C27.73613281 13.15064453 27.73613281 13.15064453 26.375 13.125 C25.4778125 13.11597656 24.580625 13.10695313 23.65625 13.09765625 C21.43723414 13.0740497 19.21874923 13.0411231 17 13 C16.67 15.31 16.34 17.62 16 20 C15.67 20 15.34 20 15 20 C15 17.69 15 15.38 15 13 C13.35 12.67 11.7 12.34 10 12 C9.67 12.99 9.34 13.98 9 15 C7.35 14.01 5.7 13.02 4 12 C3.67 12.66 3.34 13.32 3 14 C2.67 12.02 2.34 10.04 2 8 C1.01 7.67 0.02 7.34 -1 7 C-1.04254356 5.00045254 -1.04080783 2.99958364 -1 1 C-0.67 0.67 -0.34 0.34 0 0 Z " fill="#E535E5" transform="translate(134,44)"/>
<path d="M0 0 C1.65 0 3.3 0 5 0 C5 0.99 5 1.98 5 3 C6.65 3 8.3 3 10 3 C10 3.99 10 4.98 10 6 C9.34 6 8.68 6 8 6 C8 6.99 8 7.98 8 9 C8.66 9 9.32 9 10 9 C10.33 9.66 10.66 10.32 11 11 C13.52733235 11.65555119 13.52733235 11.65555119 16 12 C16.33 11.01 16.66 10.02 17 9 C17 12.63 17 16.26 17 20 C15.02 20 13.04 20 11 20 C10.67 20.66 10.34 21.32 10 22 C10 19.36 10 16.72 10 14 C8.02 14.33 6.04 14.66 4 15 C3.896875 14.195625 3.79375 13.39125 3.6875 12.5625 C2.84899627 8.21752614 1.47178341 4.16542473 0 0 Z M7 10 C8 12 8 12 8 12 Z " fill="#674965" transform="translate(82,26)"/>
<path d="M0 0 C0.33 0 0.66 0 1 0 C1 14.19 1 28.38 1 43 C0.34 42.67 -0.32 42.34 -1 42 C-2.21936099 37.87341306 -2.11469022 33.78724564 -2.09765625 29.51171875 C-2.0962413 28.80852005 -2.09482635 28.10532135 -2.09336853 27.3808136 C-2.08780109 25.14966456 -2.07525475 22.91861836 -2.0625 20.6875 C-2.05748079 19.16862125 -2.05291862 17.64974091 -2.04882812 16.13085938 C-2.03784236 12.42053988 -2.02060034 8.71027999 -2 5 C-4.31 5 -6.62 5 -9 5 C-9 4.34 -9 3.68 -9 3 C-7.6078125 3.0928125 -7.6078125 3.0928125 -6.1875 3.1875 C-3.01854089 3.31626754 -3.01854089 3.31626754 -1.1875 1.5 C-0.795625 1.005 -0.40375 0.51 0 0 Z " fill="#8DC878" transform="translate(33,22)"/>
<path d="M0 0 C1.39456452 0.00667256 2.78911118 0.01863093 4.18359375 0.03515625 C4.89451172 0.03966797 5.60542969 0.04417969 6.33789062 0.04882812 C8.09899388 0.06064761 9.86005411 0.07858362 11.62109375 0.09765625 C12.87774353 3.00365886 13.62109375 4.89370209 13.62109375 8.09765625 C14.28109375 8.42765625 14.94109375 8.75765625 15.62109375 9.09765625 C13.64109375 9.09765625 11.66109375 9.09765625 9.62109375 9.09765625 C9.62109375 7.44765625 9.62109375 5.79765625 9.62109375 4.09765625 C6.32109375 4.09765625 3.02109375 4.09765625 -0.37890625 4.09765625 C-0.37890625 5.74765625 -0.37890625 7.39765625 -0.37890625 9.09765625 C-4.99890625 9.09765625 -9.61890625 9.09765625 -14.37890625 9.09765625 C-14.37890625 8.76765625 -14.37890625 8.43765625 -14.37890625 8.09765625 C-11.73890625 8.09765625 -9.09890625 8.09765625 -6.37890625 8.09765625 C-6.06953125 6.96328125 -5.76015625 5.82890625 -5.44140625 4.66015625 C-4.08676222 0.11811452 -4.08676222 0.11811452 0 0 Z " fill="#060105" transform="translate(210.37890625,42.90234375)"/>
<path d="M0 0 C2.97 0 5.94 0 9 0 C9 1.98 9 3.96 9 6 C10.98 6 12.96 6 15 6 C15 15.57 15 25.14 15 35 C14.67 35 14.34 35 14 35 C14 31.04 14 27.08 14 23 C12.68 23 11.36 23 10 23 C10.33 22.01 10.66 21.02 11 20 C11.40149313 16.93718101 11.50449293 14.05379228 11 11 C8.64581624 8.06026719 8.64581624 8.06026719 6 6 C6 5.34 6 4.68 6 4 C3.03 3.505 3.03 3.505 0 3 C0 2.01 0 1.02 0 0 Z " fill="#BE2DD1" transform="translate(49,0)"/>
<path d="M0 0 C0.99 0 1.98 0 3 0 C3.226875 0.804375 3.45375 1.60875 3.6875 2.4375 C4.120625 3.283125 4.55375 4.12875 5 5 C7.54775306 5.89386164 7.54775306 5.89386164 10 6 C9.33333333 9.33333333 8.66666667 12.66666667 8 16 C5.36 16 2.72 16 0 16 C0 10.72 0 5.44 0 0 Z " fill="#14ABBD" transform="translate(133,52)"/>
<path d="M0 0 C4.29 0.33 8.58 0.66 13 1 C13.66 2.65 14.32 4.3 15 6 C13.68 5.67 12.36 5.34 11 5 C11.66 7.31 12.32 9.62 13 12 C9.04 12 5.08 12 1 12 C1.66 11.67 2.32 11.34 3 11 C3 9.02 3 7.04 3 5 C2.01 5 1.02 5 0 5 C0 3.35 0 1.7 0 0 Z M9 2 C10 4 10 4 10 4 Z " fill="#197FB6" transform="translate(161,56)"/>
<path d="M0 0 C0.66 0 1.32 0 2 0 C2.33 0.99 2.66 1.98 3 3 C3.99 2.01 4.98 1.02 6 0 C6.99 0.33 7.98 0.66 9 1 C8.525625 1.598125 8.05125 2.19625 7.5625 2.8125 C5.83534256 5.00382924 5.83534256 5.00382924 5 8 C4.34 8 3.68 8 3 8 C2.67 8.99 2.34 9.98 2 11 C-6.57142857 11.28571429 -6.57142857 11.28571429 -10 9 C-10 7.02 -10 5.04 -10 3 C-9.01 3 -8.02 3 -7 3 C-6.34 4.32 -5.68 5.64 -5 7 C-4.34 6.67 -3.68 6.34 -3 6 C-2.01 7.485 -2.01 7.485 -1 9 C-0.67 6.03 -0.34 3.06 0 0 Z " fill="#0B94C6" transform="translate(213,57)"/>
<path d="M0 0 C0 1.32 0 2.64 0 4 C2.64 4 5.28 4 8 4 C7.67 4.99 7.34 5.98 7 7 C6.34 6.67 5.68 6.34 5 6 C2.72433301 5.93090954 0.4670476 6.00251604 -1.80859375 6.0625 C-4 6 -4 6 -7 5 C-7 5.66 -7 6.32 -7 7 C-8.32 7 -9.64 7 -11 7 C-11 6.34 -11 5.68 -11 5 C-11.99 5 -12.98 5 -14 5 C-14.33 6.32 -14.66 7.64 -15 9 C-16.5625 7.75 -16.5625 7.75 -18 6 C-17.67 4.68 -17.34 3.36 -17 2 C-13.7 2.66 -10.4 3.32 -7 4 C-7 3.34 -7 2.68 -7 2 C-4.35261084 0.5393715 -3.10551666 0 0 0 Z " fill="#C457DE" transform="translate(191,51)"/>
<path d="M0 0 C1.32 0.33 2.64 0.66 4 1 C3.34 3.64 2.68 6.28 2 9 C1.34 9 0.68 9 0 9 C0 9.66 0 10.32 0 11 C-1.98 11 -3.96 11 -6 11 C-6 8.36 -6 5.72 -6 3 C-4.02 2.67 -2.04 2.34 0 2 C0 1.34 0 0.68 0 0 Z " fill="#0975B8" transform="translate(29,6)"/>
<path d="M0 0 C2.97 0 5.94 0 9 0 C9 1.98 9 3.96 9 6 C9.99 6 10.98 6 12 6 C11.85892253 7.45880109 11.71197585 8.91703551 11.5625 10.375 C11.48128906 11.18710937 11.40007812 11.99921875 11.31640625 12.8359375 C11 15 11 15 10 17 C9.34 17 8.68 17 8 17 C7.87044922 15.73542969 7.87044922 15.73542969 7.73828125 14.4453125 C7.59777344 13.34960938 7.45726562 12.25390625 7.3125 11.125 C7.18488281 10.03445312 7.05726563 8.94390625 6.92578125 7.8203125 C6.62027344 6.88960937 6.31476563 5.95890625 6 5 C3.52989698 3.76181806 3.52989698 3.76181806 1 3 C0.67 2.01 0.34 1.02 0 0 Z " fill="#FDFDFD" transform="translate(188,29)"/>
<path d="M0 0 C0 3.3 0 6.6 0 10 C0.7425 10.28875 1.485 10.5775 2.25 10.875 C4.56739797 11.82302644 6.77917115 12.84845911 9 14 C9 14.33 9 14.66 9 15 C6.03 15 3.06 15 0 15 C0.33 14.01 0.66 13.02 1 12 C0.360625 11.7525 -0.27875 11.505 -0.9375 11.25 C-3 10 -3 10 -3.75 7.875 C-3.8325 7.25625 -3.915 6.6375 -4 6 C-4.66 6 -5.32 6 -6 6 C-6 3 -6 3 -4.6875 1.3125 C-3 0 -3 0 0 0 Z " fill="#ECECEC" transform="translate(168,37)"/>
<path d="M0 0 C1.65 0.33 3.3 0.66 5 1 C5.66 4.63 6.32 8.26 7 12 C5.02 12 3.04 12 1 12 C0.67 11.01 0.34 10.02 0 9 C-0.66 9 -1.32 9 -2 9 C-1.34 6.03 -0.68 3.06 0 0 Z " fill="#0677AB" transform="translate(144,56)"/>
<path d="M0 0 C1.65 0 3.3 0 5 0 C5 0.99 5 1.98 5 3 C6.65 3 8.3 3 10 3 C10 3.99 10 4.98 10 6 C9.34 6 8.68 6 8 6 C7.67 7.98 7.34 9.96 7 12 C5.68 11.67 4.36 11.34 3 11 C2.01 7.37 1.02 3.74 0 0 Z " fill="#E816E6" transform="translate(82,26)"/>
<path d="M0 0 C0.66 0.33 1.32 0.66 2 1 C2.625 4.0625 2.625 4.0625 3 7 C2.01 7.66 1.02 8.32 0 9 C-0.103125 8.360625 -0.20625 7.72125 -0.3125 7.0625 C-0.539375 6.381875 -0.76625 5.70125 -1 5 C-1.99 4.67 -2.98 4.34 -4 4 C-3.43260132 8.12973628 -3.43260132 8.12973628 -2 12 C-4.70879335 13.35439668 -7.00933268 13.06501451 -10 13 C-9.525625 12.67 -9.05125 12.34 -8.5625 12 C-6.14208385 8.90186733 -6.31801083 5.87973208 -6 2 C-4.02 2 -2.04 2 0 2 C0 1.34 0 0.68 0 0 Z " fill="#2299C8" transform="translate(207,55)"/>
<path d="M0 0 C2.475 0.99 2.475 0.99 5 2 C5 4.97 5 7.94 5 11 C4.34 11 3.68 11 3 11 C2.5978125 12.1446875 2.5978125 12.1446875 2.1875 13.3125 C1.05575888 15.87380884 0.08776599 17.19692938 -2 19 C-2 16 -2 16 -1 12.3125 C0.10899795 8.10299371 0.15499492 4.33985766 0 0 Z " fill="#0E92DA" transform="translate(56,9)"/>
<path d="M0 0 C3.875 0.875 3.875 0.875 5 2 C5.18528996 5.07741625 5.30866454 8.13410495 5.38671875 11.21484375 C5.41224319 12.14091934 5.43776764 13.06699493 5.46406555 14.02113342 C5.51617081 15.98399208 5.56558585 17.94692368 5.61254883 19.90991211 C5.68710317 22.92147036 5.77773129 25.93227166 5.86914062 28.94335938 C5.91765589 30.8463292 5.96521387 32.74932373 6.01171875 34.65234375 C6.04077805 35.55758286 6.06983734 36.46282196 6.09977722 37.39549255 C6.11672134 38.23298538 6.13366547 39.07047821 6.15112305 39.93334961 C6.17031296 40.67201767 6.18950287 41.41068573 6.20927429 42.17173767 C6 44 6 44 4 46 C3.98541748 44.73816895 3.97083496 43.47633789 3.95581055 42.17626953 C3.89794671 37.50573021 3.82071383 32.83567908 3.73754883 28.16552734 C3.70424321 26.14217029 3.676229 24.11871907 3.65356445 22.09521484 C3.62012165 19.19067148 3.56781231 16.28699558 3.51171875 13.3828125 C3.50213387 12.02024826 3.50213387 12.02024826 3.49235535 10.63015747 C3.47256119 9.78943695 3.45276703 8.94871643 3.43237305 8.08251953 C3.42126999 7.34083527 3.41016693 6.599151 3.39872742 5.83499146 C3.13280747 3.58638164 3.13280747 3.58638164 0 2 C0 1.34 0 0.68 0 0 Z " fill="#107793" transform="translate(30,18)"/>
<path d="M0 0 C0.99 0 1.98 0 3 0 C3.91657981 5.38490641 4.11138159 10.54230189 4 16 C2.68 16 1.36 16 0 16 C0 10.72 0 5.44 0 0 Z " fill="#030815" transform="translate(133,52)"/>
<path d="M0 0 C2.31 0 4.62 0 7 0 C7 5.94 7 11.88 7 18 C6.34 18 5.68 18 5 18 C5 13.05 5 8.1 5 3 C3.35 3 1.7 3 0 3 C0 2.01 0 1.02 0 0 Z " fill="#DD15E1" transform="translate(99,32)"/>
<path d="M0 0 C3.96 0 7.92 0 12 0 C12 1.32 12 2.64 12 4 C10.37675914 4.22162329 8.751279 4.42689803 7.125 4.625 C5.76761719 4.79902344 5.76761719 4.79902344 4.3828125 4.9765625 C3.59648437 4.98429687 2.81015625 4.99203125 2 5 C1.34 4.34 0.68 3.68 0 3 C0 2.01 0 1.02 0 0 Z " fill="#D133C7" transform="translate(220,52)"/>
<path d="M0 0 C2.31 0 4.62 0 7 0 C7.125 3.375 7.125 3.375 7 7 C6.34 7.66 5.68 8.32 5 9 C3.68 9 2.36 9 1 9 C-2 4.92857143 -2 4.92857143 -2 2 C-1.34 2 -0.68 2 0 2 C0 1.34 0 0.68 0 0 Z M2 3 C2 3.66 2 4.32 2 5 C2.99 4.67 3.98 4.34 5 4 C4.01 3.67 3.02 3.34 2 3 Z " fill="#1F8CCA" transform="translate(225,56)"/>
<path d="M0 0 C2.57286097 3.85929145 4 7.33214338 4 12 C3.01 11.67 2.02 11.34 1 11 C0.34 11.66 -0.32 12.32 -1 13 C-1.99 13 -2.98 13 -4 13 C-3.59658469 10.09540975 -3.22814394 8.30115 -1.4375 5.9375 C0.39723128 3.86669005 0.39723128 3.86669005 0 0 Z " fill="#5B455E" transform="translate(82,28)"/>
<path d="M0 0 C0.5775 0.7425 1.155 1.485 1.75 2.25 C3.72253526 4.66087643 5.76044282 6.84042701 8 9 C5.69 9 3.38 9 1 9 C1 9.66 1 10.32 1 11 C0.01 11 -0.98 11 -2 11 C-2.24042276 6.91281305 -1.42258812 3.82320557 0 0 Z " fill="#0C0C0C" transform="translate(167,26)"/>
<path d="M0 0 C0 0.66 0 1.32 0 2 C0.66 2 1.32 2 2 2 C1.67 2.66 1.34 3.32 1 4 C0.01 4.33 -0.98 4.66 -2 5 C-2.33 5.99 -2.66 6.98 -3 8 C-4.875 7.875 -4.875 7.875 -7 7 C-8.25 3.9375 -8.25 3.9375 -9 1 C-5.846632 0.29925156 -3.27275026 0 0 0 Z " fill="#1395D4" transform="translate(180,60)"/>
<path d="M0 0 C3.0916909 2.52956528 3.90931332 5.22454612 5 9 C2.69 9 0.38 9 -2 9 C-2 6.36 -2 3.72 -2 1 C-1.34 0.67 -0.68 0.34 0 0 Z " fill="#451672" transform="translate(169,59)"/>
<path d="M0 0 C-0.33 0.99 -0.66 1.98 -1 3 C-2.98 3 -4.96 3 -7 3 C-7 3.66 -7 4.32 -7 5 C-5.68 5 -4.36 5 -3 5 C-3 5.99 -3 6.98 -3 8 C-4.98 8 -6.96 8 -9 8 C-9 5.69 -9 3.38 -9 1 C-5.94152152 0.45627049 -3.11227195 0 0 0 Z " fill="#0C8ECE" transform="translate(160,56)"/>
<path d="M0 0 C7.92 0.33 15.84 0.66 24 1 C22 3 22 3 20.02880859 3.22705078 C19.24328613 3.21657715 18.45776367 3.20610352 17.6484375 3.1953125 C16.79765625 3.18886719 15.946875 3.18242188 15.0703125 3.17578125 C13.73613281 3.15064453 13.73613281 3.15064453 12.375 3.125 C11.02921875 3.11146484 11.02921875 3.11146484 9.65625 3.09765625 C7.43723414 3.0740497 5.21874923 3.0411231 3 3 C2.67 5.31 2.34 7.62 2 10 C1.67 10 1.34 10 1 10 C1 7.69 1 5.38 1 3 C0.34 2.67 -0.32 2.34 -1 2 C-0.67 1.34 -0.34 0.68 0 0 Z " fill="#BA30E8" transform="translate(148,54)"/>
<path d="M0 0 C0.99 0 1.98 0 3 0 C3 6.6 3 13.2 3 20 C2.67 20 2.34 20 2 20 C2 16.04 2 12.08 2 8 C0.68 8 -0.64 8 -2 8 C-1.34 5.36 -0.68 2.72 0 0 Z " fill="#9913A8" transform="translate(61,15)"/>
<path d="M0 0 C0.598125 0.20625 1.19625 0.4125 1.8125 0.625 C1.4825 2.275 1.1525 3.925 0.8125 5.625 C-0.1775 5.625 -1.1675 5.625 -2.1875 5.625 C-2.1875 6.285 -2.1875 6.945 -2.1875 7.625 C-3.5075 7.625 -4.8275 7.625 -6.1875 7.625 C-5.875 4.75 -5.875 4.75 -5.1875 1.625 C-2.1875 -0.375 -2.1875 -0.375 0 0 Z " fill="#0978B9" transform="translate(31.1875,0.375)"/>
<path d="M0 0 C2.475 0.495 2.475 0.495 5 1 C5 3.31 5 5.62 5 8 C3.35 8 1.7 8 0 8 C0 5.36 0 2.72 0 0 Z " fill="#FCFCFC" transform="translate(133,15)"/>
<path d="M0 0 C0.99 0 1.98 0 3 0 C3.66 1.32 4.32 2.64 5 4 C5.66 3.67 6.32 3.34 7 3 C7.99 4.65 8.98 6.3 10 8 C6.05272412 8.17942163 3.4019487 8.09350689 0 6 C0 4.02 0 2.04 0 0 Z " fill="#0B5C95" transform="translate(203,60)"/>
<path d="M0 0 C0.66 0 1.32 0 2 0 C1.95875 0.94875 1.9175 1.8975 1.875 2.875 C1.65026182 6.10244856 1.65026182 6.10244856 4 8 C3 9 3 9 -0.5625 9.0625 C-1.696875 9.041875 -2.83125 9.02125 -4 9 C-3.67 7.35 -3.34 5.7 -3 4 C-2.01 4 -1.02 4 0 4 C0 2.68 0 1.36 0 0 Z " fill="#843686" transform="translate(195,46)"/>
<path d="M0 0 C-0.99 0.495 -0.99 0.495 -2 1 C-2 1.66 -2 2.32 -2 3 C-4.64 3 -7.28 3 -10 3 C-10 2.67 -10 2.34 -10 2 C-12.97 1.67 -15.94 1.34 -19 1 C-19 0.67 -19 0.34 -19 0 C-12.48755792 -0.69508823 -6.4489191 -1.31909709 0 0 Z " fill="#EA15E1" transform="translate(186,52)"/>
<path d="M0 0 C0.99 0 1.98 0 3 0 C4.07525194 2.65228812 5.09456151 5.28368454 6 8 C4.02 8 2.04 8 0 8 C0 5.36 0 2.72 0 0 Z " fill="#120D2E" transform="translate(23,9)"/>
<path d="M0 0 C0.66 0 1.32 0 2 0 C2 2.97 2 5.94 2 9 C1.01 9.33 0.02 9.66 -1 10 C-1.66 9.67 -2.32 9.34 -3 9 C-2.01 6.03 -1.02 3.06 0 0 Z " fill="#968BA2" transform="translate(39,55)"/>
<path d="M0 0 C0.042721 1.66611905 0.04063832 3.33382885 0 5 C-1 6 -1 6 -3.5625 6.0625 C-4.7690625 6.0315625 -4.7690625 6.0315625 -6 6 C-6 4.35 -6 2.7 -6 1 C-3 0 -3 0 0 0 Z " fill="#09000A" transform="translate(99,46)"/>
<path d="M0 0 C0.33 0 0.66 0 1 0 C1 3.63 1 7.26 1 11 C-0.65 11 -2.3 11 -4 11 C-2.95902388 7.13351728 -1.96301592 3.50538557 0 0 Z " fill="#E633E6" transform="translate(98,35)"/>
<path d="M0 0 C2.97 0 5.94 0 9 0 C9 1.32 9 2.64 9 4 C6.03 3.67 3.06 3.34 0 3 C0 2.01 0 1.02 0 0 Z " fill="#77F0DC" transform="translate(49,0)"/>
<path d="M0 0 C0.66 0.33 1.32 0.66 2 1 C2.625 4.0625 2.625 4.0625 3 7 C2.01 7.66 1.02 8.32 0 9 C-0.103125 8.360625 -0.20625 7.72125 -0.3125 7.0625 C-0.539375 6.381875 -0.76625 5.70125 -1 5 C-1.99 4.67 -2.98 4.34 -4 4 C-4 3.34 -4 2.68 -4 2 C-2.68 2 -1.36 2 0 2 C0 1.34 0 0.68 0 0 Z " fill="#1D87C4" transform="translate(207,55)"/>
<path d="M0 0 C0 2.31 0 4.62 0 7 C0.99 7.33 1.98 7.66 3 8 C2.67 9.32 2.34 10.64 2 12 C2 11.01 2 10.02 2 9 C0.35 9 -1.3 9 -3 9 C-3 6.36 -3 3.72 -3 1 C-1 0 -1 0 0 0 Z " fill="#0B040B" transform="translate(78,34)"/>
<path d="M0 0 C0.66 0.33 1.32 0.66 2 1 C2.4140625 3.06640625 2.4140625 3.06640625 2.625 5.5625 C2.69976562 6.38878906 2.77453125 7.21507813 2.8515625 8.06640625 C2.90054688 8.70449219 2.94953125 9.34257813 3 10 C1.02 10 -0.96 10 -3 10 C-2.01 6.7 -1.02 3.4 0 0 Z " fill="#0E305A" transform="translate(186,58)"/>
<path d="M0 0 C1.98 0.495 1.98 0.495 4 1 C4 3.31 4 5.62 4 8 C2.68 8 1.36 8 0 8 C-0.79953138 4.71303767 -1.09658936 3.28976808 0 0 Z " fill="#108BDA" transform="translate(144,56)"/>
<path d="M0 0 C0.66 0 1.32 0 2 0 C3.7578125 5.95703125 3.7578125 5.95703125 4 8 C3.01 9.485 3.01 9.485 2 11 C2 10.01 2 9.02 2 8 C1.01 7.67 0.02 7.34 -1 7 C-1.04254356 5.00045254 -1.04080783 2.99958364 -1 1 C-0.67 0.67 -0.34 0.34 0 0 Z " fill="#D124D6" transform="translate(134,44)"/>
<path d="M0 0 C2.625 0.9375 2.625 0.9375 5 2 C4.01 3.485 4.01 3.485 3 5 C0.03 4.505 0.03 4.505 -3 4 C-2.67 3.01 -2.34 2.02 -2 1 C-1.34 0.67 -0.68 0.34 0 0 Z " fill="#236CA0" transform="translate(180,63)"/>
<path d="M0 0 C0.33 0 0.66 0 1 0 C1.1953125 2.05078125 1.390625 4.1015625 1.5859375 6.15234375 C1.72257812 6.76207031 1.85921875 7.37179688 2 8 C2.66 8.33 3.32 8.66 4 9 C3.67 9.99 3.34 10.98 3 12 C2.01 12 1.02 12 0 12 C0 8.04 0 4.08 0 0 Z " fill="#1277B9" transform="translate(35,48)"/>
<path d="M0 0 C3.875 0.875 3.875 0.875 5 2 C5.07319621 4.69654854 5.09242537 7.36691458 5.0625 10.0625 C5.05798828 10.82111328 5.05347656 11.57972656 5.04882812 12.36132812 C5.0370068 14.24091871 5.01907078 16.12046899 5 18 C4.67 18 4.34 18 4 18 C3.96261719 17.01257813 3.92523438 16.02515625 3.88671875 15.0078125 C3.82097656 13.72648437 3.75523438 12.44515625 3.6875 11.125 C3.62949219 9.84882813 3.57148437 8.57265625 3.51171875 7.2578125 C3.34285156 6.18273437 3.17398438 5.10765625 3 4 C2.01 3.34 1.02 2.68 0 2 C0 1.34 0 0.68 0 0 Z " fill="#116BA8" transform="translate(30,18)"/>
<path d="M0 0 C4 4.75 4 4.75 4 7 C2.68 7 1.36 7 0 7 C-1.75 5 -1.75 5 -3 3 C-2.34 3 -1.68 3 -1 3 C-0.67 2.01 -0.34 1.02 0 0 Z " fill="#432973" transform="translate(221,58)"/>
<path d="M0 0 C3 1 3 1 6 3 C5.01 3 4.02 3 3 3 C2.67 4.32 2.34 5.64 2 7 C0.4375 5.75 0.4375 5.75 -1 4 C-0.6875 1.8125 -0.6875 1.8125 0 0 Z " fill="#CE73EF" transform="translate(174,53)"/>
<path d="M0 0 C3.96 1.98 3.96 1.98 8 4 C8 4.33 8 4.66 8 5 C5.03 5 2.06 5 -1 5 C-0.67 3.35 -0.34 1.7 0 0 Z " fill="#FDF3FE" transform="translate(169,47)"/>
<path d="M0 0 C0.33 0 0.66 0 1 0 C1 2.97 1 5.94 1 9 C-0.32 8.67 -1.64 8.34 -3 8 C-3 7.01 -3 6.02 -3 5 C-2.34 5 -1.68 5 -1 5 C-0.67 3.35 -0.34 1.7 0 0 Z " fill="#CB1DA0" transform="translate(57,25)"/>
<path d="M0 0 C1.32 0 2.64 0 4 0 C4 1.98 4 3.96 4 6 C3.01 6.33 2.02 6.66 1 7 C0.67 4.69 0.34 2.38 0 0 Z " fill="#E053EA" transform="translate(159,61)"/>
<path d="M0 0 C0.33 0.99 0.66 1.98 1 3 C-0.4375 5.1875 -0.4375 5.1875 -2 7 C-2 6.01 -2 5.02 -2 4 C-3.65 3.67 -5.3 3.34 -7 3 C-7 2.34 -7 1.68 -7 1 C-4.69 1.33 -2.38 1.66 0 2 C0 1.34 0 0.68 0 0 Z " fill="#3061A5" transform="translate(198,61)"/>
<path d="M0 0 C1.125 1.75 1.125 1.75 2 4 C1.125 6.25 1.125 6.25 0 8 C-0.99 8 -1.98 8 -3 8 C-2.45276317 4.62537285 -1.9451 2.91765 0 0 Z " fill="#674A6D" transform="translate(81,33)"/>
<path d="M0 0 C1.65 0 3.3 0 5 0 C5 1.98 5 3.96 5 6 C4.01 6 3.02 6 2 6 C1.34 4.02 0.68 2.04 0 0 Z " fill="#ABE6FB" transform="translate(59,9)"/>
<path d="M0 0 C2.97 0.495 2.97 0.495 6 1 C5.67 1.99 5.34 2.98 5 4 C3.02 4 1.04 4 -1 4 C-0.67 2.68 -0.34 1.36 0 0 Z " fill="#0F88C6" transform="translate(190,64)"/>
<path d="M0 0 C1.65 0 3.3 0 5 0 C5 0.66 5 1.32 5 2 C6.65 2 8.3 2 10 2 C10 2.33 10 2.66 10 3 C8.35 3 6.7 3 5 3 C4.67 3.99 4.34 4.98 4 6 C3.34 5.01 2.68 4.02 2 3 C2.33 2.34 2.66 1.68 3 1 C2.01 0.67 1.02 0.34 0 0 Z " fill="#D11CE6" transform="translate(139,53)"/>
<path d="M0 0 C1.32 0.33 2.64 0.66 4 1 C2.25 3 2.25 3 0 5 C-1.32 5 -2.64 5 -4 5 C-4 4.01 -4 3.02 -4 2 C-2.68 2 -1.36 2 0 2 C0 1.34 0 0.68 0 0 Z " fill="#CB33F2" transform="translate(184,53)"/>
<path d="M0 0 C1.32 0.33 2.64 0.66 4 1 C4 2.32 4 3.64 4 5 C3.01 4.67 2.02 4.34 1 4 C0.67 4.66 0.34 5.32 0 6 C0 4.02 0 2.04 0 0 Z " fill="#D460EC" transform="translate(137,52)"/>
<path d="M0 0 C1.65 1.65 3.3 3.3 5 5 C4.01 5.66 3.02 6.32 2 7 C1.01 6.34 0.02 5.68 -1 5 C-0.67 3.35 -0.34 1.7 0 0 Z " fill="#3F3D45" transform="translate(164,45)"/>
<path d="M0 0 C2.475 0.495 2.475 0.495 5 1 C5.33 2.32 5.66 3.64 6 5 C5.01 5.33 4.02 5.66 3 6 C2.01 4.02 1.02 2.04 0 0 Z " fill="#73A64C" transform="translate(15,49)"/>
<path d="M0 0 C0.66 0 1.32 0 2 0 C2.33 1.32 2.66 2.64 3 4 C1.02 4.66 -0.96 5.32 -3 6 C-2.01 4.02 -1.02 2.04 0 0 Z " fill="#4B4853" transform="translate(161,46)"/>
<path d="M0 0 C1.32 0.33 2.64 0.66 4 1 C4.625 2.875 4.625 2.875 5 5 C4.34 5.66 3.68 6.32 3 7 C-0 2.25 -0 2.25 0 0 Z " fill="#6AB850" transform="translate(1,23)"/>
<path d="M0 0 C0 0.99 0 1.98 0 3 C-0.66 3.66 -1.32 4.32 -2 5 C-3.32 5 -4.64 5 -6 5 C-5.625 3.0625 -5.625 3.0625 -5 1 C-3 0 -3 0 0 0 Z " fill="#056CA8" transform="translate(232,60)"/>
<path d="M0 0 C1.5 1.25 1.5 1.25 3 3 C3 4.32 3 5.64 3 7 C2.34 7 1.68 7 1 7 C1 6.34 1 5.68 1 5 C0.01 4.67 -0.98 4.34 -2 4 C-1.34 3.67 -0.68 3.34 0 3 C0 2.01 0 1.02 0 0 Z " fill="#137FAD" transform="translate(195,56)"/>
<path d="M0 0 C0.33 0.99 0.66 1.98 1 3 C1.99 3 2.98 3 4 3 C4 3.99 4 4.98 4 6 C2.68 6 1.36 6 0 6 C-0.66 4.68 -1.32 3.36 -2 2 C-1.34 1.34 -0.68 0.68 0 0 Z " fill="#64A29E" transform="translate(42,46)"/>
<path d="M0 0 C0.99 0.33 1.98 0.66 3 1 C3.33 2.65 3.66 4.3 4 6 C3.01 6 2.02 6 1 6 C0.67 4.02 0.34 2.04 0 0 Z " fill="#1E8FD6" transform="translate(187,60)"/>
<path d="M0 0 C1.98 0.495 1.98 0.495 4 1 C3.34 3.97 2.68 6.94 2 10 C1.67 10 1.34 10 1 10 C1 7.69 1 5.38 1 3 C0.34 2.67 -0.32 2.34 -1 2 C-0.67 1.34 -0.34 0.68 0 0 Z " fill="#8ECFFF" transform="translate(148,54)"/>
<path d="M0 0 C1.98 0 3.96 0 6 0 C6 0.99 6 1.98 6 3 C4.35 3 2.7 3 1 3 C0.67 2.01 0.34 1.02 0 0 Z " fill="#10040C" transform="translate(81,23)"/>
<path d="M0 0 C1 4 1 4 1 4 Z " fill="#B232E0" transform="translate(211,61)"/>
<path d="" fill="#090701" transform="translate(0,0)"/>
<path d="" fill="#0F070F" transform="translate(0,0)"/>
<path d="" fill="#030303" transform="translate(0,0)"/>
<path d="" fill="#001300" transform="translate(0,0)"/>
<path d="" fill="#000C18" transform="translate(0,0)"/>
<path d="" fill="#080808" transform="translate(0,0)"/>
</svg>
