<svg xmlns="http://www.w3.org/2000/svg" xmlns:xlink="http://www.w3.org/1999/xlink" width="1936.297" height="607.562" viewBox="0 0 1936.297 607.562">
  <defs>
    <filter id="Ellipse_8570" x="780.31" y="46.73" width="376.259" height="376.258" filterUnits="userSpaceOnUse">
      <feOffset dy="3" input="SourceAlpha"/>
      <feGaussianBlur stdDeviation="3" result="blur"/>
      <feFlood flood-opacity="0.161"/>
      <feComposite operator="in" in2="blur"/>
      <feComposite in="SourceGraphic"/>
    </filter>
    <filter id="Path_156386" x="0" y="0" width="1936.297" height="607.562" filterUnits="userSpaceOnUse">
      <feOffset dy="3" input="SourceAlpha"/>
      <feGaussianBlur stdDeviation="3" result="blur-2"/>
      <feFlood flood-opacity="0.161"/>
      <feComposite operator="in" in2="blur-2"/>
      <feComposite in="SourceGraphic"/>
    </filter>
    <linearGradient id="linear-gradient" y1="0.5" x2="1" y2="0.5" gradientUnits="objectBoundingBox">
      <stop offset="0" stop-color="#d42a6b"/>
      <stop offset="1" stop-color="#f06aa7"/>
    </linearGradient>
  </defs>
  <g id="OBJECTS" transform="translate(540.81 -156.158)">
    <g id="Group_101770" data-name="Group 101770" transform="translate(8.19 164.158)">
      <g transform="matrix(1, 0, 0, 1, -549, -8)" filter="url(#Ellipse_8570)">
        <circle id="Ellipse_8570-2" data-name="Ellipse 8570" cx="179.129" cy="179.129" r="179.129" transform="translate(789.31 52.73)" fill="#f7f7f7"/>
      </g>
      <g transform="matrix(1, 0, 0, 1, -549, -8)" filter="url(#Path_156386)">
        <path id="Path_156386-2" data-name="Path 156386" d="M-540,708.247H257.328a98.42,98.42,0,0,0,51.625-182.207l-.571-.47A216.364,216.364,0,0,1,202.009,339.15c0-119.55,96.914-216.465,216.465-216.465S634.94,219.6,634.94,339.15A216.373,216.373,0,0,1,527.769,526.039H528a98.42,98.42,0,0,0,51.625,182.207H1378.3" transform="translate(549 -114.68)" fill="none" stroke="#f7f7f7" stroke-width="4"/>
      </g>
    </g>
    <circle id="Ellipse_8572" data-name="Ellipse 8572" cx="8" cy="8" r="8" transform="translate(320.424 178.889)" fill="#ffdb00"/>
    <g id="Group_101769" data-name="Group 101769" transform="translate(512.251 89.695)">
      <ellipse id="Ellipse_8577" data-name="Ellipse 8577" cx="8" cy="8" rx="8" ry="8" transform="translate(0 89.193)" fill="#f28194"/>
    </g>
    <circle id="Ellipse_8573" data-name="Ellipse 8573" cx="8.439" cy="8.439" r="8.439" transform="translate(265.574 529.888)" fill="#52aff2"/>
    <circle id="Ellipse_8574" data-name="Ellipse 8574" cx="8" cy="8" r="8" transform="translate(569.229 529.889)" fill="#9fbaa3"/>
    <circle id="Ellipse_8575" data-name="Ellipse 8575" cx="8" cy="8" r="8" transform="translate(202.383 361.888)" fill="url(#linear-gradient)"/>
    <circle id="Ellipse_8576" data-name="Ellipse 8576" cx="8" cy="8" r="8" transform="translate(635.991 361.888)" fill="#f4b435"/>
  </g>
</svg>
