<?xml version="1.0" encoding="UTF-8"?>
<svg version="1.1" xmlns="http://www.w3.org/2000/svg" width="512" height="97">
<path d="M0 0 C6.27527864 0.11840148 10.20517114 2.62929827 15.3125 6.0625 C16.97788132 7.14910794 18.64462928 8.23362325 20.3125 9.31640625 C21.21355469 9.90437988 22.11460938 10.49235352 23.04296875 11.09814453 C28.57587811 14.65671156 34.19982906 18.06922785 39.8125 21.5 C42.00719179 22.84263685 44.20123944 24.1863274 46.39453125 25.53125 C47.38275879 26.13453125 48.37098633 26.7378125 49.38916016 27.359375 C51.49717512 28.68403 53.50368052 30.06400655 55.51171875 31.53125 C57.80197348 33.23509581 57.80197348 33.23509581 59.91796875 32.71484375 C62.03141476 31.98921407 63.85114522 31.12097707 65.80078125 30.03125 C66.52378418 29.62898193 67.24678711 29.22671387 67.99169922 28.81225586 C68.75756348 28.37921143 69.52342773 27.94616699 70.3125 27.5 C71.10414551 27.0572876 71.89579102 26.6145752 72.71142578 26.15844727 C78.6292116 22.82902686 84.467262 19.37616744 90.2277832 15.78125 C95.78944368 12.35917183 95.78944368 12.35917183 99 12 C99.99 12.495 99.99 12.495 101 13 C101.0154612 13.90748993 101.0154612 13.90748993 101.03123474 14.83331299 C101.13937584 21.12742758 101.25396779 27.42140123 101.37231445 33.71533203 C101.41563886 36.0645859 101.45731573 38.41387075 101.49731445 40.76318359 C101.55507715 44.1390924 101.61875468 47.51484561 101.68359375 50.890625 C101.70030624 51.94179504 101.71701874 52.99296509 101.73423767 54.07598877 C101.7641555 55.54706085 101.7641555 55.54706085 101.79467773 57.04785156 C101.81799416 58.3402475 101.81799416 58.3402475 101.84178162 59.65875244 C101.8749024 61.99787408 101.8749024 61.99787408 102.82533264 63.99700928 C103 66 103 66 101.01106262 68.71452332 C97.29660685 71.53389412 95.44654323 71.60811334 90.82299805 71.56762695 C89.76851723 71.56872215 89.76851723 71.56872215 88.69273376 71.56983948 C86.38159556 71.56637091 84.07250238 71.52755009 81.76171875 71.48828125 C80.15461834 71.47895038 78.54750366 71.47183556 76.94038391 71.46684265 C72.71992406 71.44779401 68.5003309 71.39871274 64.2802124 71.34332275 C59.97013065 71.29208352 55.65990821 71.2693187 51.34960938 71.24414062 C42.8993428 71.19059091 34.44977935 71.10530525 26 71 C26 74.63 26 78.26 26 82 C23.525 82.495 23.525 82.495 21 83 C18.5031109 81.30884461 16.36898876 79.66620159 14.125 77.6875 C9.46470506 73.61614343 6.03183276 71.45979245 0 70 C-2.7655493 67.2344507 -2.25348601 65.61880213 -2.25878906 61.74609375 C-2.26509338 60.43133057 -2.27139771 59.11656738 -2.27789307 57.76196289 C-2.2743134 56.3204739 -2.27021146 54.87898613 -2.265625 53.4375 C-2.26697168 51.96541276 -2.26891223 50.49332595 -2.27142334 49.02124023 C-2.27437449 45.93436452 -2.27007732 42.84760447 -2.26074219 39.76074219 C-2.24934756 35.79927871 -2.25590709 31.83808622 -2.26788712 27.87663269 C-2.275106 24.83636423 -2.27281768 21.79616027 -2.26763153 18.75588989 C-2.26629511 17.2950131 -2.2679425 15.8341305 -2.27259064 14.3732605 C-2.27765606 12.33347685 -2.26856979 10.29367274 -2.25878906 8.25390625 C-2.25640228 6.51089233 -2.25640228 6.51089233 -2.25396729 4.73266602 C-2 2 -2 2 0 0 Z " fill="#F90C37" transform="translate(2,5)"/>
<path d="M0 0 C5.1572597 4.22118174 8.26234813 9.85994245 11.6875 15.5 C12.26822266 16.43714844 12.84894531 17.37429687 13.44726562 18.33984375 C15.99287897 22.48934064 18.28870506 26.42840506 20 31 C22.74744233 28.5155607 24.51232787 25.75249661 26.43359375 22.59765625 C27.08263672 21.54255859 27.73167969 20.48746094 28.40039062 19.40039062 C29.75566661 17.1797131 31.10983821 14.95836117 32.46289062 12.73632812 C33.11322266 11.67994141 33.76355469 10.62355469 34.43359375 9.53515625 C35.02197021 8.569729 35.61034668 7.60430176 36.21655273 6.60961914 C37.9623214 4.05513299 39.65297877 2.01335747 42 0 C45 -0.5 45 -0.5 48 0 C50.66257276 2.07531372 51.85776826 3.2668964 52.50793457 6.61804199 C52.51111694 7.6096936 52.51429932 8.60134521 52.51757812 9.62304688 C52.53018677 10.75101685 52.54279541 11.87898682 52.55578613 13.0411377 C52.54768921 14.25474976 52.53959229 15.46836182 52.53125 16.71875 C52.5350769 17.96877808 52.53890381 19.21880615 52.54284668 20.50671387 C52.54556914 23.15005905 52.54019953 25.79192486 52.52148438 28.43505859 C52.49869354 31.81817491 52.51181983 35.20002197 52.53577423 38.58309174 C52.55372684 41.81585633 52.54114701 45.04846882 52.53125 48.28125 C52.53934692 49.49486206 52.54744385 50.70847412 52.55578613 51.9588623 C52.54317749 53.08683228 52.53056885 54.21480225 52.51757812 55.37695312 C52.51280457 56.86443054 52.51280457 56.86443054 52.50793457 58.38195801 C51.85776826 61.7331036 50.66257276 62.92468628 48 65 C45 65.5 45 65.5 42 65 C39.09108733 62.8021255 38.10841797 61.60066269 37.45410156 57.97558594 C37.4331543 56.82348633 37.41220703 55.67138672 37.390625 54.484375 C37.35839844 53.23398438 37.32617188 51.98359375 37.29296875 50.6953125 C37.27878906 49.39335938 37.26460937 48.09140625 37.25 46.75 C37.22035156 45.43257812 37.19070312 44.11515625 37.16015625 42.7578125 C37.08944612 39.50514657 37.03675214 36.25319807 37 33 C36.67725098 33.47945068 36.35450195 33.95890137 36.02197266 34.45288086 C34.56096388 36.61760099 33.09308807 38.77757543 31.625 40.9375 C30.86316406 42.06961914 30.86316406 42.06961914 30.0859375 43.22460938 C29.59609375 43.94326172 29.10625 44.66191406 28.6015625 45.40234375 C28.15119629 46.06741943 27.70083008 46.73249512 27.23681641 47.41772461 C25.43611376 49.72138704 24.12561192 49.97716147 21.25 50.5 C17.15416217 49.8698711 16.10931302 48.62958938 13.67089844 45.41601562 C11.72509029 42.60249759 10.01805696 39.69717546 8.30859375 36.734375 C7.68654053 35.65897461 7.0644873 34.58357422 6.42358398 33.47558594 C5.71890991 32.2501709 5.71890991 32.2501709 5 31 C4.9906543 31.8878418 4.98130859 32.77568359 4.97167969 33.69042969 C4.92759319 36.99345919 4.86595254 40.29520007 4.79248047 43.59765625 C4.76430389 45.02526937 4.74307273 46.45303753 4.72900391 47.88085938 C4.70752608 49.93700332 4.66086026 51.99129002 4.609375 54.046875 C4.58842773 55.28276367 4.56748047 56.51865234 4.54589844 57.79199219 C3.90713779 61.54571082 3.02979948 62.75891023 0 65 C-3.0625 65.4375 -3.0625 65.4375 -6 65 C-8.03667615 63.45493534 -8.86073078 62.27853844 -10 60 C-10.10080815 58.26478374 -10.13836626 56.52572601 -10.14526367 54.78759766 C-10.15164352 53.69951813 -10.15802338 52.6114386 -10.16459656 51.49038696 C-10.16570938 50.31019989 -10.1668222 49.13001282 -10.16796875 47.9140625 C-10.17129715 46.70559662 -10.17462555 45.49713074 -10.17805481 44.25204468 C-10.18312552 41.69147117 -10.18546309 39.13089103 -10.18530273 36.5703125 C-10.18748701 32.64832681 -10.20563545 28.72662329 -10.22460938 24.8046875 C-10.22754367 22.32031347 -10.22952822 19.83593809 -10.23046875 17.3515625 C-10.23765427 16.17542389 -10.24483978 14.99928528 -10.25224304 13.7875061 C-10.24916641 12.69312225 -10.24608978 11.5987384 -10.24291992 10.47119141 C-10.24434494 9.50903717 -10.24576996 8.54688293 -10.24723816 7.55557251 C-9.98766459 4.87249523 -9.45493575 3.2555875 -8 1 C-5.11138291 -0.44430855 -3.20352299 -0.37688506 0 0 Z " fill="#1A67E4" transform="translate(144,13)"/>
<path d="M0 0 C6.27527864 0.11840148 10.20517114 2.62929827 15.3125 6.0625 C16.97788132 7.14910794 18.64462928 8.23362325 20.3125 9.31640625 C21.21355469 9.90437988 22.11460938 10.49235352 23.04296875 11.09814453 C28.57587811 14.65671156 34.19982906 18.06922785 39.8125 21.5 C42.00719179 22.84263685 44.20123944 24.1863274 46.39453125 25.53125 C47.38275879 26.13453125 48.37098633 26.7378125 49.38916016 27.359375 C51.49717512 28.68403 53.50368052 30.06400655 55.51171875 31.53125 C57.80197348 33.23509581 57.80197348 33.23509581 59.91796875 32.71484375 C62.03141476 31.98921407 63.85114522 31.12097707 65.80078125 30.03125 C66.52378418 29.62898193 67.24678711 29.22671387 67.99169922 28.81225586 C68.75756348 28.37921143 69.52342773 27.94616699 70.3125 27.5 C71.10414551 27.0572876 71.89579102 26.6145752 72.71142578 26.15844727 C78.6292116 22.82902686 84.467262 19.37616744 90.2277832 15.78125 C95.78944368 12.35917183 95.78944368 12.35917183 99 12 C99.99 12.495 99.99 12.495 101 13 C101.0154612 13.90748993 101.0154612 13.90748993 101.03123474 14.83331299 C101.13937584 21.12742758 101.25396779 27.42140123 101.37231445 33.71533203 C101.41563886 36.0645859 101.45731573 38.41387075 101.49731445 40.76318359 C101.55507715 44.1390924 101.61875468 47.51484561 101.68359375 50.890625 C101.70030624 51.94179504 101.71701874 52.99296509 101.73423767 54.07598877 C101.7641555 55.54706085 101.7641555 55.54706085 101.79467773 57.04785156 C101.81799416 58.3402475 101.81799416 58.3402475 101.84178162 59.65875244 C101.8749024 61.99787408 101.8749024 61.99787408 102.82533264 63.99700928 C103 66 103 66 101.01106262 68.71452332 C97.29660685 71.53389412 95.44654323 71.60811334 90.82299805 71.56762695 C89.76851723 71.56872215 89.76851723 71.56872215 88.69273376 71.56983948 C86.38159556 71.56637091 84.07250238 71.52755009 81.76171875 71.48828125 C80.15461834 71.47895038 78.54750366 71.47183556 76.94038391 71.46684265 C72.71992406 71.44779401 68.5003309 71.39871274 64.2802124 71.34332275 C59.97013065 71.29208352 55.65990821 71.2693187 51.34960938 71.24414062 C42.8993428 71.19059091 34.44977935 71.10530525 26 71 C26 74.63 26 78.26 26 82 C23.525 82.495 23.525 82.495 21 83 C18.5031109 81.30884461 16.36898876 79.66620159 14.125 77.6875 C9.46470506 73.61614343 6.03183276 71.45979245 0 70 C-2.7655493 67.2344507 -2.25348601 65.61880213 -2.25878906 61.74609375 C-2.26509338 60.43133057 -2.27139771 59.11656738 -2.27789307 57.76196289 C-2.2743134 56.3204739 -2.27021146 54.87898613 -2.265625 53.4375 C-2.26697168 51.96541276 -2.26891223 50.49332595 -2.27142334 49.02124023 C-2.27437449 45.93436452 -2.27007732 42.84760447 -2.26074219 39.76074219 C-2.24934756 35.79927871 -2.25590709 31.83808622 -2.26788712 27.87663269 C-2.275106 24.83636423 -2.27281768 21.79616027 -2.26763153 18.75588989 C-2.26629511 17.2950131 -2.2679425 15.8341305 -2.27259064 14.3732605 C-2.27765606 12.33347685 -2.26856979 10.29367274 -2.25878906 8.25390625 C-2.25640228 6.51089233 -2.25640228 6.51089233 -2.25396729 4.73266602 C-2 2 -2 2 0 0 Z M1 2 C-0.28974423 3.06540695 -0.28974423 3.06540695 -0.12025452 5.54994202 C-0.11803391 6.68467453 -0.11581329 7.81940704 -0.11352539 8.98852539 C-0.11344986 10.26977798 -0.11337433 11.55103058 -0.11329651 12.87110901 C-0.10818909 14.27995848 -0.10297309 15.68880756 -0.09765625 17.09765625 C-0.09579202 18.53112234 -0.09436814 19.96458907 -0.09336853 21.39805603 C-0.08954372 25.17759957 -0.07971377 28.9571049 -0.06866455 32.7366333 C-0.05844963 36.59069298 -0.05387074 40.44475882 -0.04882812 44.29882812 C-0.03809146 51.86590287 -0.02101549 59.43294609 0 67 C4.25942407 69.39112654 8.10914736 69.23526784 12.88671875 69.15234375 C14.30170906 69.13988869 14.30170906 69.13988869 15.74528503 69.12718201 C17.91990058 69.10628501 20.09447099 69.08033554 22.26898193 69.05047607 C26.38840495 68.99474536 30.50783829 68.95400887 34.62744141 68.91455078 C42.6830871 68.83487406 50.73837326 68.73438211 58.79370117 68.62768555 C63.03031522 68.57180173 67.26697993 68.521951 71.50368214 68.47328281 C74.7866621 68.43450607 78.06957461 68.39139683 81.35248375 68.34705925 C82.91743619 68.3266857 84.48241104 68.30796448 86.04740334 68.29092598 C88.20983369 68.26699268 90.37209432 68.23694995 92.53442383 68.20532227 C93.76268387 68.18977798 94.99094391 68.1742337 96.25642395 68.15821838 C98.91144056 68.31030065 98.91144056 68.31030065 100 67 C100.62156824 64.6346096 100.62156824 64.6346096 100 62 C97.84456001 60.33714237 95.94078091 59.13730017 93.5625 57.875 C92.17923128 57.09556017 90.79778756 56.31287469 89.41796875 55.52734375 C88.69270996 55.1185498 87.96745117 54.70975586 87.22021484 54.28857422 C83.51767318 52.1396832 79.95205054 49.78740204 76.375 47.4375 C70.40894583 43.54435142 64.40157669 39.74640395 58.3203125 36.03515625 C53.82809371 33.28169038 49.36569063 30.48132931 44.90600586 27.67553711 C41.38044158 25.46401775 37.83141617 23.30362951 34.25 21.18359375 C27.38216172 17.0792818 20.76228812 12.59426545 14.12695312 8.12695312 C13.15048828 7.48048828 12.17402344 6.83402344 11.16796875 6.16796875 C10.29422607 5.58297607 9.4204834 4.9979834 8.52026367 4.39526367 C5.94553727 2.96984845 3.9173994 2.31199922 1 2 Z " fill="#FCD11E" transform="translate(2,5)"/>
<path d="M0 0 C5.40905682 4.0469936 8.84388993 8.90106428 10.6875 15.4375 C11.68513848 23.61813553 10.13905772 29.10385915 6.25 36.1875 C2.23435729 41.20705339 -2.64873338 44.65646283 -9 46 C-16.65138189 46.7869301 -23.34148223 46.0382152 -30 42 C-35.86150623 37.01054461 -39.3240345 31.21338389 -40.3125 23.58984375 C-40.69091099 15.9388466 -38.57246688 9.96823102 -33.5625 4.1875 C-32.716875 3.465625 -31.87125 2.74375 -31 2 C-30.236875 1.278125 -29.47375 0.55625 -28.6875 -0.1875 C-19.75002412 -6.21510001 -9.2207531 -4.62393648 0 0 Z M-23 12 C-26.08730697 16.32222975 -26.41721191 19.78264986 -25.65234375 24.87890625 C-24.63291033 28.19359096 -22.68014781 29.90817732 -20 32 C-16.89046621 33.5547669 -14.43733239 33.28644437 -11 33 C-7.67289932 31.30506192 -5.61724306 29.93928292 -3.5625 26.8125 C-2.73734231 22.68671157 -2.88837684 19.06368201 -4 15 C-6.06903066 11.89645401 -7.54595298 10.4214629 -11.15625 9.375 C-15.93272039 8.61076474 -19.26414548 8.59377971 -23 12 Z " fill="#1462E2" transform="translate(342,32)"/>
<path d="M0 0 C2.80562038 0.97586796 4.07075137 1.69457119 5.875 4 C6.7 3.505 7.525 3.01 8.375 2.5 C12.75777636 0.62166727 15.14840318 0.45760364 19.875 1 C21.9375 2.625 21.9375 2.625 22.875 5 C22.80595985 8.38296731 22.57895238 10.24189744 20.25 12.75 C17.875 14 17.875 14 14.3125 15 C11.07572148 15.9416083 9.79380139 16.33499807 7.875 19 C6.85726824 22.05319529 6.73635233 24.20484894 6.69921875 27.40234375 C6.67537109 28.45744141 6.65152344 29.51253906 6.62695312 30.59960938 C6.58406355 32.82076929 6.55276996 35.04218408 6.53320312 37.26367188 C6.50548828 38.32005859 6.47777344 39.37644531 6.44921875 40.46484375 C6.43463623 41.430271 6.42005371 42.39569824 6.4050293 43.39038086 C5.72785398 46.72447896 4.52916386 47.92963795 1.875 50 C-1.1875 50.4375 -1.1875 50.4375 -4.125 50 C-6.16167615 48.45493534 -6.98573078 47.27853844 -8.125 45 C-8.41044013 39.34720147 -8.43878534 33.69325965 -8.47509766 28.03393555 C-8.49165332 26.14155781 -8.51893835 24.2492425 -8.55712891 22.35717773 C-8.61194472 19.62711186 -8.63377818 16.8985111 -8.6484375 14.16796875 C-8.67110687 13.32509811 -8.69377625 12.48222748 -8.71713257 11.61381531 C-8.70146381 7.24862601 -8.51635231 5.51451343 -5.78759766 1.92700195 C-3.125 0 -3.125 0 0 0 Z " fill="#0E5FE4" transform="translate(277.125,28)"/>
<path d="M0 0 C2.80562038 0.97586796 4.07075137 1.69457119 5.875 4 C6.535 3.505 7.195 3.01 7.875 2.5 C11.92279924 0.47610038 14.37070147 0.63675012 18.875 1 C21.875 3 21.875 3 22.875 5.8125 C22.875 9 22.875 9 21 11.6875 C17.64300744 14.1716745 14.8594062 15.19227134 10.86328125 16.2265625 C8.51219001 16.92200449 8.51219001 16.92200449 6.875 20 C6.57198268 22.63048562 6.57198268 22.63048562 6.6015625 25.5859375 C6.5809375 26.68164062 6.5603125 27.77734375 6.5390625 28.90625 C6.51310965 31.21086347 6.49482732 33.51557661 6.484375 35.8203125 C6.306457 44.24176438 6.306457 44.24176438 4.0234375 48.25390625 C1.875 50 1.875 50 -1.125 50.5625 C-4.91625872 49.85163899 -5.85739521 49.11544751 -8.125 46 C-8.73290359 42.9416452 -8.70933469 39.92683651 -8.69140625 36.81640625 C-8.69760483 35.92388657 -8.70380341 35.03136688 -8.71018982 34.11180115 C-8.71728534 32.22648203 -8.71411861 30.34110022 -8.70141602 28.45581055 C-8.68756244 25.57548275 -8.72160782 22.69841216 -8.75976562 19.81835938 C-8.76071698 17.98437421 -8.75885711 16.15038498 -8.75390625 14.31640625 C-8.76716446 13.45793594 -8.78042267 12.59946564 -8.79408264 11.71498108 C-8.72596448 7.32583427 -8.52032018 5.51983306 -5.78100586 1.91772461 C-3.125 0 -3.125 0 0 0 Z " fill="#1061E7" transform="translate(241.125,28)"/>
<path d="M0 0 C2.3125 1.5625 2.3125 1.5625 4 3 C4.66 2.505 5.32 2.01 6 1.5 C10.07400419 -0.5370021 12.46723344 -0.43865483 17 0 C19 1.125 19 1.125 20 3 C20.42478586 7.07794425 20.31282587 8.53076119 18 12 C15.49956363 12.88780502 12.99236543 13.45392326 10.41015625 14.05859375 C7.49894478 15.19571201 6.58381557 16.34375759 5 19 C3.9829299 22.0512103 3.84690572 24.2407333 3.7890625 27.4375 C3.76070313 28.49710938 3.73234375 29.55671875 3.703125 30.6484375 C3.65104559 32.88264413 3.60677314 35.11704641 3.5703125 37.3515625 C3.52390625 38.94097656 3.52390625 38.94097656 3.4765625 40.5625 C3.45674316 41.53316406 3.43692383 42.50382812 3.41650391 43.50390625 C2.93516841 46.38853354 2.35699219 47.31315351 0 49 C-3.13781494 49.40057212 -5.23446943 49.32316816 -8.15600586 48.08984375 C-11.21782508 44.61980899 -10.59004994 40.65680553 -10.56640625 36.1875 C-10.57260483 35.22223389 -10.57880341 34.25696777 -10.58518982 33.26245117 C-10.59229412 31.2215272 -10.58910337 29.18054534 -10.57641602 27.13964844 C-10.56255004 24.0112889 -10.59661198 20.88591919 -10.63476562 17.7578125 C-10.63571678 15.77604093 -10.63385818 13.79426561 -10.62890625 11.8125 C-10.64216446 10.87494873 -10.65542267 9.93739746 -10.66908264 8.97143555 C-10.63414418 6.54334591 -10.56090673 4.36261274 -10 2 C-6.56340547 -1.06384128 -4.32447848 -1.55237689 0 0 Z " fill="#1563E2" transform="translate(372,29)"/>
<path d="M0 0 C6.27527864 0.11840148 10.20517114 2.62929827 15.3125 6.0625 C16.97788132 7.14910794 18.64462928 8.23362325 20.3125 9.31640625 C21.21355469 9.90437988 22.11460938 10.49235352 23.04296875 11.09814453 C28.57587811 14.65671156 34.19982906 18.06922785 39.8125 21.5 C42.00719179 22.84263685 44.20123944 24.1863274 46.39453125 25.53125 C47.3803418 26.13557861 48.36615234 26.73990723 49.38183594 27.36254883 C51.50346467 28.68945707 53.57356295 30.05473773 55.62890625 31.48046875 C57.83179448 33.23309311 57.83179448 33.23309311 60.125 32.8125 C60.74375 32.544375 61.3625 32.27625 62 32 C63.33333333 31.66666667 64.66666667 31.33333333 66 31 C66 31.66 66 32.32 66 33 C63.3268801 35.12277169 61.7532821 36.03493482 58.3046875 35.875 C54.04244566 34.74646315 50.90231186 32.72739732 47.25 30.3125 C45.92257414 29.45334591 44.59443812 28.59528816 43.265625 27.73828125 C42.57815186 27.29202393 41.89067871 26.8457666 41.18237305 26.38598633 C38.88823696 24.92902128 36.56184774 23.53961272 34.22265625 22.15625 C27.3596073 18.06777916 20.75207816 13.58739149 14.12695312 9.12695312 C13.15048828 8.48048828 12.17402344 7.83402344 11.16796875 7.16796875 C10.29422607 6.58297607 9.4204834 5.9979834 8.52026367 5.39526367 C5.72729321 3.68254301 5.72729321 3.68254301 1 3 C1 24.12 1 45.24 1 67 C4.95223495 68.31741165 8.70111001 68.12415176 12.8203125 68.09375 C14.24176071 68.08837219 14.24176071 68.08837219 15.69192505 68.08288574 C30.91220059 68.0029341 46.13191111 67.75733297 61.35064697 67.53643799 C66.3629659 67.46408724 71.37531829 67.39409402 76.38766479 67.32368469 C83.92513633 67.21755098 91.4625606 67.10850813 99 67 C99.33 49.51 99.66 32.02 100 14 C98.35 14 96.7 14 95 14 C96.875 12.9375 96.875 12.9375 99 12 C99.99 12.495 99.99 12.495 101 13 C101.0154612 13.90748993 101.0154612 13.90748993 101.03123474 14.83331299 C101.13937584 21.12742758 101.25396779 27.42140123 101.37231445 33.71533203 C101.41563886 36.0645859 101.45731573 38.41387075 101.49731445 40.76318359 C101.55507715 44.1390924 101.61875468 47.51484561 101.68359375 50.890625 C101.70030624 51.94179504 101.71701874 52.99296509 101.73423767 54.07598877 C101.7641555 55.54706085 101.7641555 55.54706085 101.79467773 57.04785156 C101.81799416 58.3402475 101.81799416 58.3402475 101.84178162 59.65875244 C101.8749024 61.99787408 101.8749024 61.99787408 102.82533264 63.99700928 C103 66 103 66 101.01106262 68.71452332 C97.29660685 71.53389412 95.44654323 71.60811334 90.82299805 71.56762695 C89.76851723 71.56872215 89.76851723 71.56872215 88.69273376 71.56983948 C86.38159556 71.56637091 84.07250238 71.52755009 81.76171875 71.48828125 C80.15461834 71.47895038 78.54750366 71.47183556 76.94038391 71.46684265 C72.71992406 71.44779401 68.5003309 71.39871274 64.2802124 71.34332275 C59.97013065 71.29208352 55.65990821 71.2693187 51.34960938 71.24414062 C42.8993428 71.19059091 34.44977935 71.10530525 26 71 C26 74.63 26 78.26 26 82 C23.525 82.495 23.525 82.495 21 83 C18.5031109 81.30884461 16.36898876 79.66620159 14.125 77.6875 C9.46470506 73.61614343 6.03183276 71.45979245 0 70 C-2.7655493 67.2344507 -2.25348601 65.61880213 -2.25878906 61.74609375 C-2.26509338 60.43133057 -2.27139771 59.11656738 -2.27789307 57.76196289 C-2.2743134 56.3204739 -2.27021146 54.87898613 -2.265625 53.4375 C-2.26697168 51.96541276 -2.26891223 50.49332595 -2.27142334 49.02124023 C-2.27437449 45.93436452 -2.27007732 42.84760447 -2.26074219 39.76074219 C-2.24934756 35.79927871 -2.25590709 31.83808622 -2.26788712 27.87663269 C-2.275106 24.83636423 -2.27281768 21.79616027 -2.26763153 18.75588989 C-2.26629511 17.2950131 -2.2679425 15.8341305 -2.27259064 14.3732605 C-2.27765606 12.33347685 -2.26856979 10.29367274 -2.25878906 8.25390625 C-2.25640228 6.51089233 -2.25640228 6.51089233 -2.25396729 4.73266602 C-2 2 -2 2 0 0 Z " fill="#FDD3C7" transform="translate(2,5)"/>
<path d="M0 0 C2.28027344 0.06518555 2.28027344 0.06518555 5 1 C6.45100091 3.35990139 7.48435423 5.41966094 8.515625 7.95703125 C8.81692322 8.65640305 9.11822144 9.35577484 9.4286499 10.07633972 C10.38727842 12.31448513 11.31837657 14.56299958 12.25 16.8125 C12.89153391 18.31647946 13.53474452 19.8197449 14.1796875 21.32226562 C19.21597013 33.14762895 19.21597013 33.14762895 20 37 C20.66 37 21.32 37 22 37 C22.10344727 36.32420898 22.20689453 35.64841797 22.31347656 34.95214844 C23.14663104 31.36946568 24.50988368 28.119523 25.984375 24.765625 C26.28184631 24.08699402 26.57931763 23.40836304 26.88580322 22.70916748 C27.51490194 21.28246806 28.14710423 19.85713357 28.78222656 18.43310547 C29.74984691 16.25034535 30.6911659 14.05734729 31.6328125 11.86328125 C32.2484022 10.47585247 32.86553725 9.0891081 33.484375 7.703125 C33.76166443 7.0458844 34.03895386 6.3886438 34.324646 5.71148682 C35.16308594 3.87988281 35.16308594 3.87988281 37 1 C39.71972656 0.08105469 39.71972656 0.08105469 42 0 C43.48075303 4.56442982 41.7798902 7.53882007 39.84375 11.703125 C39.50380005 12.45857605 39.1638501 13.2140271 38.81359863 13.99237061 C37.71987357 16.41664704 36.61041446 18.83332909 35.5 21.25 C34.78277034 22.8302377 34.06661362 24.41096283 33.3515625 25.9921875 C32.28645486 28.3472453 31.21955985 30.7013533 30.14501953 33.05212402 C28.40095106 36.87171379 26.68842101 40.69956317 25.046875 44.56445312 C24.73786255 45.28864441 24.4288501 46.01283569 24.11047363 46.75897217 C23.53621054 48.11161527 22.96823441 49.46695359 22.40808105 50.82550049 C19.9137759 56.68892114 16.94121227 61.35946121 11 64 C6.71603489 64.84621533 3.18355429 65.3945181 -1 64 C-1.495 62.515 -1.495 62.515 -2 61 C-1.67 60.34 -1.34 59.68 -1 59 C1.14453125 58.7265625 1.14453125 58.7265625 3.8125 58.625 C7.89755597 58.29314901 7.89755597 58.29314901 11.4375 56.3125 C15.0966929 51.04791401 15.0966929 51.04791401 15.80126953 44.82470703 C14.87109717 40.38470697 13.29760885 36.69844385 11.3671875 32.6171875 C10.63650803 31.02223194 9.90604568 29.42717689 9.17578125 27.83203125 C8.02351535 25.34374776 6.86687159 22.857613 5.70556641 20.37353516 C4.58122701 17.95988987 3.47349146 15.53914038 2.3671875 13.1171875 C2.0151828 12.37749725 1.6631781 11.63780701 1.30050659 10.8757019 C-0.51743749 6.87634037 -1.5110176 4.23811877 0 0 Z " fill="#4F85D8" transform="translate(467,30)"/>
<path d="M0 0 C1.56047445 0.00015913 3.12095416 0.00585397 4.68139648 0.01586914 C5.91115456 0.01799156 5.91115456 0.01799156 7.16575623 0.02015686 C9.79470406 0.0257725 12.42356797 0.0383276 15.05249023 0.05102539 C16.8304838 0.05603838 18.60847869 0.06060163 20.38647461 0.06469727 C24.75434569 0.07574701 29.12215371 0.09302208 33.48999023 0.11352539 C34.05249023 2.05102539 34.05249023 2.05102539 34.48999023 4.11352539 C33.48999023 5.11352539 33.48999023 5.11352539 30.43896484 5.22705078 C29.09007753 5.22689174 27.74118409 5.22120151 26.39233398 5.21118164 C25.32904625 5.20905922 25.32904625 5.20905922 24.24427795 5.20689392 C21.97197311 5.20127982 19.69976548 5.18872502 17.42749023 5.17602539 C15.89038228 5.1710122 14.35327278 5.16644898 12.81616211 5.16235352 C9.04070356 5.15215509 5.26545619 5.13258271 1.48999023 5.11352539 C1.48999023 12.70352539 1.48999023 20.29352539 1.48999023 28.11352539 C3.27147461 28.10192383 5.05295898 28.09032227 6.88842773 28.07836914 C9.21394752 28.06899204 11.53946844 28.05989176 13.86499023 28.05102539 C15.62842773 28.03845703 15.62842773 28.03845703 17.42749023 28.02563477 C19.1097168 28.02080078 19.1097168 28.02080078 20.82592773 28.01586914 C22.38126221 28.00801392 22.38126221 28.00801392 23.96801758 28 C26.48999023 28.11352539 26.48999023 28.11352539 28.48999023 29.11352539 C28.15999023 30.76352539 27.82999023 32.41352539 27.48999023 34.11352539 C18.90999023 34.11352539 10.32999023 34.11352539 1.48999023 34.11352539 C1.5015918 36.12317383 1.51319336 38.13282227 1.52514648 40.20336914 C1.53209763 42.14273963 1.53901419 44.08211043 1.54492188 46.02148438 C1.5499608 47.37272925 1.55679201 48.72396865 1.56542969 50.07519531 C1.57751443 52.01372973 1.58268852 53.95230339 1.58764648 55.89086914 C1.5928833 57.0586792 1.59812012 58.22648926 1.60351562 59.4296875 C1.48999023 62.11352539 1.48999023 62.11352539 0.48999023 63.11352539 C-1.17618092 63.15416371 -2.84389071 63.15624639 -4.51000977 63.11352539 C-4.53313713 55.04700365 -4.55092686 46.98049567 -4.56182194 38.91394901 C-4.56704991 35.16869502 -4.57414598 31.42346363 -4.58544922 27.67822266 C-4.59628117 24.06670852 -4.60228725 20.45521618 -4.60488701 16.84368706 C-4.6067407 15.4629221 -4.61036026 14.08215839 -4.61573982 12.70140266 C-4.62295423 10.77376587 -4.62341785 8.84610732 -4.62353516 6.91845703 C-4.62575577 5.8192543 -4.62797638 4.72005157 -4.63026428 3.58753967 C-4.44108695 -0.30443405 -4.04083016 0.13069389 0 0 Z " fill="#5A97F3" transform="translate(405.510009765625,13.886474609375)"/>
<path d="M0 0 C3.58617605 4.31942473 3.4674224 8.49430415 3.46875 13.84375 C3.47636353 14.69046265 3.48397705 15.53717529 3.49182129 16.4095459 C3.50259761 18.19471292 3.50548544 19.97994286 3.50097656 21.76513672 C3.50000299 24.49162976 3.54167484 27.21531831 3.5859375 29.94140625 C3.59114408 31.67968165 3.5938327 33.4179668 3.59375 35.15625 C3.6183429 36.37362854 3.6183429 36.37362854 3.64343262 37.61560059 C3.59164846 41.86885059 3.34277689 43.54635032 0.69335938 47.05273438 C-2 49 -2 49 -5.6875 49 C-9 48 -9 48 -11 45 C-11.26069641 43.06494141 -11.26069641 43.06494141 -11.2746582 40.8515625 C-11.28419022 40.02060059 -11.29372223 39.18963867 -11.30354309 38.33349609 C-11.30263168 37.43969238 -11.30172028 36.54588867 -11.30078125 35.625 C-11.30506638 34.70412598 -11.3093515 33.78325195 -11.31376648 32.83447266 C-11.31950889 30.88770368 -11.3200107 28.94091324 -11.31567383 26.99414062 C-11.31251203 24.01134793 -11.33598035 21.02954517 -11.36132812 18.046875 C-11.36360089 16.15625125 -11.36430472 14.26562484 -11.36328125 12.375 C-11.372491 11.48119629 -11.38170074 10.58739258 -11.39118958 9.66650391 C-11.38496078 8.83554199 -11.37873199 8.00458008 -11.37231445 7.1484375 C-11.37294388 6.41802246 -11.3735733 5.68760742 -11.3742218 4.93505859 C-10.89250822 2.44417218 -9.9425279 1.58050722 -8 0 C-5.00422405 -1.49788797 -3.16806651 -0.90516186 0 0 Z " fill="#145FD9" transform="translate(219,29)"/>
<path d="M0 0 C2.80562038 0.97586796 4.07075137 1.69457119 5.875 4 C6.7 3.505 7.525 3.01 8.375 2.5 C12.75777636 0.62166727 15.14840318 0.45760364 19.875 1 C21.9375 2.625 21.9375 2.625 22.875 5 C22.80595985 8.38296731 22.57895238 10.24189744 20.25 12.75 C17.875 14 17.875 14 14.3125 15 C11.07572148 15.9416083 9.79380139 16.33499807 7.875 19 C6.85726824 22.05319529 6.73635233 24.20484894 6.69921875 27.40234375 C6.67537109 28.45744141 6.65152344 29.51253906 6.62695312 30.59960938 C6.58406355 32.82076929 6.55276996 35.04218408 6.53320312 37.26367188 C6.50548828 38.32005859 6.47777344 39.37644531 6.44921875 40.46484375 C6.43463623 41.430271 6.42005371 42.39569824 6.4050293 43.39038086 C5.72785398 46.72447896 4.52916386 47.92963795 1.875 50 C-1.1875 50.4375 -1.1875 50.4375 -4.125 50 C-6.16167615 48.45493534 -6.98573078 47.27853844 -8.125 45 C-8.41044013 39.34720147 -8.43878534 33.69325965 -8.47509766 28.03393555 C-8.49165332 26.14155781 -8.51893835 24.2492425 -8.55712891 22.35717773 C-8.61194472 19.62711186 -8.63377818 16.8985111 -8.6484375 14.16796875 C-8.67110687 13.32509811 -8.69377625 12.48222748 -8.71713257 11.61381531 C-8.70146381 7.24862601 -8.51635231 5.51451343 -5.78759766 1.92700195 C-3.125 0 -3.125 0 0 0 Z M-7.125 6 C-7.22424823 10.87461475 -7.29664581 15.74863497 -7.34472656 20.62402344 C-7.36478009 22.28070325 -7.39203029 23.93731282 -7.42675781 25.59375 C-7.47555512 27.98194758 -7.49803064 30.36920547 -7.515625 32.7578125 C-7.53627014 33.49242706 -7.55691528 34.22704163 -7.57818604 34.98391724 C-7.58040215 40.1204941 -6.46211958 43.10214113 -3.125 47 C-0.4545947 47.50241322 -0.4545947 47.50241322 1.875 47 C1.875 46.01 1.875 45.02 1.875 44 C2.535 44 3.195 44 3.875 44 C3.875 36.08 3.875 28.16 3.875 20 C4.535 20 5.195 20 5.875 20 C5.545 18.68 5.215 17.36 4.875 16 C6.195 16 7.515 16 8.875 16 C9.80923645 12.98968256 9.91949911 12.13349732 8.875 9 C8.875 8.01 8.875 7.02 8.875 6 C7.555 7.32 6.235 8.64 4.875 10 C4.215 7.69 3.555 5.38 2.875 3 C-1.45594958 3 -3.39534861 3.96564469 -7.125 6 Z " fill="#498BF4" transform="translate(277.125,28)"/>
<path d="M0 0 C1.65 0.33 3.3 0.66 5 1 C5 21.46 5 41.92 5 63 C2.525 63.495 2.525 63.495 0 64 C-1.77916467 62.22083533 -1.12764835 59.61686701 -1.12939453 57.2109375 C-1.13254669 55.9729541 -1.13569885 54.7349707 -1.13894653 53.45947266 C-1.13715675 52.09798141 -1.1351058 50.73649049 -1.1328125 49.375 C-1.13348559 47.98876936 -1.13445566 46.60253883 -1.13571167 45.21630859 C-1.1371884 42.30760578 -1.1350349 39.39893363 -1.13037109 36.49023438 C-1.12467381 32.75403402 -1.12795294 29.01790548 -1.13394356 25.28170776 C-1.13754985 22.41820734 -1.13641027 19.55472407 -1.13381577 16.69122314 C-1.13314668 15.31325268 -1.13397426 13.93528068 -1.13629532 12.55731201 C-1.13882292 10.63456246 -1.13429024 8.71180748 -1.12939453 6.7890625 C-1.12859894 5.69287598 -1.12780334 4.59668945 -1.12698364 3.46728516 C-1 1 -1 1 0 0 Z " fill="#1060E2" transform="translate(450,14)"/>
<path d="M0 0 C6.27527864 0.11840148 10.20517114 2.62929827 15.3125 6.0625 C16.97788132 7.14910794 18.64462928 8.23362325 20.3125 9.31640625 C21.21355469 9.90437988 22.11460938 10.49235352 23.04296875 11.09814453 C28.57587811 14.65671156 34.19982906 18.06922785 39.8125 21.5 C42.00719179 22.84263685 44.20123944 24.1863274 46.39453125 25.53125 C47.3803418 26.13557861 48.36615234 26.73990723 49.38183594 27.36254883 C51.50346467 28.68945707 53.57356295 30.05473773 55.62890625 31.48046875 C57.83179448 33.23309311 57.83179448 33.23309311 60.125 32.8125 C60.74375 32.544375 61.3625 32.27625 62 32 C63.33333333 31.66666667 64.66666667 31.33333333 66 31 C66 31.66 66 32.32 66 33 C63.3268801 35.12277169 61.7532821 36.03493482 58.3046875 35.875 C54.04244566 34.74646315 50.90231186 32.72739732 47.25 30.3125 C45.92257414 29.45334591 44.59443812 28.59528816 43.265625 27.73828125 C42.57815186 27.29202393 41.89067871 26.8457666 41.18237305 26.38598633 C38.88823696 24.92902128 36.56184774 23.53961272 34.22265625 22.15625 C27.3596073 18.06777916 20.75207816 13.58739149 14.12695312 9.12695312 C13.15048828 8.48048828 12.17402344 7.83402344 11.16796875 7.16796875 C10.29422607 6.58297607 9.4204834 5.9979834 8.52026367 5.39526367 C5.94493781 3.96951657 3.87360954 3.50639186 1 3 C0.88420345 11.29266122 0.7953355 19.58498534 0.74093914 27.87825489 C0.71483273 31.72910405 0.67941769 35.57940058 0.62280273 39.42993164 C0.56851705 43.14524967 0.53858732 46.86003586 0.52561378 50.57571983 C0.51636741 51.99398868 0.49831088 53.41222806 0.47134972 54.83027077 C0.43511687 56.81470023 0.43295813 58.7996637 0.43237305 60.78442383 C0.42126999 61.91471512 0.41016693 63.04500641 0.39872742 64.20954895 C0.7294434 67.23090869 0.7294434 67.23090869 3.53547668 68.88847351 C4.34876938 69.25527725 5.16206207 69.62208099 6 70 C4.25 70.6875 4.25 70.6875 2 71 C-0.11026001 69.91749573 -0.11026001 69.91749573 -2 68 C-2.49447632 65.14707947 -2.49447632 65.14707947 -2.48583984 61.63256836 C-2.49506973 59.66053688 -2.49506973 59.66053688 -2.50448608 57.64866638 C-2.49069115 56.21238506 -2.47615725 54.77611068 -2.4609375 53.33984375 C-2.45855323 51.86918804 -2.45764772 50.39852925 -2.4581604 48.9278717 C-2.45503251 45.84682123 -2.43846729 42.76623615 -2.41162109 39.68530273 C-2.37761101 35.73168147 -2.36999332 31.77857094 -2.37151146 27.82482052 C-2.37096825 24.78881434 -2.36000956 21.7529203 -2.34550858 18.71695137 C-2.33913512 17.25887463 -2.3352004 15.80078516 -2.33372116 14.34269524 C-2.32939584 12.30776285 -2.31032396 10.27287779 -2.29052734 8.23803711 C-2.28290375 7.07904404 -2.27528015 5.92005096 -2.26742554 4.72593689 C-2 2 -2 2 0 0 Z " fill="#FDBED1" transform="translate(2,5)"/>
<path d="M0 0 C1.67542976 0.28604898 3.34385343 0.61781233 5 1 C4.31888724 6.16735786 2.12263877 10.6648416 0.03515625 15.38671875 C-0.35821426 16.28493851 -0.75158478 17.18315826 -1.15687561 18.1085968 C-1.98746616 20.00161727 -2.82056579 21.89353857 -3.65600586 23.78442383 C-4.93618129 26.68451262 -6.20590568 29.58901795 -7.47460938 32.49414062 C-8.28323227 34.33360684 -9.09245645 36.17280888 -9.90234375 38.01171875 C-10.47274635 39.31794441 -10.47274635 39.31794441 -11.05467224 40.65055847 C-11.59016441 41.85740044 -11.59016441 41.85740044 -12.13647461 43.08862305 C-12.44878525 43.7974614 -12.76109589 44.50629974 -13.08287048 45.23661804 C-14 47 -14 47 -16 49 C-16 46.69 -16 44.38 -16 42 C-15.01 42 -14.02 42 -13 42 C-13 40.35 -13 38.7 -13 37 C-14.65 37.66 -16.3 38.32 -18 39 C-18 38.34 -18 37.68 -18 37 C-17.34 37 -16.68 37 -16 37 C-15.89945312 36.32420898 -15.79890625 35.64841797 -15.6953125 34.95214844 C-14.84565045 31.34466477 -13.41375261 28.118279 -11.875 24.765625 C-11.56804199 24.08699402 -11.26108398 23.40836304 -10.94482422 22.70916748 C-10.29836506 21.28269306 -9.64939082 19.85735607 -8.99804688 18.43310547 C-7.99806556 16.24576865 -7.00623219 14.05487706 -6.015625 11.86328125 C-5.38588847 10.47634818 -4.75569616 9.08962195 -4.125 7.703125 C-3.82706543 7.0458844 -3.52913086 6.3886438 -3.22216797 5.71148682 C-1.11642196 1.11642196 -1.11642196 1.11642196 0 0 Z " fill="#659BE4" transform="translate(505,30)"/>
<path d="M0 0 C0.99 0 1.98 0 3 0 C3 0.66 3 1.32 3 2 C3.8353125 2.37125 3.8353125 2.37125 4.6875 2.75 C9.57847773 5.39377175 12.1942059 8.28116447 15 13 C15.99 13.33 16.98 13.66 18 14 C18.44988281 14.75925781 18.89976563 15.51851562 19.36328125 16.30078125 C21.25345089 19.41798226 23.27740501 21.01647675 26.1875 23.1875 C27.82614571 24.41355395 29.44058069 25.67463987 31 27 C31 27.66 31 28.32 31 29 C26.82499575 27.48039245 23.09860699 25.42014707 19.3125 23.125 C18.67691162 22.742229 18.04132324 22.35945801 17.38647461 21.96508789 C9.08577989 16.90949194 1.04321519 11.45239186 -7 6 C-5.1875 4 -5.1875 4 -3 2 C-2.01 2 -1.02 2 0 2 C0 1.34 0 0.68 0 0 Z " fill="#D6AF12" transform="translate(68,36)"/>
<path d="M0 0 C3.38121991 2.44598887 4.76936783 3.89296559 5.625 8 C4.76936783 12.10703441 3.38121991 13.55401113 0 16 C-4.43262088 16.79153944 -6.24375652 16.50416232 -10 14 C-12.04461358 10.93307963 -12.32393649 10.33106293 -12.0625 6.875 C-11.52386692 4.25595843 -11.08824882 3.10861393 -9.375 1 C-5.97047997 -0.43348212 -3.65951893 -0.51361669 0 0 Z " fill="#1B6CF6" transform="translate(218,5)"/>
<path d="M0 0 C2 1.125 2 1.125 3 3 C3.42478586 7.07794425 3.31282587 8.53076119 1 12 C-1.3828125 12.73046875 -1.3828125 12.73046875 -4.125 13.1875 C-5.03507812 13.34605469 -5.94515625 13.50460938 -6.8828125 13.66796875 C-7.58148438 13.77753906 -8.28015625 13.88710938 -9 14 C-9.33 13.34 -9.66 12.68 -10 12 C-12.30532837 10.69364726 -14.47571223 9.84142926 -17 9 C-16.34 9 -15.68 9 -15 9 C-15.33 8.01 -15.66 7.02 -16 6 C-11.99845889 -0.00231166 -6.72218695 -0.66119872 0 0 Z " fill="#1A6AF5" transform="translate(389,29)"/>
<path d="M0 0 C2.31689453 0.15649414 2.31689453 0.15649414 5 1 C6.59326172 3.37670898 6.59326172 3.37670898 7.9296875 6.49609375 C8.414375 7.61177734 8.8990625 8.72746094 9.3984375 9.87695312 C9.88570313 11.05193359 10.37296875 12.22691406 10.875 13.4375 C11.38546875 14.60861328 11.8959375 15.77972656 12.421875 16.98632812 C15.12653808 23.32035666 15.12653808 23.32035666 16 26 C15.67 26.66 15.34 27.32 15 28 C14.01 27.67 13.02 27.34 12 27 C12 27.66 12 28.32 12 29 C12.66 29 13.32 29 14 29 C14 31.31 14 33.62 14 36 C10.19644894 31.32321348 8.03531889 25.90571439 5.59179688 20.43725586 C4.75147782 18.56579124 3.89176829 16.70404294 3.03125 14.84179688 C2.50015625 13.65779297 1.9690625 12.47378906 1.421875 11.25390625 C0.93299805 10.17439697 0.44412109 9.0948877 -0.05957031 7.98266602 C-1.06676966 4.78823341 -0.97588851 3.15993285 0 0 Z " fill="#3A80E6" transform="translate(467,30)"/>
<path d="M0 0 C3.64584413 2.90010329 5.60551748 5.56301016 7 10 C3.535 8.02 3.535 8.02 0 6 C0 5.01 0 4.02 0 3 C-2.91517292 4.07401108 -4.77810176 4.77810176 -7 7 C-7.33131413 9.38480046 -7.33131413 9.38480046 -7.31884766 12.18408203 C-7.33871735 13.26505157 -7.35858704 14.34602112 -7.37905884 15.45974731 C-7.39061005 16.63060883 -7.40216125 17.80147034 -7.4140625 19.0078125 C-7.43342865 20.20356903 -7.4527948 21.39932556 -7.4727478 22.63131714 C-7.53267944 26.46247148 -7.5789836 30.29365565 -7.625 34.125 C-7.66316724 36.71746125 -7.70221821 39.30990966 -7.7421875 41.90234375 C-7.8383921 48.26811537 -7.92339961 54.63396395 -8 61 C-6.8553125 61.433125 -6.8553125 61.433125 -5.6875 61.875 C-3 63 -3 63 0 65 C-5.51532033 65.36768802 -5.51532033 65.36768802 -7.8125 63.625 C-10.05309194 60.55892682 -10.13035729 58.54396653 -10.14526367 54.78759766 C-10.15164352 53.69951813 -10.15802338 52.6114386 -10.16459656 51.49038696 C-10.16570938 50.31019989 -10.1668222 49.13001282 -10.16796875 47.9140625 C-10.17129715 46.70559662 -10.17462555 45.49713074 -10.17805481 44.25204468 C-10.18312552 41.69147117 -10.18546309 39.13089103 -10.18530273 36.5703125 C-10.18748701 32.64832681 -10.20563545 28.72662329 -10.22460938 24.8046875 C-10.22754367 22.32031347 -10.22952822 19.83593809 -10.23046875 17.3515625 C-10.23765427 16.17542389 -10.24483978 14.99928528 -10.25224304 13.7875061 C-10.24916641 12.69312225 -10.24608978 11.5987384 -10.24291992 10.47119141 C-10.24434494 9.50903717 -10.24576996 8.54688293 -10.24723816 7.55557251 C-9.98766459 4.87249523 -9.45493575 3.2555875 -8 1 C-5.11138291 -0.44430855 -3.20352299 -0.37688506 0 0 Z " fill="#7CAEE2" transform="translate(144,13)"/>
<path d="M0 0 C6.93 0 13.86 0 21 0 C21 4.29 21 8.58 21 13 C16 14 16 14 14.17895508 13.15136719 C13.63134521 12.70438477 13.08373535 12.25740234 12.51953125 11.796875 C11.91302734 11.31089844 11.30652344 10.82492188 10.68164062 10.32421875 C10.06482422 9.80472656 9.44800781 9.28523438 8.8125 8.75 C8.18408203 8.24597656 7.55566406 7.74195312 6.90820312 7.22265625 C4.06931265 4.90903642 2.05781332 3.08671998 0 0 Z " fill="#28D0AC" transform="translate(7,74)"/>
<path d="M0 0 C5.93588934 0.41391304 9.74481843 3.05527491 14.5625 6.25 C16.24014573 7.33707987 17.91856162 8.42297192 19.59765625 9.5078125 C20.47309082 10.07661133 21.34852539 10.64541016 22.25048828 11.23144531 C26.96009582 14.26078264 31.73147228 17.18962993 36.5 20.125 C38.26073695 21.21041811 40.02117679 22.29631842 41.78125 23.3828125 C42.52439453 23.84059082 43.26753906 24.29836914 44.03320312 24.77001953 C45.7076293 25.81715944 47.35678914 26.90452609 49 28 C50.98491642 27.73323796 50.98491642 27.73323796 53 27 C54.33333333 26.66666667 55.66666667 26.33333333 57 26 C57 26.66 57 27.32 57 28 C54.3268801 30.12277169 52.7532821 31.03493482 49.3046875 30.875 C45.04244566 29.74646315 41.90231186 27.72739732 38.25 25.3125 C36.92257414 24.45334591 35.59443812 23.59528816 34.265625 22.73828125 C33.57968262 22.29331299 32.89374023 21.84834473 32.18701172 21.38989258 C29.86503782 19.91422866 27.51309245 18.49993086 25.1484375 17.09375 C19.81144287 13.91133126 14.58538546 10.57232078 9.375 7.1875 C8.46621094 6.60291016 7.55742187 6.01832031 6.62109375 5.41601562 C5.76386719 4.85978516 4.90664062 4.30355469 4.0234375 3.73046875 C3.24919434 3.22926514 2.47495117 2.72806152 1.67724609 2.21166992 C1.12375488 1.81181885 0.57026367 1.41196777 0 1 C0 0.67 0 0.34 0 0 Z " fill="#FDE3E4" transform="translate(11,10)"/>
<path d="M0 0 C1.65 0.33 3.3 0.66 5 1 C5 21.46 5 41.92 5 63 C2.525 63.495 2.525 63.495 0 64 C-1.77916467 62.22083533 -1.12764835 59.61686701 -1.12939453 57.2109375 C-1.13254669 55.9729541 -1.13569885 54.7349707 -1.13894653 53.45947266 C-1.13715675 52.09798141 -1.1351058 50.73649049 -1.1328125 49.375 C-1.13348559 47.98876936 -1.13445566 46.60253883 -1.13571167 45.21630859 C-1.1371884 42.30760578 -1.1350349 39.39893363 -1.13037109 36.49023438 C-1.12467381 32.75403402 -1.12795294 29.01790548 -1.13394356 25.28170776 C-1.13754985 22.41820734 -1.13641027 19.55472407 -1.13381577 16.69122314 C-1.13314668 15.31325268 -1.13397426 13.93528068 -1.13629532 12.55731201 C-1.13882292 10.63456246 -1.13429024 8.71180748 -1.12939453 6.7890625 C-1.12859894 5.69287598 -1.12780334 4.59668945 -1.12698364 3.46728516 C-1 1 -1 1 0 0 Z M0 1 C-0.02318417 8.36278716 -0.04094608 15.72556643 -0.05181217 23.08838272 C-0.0570277 26.50733989 -0.0641012 29.92627206 -0.07543945 33.34521484 C-0.0883967 37.27701517 -0.09323922 41.20880542 -0.09765625 45.140625 C-0.10281754 46.36678528 -0.10797882 47.59294556 -0.11329651 48.85626221 C-0.11337204 49.99714294 -0.11344757 51.13802368 -0.11352539 52.31347656 C-0.115746 53.31719299 -0.11796661 54.32090942 -0.12025452 55.3550415 C-0.01216762 57.73237715 0.31935005 59.7289895 1 62 C1.99 62 2.98 62 4 62 C4 42.2 4 22.4 4 2 C2.68 1.67 1.36 1.34 0 1 Z " fill="#A0CBFE" transform="translate(450,14)"/>
<path d="M0 0 C1.65 0.33 3.3 0.66 5 1 C4.37183502 4.94949704 3.1354471 8.19892028 1.4375 11.8125 C0.98246094 12.78832031 0.52742188 13.76414062 0.05859375 14.76953125 C-0.29074219 15.50558594 -0.64007813 16.24164063 -1 17 C-1.99 17 -2.98 17 -4 17 C-4 17.99 -4 18.98 -4 20 C-4.66 20 -5.32 20 -6 20 C-6 21.32 -6 22.64 -6 24 C-6.99 23.67 -7.98 23.34 -9 23 C-9.50338063 18.17127472 -7.70306125 14.5970927 -5.625 10.375 C-5.30789063 9.70726562 -4.99078125 9.03953125 -4.6640625 8.3515625 C-3.25865793 5.42363631 -1.80409534 2.70614301 0 0 Z " fill="#5C9AEF" transform="translate(505,30)"/>
<path d="M0 0 C0.33 0 0.66 0 1 0 C1.02505615 0.91289795 1.0501123 1.8257959 1.07592773 2.76635742 C1.17131607 6.16767631 1.27053402 9.56883939 1.37231445 12.9699707 C1.41550705 14.43932768 1.45719256 15.9087298 1.49731445 17.37817383 C1.55539882 19.49574355 1.61898098 21.61308937 1.68359375 23.73046875 C1.72025146 25.00301514 1.75690918 26.27556152 1.79467773 27.58666992 C1.97055904 30.51056587 2.38685721 33.14701538 3 36 C3.03772913 37.9996441 3.04649906 40.00054061 3 42 C5.31 42 7.62 42 10 42 C10 41.34 10 40.68 10 40 C10.66 40 11.32 40 12 40 C12.33 32.08 12.66 24.16 13 16 C13.33 16 13.66 16 14 16 C14.11643304 19.89558088 14.18732909 23.79071258 14.25 27.6875 C14.28351563 28.79029297 14.31703125 29.89308594 14.3515625 31.02929688 C14.4503413 39.20324232 14.4503413 39.20324232 12.171875 43.234375 C10 45 10 45 7 45.5625 C3.20350478 44.85065715 2.25679347 44.1326357 0 41 C-0.55483238 37.87644842 -0.4651696 34.8042979 -0.390625 31.640625 C-0.38496521 30.73624695 -0.37930542 29.8318689 -0.37347412 28.90008545 C-0.35111248 26.01618147 -0.30091686 23.13352739 -0.25 20.25 C-0.22993471 18.29298671 -0.21168399 16.33595392 -0.1953125 14.37890625 C-0.15124839 9.58545711 -0.08222252 4.79294035 0 0 Z " fill="#6D9FE8" transform="translate(233,33)"/>
<path d="M0 0 C9.24 0 18.48 0 28 0 C28 1.32 28 2.64 28 4 C18.76 4 9.52 4 0 4 C0 2.68 0 1.36 0 0 Z " fill="#1A60CC" transform="translate(406,43)"/>
<path d="M0 0 C4.79821659 1.62114502 8.6672859 4.29276759 12.8125 7.125 C13.50537109 7.59292969 14.19824219 8.06085937 14.91210938 8.54296875 C16.61091105 9.69112437 18.30584864 10.84499367 20 12 C18 13 18 13 15.8359375 12.44140625 C13.55729167 11.62760417 11.27864583 10.81380208 9 10 C8.01 12.97 7.02 15.94 6 19 C3.69 18.34 1.38 17.68 -1 17 C-1.33 14.69 -1.66 12.38 -2 10 C-1.01 10.495 -1.01 10.495 0 11 C0.625 13.0625 0.625 13.0625 1 15 C2.32 15 3.64 15 5 15 C5 13.35 5 11.7 5 10 C3.68 9.34 2.36 8.68 1 8 C1.66 6.68 2.32 5.36 3 4 C2.01 2.68 1.02 1.36 0 0 Z " fill="#EF1930" transform="translate(65,45)"/>
<path d="M0 0 C3.62761283 4.36667962 3.42384637 8.55018087 3.36328125 13.94921875 C3.36377975 14.80304642 3.36427826 15.65687408 3.36479187 16.53657532 C3.36245829 18.33438454 3.35277215 20.13219746 3.33618164 21.92993164 C3.31249048 24.68860855 3.31563814 27.44632466 3.32226562 30.20507812 C3.31669179 31.95313078 3.30958377 33.70117937 3.30078125 35.44921875 C3.30214836 36.68982307 3.30214836 36.68982307 3.30354309 37.95549011 C3.23106116 43.76893884 3.23106116 43.76893884 1 46 C1.01160156 44.99066406 1.02320313 43.98132813 1.03515625 42.94140625 C1.13557108 29.60819935 0.6084338 16.31758027 0 3 C-0.99 3.33 -1.98 3.66 -3 4 C-3 3.34 -3 2.68 -3 2 C-3.99 2 -4.98 2 -6 2 C-6.66 3.32 -7.32 4.64 -8 6 C-10 3 -10 3 -10 1 C-6.43953694 -1.32799508 -4.02402625 -1.2842637 0 0 Z " fill="#81AFEA" transform="translate(219,29)"/>
<path d="M0 0 C0.33 0 0.66 0 1 0 C1.33 3.96 1.66 7.92 2 12 C2.33 10.02 2.66 8.04 3 6 C3.33 6 3.66 6 4 6 C4 15.24 4 24.48 4 34 C2.68 34 1.36 34 0 34 C0 22.78 0 11.56 0 0 Z " fill="#0D54CC" transform="translate(402,42)"/>
<path d="M0 0 C0.66 0 1.32 0 2 0 C2.11611395 4.24977046 2.18722349 8.49913337 2.25 12.75 C2.30027344 14.55984375 2.30027344 14.55984375 2.3515625 16.40625 C2.36445313 17.56640625 2.37734375 18.7265625 2.390625 19.921875 C2.41157227 20.99018555 2.43251953 22.05849609 2.45410156 23.15917969 C1.88779877 26.70192124 0.82395847 27.85307889 -2 30 C-5.20195936 30.45742277 -7.07553259 30.55468045 -9.875 28.875 C-11.4682099 26.21965017 -11.20214032 24.03210482 -11 21 C-10.236875 21.825 -9.47375 22.65 -8.6875 23.5 C-6.24565858 26.34055197 -6.24565858 26.34055197 -3 26 C-2.67 25.34 -2.34 24.68 -2 24 C-1.34 24 -0.68 24 0 24 C0 16.08 0 8.16 0 0 Z " fill="#4A86DE" transform="translate(281,48)"/>
<path d="M0 0 C0.33 0 0.66 0 1 0 C1 14.52 1 29.04 1 44 C0.01 44 -0.98 44 -2 44 C-3.14982602 39.90996141 -3.11094256 35.96822949 -3.0625 31.75 C-3.05798828 31.00492188 -3.05347656 30.25984375 -3.04882812 29.4921875 C-3.03709246 27.6614236 -3.0191585 25.83070127 -3 24 C-2.67 24.99 -2.34 25.98 -2 27 C-1.34 27 -0.68 27 0 27 C0 18.09 0 9.18 0 0 Z " fill="#0E56C8" transform="translate(453,32)"/>
<path d="M0 0 C3.38121991 2.44598887 4.76936783 3.89296559 5.625 8 C4.76936783 12.10703441 3.38121991 13.55401113 0 16 C-4.43262088 16.79153944 -6.24375652 16.50416232 -10 14 C-12.04461358 10.93307963 -12.32393649 10.33106293 -12.0625 6.875 C-11.52386692 4.25595843 -11.08824882 3.10861393 -9.375 1 C-5.97047997 -0.43348212 -3.65951893 -0.51361669 0 0 Z M-10 4 C-10 6.64 -10 9.28 -10 12 C-6.17679443 13.42258812 -3.08718695 14.24042276 1 14 C1.99 11.03 2.98 8.06 4 5 C1.59688219 2.78173741 0.30074854 2.03132797 -3 1.6875 C-5.87031397 1.98649104 -7.56821192 2.50351503 -10 4 Z " fill="#83B5E9" transform="translate(218,5)"/>
<path d="M0 0 C-0.33 0.66 -0.66 1.32 -1 2 C-3.32716 2.37400786 -5.66117862 2.70764733 -8 3 C-9.25949049 4.03406673 -9.25949049 4.03406673 -9.09765625 6.28515625 C-9.08605469 7.20167969 -9.07445312 8.11820313 -9.0625 9.0625 C-9.05347656 9.98160156 -9.04445313 10.90070312 -9.03515625 11.84765625 C-9.02355469 12.55792969 -9.01195312 13.26820312 -9 14 C-9.66 14 -10.32 14 -11 14 C-11 24.23 -11 34.46 -11 45 C-11.33 45 -11.66 45 -12 45 C-12.12347317 38.78872974 -12.21427988 32.57817144 -12.2746582 26.3659668 C-12.29982363 24.25223348 -12.33395926 22.13858735 -12.37719727 20.02514648 C-12.43775941 16.98920202 -12.46618909 13.95440638 -12.48828125 10.91796875 C-12.51408768 9.97100632 -12.5398941 9.02404388 -12.56648254 8.04838562 C-12.56753339 5.59783206 -12.5282047 3.39289545 -12 1 C-7.9162856 -2.69125244 -4.7488479 -2.37442395 0 0 Z " fill="#5F93E4" transform="translate(374,30)"/>
<path d="M0 0 C2.25 -0.0625 2.25 -0.0625 5 1 C7.02398511 4.31079993 9 8.06322849 9 12 C8.01 12 7.02 12 6 12 C6 13.98 6 15.96 6 18 C2.71449617 14.2216706 0.55039925 9.73545857 -1 5 C-0.75 1.9375 -0.75 1.9375 0 0 Z " fill="#4C8EED" transform="translate(467,30)"/>
<path d="M0 0 C1.75 0.0625 1.75 0.0625 4 1 C6.86059344 4.67238347 8 7.29553866 8 12 C9.65 11.34 11.3 10.68 13 10 C13 11.65 13 13.3 13 15 C12.01 15 11.02 15 10 15 C10 17.31 10 19.62 10 22 C8.68 20.68 7.36 19.36 6 18 C6.66 17.67 7.32 17.34 8 17 C7.67 15.35 7.34 13.7 7 12 C6.01 12.33 5.02 12.66 4 13 C4 12.01 4 11.02 4 10 C3.34 9.67 2.68 9.34 2 9 C2 6.69 2 4.38 2 2 C1.34 2 0.68 2 0 2 C0 1.34 0 0.68 0 0 Z " fill="#2469D9" transform="translate(479,57)"/>
<path d="M0 0 C2 1.125 2 1.125 3 3 C3.42478586 7.07794425 3.31282587 8.53076119 1 12 C-0.9453125 12.51171875 -0.9453125 12.51171875 -3.125 12.6875 C-4.40375 12.790625 -5.6825 12.89375 -7 13 C-7 12.34 -7 11.68 -7 11 C-5.68 11 -4.36 11 -3 11 C-3 10.34 -3 9.68 -3 9 C-2.01 8.67 -1.02 8.34 0 8 C0 6.35 0 4.7 0 3 C-2.87450983 2.74951364 -2.87450983 2.74951364 -6 3 C-6.495 3.495 -6.99 3.99 -7.5 4.5 C-9 6 -9 6 -12.1875 6.1875 C-13.5796875 6.0946875 -13.5796875 6.0946875 -15 6 C-14 3 -14 3 -11.4375 1.3125 C-7.15205009 -0.32376269 -4.56127688 -0.44865018 0 0 Z " fill="#6C9DF1" transform="translate(389,29)"/>
<path d="M0 0 C0.66 0 1.32 0 2 0 C2.42925781 0.73863281 2.85851562 1.47726563 3.30078125 2.23828125 C5.23020562 5.37415029 7.24876805 6.99511267 10.1875 9.1875 C11.82614571 10.41355395 13.44058069 11.67463987 15 13 C15 13.66 15 14.32 15 15 C10.4091354 13.36294751 6.40417818 11.00531362 2.25 8.5 C1.56550781 8.09652344 0.88101563 7.69304688 0.17578125 7.27734375 C-4.87723214 4.24553571 -4.87723214 4.24553571 -6 2 C-4.02 2 -2.04 2 0 2 C0 1.34 0 0.68 0 0 Z " fill="#E0AE21" transform="translate(84,50)"/>
<path d="M0 0 C1.97265625 0.265625 1.97265625 0.265625 4.97265625 2.265625 C5.97265625 5.078125 5.97265625 5.078125 5.97265625 8.265625 C3.26906117 12.23089778 0.70345612 13.55175552 -3.83984375 14.578125 C-5.23251883 14.82576217 -6.62765636 15.06131333 -8.02734375 15.265625 C-8.02734375 14.275625 -8.02734375 13.285625 -8.02734375 12.265625 C-6.00911458 11.80989583 -3.99088542 11.35416667 -1.97265625 10.8984375 C0.17985589 10.36088072 0.17985589 10.36088072 1.97265625 8.265625 C2.30265625 7.275625 2.63265625 6.285625 2.97265625 5.265625 C1.32265625 5.265625 -0.32734375 5.265625 -2.02734375 5.265625 C-2.02734375 4.275625 -2.02734375 3.285625 -2.02734375 2.265625 C-4.00734375 2.265625 -5.98734375 2.265625 -8.02734375 2.265625 C-5.42029477 -0.34142398 -3.55396134 0.02657167 0 0 Z " fill="#5D9BEC" transform="translate(258.02734375,28.734375)"/>
<path d="M0 0 C12.21 0 24.42 0 37 0 C37.495 1.98 37.495 1.98 38 4 C37 5 37 5 33.94897461 5.11352539 C32.60008729 5.11336634 31.25119386 5.10767612 29.90234375 5.09765625 C28.83905602 5.09553383 28.83905602 5.09553383 27.75428772 5.09336853 C25.48198288 5.08775443 23.20977525 5.07519963 20.9375 5.0625 C19.40039204 5.05748681 17.86328255 5.05292359 16.32617188 5.04882812 C12.55074358 5.03778042 8.77538829 5.02050641 5 5 C5 4.67 5 4.34 5 4 C14.9 4 24.8 4 35 4 C34.505 3.01 34.505 3.01 34 2 C22.78 1.67 11.56 1.34 0 1 C0 0.67 0 0.34 0 0 Z " fill="#6DACFA" transform="translate(402,14)"/>
<path d="M0 0 C0.66 0 1.32 0 2 0 C1.37183502 3.94949704 0.1354471 7.19892028 -1.5625 10.8125 C-2.01753906 11.78832031 -2.47257812 12.76414062 -2.94140625 13.76953125 C-3.29074219 14.50558594 -3.64007813 15.24164063 -4 16 C-4.33 15.01 -4.66 14.02 -5 13 C-6.65 13.66 -8.3 14.32 -10 15 C-9.54917531 13.53932801 -9.08906463 12.08151968 -8.625 10.625 C-8.36976563 9.81289063 -8.11453125 9.00078125 -7.8515625 8.1640625 C-7 6 -7 6 -5 4 C-4.01 4.99 -3.02 5.98 -2 7 C-2 5.68 -2 4.36 -2 3 C-1.34 3 -0.68 3 0 3 C0 2.01 0 1.02 0 0 Z " fill="#5890E6" transform="translate(501,47)"/>
<path d="M0 0 C-3.56858886 2.37905924 -5.03741691 2.18495881 -9.25 2.0625 C-14.00110215 1.98313861 -18.33143949 2.18807643 -23 3 C-23.99 3 -24.98 3 -26 3 C-18.78318608 -3.61541276 -8.64892751 -2.8241396 0 0 Z " fill="#629EEF" transform="translate(338,30)"/>
<path d="M0 0 C1.10740461 3.32221382 0.97233311 5.64103108 0 9 C-0.66 9.66 -1.32 10.32 -2 11 C-2.28103071 13.07354839 -2.28103071 13.07354839 -2.1875 15.375 C-2.18105469 16.14585938 -2.17460937 16.91671875 -2.16796875 17.7109375 C-2.08046081 20.00797504 -2.08046081 20.00797504 -1.36328125 22.1640625 C-1.24339844 22.76992188 -1.12351562 23.37578125 -1 24 C-1.66 24.66 -2.32 25.32 -3 26 C-5.54833071 19.94771457 -6.21474764 13.67172591 -4.13671875 7.390625 C-1.60180595 1.60180595 -1.60180595 1.60180595 0 0 Z " fill="#4583EC" transform="translate(307,38)"/>
<path d="M0 0 C0.33 0 0.66 0 1 0 C1.09796875 0.60328125 1.1959375 1.2065625 1.296875 1.828125 C2.20692033 6.69216041 2.85449523 9.89087142 7 13 C10.96769422 14.98384711 15.85529486 14.32630565 20 13 C19 16 19 16 17 17 C12.60555971 17.44894085 8.9987265 17.44840782 4.9375 15.625 C4.298125 15.08875 3.65875 14.5525 3 14 C3 13.34 3 12.68 3 12 C2.34 12 1.68 12 1 12 C-0.26237731 9.47524538 -0.09856404 7.68799534 -0.0625 4.875 C-0.05347656 3.96492188 -0.04445313 3.05484375 -0.03515625 2.1171875 C-0.02355469 1.41851562 -0.01195312 0.71984375 0 0 Z " fill="#649AE5" transform="translate(315,50)"/>
<path d="M0 0 C5.96317388 0.25375208 9.18231461 2.19382689 13.88671875 5.8203125 C15.91277675 7.22804283 15.91277675 7.22804283 18.12890625 6.71484375 C18.74636719 6.47894531 19.36382812 6.24304687 20 6 C22 5.5 22 5.5 24 5 C24 5.66 24 6.32 24 7 C21.2886136 9.15315979 19.7470093 10.04562699 16.25 9.83203125 C12.4160913 8.85051376 9.41010512 7.12565625 6.125 5 C5.53203125 4.63132812 4.9390625 4.26265625 4.328125 3.8828125 C2.8623617 2.95742277 1.42780742 1.9829416 0 1 C0 0.67 0 0.34 0 0 Z " fill="#F8DDCE" transform="translate(44,31)"/>
<path d="M0 0 C1.6875 1.5625 1.6875 1.5625 3 3 C3.99 3 4.98 3 6 3 C5.34 4.32 4.68 5.64 4 7 C2.68 7 1.36 7 0 7 C-0.33 5.35 -0.66 3.7 -1 2 C-2.65 2 -4.3 2 -6 2 C-6.66 3.65 -7.32 5.3 -8 7 C-8.66 6.01 -9.32 5.02 -10 4 C-7.58657152 -1.34402021 -5.62540996 -1.37765142 0 0 Z " fill="#609CEF" transform="translate(244,29)"/>
<path d="M0 0 C1.32 0.33 2.64 0.66 4 1 C4 6.28 4 11.56 4 17 C3.34 15.68 2.68 14.36 2 13 C1.01 13.495 1.01 13.495 0 14 C0 9.38 0 4.76 0 0 Z " fill="#206BE6" transform="translate(450,15)"/>
<path d="M0 0 C2 2 2 2 2 6 C1.01 6 0.02 6 -1 6 C-1 6.99 -1 7.98 -1 9 C-1.66 9 -2.32 9 -3 9 C-3 10.32 -3 11.64 -3 13 C-3.99 12.67 -4.98 12.34 -6 12 C-6.39168975 7.56084956 -5.31940842 4.77977668 -3 1 C-2.01 0.67 -1.02 0.34 0 0 Z " fill="#4587E8" transform="translate(502,41)"/>
<path d="M0 0 C0.763125 0.825 1.52625 1.65 2.3125 2.5 C4.75434142 5.34055197 4.75434142 5.34055197 8 5 C8.33 4.34 8.66 3.68 9 3 C9.66 3 10.32 3 11 3 C11.33 4.32 11.66 5.64 12 7 C8.53076119 9.31282587 7.07794425 9.42478586 3 9 C1.125 7.875 1.125 7.875 0 6 C-0.1875 2.8125 -0.1875 2.8125 0 0 Z " fill="#3D79D1" transform="translate(270,69)"/>
<path d="M0 0 C0.66 0.66 1.32 1.32 2 2 C1.67 2.66 1.34 3.32 1 4 C1.165 4.66 1.33 5.32 1.5 6 C2 8 2 8 1 10 C-0.32 10 -1.64 10 -3 10 C-2.67 11.32 -2.34 12.64 -2 14 C-2.99 13.34 -3.98 12.68 -5 12 C-5.40843923 9.28796348 -5.13336867 6.7562858 -5 4 C-4.01 3.67 -3.02 3.34 -2 3 C-1.34 2.01 -0.68 1.02 0 0 Z M-1 4 C0 6 0 6 0 6 Z " fill="#0F6BF4" transform="translate(285,34)"/>
<path d="M0 0 C0.66 0 1.32 0 2 0 C2.88701576 7.19201969 3.26613747 13.06828537 1 20 C0.67 20 0.34 20 0 20 C-0.19594676 16.85463232 -0.3803401 13.70869386 -0.5625 10.5625 C-0.61857422 9.66466797 -0.67464844 8.76683594 -0.73242188 7.84179688 C-0.78076172 6.98779297 -0.82910156 6.13378906 -0.87890625 5.25390625 C-0.9260376 4.46314697 -0.97316895 3.6723877 -1.02172852 2.85766602 C-1 1 -1 1 0 0 Z " fill="#0E5FE4" transform="translate(403,36)"/>
<path d="M0 0 C0.99 0 1.98 0 3 0 C1.50410455 4.48768636 -2.0078747 6.80143824 -6 9 C-9.4375 9.8125 -9.4375 9.8125 -12 10 C-11.34 8.35 -10.68 6.7 -10 5 C-9.67 5.66 -9.34 6.32 -9 7 C-6.49034386 6.29660434 -6.49034386 6.29660434 -4 5 C-3.11306697 2.95894361 -3.11306697 2.95894361 -3 1 C-2.34 1.33 -1.68 1.66 -1 2 C-0.67 1.34 -0.34 0.68 0 0 Z " fill="#4D89D7" transform="translate(345,67)"/>
<path d="M0 0 C6.93 0 13.86 0 21 0 C21 4.29 21 8.58 21 13 C20.67 13 20.34 13 20 13 C20 9.04 20 5.08 20 1 C15.05 1 10.1 1 5 1 C5.33 2.32 5.66 3.64 6 5 C2.83884224 3.63016497 2.0072908 3.0109362 0 0 Z " fill="#5FCBB4" transform="translate(7,74)"/>
<path d="M0 0 C1.66611905 -0.042721 3.33382885 -0.04063832 5 0 C6 1 6 1 6.125 3.5 C6 6 6 6 5 7 C3.33382885 7.04063832 1.66611905 7.042721 0 7 C-1.125 2.25 -1.125 2.25 0 0 Z " fill="#FDE5EB" transform="translate(34,54)"/>
<path d="M0 0 C2.375 0.8125 2.375 0.8125 4.375 1.8125 C4.045 2.4725 3.715 3.1325 3.375 3.8125 C1.04784 4.18650786 -1.28617862 4.52014733 -3.625 4.8125 C-4.88449049 5.84656673 -4.88449049 5.84656673 -4.72265625 8.09765625 C-4.71105469 9.01417969 -4.69945312 9.93070313 -4.6875 10.875 C-4.67847656 11.79410156 -4.66945313 12.71320312 -4.66015625 13.66015625 C-4.64855469 14.37042969 -4.63695312 15.08070312 -4.625 15.8125 C-5.285 15.8125 -5.945 15.8125 -6.625 15.8125 C-6.73341951 13.89708862 -6.81078079 11.97990227 -6.875 10.0625 C-6.92140625 8.99515625 -6.9678125 7.9278125 -7.015625 6.828125 C-6.625 3.8125 -6.625 3.8125 -4.7734375 1.41015625 C-2.625 -0.1875 -2.625 -0.1875 0 0 Z " fill="#4586EE" transform="translate(369.625,28.1875)"/>
<path d="M0 0 C2.37254954 2.37254954 3.98483473 4.28496054 5.75 7.0625 C6.19859375 7.75472656 6.6471875 8.44695313 7.109375 9.16015625 C7.40328125 9.76730469 7.6971875 10.37445313 8 11 C7.67 11.66 7.34 12.32 7 13 C5.02 12.34 3.04 11.68 1 11 C0.67 7.37 0.34 3.74 0 0 Z " fill="#478CE7" transform="translate(151,23)"/>
<path d="M0 0 C0.33 0.99 0.66 1.98 1 3 C0.01 3.33 -0.98 3.66 -2 4 C-2.33 4.66 -2.66 5.32 -3 6 C-1.68 5.67 -0.36 5.34 1 5 C1 6.32 1 7.64 1 9 C-3.10958767 7.54955729 -6.43258745 5.48889248 -10 3 C-9.401875 2.87625 -8.80375 2.7525 -8.1875 2.625 C-4.91821071 1.69091734 -3.54639205 0 0 0 Z " fill="#E6A120" transform="translate(71,39)"/>
<path d="M0 0 C0.33 0 0.66 0 1 0 C1.46233492 3.9760803 1.30954571 5.56851204 -1.0625 8.875 C-4.65037512 11.47048413 -6.6677071 11.4247346 -11 11 C-11.33 10.01 -11.66 9.02 -12 8 C-9.03 8.33 -6.06 8.66 -3 9 C-3.061875 8.2575 -3.12375 7.515 -3.1875 6.75 C-2.96846707 3.53751696 -2.15726961 2.32985118 0 0 Z " fill="#5A9AEF" transform="translate(222,10)"/>
<path d="M0 0 C1.67542976 0.28604898 3.34385343 0.61781233 5 1 C5.625 2.875 5.625 2.875 6 5 C5.34 5.66 4.68 6.32 4 7 C1.375 6.625 1.375 6.625 -1 6 C-1.042721 4.33388095 -1.04063832 2.66617115 -1 1 C-0.67 0.67 -0.34 0.34 0 0 Z " fill="#FEE2E4" transform="translate(50,54)"/>
<path d="M0 0 C1.67542976 0.28604898 3.34385343 0.61781233 5 1 C5 2.65 5 4.3 5 6 C2.625 6.625 2.625 6.625 0 7 C-0.66 6.34 -1.32 5.68 -2 5 C-1.46428571 1.46428571 -1.46428571 1.46428571 0 0 Z " fill="#FDE4E4" transform="translate(66,54)"/>
<path d="M0 0 C0.99 0 1.98 0 3 0 C3 0.99 3 1.98 3 3 C3.66 3 4.32 3 5 3 C5 2.34 5 1.68 5 1 C5.66 1 6.32 1 7 1 C7.33 2.32 7.66 3.64 8 5 C6.68 4.67 5.36 4.34 4 4 C4 4.66 4 5.32 4 6 C4.66 6 5.32 6 6 6 C6 8.31 6 10.62 6 13 C2.57068046 9.2440786 1.43570917 4.76533255 0 0 Z " fill="#568CE2" transform="translate(475,53)"/>
<path d="M0 0 C0.66 0 1.32 0 2 0 C2 5.94 2 11.88 2 18 C1.01 18 0.02 18 -1 18 C-0.505 9.09 -0.505 9.09 0 0 Z " fill="#0D52C3" transform="translate(193,56)"/>
<path d="M0 0 C1.65 0.33 3.3 0.66 5 1 C4.67 2.65 4.34 4.3 4 6 C3.01 6 2.02 6 1 6 C1 7.32 1 8.64 1 10 C0.01 9.67 -0.98 9.34 -2 9 C-1.34 6.03 -0.68 3.06 0 0 Z " fill="#3E83F0" transform="translate(505,30)"/>
<path d="M0 0 C0 0.66 0 1.32 0 2 C-0.99 2 -1.98 2 -3 2 C-3.1546875 2.928125 -3.1546875 2.928125 -3.3125 3.875 C-4 6 -4 6 -7 8 C-9.04296875 8.4140625 -9.04296875 8.4140625 -11.1875 8.625 C-12.445625 8.74875 -13.70375 8.8725 -15 9 C-12.59888822 6.36115438 -9.99444972 4.63586471 -6.9375 2.8125 C-5.62072266 2.01779297 -5.62072266 2.01779297 -4.27734375 1.20703125 C-2 0 -2 0 0 0 Z " fill="#FBE163" transform="translate(92,22)"/>
<path d="M0 0 C0 0.99 0 1.98 0 3 C-0.99 3 -1.98 3 -3 3 C-3 3.66 -3 4.32 -3 5 C-5.97 5 -8.94 5 -12 5 C-12 4.01 -12 3.02 -12 2 C-10.37548581 1.66430703 -8.75037083 1.3315204 -7.125 1 C-6.22007812 0.814375 -5.31515625 0.62875 -4.3828125 0.4375 C-2 0 -2 0 0 0 Z " fill="#064EC1" transform="translate(480,88)"/>
<path d="M0 0 C0.99 0.33 1.98 0.66 3 1 C2.25 7.75 2.25 7.75 0 10 C-1.98 9.34 -3.96 8.68 -6 8 C-6.33 5.69 -6.66 3.38 -7 1 C-6.01 1.495 -6.01 1.495 -5 2 C-4.375 4.0625 -4.375 4.0625 -4 6 C-2.68 6 -1.36 6 0 6 C0 4.02 0 2.04 0 0 Z " fill="#DF1D40" transform="translate(70,54)"/>
<path d="M0 0 C3.3 0 6.6 0 10 0 C10.66 1.32 11.32 2.64 12 4 C4.61538462 4.49230769 4.61538462 4.49230769 1.5 2 C1.005 1.34 0.51 0.68 0 0 Z " fill="#DAA91B" transform="translate(72,48)"/>
<path d="M0 0 C2.6875 -0.3125 2.6875 -0.3125 6 0 C9.64584413 2.90010329 11.60551748 5.56301016 13 10 C6.125 6.375 6.125 6.375 5 3 C2.49552484 1.78130071 2.49552484 1.78130071 0 1 C0 0.67 0 0.34 0 0 Z " fill="#5E9EED" transform="translate(138,13)"/>
<path d="M0 0 C0 1.65 0 3.3 0 5 C-0.99 5 -1.98 5 -3 5 C-3 7.31 -3 9.62 -3 12 C-4.32 10.68 -5.64 9.36 -7 8 C-6.34 7.67 -5.68 7.34 -5 7 C-5.33 5.35 -5.66 3.7 -6 2 C-2.25 0 -2.25 0 0 0 Z " fill="#0A5AD6" transform="translate(492,67)"/>
<path d="M0 0 C2.9375 0.875 2.9375 0.875 4.3125 2.9375 C4.51875 3.576875 4.725 4.21625 4.9375 4.875 C4.07125 4.66875 3.205 4.4625 2.3125 4.25 C-1.42678602 3.83452378 -3.61192141 4.47833724 -7.0625 5.875 C-6.75 4 -6.75 4 -6.0625 1.875 C-3.0625 -0.125 -3.0625 -0.125 0 0 Z " fill="#6CA0EC" transform="translate(277.0625,28.125)"/>
<path d="M0 0 C6.93 0.495 6.93 0.495 14 1 C14 1.33 14 1.66 14 2 C15.65 2.33 17.3 2.66 19 3 C19 3.33 19 3.66 19 4 C11.87399867 4.35368021 6.52940894 3.95671348 0 1 C0 0.67 0 0.34 0 0 Z " fill="#719DE4" transform="translate(314,74)"/>
<path d="M0 0 C-0.61468882 3.99547736 -2.65459376 6.77506642 -5 10 C-5.33 10 -5.66 10 -6 10 C-5.67 7.03 -5.34 4.06 -5 1 C-2 0 -2 0 0 0 Z " fill="#3E7CD8" transform="translate(175,52)"/>
<path d="M0 0 C4.67105792 1.55701931 8.08705685 4.08447373 12 7 C10 8 10 8 7.90625 7.4765625 C7.1121875 7.19554687 6.318125 6.91453125 5.5 6.625 C4.7059375 6.34914063 3.911875 6.07328125 3.09375 5.7890625 C1 5 1 5 -1 4 C-0.67 2.68 -0.34 1.36 0 0 Z " fill="#E6191F" transform="translate(73,50)"/>
<path d="M0 0 C0.66 0 1.32 0 2 0 C2.38854209 2.28940956 2.7604628 4.58164574 3.125 6.875 C3.33382813 8.15117188 3.54265625 9.42734375 3.7578125 10.7421875 C3.83773438 11.81726563 3.91765625 12.89234375 4 14 C3.34 14.66 2.68 15.32 2 16 C-0.27141454 10.60539047 -0.20413361 5.73842251 0 0 Z " fill="#629EDE" transform="translate(302,48)"/>
<path d="M0 0 C1.53445094 3.06890187 0.54984289 5.70094266 0 9 C-0.66 9 -1.32 9 -2 9 C-2 9.66 -2 10.32 -2 11 C-3.32 11 -4.64 11 -6 11 C-4.54955729 6.89041233 -2.48889248 3.56741255 0 0 Z " fill="#5694E9" transform="translate(174,30)"/>
<path d="M0 0 C0.99 0.33 1.98 0.66 3 1 C3 1.66 3 2.32 3 3 C3.66 3 4.32 3 5 3 C5 3.66 5 4.32 5 5 C5.66 5.33 6.32 5.66 7 6 C6.67 6.66 6.34 7.32 6 8 C5.34 8 4.68 8 4 8 C3.67 9.32 3.34 10.64 3 12 C2.49440092 10.56445975 1.9957251 9.1264798 1.5 7.6875 C1.2215625 6.88699219 0.943125 6.08648437 0.65625 5.26171875 C0 3 0 3 0 0 Z " fill="#4A8CE7" transform="translate(481,66)"/>
<path d="M0 0 C1.98 0.99 1.98 0.99 4 2 C4 2.66 4 3.32 4 4 C4.99 4.66 5.98 5.32 7 6 C7 7.32 7 8.64 7 10 C7.66 10 8.32 10 9 10 C8.67 11.32 8.34 12.64 8 14 C6.66397562 11.85580015 5.33107996 9.70976582 4 7.5625 C3.6184375 6.95083984 3.236875 6.33917969 2.84375 5.70898438 C0 1.11328125 0 1.11328125 0 0 Z " fill="#5A93DF" transform="translate(149,43)"/>
<path d="M0 0 C0.99 0 1.98 0 3 0 C3 0.66 3 1.32 3 2 C3.639375 2.28875 4.27875 2.5775 4.9375 2.875 C7 4 7 4 8 6 C7.113125 5.62875 6.22625 5.2575 5.3125 4.875 C1.59173995 3.89215772 0.32561865 4.23937836 -3 6 C-3.66 5.34 -4.32 4.68 -5 4 C-4.34 3.34 -3.68 2.68 -3 2 C-2.01 2 -1.02 2 0 2 C0 1.34 0 0.68 0 0 Z " fill="#D7B421" transform="translate(68,36)"/>
<path d="M0 0 C2.97 0 5.94 0 9 0 C9 0.33 9 0.66 9 1 C6.69 1 4.38 1 2 1 C2 1.99 2 2.98 2 4 C3.98 4 5.96 4 8 4 C8 4.66 8 5.32 8 6 C5.36 5.67 2.72 5.34 0 5 C-0.33 4.01 -0.66 3.02 -1 2 C-0.67 1.34 -0.34 0.68 0 0 Z " fill="#7AA3DB" transform="translate(466,89)"/>
<path d="M0 0 C0.66 0 1.32 0 2 0 C2.33 1.32 2.66 2.64 3 4 C2.01 4 1.02 4 0 4 C0 5.98 0 7.96 0 10 C-2.50298434 7.06171403 -3.46930939 4.82097239 -4 1 C-3.34 1 -2.68 1 -2 1 C-2 1.66 -2 2.32 -2 3 C-1.34 3 -0.68 3 0 3 C0 2.01 0 1.02 0 0 Z " fill="#5F96E9" transform="translate(473,38)"/>
<path d="M0 0 C-1 3 -1 3 -3 4 C-4.49649362 4.12005453 -5.99874793 4.17531451 -7.5 4.1875 C-8.2940625 4.20167969 -9.088125 4.21585937 -9.90625 4.23046875 C-12 4 -12 4 -14 2 C-12.95199219 1.90912109 -12.95199219 1.90912109 -11.8828125 1.81640625 C-10.97273438 1.73261719 -10.06265625 1.64882812 -9.125 1.5625 C-8.22007812 1.48128906 -7.31515625 1.40007812 -6.3828125 1.31640625 C-3.9906624 0.99876009 -2.3900132 0 0 0 Z " fill="#4B80DB" transform="translate(335,63)"/>
<path d="M0 0 C4.10958767 1.45044271 7.43258745 3.51110752 11 6 C9.4375 6.75 9.4375 6.75 7 7 C4.49713591 5.86915563 2.32992278 4.47860484 0 3 C0 2.01 0 1.02 0 0 Z " fill="#FDE9EF" transform="translate(36,24)"/>
<path d="M0 0 C0 0.99 0 1.98 0 3 C-2.64 2.67 -5.28 2.34 -8 2 C-8 2.66 -8 3.32 -8 4 C-9.32 3.34 -10.64 2.68 -12 2 C-8.09971775 -0.60018816 -4.52565431 -0.15085514 0 0 Z " fill="#6C9FF2" transform="translate(297,29)"/>
<path d="M0 0 C1.31896465 0.92838287 2.62998689 1.86805732 3.9375 2.8125 C4.66839844 3.33457031 5.39929688 3.85664062 6.15234375 4.39453125 C8 6 8 6 9 9 C6.0280615 7.87548273 3.66559313 6.77706209 1 5 C0.3125 2.375 0.3125 2.375 0 0 Z " fill="#EEA51F" transform="translate(90,56)"/>
<path d="M0 0 C2.31 0.33 4.62 0.66 7 1 C4.31158141 3.25245881 2.35358125 4.88213958 -1 6 C-0.67 4.02 -0.34 2.04 0 0 Z " fill="#3C82ED" transform="translate(136,14)"/>
<path d="M0 0 C6.4 -0.36923077 6.4 -0.36923077 9.4375 1.5 C9.953125 1.995 10.46875 2.49 11 3 C10.67 3.66 10.34 4.32 10 5 C9.34 5 8.68 5 8 5 C7.67 4.34 7.34 3.68 7 3 C4.36 3 1.72 3 -1 3 C-0.67 2.01 -0.34 1.02 0 0 Z " fill="#689EEA" transform="translate(211,5)"/>
<path d="M0 0 C0.33 0.99 0.66 1.98 1 3 C-5.75 4.125 -5.75 4.125 -8 3 C-8 2.34 -8 1.68 -8 1 C-5.23735711 0.40267181 -2.83967231 0 0 0 Z " fill="#3F7DCD" transform="translate(218,74)"/>
<path d="M0 0 C3 1 3 1 5 4 C5.66 4 6.32 4 7 4 C7.66 5.98 8.32 7.96 9 10 C4.71095765 8.4114658 2.67654474 5.56872632 0 2 C0 1.34 0 0.68 0 0 Z " fill="#6B9EE0" transform="translate(305,64)"/>
<path d="M0 0 C0.33 0 0.66 0 1 0 C1.33 3.96 1.66 7.92 2 12 C2.99 12 3.98 12 5 12 C5 12.66 5 13.32 5 14 C3.35 13.67 1.7 13.34 0 13 C0 8.71 0 4.42 0 0 Z " fill="#6CA1E3" transform="translate(449,64)"/>
<path d="M0 0 C0.33 0.66 0.66 1.32 1 2 C0.67 2.66 0.34 3.32 0 4 C0.66 4.33 1.32 4.66 2 5 C1.01 6.485 1.01 6.485 0 8 C-1.32 8 -2.64 8 -4 8 C-2.87548273 5.0280615 -1.77706209 2.66559313 0 0 Z M2 2 C2.99 2.495 2.99 2.495 4 3 C3.01 3.495 3.01 3.495 2 4 C2 3.34 2 2.68 2 2 Z " fill="#5393F2" transform="translate(179,22)"/>
<path d="M0 0 C4.77576339 0.4682121 8.04476345 1.24331998 12 4 C11.67 4.66 11.34 5.32 11 6 C9.3509698 5.38348417 7.70584159 4.75652258 6.0625 4.125 C5.14597656 3.77695313 4.22945313 3.42890625 3.28515625 3.0703125 C1 2 1 2 0 0 Z " fill="#FDEFEF" transform="translate(2,5)"/>
<path d="M0 0 C4.43090471 1.20842856 6.98112756 2.51668565 10 6 C7.03 5.67 4.06 5.34 1 5 C0.67 3.35 0.34 1.7 0 0 Z " fill="#E02835" transform="translate(55,39)"/>
<path d="M0 0 C-0.99 1.485 -0.99 1.485 -2 3 C-5.125 3.1875 -5.125 3.1875 -8 3 C-7.67 2.01 -7.34 1.02 -7 0 C-4.3333581 -1.33332095 -2.83319697 -0.67102033 0 0 Z " fill="#4C8CF3" transform="translate(382,32)"/>
<path d="M0 0 C1.32 0 2.64 0 4 0 C4 1.65 4 3.3 4 5 C2.35 5 0.7 5 -1 5 C-0.67 3.35 -0.34 1.7 0 0 Z " fill="#146BF5" transform="translate(257,34)"/>
<path d="M0 0 C-0.33 2.31 -0.66 4.62 -1 7 C-1.99 6.67 -2.98 6.34 -4 6 C-4.33 5.01 -4.66 4.02 -5 3 C-2.25 0 -2.25 0 0 0 Z " fill="#0CCEA2" transform="translate(26,79)"/>
<path d="M0 0 C1.32 0.33 2.64 0.66 4 1 C4.33 2.32 4.66 3.64 5 5 C6.65 5 8.3 5 10 5 C10 5.33 10 5.66 10 6 C6.29706315 6.33663062 4.60465619 6.47736015 1.625 4.125 C0 2 0 2 0 0 Z " fill="#4B85DC" transform="translate(158,57)"/>
<path d="M0 0 C2.475 0.495 2.475 0.495 5 1 C5 1.66 5 2.32 5 3 C6.98 3.66 8.96 4.32 11 5 C11 5.66 11 6.32 11 7 C6.89188572 5.55007731 3.53144334 3.54592427 0 1 C0 0.67 0 0.34 0 0 Z " fill="#F08C2E" transform="translate(78,52)"/>
<path d="M0 0 C1.65 0 3.3 0 5 0 C6.125 3.75 6.125 3.75 5 6 C4.34 6 3.68 6 3 6 C3 5.01 3 4.02 3 3 C2.01 3 1.02 3 0 3 C0 2.01 0 1.02 0 0 Z " fill="#2C70DF" transform="translate(475,50)"/>
<path d="M0 0 C0.33 1.32 0.66 2.64 1 4 C-1.64 4.33 -4.28 4.66 -7 5 C-7 4.34 -7 3.68 -7 3 C-5.68 3 -4.36 3 -3 3 C-3 2.34 -3 1.68 -3 1 C-2.01 0.67 -1.02 0.34 0 0 Z " fill="#4B8BE6" transform="translate(389,37)"/>
<path d="M0 0 C0 1.32 0 2.64 0 4 C-1.98 3.34 -3.96 2.68 -6 2 C-6 1.34 -6 0.68 -6 0 C-3.50907189 -1.24546405 -2.58919267 -0.7767578 0 0 Z " fill="#F5CE15" transform="translate(77,36)"/>
<path d="M0 0 C2.83374881 3.20336822 3.5205537 5.78087253 4 10 C3.67 9.34 3.34 8.68 3 8 C2.01 7.67 1.02 7.34 0 7 C0 4.69 0 2.38 0 0 Z " fill="#548DE5" transform="translate(348,39)"/>
<path d="M0 0 C0.66 0 1.32 0 2 0 C2.66 1.98 3.32 3.96 4 6 C3.34 6 2.68 6 2 6 C2.33 7.32 2.66 8.64 3 10 C2.01 9.34 1.02 8.68 0 8 C-0.40843923 5.28796348 -0.13336867 2.7562858 0 0 Z " fill="#1764EE" transform="translate(280,38)"/>
<path d="M0 0 C6.75 1.875 6.75 1.875 9 3 C8.67 3.99 8.34 4.98 8 6 C1.125 2.25 1.125 2.25 0 0 Z " fill="#FED3DE" transform="translate(27,20)"/>
<path d="M0 0 C3.3 0.33 6.6 0.66 10 1 C9.67 1.99 9.34 2.98 9 4 C5.625 3.6875 5.625 3.6875 2 3 C1.34 2.01 0.68 1.02 0 0 Z " fill="#0B50C4" transform="translate(312,71)"/>
<path d="M0 0 C1.32 0.33 2.64 0.66 4 1 C3.21625 1.598125 2.4325 2.19625 1.625 2.8125 C-1.14574323 4.91085249 -1.14574323 4.91085249 -3 8 C-3.33 6.02 -3.66 4.04 -4 2 C-2.68 2 -1.36 2 0 2 C0 1.34 0 0.68 0 0 Z " fill="#70A4EC" transform="translate(286,42)"/>
<path d="M0 0 C2.72426311 2.35277269 3.8141763 4.62496331 5 8 C4.34 8 3.68 8 3 8 C2.34 8.66 1.68 9.32 1 10 C1.020625 9.278125 1.04125 8.55625 1.0625 7.8125 C1.00179441 5.08074862 0.60741465 2.65743909 0 0 Z " fill="#4D84E6" transform="translate(159,36)"/>
<path d="M0 0 C0.99 1.32 1.98 2.64 3 4 C1.68 5.65 0.36 7.3 -1 9 C-1.74839443 6.0999716 -2 4.00325537 -2 1 C-1.34 0.67 -0.68 0.34 0 0 Z " fill="#4086F2" transform="translate(311,34)"/>
<path d="M0 0 C0.598125 0.165 1.19625 0.33 1.8125 0.5 C4.11344336 1.1114124 4.11344336 1.1114124 7 1 C6.34 2.32 5.68 3.64 5 5 C3.68 5 2.36 5 1 5 C0.67 3.35 0.34 1.7 0 0 Z " fill="#518EEF" transform="translate(243,31)"/>
<path d="M0 0 C2.97 0.33 5.94 0.66 9 1 C8.67 1.66 8.34 2.32 8 3 C5.69 3 3.38 3 1 3 C0.67 2.01 0.34 1.02 0 0 Z " fill="#4F8BE8" transform="translate(210,18)"/>
<path d="M0 0 C5.625 -0.25 5.625 -0.25 9 2 C9 2.66 9 3.32 9 4 C7.35 3.67 5.7 3.34 4 3 C4 2.34 4 1.68 4 1 C2.35 1.33 0.7 1.66 -1 2 C-0.67 1.34 -0.34 0.68 0 0 Z " fill="#71ADF0" transform="translate(186,13)"/>
<path d="M0 0 C0.66 0 1.32 0 2 0 C2.33 1.98 2.66 3.96 3 6 C1.68 6.33 0.36 6.66 -1 7 C-0.67 4.69 -0.34 2.38 0 0 Z " fill="#3775D5" transform="translate(484,63)"/>
<path d="M0 0 C3 1 3 1 4.1875 3.0625 C4.455625 3.701875 4.72375 4.34125 5 5 C3.02 5 1.04 5 -1 5 C-0.67 3.35 -0.34 1.7 0 0 Z " fill="#DCB808" transform="translate(77,43)"/>
<path d="M0 0 C2.64 0 5.28 0 8 0 C8 0.99 8 1.98 8 3 C5.36 2.67 2.72 2.34 0 2 C0 1.34 0 0.68 0 0 Z " fill="#508BEE" transform="translate(325,39)"/>
<path d="M0 0 C0.66 0 1.32 0 2 0 C3.38232443 1.62626404 4.71937515 3.2925002 6 5 C4.35 5 2.7 5 1 5 C1 4.34 1 3.68 1 3 C0.34 3 -0.32 3 -1 3 C-0.67 2.01 -0.34 1.02 0 0 Z " fill="#124EB6" transform="translate(185,72)"/>
<path d="M0 0 C0.66 0 1.32 0 2 0 C2 1.32 2 2.64 2 4 C1.34 4 0.68 4 0 4 C0 2.68 0 1.36 0 0 Z M-2 4 C-1.34 4 -0.68 4 0 4 C0 5.32 0 6.64 0 8 C-0.99 7.67 -1.98 7.34 -3 7 C-2.67 6.01 -2.34 5.02 -2 4 Z " fill="#1662E2" transform="translate(499,46)"/>
<path d="M0 0 C1.32 0 2.64 0 4 0 C6.1519437 3.22791555 6.20086443 4.28400809 6 8 C3.87961365 5.38485683 1.86908256 2.80362384 0 0 Z " fill="#71A1E6" transform="translate(333,42)"/>
<path d="M0 0 C1 2 1 2 0.0625 5.125 C-0.288125 6.07375 -0.63875 7.0225 -1 8 C-1.99 7.67 -2.98 7.34 -4 7 C-2.92598892 4.08482708 -2.22189824 2.22189824 0 0 Z " fill="#6199F5" transform="translate(184,15)"/>
<path d="M0 0 C1.32 0 2.64 0 4 0 C3 3 3 3 0.9375 4.1875 C0.298125 4.455625 -0.34125 4.72375 -1 5 C-1.33 4.01 -1.66 3.02 -2 2 C-1.34 2 -0.68 2 0 2 C0 1.34 0 0.68 0 0 Z " fill="#1555C2" transform="translate(483,82)"/>
<path d="M0 0 C2.9719385 1.12451727 5.33440687 2.22293791 8 4 C2.25 4.125 2.25 4.125 0 3 C0 2.01 0 1.02 0 0 Z " fill="#6896DB" transform="translate(136,74)"/>
<path d="M0 0 C0 1.65 0 3.3 0 5 C-0.66 5 -1.32 5 -2 5 C-2 4.34 -2 3.68 -2 3 C-3.32 3.33 -4.64 3.66 -6 4 C-6 3.34 -6 2.68 -6 2 C-2.25 0 -2.25 0 0 0 Z " fill="#175FDB" transform="translate(492,67)"/>
<path d="M0 0 C0.99 0 1.98 0 3 0 C2.67 1.65 2.34 3.3 2 5 C0.68 4.67 -0.64 4.34 -2 4 C-1.34 2.68 -0.68 1.36 0 0 Z " fill="#185FCD" transform="translate(493,60)"/>
<path d="M0 0 C0.33 0 0.66 0 1 0 C1.042721 1.66611905 1.04063832 3.33382885 1 5 C0 6 0 6 -2.5625 6.0625 C-3.7690625 6.0315625 -3.7690625 6.0315625 -5 6 C-3.625 4 -3.625 4 -2 2 C-1.34 2 -0.68 2 0 2 C0 1.34 0 0.68 0 0 Z " fill="#FED0DA" transform="translate(39,55)"/>
<path d="M0 0 C1.65 0 3.3 0 5 0 C4.34 1.65 3.68 3.3 3 5 C2.67 4.34 2.34 3.68 2 3 C0.68 3.33 -0.64 3.66 -2 4 C-2 3.34 -2 2.68 -2 2 C-1.34 2 -0.68 2 0 2 C0 1.34 0 0.68 0 0 Z " fill="#498DEC" transform="translate(314,45)"/>
</svg>
