<?xml version="1.0" encoding="UTF-8"?>
<svg version="1.1" xmlns="http://www.w3.org/2000/svg" width="353" height="74">
<path d="M0 0 C0.79520554 -0.0066568 1.59041107 -0.0133136 2.40971375 -0.02017212 C4.08814186 -0.03026969 5.7666099 -0.03499004 7.44506836 -0.03466797 C9.99336078 -0.03903107 12.53990536 -0.07535087 15.08789062 -0.11328125 C16.72525455 -0.11915234 18.36262663 -0.12311978 20 -0.125 C20.75235428 -0.13937103 21.50470856 -0.15374207 22.27986145 -0.16854858 C28.68340772 -0.11412688 33.70254948 1.91623009 38.6875 5.94140625 C45.99071122 14.6664816 46.17531735 23.79372379 46.07421875 34.8359375 C46.08582031 36.10308594 46.09742187 37.37023438 46.109375 38.67578125 C46.07644416 49.22462834 44.89737128 56.8754465 37.53125 64.67578125 C29.90102072 71.59016812 20.07784486 70.54776653 10.44921875 70.5859375 C9.16402344 70.6065625 7.87882812 70.6271875 6.5546875 70.6484375 C-3.35670653 70.68909963 -10.96501225 69.79476637 -18.6953125 63.32421875 C-23.33251457 57.58130914 -24.91135409 52.02055177 -24.83203125 44.7421875 C-24.83585815 43.95122681 -24.83968506 43.16026611 -24.84362793 42.34533691 C-24.84633145 40.68480139 -24.83908033 39.02422212 -24.82226562 37.36376953 C-24.80083103 34.84179509 -24.82211815 32.32266854 -24.84765625 29.80078125 C-24.84501269 28.17707713 -24.83988713 26.55337477 -24.83203125 24.9296875 C-24.84012817 24.18674438 -24.8482251 23.44380127 -24.85656738 22.67834473 C-24.7442694 16.31610778 -22.72925063 11.15013691 -18.5546875 6.3125 C-17.99652344 5.86648437 -17.43835938 5.42046875 -16.86328125 4.9609375 C-16.30769531 4.49945312 -15.75210937 4.03796875 -15.1796875 3.5625 C-10.29695229 0.37501797 -5.71280057 0.01676454 0 0 Z " fill="#014757" transform="translate(24.30078125,-0.3359375)"/>
<path d="M0 0 C5.01764091 3.99276106 7.40816906 8.28880695 8.18359375 14.60546875 C8.53038271 21.67462822 7.55705505 26.41852609 2.8359375 31.7734375 C-1.5241367 35.91550799 -5.48784261 37.8402701 -11.4765625 38.1484375 C-17.38688346 37.97171694 -21.87590461 36.20087457 -25.9609375 31.8671875 C-30.17209146 26.49295292 -31.61253243 22.10071496 -31.5 15.28125 C-30.7618656 9.77099089 -28.42216604 4.76293598 -24.2265625 1.06640625 C-16.6779046 -3.89454885 -8.05636758 -4.56624444 0 0 Z M-19.1640625 9.7734375 C-21.73038767 13.19520439 -21.52841301 16.61984171 -21.1640625 20.7734375 C-19.51266945 24.3121369 -18.44801021 25.58413903 -15.1640625 27.7734375 C-10.95228007 28.24141333 -8.87807136 28.23909545 -5.2890625 25.8984375 C-2.42620622 23.03558122 -1.9775479 21.40626988 -1.8515625 17.4609375 C-1.87992736 13.93802151 -2.09755575 12.87984831 -4.0390625 9.7734375 C-6.5743239 7.38730913 -7.50814948 6.83174088 -10.9765625 6.5234375 C-14.60571406 6.80807684 -16.30702415 7.55129656 -19.1640625 9.7734375 Z " fill="#024756" transform="translate(126.1640625,18.2265625)"/>
<path d="M0 0 C2.97 0 5.94 0 9 0 C9 3.96 9 7.92 9 12 C10.32 11.34 11.64 10.68 13 10 C19.656 9.24851613 19.656 9.24851613 22.81640625 11.015625 C25.50276517 13.16471214 26.9046873 14.7140619 28 18 C28.08178114 19.70016844 28.10749501 21.40336297 28.09765625 23.10546875 C28.09443359 24.08837891 28.09121094 25.07128906 28.08789062 26.08398438 C28.07951172 27.10814453 28.07113281 28.13230469 28.0625 29.1875 C28.05798828 30.22326172 28.05347656 31.25902344 28.04882812 32.32617188 C28.0370401 34.88417266 28.02058515 37.44205733 28 40 C25.03 40 22.06 40 19 40 C18.93941406 38.64003906 18.87882812 37.28007813 18.81640625 35.87890625 C18.73201829 34.10675903 18.64736942 32.33462423 18.5625 30.5625 C18.52318359 29.66466797 18.48386719 28.76683594 18.44335938 27.84179688 C18.40146484 26.98779297 18.35957031 26.13378906 18.31640625 25.25390625 C18.27974854 24.46314697 18.24309082 23.6723877 18.20532227 22.85766602 C18.19436743 20.98598559 18.19436743 20.98598559 17 20 C15.00041636 19.95919217 12.99954746 19.95745644 11 20 C10.13580777 22.59257669 9.82419068 24.34037707 9.68359375 27.01171875 C9.64169922 27.76904297 9.59980469 28.52636719 9.55664062 29.30664062 C9.51732422 30.09232422 9.47800781 30.87800781 9.4375 31.6875 C9.39431641 32.48478516 9.35113281 33.28207031 9.30664062 34.10351562 C9.20072632 36.06881447 9.09987449 38.03438496 9 40 C6.03 40 3.06 40 0 40 C0 26.8 0 13.6 0 0 Z " fill="#024757" transform="translate(204,16)"/>
<path d="M0 0 C4.40617281 2.16303029 7.1644597 4.41114924 9 9 C9 11.97 9 14.94 9 18 C3.06 18.33 -2.88 18.66 -9 19 C-6.525 19.99 -6.525 19.99 -4 21 C-3.34 20.67 -2.68 20.34 -2 20 C-0.29297265 19.93003986 1.41668003 19.91559846 3.125 19.9375 C4.03507812 19.94652344 4.94515625 19.95554687 5.8828125 19.96484375 C6.58148438 19.97644531 7.28015625 19.98804687 8 20 C7.70179167 23.57849992 7.25754642 24.76226484 4.5625 27.25 C-0.2387612 30.52891009 -4.26794709 30.64276477 -10 30 C-15.13308791 27.38679161 -18.1797908 24.46062759 -20 19 C-20.3684431 13.38124276 -20.19190228 9.84288621 -17 5 C-11.44900407 -0.00943535 -7.35485124 -0.81343977 0 0 Z M-8.125 10 C-8.74375 10.66 -9.3625 11.32 -10 12 C-6.7 12 -3.4 12 0 12 C-1.28965176 10.62437146 -2.62689293 9.29233607 -4 8 C-6.24362573 7.7715451 -6.24362573 7.7715451 -8.125 10 Z " fill="#024757" transform="translate(256,26)"/>
<path d="M0 0 C2.31 0 4.62 0 7 0 C7.66 0.66 8.32 1.32 9 2 C9.515625 1.67 10.03125 1.34 10.5625 1 C13.89310774 -0.36640318 16.42646082 -0.31346835 20 0 C23.70996177 1.68634626 25.86713875 3.54841592 28 7 C28.34057617 9.56542969 28.34057617 9.56542969 28.29296875 12.421875 C28.28330078 13.44667969 28.27363281 14.47148438 28.26367188 15.52734375 C28.23853516 16.59082031 28.21339844 17.65429688 28.1875 18.75 C28.16719727 20.36841797 28.16719727 20.36841797 28.14648438 22.01953125 C28.11116584 24.6801942 28.06184199 27.33984296 28 30 C25.03 30 22.06 30 19 30 C18.93941406 28.64003906 18.87882812 27.28007813 18.81640625 25.87890625 C18.73201829 24.10675903 18.64736942 22.33462423 18.5625 20.5625 C18.52318359 19.66466797 18.48386719 18.76683594 18.44335938 17.84179688 C18.40146484 16.98779297 18.35957031 16.13378906 18.31640625 15.25390625 C18.27974854 14.46314697 18.24309082 13.6723877 18.20532227 12.85766602 C18.19436743 10.98598559 18.19436743 10.98598559 17 10 C14.5 9.83333333 14.5 9.83333333 12 10 C10.45049732 11.54950268 10.78344807 13.09990594 10.68359375 15.25390625 C10.64169922 16.10791016 10.59980469 16.96191406 10.55664062 17.84179688 C10.51732422 18.73962891 10.47800781 19.63746094 10.4375 20.5625 C10.39431641 21.46419922 10.35113281 22.36589844 10.30664062 23.29492188 C10.20022016 25.52975156 10.09957519 27.76485486 10 30 C6.7 30 3.4 30 0 30 C0 20.1 0 10.2 0 0 Z " fill="#034756" transform="translate(138,26)"/>
<path d="M0 0 C10.56 0 21.12 0 32 0 C32 2.97 32 5.94 32 9 C28.37 9 24.74 9 21 9 C21 19.23 21 29.46 21 40 C17.7 40 14.4 40 11 40 C11 29.77 11 19.54 11 9 C7.37 9 3.74 9 0 9 C0 6.03 0 3.06 0 0 Z " fill="#024755" transform="translate(169,16)"/>
<path d="M0 0 C7.59 0 15.18 0 23 0 C23 1.32 23 2.64 23 4 C16.73 4 10.46 4 4 4 C4 8.29 4 12.58 4 17 C8.95 17 13.9 17 19 17 C19 17.99 19 18.98 19 20 C14.05 20 9.1 20 4 20 C4 25.94 4 31.88 4 38 C2.68 38 1.36 38 0 38 C0 25.46 0 12.92 0 0 Z " fill="#034754" transform="translate(283,16)"/>
<path d="M0 0 C1.87988281 0.24780273 1.87988281 0.24780273 4 1 C5.09667969 2.76586914 5.09667969 2.76586914 5.921875 5.03515625 C6.37626953 6.24848633 6.37626953 6.24848633 6.83984375 7.48632812 C7.14019531 8.33646484 7.44054687 9.18660156 7.75 10.0625 C8.22373047 11.34350586 8.22373047 11.34350586 8.70703125 12.65039062 C9.48567191 14.76215849 10.24916297 16.87822066 11 19 C13.70295635 13.76384215 15.96643722 8.58474831 17.875 3.00390625 C19 1 19 1 21.125 0.21484375 C21.74375 0.14394531 22.3625 0.07304687 23 0 C22.41395348 4.38022777 21.32068639 8.06694807 19.6015625 12.1328125 C18.88226563 13.83630859 18.88226563 13.83630859 18.1484375 15.57421875 C17.64570313 16.74597656 17.14296875 17.91773438 16.625 19.125 C16.13 20.30449219 15.635 21.48398437 15.125 22.69921875 C10.70303409 33.09202099 10.70303409 33.09202099 8 36 C4.8125 36.25 4.8125 36.25 2 36 C2 35.01 2 34.02 2 33 C4.475 32.505 4.475 32.505 7 32 C8.4547452 24.42161531 7.36212116 20.06489221 4.0625 13.1875 C3.29717385 11.53802411 2.53780601 9.88576726 1.78515625 8.23046875 C1.44363525 7.51270264 1.10211426 6.79493652 0.75024414 6.05541992 C0 4 0 4 0 0 Z " fill="#044755" transform="translate(319,27)"/>
<path d="M0 0 C0 3.96 0 7.92 0 12 C-6.93 12 -13.86 12 -21 12 C-19.98410522 7.93642089 -19.85306539 7.54737981 -17 5 C-16.360625 4.113125 -15.72125 3.22625 -15.0625 2.3125 C-10.23813311 -1.33038929 -5.93429543 -0.32606019 0 0 Z " fill="#B62244" transform="translate(37,18)"/>
<path d="M0 0 C3.63 0 7.26 0 11 0 C12.20244347 10.34101382 12.20244347 10.34101382 8.80859375 15.0234375 C1.78205587 22 1.78205587 22 0 22 C0 14.74 0 7.48 0 0 Z " fill="#F5CF21" transform="translate(37,30)"/>
<path d="M0 0 C3.96 0 7.92 0 12 0 C12 3.96 12 7.92 12 12 C8.04 12 4.08 12 0 12 C0 8.04 0 4.08 0 0 Z " fill="#36B48E" transform="translate(37,18)"/>
<path d="M0 0 C0.99 0 1.98 0 3 0 C3 12.54 3 25.08 3 38 C2.01 38 1.02 38 0 38 C0 25.46 0 12.92 0 0 Z " fill="#074551" transform="translate(311,16)"/>
<path d="M0 0 C0 2.64 0 5.28 0 8 C-4.62 8 -9.24 8 -14 8 C-9.8867643 0.45906789 -8.55618921 -0.13800305 0 0 Z " fill="#FA0A37" transform="translate(35,20)"/>
<path d="M0 0 C2.64 0.33 5.28 0.66 8 1 C8 3.31 8 5.62 8 8 C5.36 8 2.72 8 0 8 C0 5.36 0 2.72 0 0 Z " fill="#0FCDA5" transform="translate(39,20)"/>
<path d="M0 0 C3.63 0 7.26 0 11 0 C11 3.96 11 7.92 11 12 C10.67 12 10.34 12 10 12 C10 8.37 10 4.74 10 1 C7.03 1 4.06 1 1 1 C1 6.61 1 12.22 1 18 C1.99 18.33 2.98 18.66 4 19 C2.68 19.99 1.36 20.98 0 22 C0 14.74 0 7.48 0 0 Z " fill="#D0D65F" transform="translate(37,30)"/>
<path d="M0 0 C2.0625 0.4375 2.0625 0.4375 4 1 C3.21366078 2.14949588 2.42073742 3.29448989 1.625 4.4375 C1.18414063 5.07558594 0.74328125 5.71367187 0.2890625 6.37109375 C-1 8 -1 8 -3 9 C-3.66 9.99 -4.32 10.98 -5 12 C-5 10.35 -5 8.7 -5 7 C-4.01 6.67 -3.02 6.34 -2 6 C-1.855625 5.195625 -1.71125 4.39125 -1.5625 3.5625 C-1 1 -1 1 0 0 Z " fill="#1D414F" transform="translate(20,18)"/>
</svg>
