<?xml version="1.0" encoding="UTF-8"?>
<svg version="1.1" xmlns="http://www.w3.org/2000/svg" width="183" height="43">
<path d="M0 0 C1.25472107 0.00136711 1.25472107 0.00136711 2.53479004 0.00276184 C3.39286255 -0.00152328 4.25093506 -0.00580841 5.13500977 -0.01022339 C6.9507153 -0.01597099 8.76644386 -0.01646379 10.58215332 -0.01213074 C13.36754403 -0.00896939 16.15187441 -0.03242869 18.93713379 -0.05778503 C20.69885119 -0.06005777 22.46057147 -0.06076164 24.22229004 -0.05973816 C25.05877075 -0.06894791 25.89525146 -0.07815765 26.75708008 -0.08764648 C29.10314941 -0.06877136 29.10314941 -0.06877136 32.87854004 0.30354309 C34.87854004 3.30354309 34.87854004 3.30354309 34.75354004 5.55354309 C33.60236221 9.17153055 31.8505607 12.05925104 29.87854004 15.30354309 C30.86854004 15.96354309 31.85854004 16.62354309 32.87854004 17.30354309 C32.68713379 19.59651184 32.68713379 19.59651184 31.87854004 22.30354309 C29.66369629 24.10432434 29.66369629 24.10432434 26.94104004 25.61604309 C26.0451416 26.1278009 25.14924316 26.63955872 24.22619629 27.16682434 C21.87854004 28.30354309 21.87854004 28.30354309 19.87854004 28.30354309 C19.61041504 28.90166809 19.34229004 29.49979309 19.06604004 30.11604309 C17.83742751 32.3792767 16.98822658 33.81894886 14.87854004 35.30354309 C12.54968262 35.24201965 12.54968262 35.24201965 9.87854004 34.30354309 C7.65856934 31.79084778 7.65856934 31.79084778 5.45275879 28.47541809 C5.06030472 27.88939819 4.66785065 27.3033783 4.26350403 26.69960022 C3.43870046 25.46024901 2.62131009 24.21593636 1.81091309 22.96711731 C0.5712139 21.06149617 -0.69565305 19.17632673 -1.96716309 17.29182434 C-2.76638236 16.08330699 -3.56396454 14.87370507 -4.35974121 13.66291809 C-5.08201904 12.56431458 -5.80429688 11.46571106 -6.54846191 10.33381653 C-8.14449753 7.25916278 -8.66983582 5.69566604 -8.12145996 2.30354309 C-5.49314485 -0.32477202 -3.57937701 0.04406941 0 0 Z " fill="#FB0A36" transform="translate(13.1214599609375,4.6964569091796875)"/>
<path d="M0 0 C2.84081237 0.49907186 5.14954913 1.47777237 7.671875 2.84765625 C8.33574219 3.20537109 8.99960937 3.56308594 9.68359375 3.93164062 C10.36550781 4.30482422 11.04742187 4.67800781 11.75 5.0625 C12.44738281 5.43955078 13.14476562 5.81660156 13.86328125 6.20507812 C15.57768302 7.13273388 17.28913661 8.06583454 19 9 C18.921875 11.2265625 18.921875 11.2265625 18 14 C15.7330674 15.72690415 13.72551186 17.03702092 11.25 18.375 C10.62867188 18.74238281 10.00734375 19.10976563 9.3671875 19.48828125 C6.39027039 21.15259145 4.48386709 22.04480251 1.046875 21.7265625 C0.03367187 21.36691406 0.03367187 21.36691406 -1 21 C-1.02888146 17.68751813 -1.04675799 14.37506833 -1.0625 11.0625 C-1.07087891 10.11697266 -1.07925781 9.17144531 -1.08789062 8.19726562 C-1.09111328 7.29814453 -1.09433594 6.39902344 -1.09765625 5.47265625 C-1.10289307 4.64000244 -1.10812988 3.80734863 -1.11352539 2.94946289 C-1 1 -1 1 0 0 Z " fill="#FDD01A" transform="translate(27,13)"/>
<path d="M0 0 C1.25472107 0.00136711 1.25472107 0.00136711 2.53479004 0.00276184 C3.39286255 -0.00152328 4.25093506 -0.00580841 5.13500977 -0.01022339 C6.9507153 -0.01597099 8.76644386 -0.01646379 10.58215332 -0.01213074 C13.36754403 -0.00896939 16.15187441 -0.03242869 18.93713379 -0.05778503 C20.69885119 -0.06005777 22.46057147 -0.06076164 24.22229004 -0.05973816 C25.05877075 -0.06894791 25.89525146 -0.07815765 26.75708008 -0.08764648 C29.10314941 -0.06877136 29.10314941 -0.06877136 32.87854004 0.30354309 C34.87854004 3.30354309 34.87854004 3.30354309 34.81604004 5.55354309 C33.5274467 9.33341688 31.32011204 12.17724979 28.87854004 15.30354309 C25.81461618 14.18938896 23.09227999 12.86582686 20.31604004 11.17854309 C16.94587862 8.98430834 16.94587862 8.98430834 12.87854004 9.30354309 C12.87854004 8.31354309 12.87854004 7.32354309 12.87854004 6.30354309 C15.84854004 6.79854309 15.84854004 6.79854309 18.87854004 7.30354309 C18.87854004 5.65354309 18.87854004 4.00354309 18.87854004 2.30354309 C11.28854004 2.63354309 3.69854004 2.96354309 -4.12145996 3.30354309 C-4.45145996 4.95354309 -4.78145996 6.60354309 -5.12145996 8.30354309 C-4.46145996 8.96354309 -3.80145996 9.62354309 -3.12145996 10.30354309 C-3.45145996 11.29354309 -3.78145996 12.28354309 -4.12145996 13.30354309 C-8.01711213 8.06876048 -8.01711213 8.06876048 -8.49645996 4.55354309 C-7.65716753 -0.48221147 -4.37785451 0.0539003 0 0 Z " fill="#E40E30" transform="translate(13.1214599609375,4.6964569091796875)"/>
<path d="M0 0 C1.828125 0.12109375 1.828125 0.12109375 4 1 C6.1005746 4.85289604 7.44058131 8.88486734 9 13 C12.465 6.565 12.465 6.565 16 0 C17.32 0.33 18.64 0.66 20 1 C19.45026573 6.83028038 17.7546141 11.58290168 15.4375 16.9375 C15.10814453 17.71673828 14.77878906 18.49597656 14.43945312 19.29882812 C13.63366651 21.20235303 12.81785783 23.10163025 12 25 C10.35 25 8.7 25 7 25 C5.43281617 21.59447474 3.90086259 18.17421516 2.375 14.75 C1.92898437 13.78191406 1.48296875 12.81382813 1.0234375 11.81640625 C0.6109375 10.88183594 0.1984375 9.94726562 -0.2265625 8.984375 C-0.80784912 7.69611816 -0.80784912 7.69611816 -1.40087891 6.38183594 C-2 4 -2 4 -1.11083984 1.68847656 C-0.7442627 1.1312793 -0.37768555 0.57408203 0 0 Z " fill="#0755D2" transform="translate(58,8)"/>
<path d="M0 0 C0.99 0 1.98 0 3 0 C3 9.24 3 18.48 3 28 C1.68 27.67 0.36 27.34 -1 27 C-1.33 27.33 -1.66 27.66 -2 28 C-8.95652174 28.69565217 -8.95652174 28.69565217 -13 26 C-15.21925086 22.67112371 -15.75890933 20.86063492 -15.4765625 16.9375 C-14.60276841 13.38502568 -12.9838283 11.98921886 -10 10 C-6.50615283 9.42548593 -3.23176757 9.38411621 0 11 C0 7.37 0 3.74 0 0 Z M-11 14 C-12.43735246 16.87470493 -12.38172649 18.81894588 -12 22 C-10.00979883 24.65884601 -10.00979883 24.65884601 -7 26 C-3.7401469 25.52490784 -3.7401469 25.52490784 -1 24 C0.42041821 21.15916359 0.31452272 19.14522722 0 16 C-1.68832016 13.5608859 -1.68832016 13.5608859 -4 12 C-7.12900213 12 -8.37418862 12.42451317 -11 14 Z " fill="#0551D2" transform="translate(180,5)"/>
<path d="M0 0 C0.66 0 1.32 0 2 0 C2.33 6.6 2.66 13.2 3 20 C4.98 20 6.96 20 9 20 C7.5404686 22.99588024 6.68570988 24.67519006 3.625 26.125 C0.40839187 25.97182818 -0.48930845 24.86708337 -2.64453125 22.59960938 C-5.14397424 19.64997853 -7.21756941 16.43076292 -9.3125 13.1875 C-9.76689453 12.49462891 -10.22128906 11.80175781 -10.68945312 11.08789062 C-11.79831476 9.3954176 -12.89991438 7.69819042 -14 6 C-13.67 5.34 -13.34 4.68 -13 4 C-10.5 6.3125 -10.5 6.3125 -8 9 C-8 9.99 -8 10.98 -8 12 C-7.34 12 -6.68 12 -6 12 C-5.731875 11.236875 -5.46375 10.47375 -5.1875 9.6875 C-4.02757741 7.06241204 -2.97535534 5.97535534 -1 4 C-0.28552357 1.89667109 -0.28552357 1.89667109 0 0 Z " fill="#C20923" transform="translate(24,14)"/>
<path d="M0 0 C2.5 1.625 2.5 1.625 4 4 C4 5.98 4 7.96 4 10 C-0.62 10 -5.24 10 -10 10 C-9.67 11.32 -9.34 12.64 -9 14 C-4.31034294 15.11658501 -1.46236469 14.80619523 3 13 C2.625 14.9375 2.625 14.9375 2 17 C-1.23176757 18.61588379 -4.50615283 18.57451407 -8 18 C-10.9838283 16.01078114 -12.60276841 14.61497432 -13.4765625 11.0625 C-13.75890933 7.13936508 -13.21925086 5.32887629 -11 2 C-6.84437903 -0.77041398 -4.93332128 -0.70476018 0 0 Z M-8.3125 3.875 C-10.10364702 5.67826236 -10.10364702 5.67826236 -10 7 C-6.37 7 -2.74 7 1 7 C-0.50512739 2.90509292 -0.50512739 2.90509292 -3.375 2 C-6.15635708 1.72446164 -6.15635708 1.72446164 -8.3125 3.875 Z " fill="#155ED8" transform="translate(158,15)"/>
<path d="M0 0 C3.96 0 7.92 0 12 0 C13.32 1.32 14.64 2.64 16 4 C15.78571429 10.21428571 15.78571429 10.21428571 13 13 C9.67779179 13.57730175 6.36712849 13.74099012 3 14 C3 17.3 3 20.6 3 24 C2.01 24 1.02 24 0 24 C0 16.08 0 8.16 0 0 Z M3 2 C3 4.97 3 7.94 3 11 C7.72415328 11.39875273 7.72415328 11.39875273 12 9.75 C13.19118264 8.03630594 13.19118264 8.03630594 12.875 5.9375 C12.04747907 3.6488757 12.04747907 3.6488757 9 2 C5.87478167 1.83300768 5.87478167 1.83300768 3 2 Z " fill="#125CD9" transform="translate(82,9)"/>
<path d="M0 0 C2.0078125 0.328125 2.0078125 0.328125 3.75390625 1.36328125 C5.69650363 4.40728899 5.32218553 7.53149641 5.1953125 11.015625 C5.18177734 11.71751953 5.16824219 12.41941406 5.15429688 13.14257812 C5.11901432 14.87142329 5.06520833 16.59987265 5.0078125 18.328125 C3.07100089 18.40920083 1.1332191 18.46734975 -0.8046875 18.515625 C-1.88363281 18.55042969 -2.96257812 18.58523437 -4.07421875 18.62109375 C-6.9921875 18.328125 -6.9921875 18.328125 -8.88671875 16.9765625 C-9.9921875 15.328125 -9.9921875 15.328125 -9.8671875 12.765625 C-8.9921875 10.328125 -8.9921875 10.328125 -5.9921875 8.328125 C-3.94921875 8.1328125 -3.94921875 8.1328125 -1.8046875 8.203125 C0.0825 8.265 0.0825 8.265 2.0078125 8.328125 C1.6778125 7.008125 1.3478125 5.688125 1.0078125 4.328125 C-0.83943802 3.63653099 -0.83943802 3.63653099 -2.9921875 3.328125 C-3.9821875 3.988125 -4.9721875 4.648125 -5.9921875 5.328125 C-6.9821875 5.328125 -7.9721875 5.328125 -8.9921875 5.328125 C-6.55033823 0.28163651 -5.79214179 0.21373217 0 0 Z M-5.9921875 11.328125 C-5.9921875 12.648125 -5.9921875 13.968125 -5.9921875 15.328125 C-4.20019278 16.11095148 -4.20019278 16.11095148 -1.9921875 16.328125 C0.29528623 15.11281766 0.29528623 15.11281766 2.0078125 13.328125 C2.0078125 12.668125 2.0078125 12.008125 2.0078125 11.328125 C-0.6321875 11.328125 -3.2721875 11.328125 -5.9921875 11.328125 Z " fill="#0952D0" transform="translate(117.9921875,14.671875)"/>
<path d="M0 0 C1.828125 0.15234375 1.828125 0.15234375 4 1 C6.08338267 4.51433761 7.43290839 8.21286193 9 12 C10.98 8.04 12.96 4.08 15 0 C15.66 0 16.32 0 17 0 C16.41723384 5.46234549 14.50526459 9.84525677 12.1875 14.75 C11.84396484 15.51699219 11.50042969 16.28398437 11.14648438 17.07421875 C10.80294922 17.80769531 10.45941406 18.54117188 10.10546875 19.296875 C9.79762451 19.96041992 9.48978027 20.62396484 9.17260742 21.30761719 C7.70478611 23.42607176 6.39766073 24.11074729 4 25 C1.75 24.625 1.75 24.625 0 24 C0 23.34 0 22.68 0 22 C0.804375 21.7525 1.60875 21.505 2.4375 21.25 C5.05716535 20.28785622 5.05716535 20.28785622 5.84375 18.3671875 C6.07898325 14.80340383 4.54674597 12.02536891 3.0625 8.875 C0 2.20676275 0 2.20676275 0 0 Z " fill="#1A62E3" transform="translate(126,15)"/>
<path d="M0 0 C4.75 0.875 4.75 0.875 7 2 C6.87109375 4.26171875 6.87109375 4.26171875 6 7 C3.34765625 9.01953125 3.34765625 9.01953125 0.0625 10.8125 C-1.01902344 11.41707031 -2.10054687 12.02164063 -3.21484375 12.64453125 C-6 14 -6 14 -8 14 C-6.66749209 10.4124787 -5.169283 7.1635377 -3 4 C-2.34 4 -1.68 4 -1 4 C-0.67 2.68 -0.34 1.36 0 0 Z " fill="#37BF8A" transform="translate(39,20)"/>
<path d="M0 0 C1.32 0.33 2.64 0.66 4 1 C3.46148032 6.27749285 2.22656164 10.25645564 0 15 C-1.32 15 -2.64 15 -4 15 C-4.92718689 11.91863039 -5.14268368 10.38328753 -4.00390625 7.32421875 C-3.52824219 6.45410156 -3.05257812 5.58398438 -2.5625 4.6875 C-2.08941406 3.80449219 -1.61632812 2.92148438 -1.12890625 2.01171875 C-0.75636719 1.34785156 -0.38382812 0.68398437 0 0 Z " fill="#1D66E3" transform="translate(74,8)"/>
<path d="M0 0 C0.99 0 1.98 0 3 0 C3 5.28 3 10.56 3 16 C1.68 16 0.36 16 -1 16 C-2 15 -3 14 -4 13 C-6.60611077 12.27802838 -6.60611077 12.27802838 -9 12 C-9 11.34 -9 10.68 -9 10 C-2.25 9.875 -2.25 9.875 0 11 C0 7.37 0 3.74 0 0 Z " fill="#1761E7" transform="translate(180,5)"/>
<path d="M0 0 C1.25472107 0.00136711 1.25472107 0.00136711 2.53479004 0.00276184 C3.39286255 -0.00152328 4.25093506 -0.00580841 5.13500977 -0.01022339 C6.9507153 -0.01597099 8.76644386 -0.01646379 10.58215332 -0.01213074 C13.36754403 -0.00896939 16.15187441 -0.03242869 18.93713379 -0.05778503 C20.69885119 -0.06005777 22.46057147 -0.06076164 24.22229004 -0.05973816 C25.05877075 -0.06894791 25.89525146 -0.07815765 26.75708008 -0.08764648 C29.10314941 -0.06877136 29.10314941 -0.06877136 32.87854004 0.30354309 C34.87854004 3.30354309 34.87854004 3.30354309 34.81604004 5.55354309 C33.5274467 9.33341688 31.32011204 12.17724979 28.87854004 15.30354309 C28.38354004 14.31354309 28.38354004 14.31354309 27.87854004 13.30354309 C28.55916504 12.41666809 29.23979004 11.52979309 29.94104004 10.61604309 C32.43304163 7.19714107 32.43304163 7.19714107 30.87854004 2.30354309 C18.99854004 2.30354309 7.11854004 2.30354309 -5.12145996 2.30354309 C-5.78145996 3.95354309 -6.44145996 5.60354309 -7.12145996 7.30354309 C-7.45145996 7.30354309 -7.78145996 7.30354309 -8.12145996 7.30354309 C-8.24645996 4.92854309 -8.24645996 4.92854309 -8.12145996 2.30354309 C-5.49314485 -0.32477202 -3.57937701 0.04406941 0 0 Z " fill="#310000" transform="translate(13.1214599609375,4.6964569091796875)"/>
<path d="M0 0 C3.67268615 0.54410165 6.74104373 2.29645468 10 4 C7 5 7 5 1 3 C1 7.95 1 12.9 1 18 C1.99 18 2.98 18 4 18 C4 19.32 4 20.64 4 22 C2.35 21.67 0.7 21.34 -1 21 C-1.02888146 17.68751813 -1.04675799 14.37506833 -1.0625 11.0625 C-1.07087891 10.11697266 -1.07925781 9.17144531 -1.08789062 8.19726562 C-1.09111328 7.29814453 -1.09433594 6.39902344 -1.09765625 5.47265625 C-1.10289307 4.64000244 -1.10812988 3.80734863 -1.11352539 2.94946289 C-1 1 -1 1 0 0 Z " fill="#F8AA2F" transform="translate(27,13)"/>
<path d="M0 0 C2.57933662 0.04622467 3.85347187 0.09726543 6.125 1.375 C7.54598605 4.03934884 7.32267261 6.28491085 7.125 9.25 C3.65174819 10.4077506 0.76432552 10.31866652 -2.875 10.25 C-2.875 9.59 -2.875 8.93 -2.875 8.25 C-0.565 8.25 1.745 8.25 4.125 8.25 C3.795 6.93 3.465 5.61 3.125 4.25 C1.27774948 3.55840599 1.27774948 3.55840599 -0.875 3.25 C-1.865 3.91 -2.855 4.57 -3.875 5.25 C-4.865 5.25 -5.855 5.25 -6.875 5.25 C-4.47435553 0.2886681 -4.47435553 0.2886681 0 0 Z " fill="#1563E8" transform="translate(115.875,14.75)"/>
<path d="M0 0 C3.38494384 1.74375895 3.88396882 4.58583302 5.0625 8.0625 C5.0625 9.3825 5.0625 10.7025 5.0625 12.0625 C2.0925 11.5675 2.0925 11.5675 -0.9375 11.0625 C-1.9275 8.0925 -2.9175 5.1225 -3.9375 2.0625 C-1.9375 0.0625 -1.9375 0.0625 0 0 Z " fill="#2361E5" transform="translate(59.9375,7.9375)"/>
<path d="M0 0 C0.66 0 1.32 0 2 0 C2 7.92 2 15.84 2 24 C1.34 24 0.68 24 0 24 C0 16.08 0 8.16 0 0 Z " fill="#2E55BD" transform="translate(102,9)"/>
<path d="M0 0 C2.97 0.495 2.97 0.495 6 1 C5.67 2.65 5.34 4.3 5 6 C2.03 6.66 -0.94 7.32 -4 8 C-3.67 6.68 -3.34 5.36 -3 4 C-2.34 4 -1.68 4 -1 4 C-0.67 2.68 -0.34 1.36 0 0 Z " fill="#0ECEA6" transform="translate(40,21)"/>
<path d="M0 0 C0.66 0 1.32 0 2 0 C2 0.66 2 1.32 2 2 C7.41735797 2.93402724 10.80451575 3.20808081 16 1 C15.625 2.9375 15.625 2.9375 15 5 C11.78475231 6.60762385 8.47664719 6.61821833 5 6 C2 3.5625 2 3.5625 0 1 C0 0.67 0 0.34 0 0 Z " fill="#0F4FC3" transform="translate(145,27)"/>
<path d="M0 0 C0 0.66 0 1.32 0 2 C-2.31 2.66 -4.62 3.32 -7 4 C-7 4.99 -7 5.98 -7 7 C-7 7.66 -7 8.32 -7 9 C-8.65 9 -10.3 9 -12 9 C-11.52 3.6 -11.52 3.6 -9.375 1.125 C-6.16894306 -0.39365855 -3.49954689 -0.20189694 0 0 Z " fill="#1767EB" transform="translate(157,15)"/>
<path d="M0 0 C1.65 0 3.3 0 5 0 C3.94124926 3.40312738 2.99097846 6.01353231 1 9 C-2.125 9.6875 -2.125 9.6875 -5 10 C-5.33 9.01 -5.66 8.02 -6 7 C-4.7934375 6.6596875 -4.7934375 6.6596875 -3.5625 6.3125 C-2.716875 5.879375 -1.87125 5.44625 -1 5 C-0.10613836 2.45224694 -0.10613836 2.45224694 0 0 Z " fill="#0B4AC2" transform="translate(132,30)"/>
<path d="M0 0 C0.33 0.66 0.66 1.32 1 2 C1.66 2.33 2.32 2.66 3 3 C2.01 3.33 1.02 3.66 0 4 C-1.4783226 6.95664519 -1.06032783 9.74229737 -1 13 C-2.32 13 -3.64 13 -5 13 C-5.61538462 5.73846154 -5.61538462 5.73846154 -2.5 2 C-1.675 1.34 -0.85 0.68 0 0 Z " fill="#1059D3" transform="translate(170,15)"/>
<path d="M0 0 C1.77049689 -0.05410687 3.54146849 -0.09284119 5.3125 -0.125 C6.29863281 -0.14820313 7.28476563 -0.17140625 8.30078125 -0.1953125 C11 0 11 0 14 2 C14.1875 4.625 14.1875 4.625 14 7 C13.34 7 12.68 7 12 7 C11.46375 6.34 10.9275 5.68 10.375 5 C6.8902683 2.0654891 4.46447272 2.70236849 0 3 C0 2.01 0 1.02 0 0 Z " fill="#1A68F4" transform="translate(83,9)"/>
<path d="M0 0 C0.99 0.66 1.98 1.32 3 2 C2.34 3.32 1.68 4.64 1 6 C0.34 6 -0.32 6 -1 6 C-1.4021875 7.1446875 -1.4021875 7.1446875 -1.8125 8.3125 C-2.94424112 10.87380884 -3.91223401 12.19692938 -6 14 C-6.33 12.68 -6.66 11.36 -7 10 C-6.01 10 -5.02 10 -4 10 C-4.33 8.68 -4.66 7.36 -5 6 C-4.34 6 -3.68 6 -3 6 C-3 5.34 -3 4.68 -3 4 C-2.34 4 -1.68 4 -1 4 C-0.67 2.68 -0.34 1.36 0 0 Z " fill="#E4CE37" transform="translate(37,18)"/>
<path d="M0 0 C0.33 0 0.66 0 1 0 C0.25 6.75 0.25 6.75 -2 9 C-4.32275177 9.40047444 -6.65739357 9.7397104 -9 10 C-9.66 9.01 -10.32 8.02 -11 7 C-8.36 6.67 -5.72 6.34 -3 6 C-2.67 5.01 -2.34 4.02 -2 3 C-1.34 3 -0.68 3 0 3 C0 2.01 0 1.02 0 0 Z " fill="#1C5DD0" transform="translate(97,13)"/>
<path d="M0 0 C2 0 4 0 6 0 C5.125 4.75 5.125 4.75 4 7 C2.68 7 1.36 7 0 7 C-1.125 2.25 -1.125 2.25 0 0 Z " fill="#1960DC" transform="translate(70,16)"/>
<path d="M0 0 C0.33 0.66 0.66 1.32 1 2 C4.3 1.67 7.6 1.34 11 1 C11 2.98 11 4.96 11 7 C10.01 7 9.02 7 8 7 C6.66018514 7.3062434 5.32488113 7.63451555 4 8 C5.32 6.35 6.64 4.7 8 3 C5.36 3 2.72 3 0 3 C0 2.01 0 1.02 0 0 Z " fill="#0F58CA" transform="translate(112,23)"/>
<path d="M0 0 C2.31 0 4.62 0 7 0 C7.33 1.65 7.66 3.3 8 5 C6.68 5 5.36 5 4 5 C3.67 5.66 3.34 6.32 3 7 C2.01 4.69 1.02 2.38 0 0 Z " fill="#0E5AD7" transform="translate(59,19)"/>
<path d="M0 0 C0 3.92823101 -1.51754449 5.06618894 -4 8 C-4.33 8.66 -4.66 9.32 -5 10 C-5.66 10 -6.32 10 -7 10 C-7 9.01 -7 8.02 -7 7 C-7.66 6.67 -8.32 6.34 -9 6 C-6 4 -3 2 0 0 Z " fill="#EB0635" transform="translate(23,16)"/>
<path d="M0 0 C0.33 0.66 0.66 1.32 1 2 C-1.97 2 -4.94 2 -8 2 C-7.67 3.32 -7.34 4.64 -7 6 C-7.66 6 -8.32 6 -9 6 C-9 5.34 -9 4.68 -9 4 C-9.66 4 -10.32 4 -11 4 C-11 3.01 -11 2.02 -11 1 C-7.26562152 0.12132271 -3.83225427 -0.08912219 0 0 Z " fill="#0F58E0" transform="translate(156,23)"/>
<path d="M0 0 C2.1385485 2.1385485 2.42655063 3.13275314 3 6 C3.66 6 4.32 6 5 6 C5 6.99 5 7.98 5 9 C2.03 8.505 2.03 8.505 -1 8 C-0.67 5.36 -0.34 2.72 0 0 Z " fill="#1362F0" transform="translate(60,11)"/>
<path d="M0 0 C3 0.3125 3 0.3125 6 1 C6.33 1.66 6.66 2.32 7 3 C6.0925 3.144375 5.185 3.28875 4.25 3.4375 C1.78523044 3.86409473 -0.58847107 4.35074221 -3 5 C-1.125 1.125 -1.125 1.125 0 0 Z " fill="#1C64DB" transform="translate(112,15)"/>
<path d="M0 0 C4.75 0.875 4.75 0.875 7 2 C7 2.99 7 3.98 7 5 C4.625 4.75 4.625 4.75 2 4 C0.6875 1.9375 0.6875 1.9375 0 0 Z " fill="#0B4EC1" transform="translate(166,28)"/>
<path d="M0 0 C2.31 0 4.62 0 7 0 C5.8125 2.4375 5.8125 2.4375 4 5 C1.3125 5.8125 1.3125 5.8125 -1 6 C-0.34 5.34 0.32 4.68 1 4 C0.6814823 1.89179203 0.6814823 1.89179203 0 0 Z " fill="#740B09" transform="translate(26,34)"/>
<path d="M0 0 C2.00720923 0.28674418 4.0085944 0.61866701 6 1 C5.67 2.65 5.34 4.3 5 6 C4.34 6 3.68 6 3 6 C2.566875 5.0409375 2.566875 5.0409375 2.125 4.0625 C1.17176549 1.84793921 1.17176549 1.84793921 -1 1 C-0.67 0.67 -0.34 0.34 0 0 Z " fill="#10CA97" transform="translate(40,21)"/>
<path d="M0 0 C0.99 0 1.98 0 3 0 C2.67 1.65 2.34 3.3 2 5 C0.68 5.33 -0.64 5.66 -2 6 C-2.33 4.68 -2.66 3.36 -3 2 C-2.34 2 -1.68 2 -1 2 C-0.67 1.34 -0.34 0.68 0 0 Z " fill="#0F5DDF" transform="translate(136,25)"/>
<path d="M0 0 C1.32 0.33 2.64 0.66 4 1 C4.625 2.8125 4.625 2.8125 5 5 C4.01 6.485 4.01 6.485 3 8 C0 2.25 0 2.25 0 0 Z " fill="#176AEE" transform="translate(126,15)"/>
<path d="M0 0 C1.65 0 3.3 0 5 0 C5 0.66 5 1.32 5 2 C5.66 2.33 6.32 2.66 7 3 C5.35 3.33 3.7 3.66 2 4 C1.34 2.68 0.68 1.36 0 0 Z " fill="#A60B24" transform="translate(21,35)"/>
</svg>
