<svg id="linkedin" xmlns="http://www.w3.org/2000/svg" width="29" height="29" viewBox="0 0 29 29">
  <rect id="background" width="29" height="29" rx="4" fill="#0277b5"/>
  <g id="icon" transform="translate(5.398 5.334)">
    <path id="Path_110025" data-name="Path 110025" d="M38.4,35.5A2.5,2.5,0,1,1,35.9,33,2.5,2.5,0,0,1,38.4,35.5Z" transform="translate(-33.4 -33)" fill="#fff"/>
    <path id="Path_110026" data-name="Path 110026" d="M40.633,69.9V80.944a.618.618,0,0,1-.618.622H37.38a.618.618,0,0,1-.62-.62V69.9a.62.62,0,0,1,.62-.62h2.635A.62.62,0,0,1,40.633,69.9Z" transform="translate(-36.2 -63.234)" fill="#fff"/>
    <path id="Path_110027" data-name="Path 110027" d="M82.5,74.733v5.346a.568.568,0,0,1-.57.57H79.095a.568.568,0,0,1-.57-.57V74.9c0-.773.227-3.387-2.022-3.387-1.742,0-2.1,1.788-2.167,2.592v5.976a.57.57,0,0,1-.562.57H71.038a.568.568,0,0,1-.568-.57V68.935a.568.568,0,0,1,.568-.57h2.737a.57.57,0,0,1,.57.57V69.9a3.879,3.879,0,0,1,3.65-1.718C82.524,68.18,82.5,72.41,82.5,74.733Z" transform="translate(-64.292 -62.317)" fill="#fff"/>
  </g>
</svg>
